<?xml version="1.0" encoding="utf-8" standalone="no"?>
<!DOCTYPE svg PUBLIC "-//W3C//DTD SVG 1.1//EN"
  "http://www.w3.org/Graphics/SVG/1.1/DTD/svg11.dtd">
<!-- Created with matplotlib (https://matplotlib.org/) -->
<svg height="288pt" version="1.1" viewBox="0 0 216 288" width="216pt" xmlns="http://www.w3.org/2000/svg" xmlns:xlink="http://www.w3.org/1999/xlink">
 <metadata>
  <rdf:RDF xmlns:cc="http://creativecommons.org/ns#" xmlns:dc="http://purl.org/dc/elements/1.1/" xmlns:rdf="http://www.w3.org/1999/02/22-rdf-syntax-ns#">
   <cc:Work>
    <dc:type rdf:resource="http://purl.org/dc/dcmitype/StillImage"/>
    <dc:date>2023-05-08T18:34:56.034055</dc:date>
    <dc:format>image/svg+xml</dc:format>
    <dc:creator>
     <cc:Agent>
      <dc:title>Matplotlib v3.3.4, https://matplotlib.org/</dc:title>
     </cc:Agent>
    </dc:creator>
   </cc:Work>
  </rdf:RDF>
 </metadata>
 <defs>
  <style type="text/css">*{stroke-linecap:butt;stroke-linejoin:round;}</style>
 </defs>
 <g id="figure_1">
  <g id="patch_1">
   <path d="M 0 288 
L 216 288 
L 216 0 
L 0 0 
z
" style="fill:#ffffff;"/>
  </g>
  <g id="axes_1">
   <g id="patch_2">
    <path d="M 27 252 
L 194.4 252 
L 194.4 34.56 
L 27 34.56 
z
" style="fill:#ffffff;"/>
   </g>
   <g id="matplotlib.axis_1">
    <g id="xtick_1">
     <g id="line2d_1">
      <path clip-path="url(#pdeb51692a6)" d="M 59.972727 252 
L 59.972727 34.56 
" style="fill:none;stroke:#cccccc;stroke-linecap:round;"/>
     </g>
     <g id="text_1">
      <!-- 2 -->
      <g style="fill:#262626;" transform="translate(56.914212 269.373594)scale(0.11 -0.11)">
       <defs>
        <path d="M 50.34375 8.453125 
L 50.34375 0 
L 3.03125 0 
Q 2.9375 3.171875 4.046875 6.109375 
Q 5.859375 10.9375 9.828125 15.625 
Q 13.8125 20.3125 21.34375 26.46875 
Q 33.015625 36.03125 37.109375 41.625 
Q 41.21875 47.21875 41.21875 52.203125 
Q 41.21875 57.421875 37.46875 61 
Q 33.734375 64.59375 27.734375 64.59375 
Q 21.390625 64.59375 17.578125 60.78125 
Q 13.765625 56.984375 13.71875 50.25 
L 4.6875 51.171875 
Q 5.609375 61.28125 11.65625 66.578125 
Q 17.71875 71.875 27.9375 71.875 
Q 38.234375 71.875 44.234375 66.15625 
Q 50.25 60.453125 50.25 52 
Q 50.25 47.703125 48.484375 43.546875 
Q 46.734375 39.40625 42.65625 34.8125 
Q 38.578125 30.21875 29.109375 22.21875 
Q 21.1875 15.578125 18.9375 13.203125 
Q 16.703125 10.84375 15.234375 8.453125 
z
" id="ArialMT-50"/>
       </defs>
       <use xlink:href="#ArialMT-50"/>
      </g>
     </g>
    </g>
    <g id="xtick_2">
     <g id="line2d_2">
      <path clip-path="url(#pdeb51692a6)" d="M 110.7 252 
L 110.7 34.56 
" style="fill:none;stroke:#cccccc;stroke-linecap:round;"/>
     </g>
     <g id="text_2">
      <!-- 4 -->
      <g style="fill:#262626;" transform="translate(107.641484 269.373594)scale(0.11 -0.11)">
       <defs>
        <path d="M 32.328125 0 
L 32.328125 17.140625 
L 1.265625 17.140625 
L 1.265625 25.203125 
L 33.9375 71.578125 
L 41.109375 71.578125 
L 41.109375 25.203125 
L 50.78125 25.203125 
L 50.78125 17.140625 
L 41.109375 17.140625 
L 41.109375 0 
z
M 32.328125 25.203125 
L 32.328125 57.46875 
L 9.90625 25.203125 
z
" id="ArialMT-52"/>
       </defs>
       <use xlink:href="#ArialMT-52"/>
      </g>
     </g>
    </g>
    <g id="xtick_3">
     <g id="line2d_3">
      <path clip-path="url(#pdeb51692a6)" d="M 161.427273 252 
L 161.427273 34.56 
" style="fill:none;stroke:#cccccc;stroke-linecap:round;"/>
     </g>
     <g id="text_3">
      <!-- 6 -->
      <g style="fill:#262626;" transform="translate(158.368757 269.373594)scale(0.11 -0.11)">
       <defs>
        <path d="M 49.75 54.046875 
L 41.015625 53.375 
Q 39.84375 58.546875 37.703125 60.890625 
Q 34.125 64.65625 28.90625 64.65625 
Q 24.703125 64.65625 21.53125 62.3125 
Q 17.390625 59.28125 14.984375 53.46875 
Q 12.59375 47.65625 12.5 36.921875 
Q 15.671875 41.75 20.265625 44.09375 
Q 24.859375 46.4375 29.890625 46.4375 
Q 38.671875 46.4375 44.84375 39.96875 
Q 51.03125 33.5 51.03125 23.25 
Q 51.03125 16.5 48.125 10.71875 
Q 45.21875 4.9375 40.140625 1.859375 
Q 35.0625 -1.21875 28.609375 -1.21875 
Q 17.625 -1.21875 10.6875 6.859375 
Q 3.765625 14.9375 3.765625 33.5 
Q 3.765625 54.25 11.421875 63.671875 
Q 18.109375 71.875 29.4375 71.875 
Q 37.890625 71.875 43.28125 67.140625 
Q 48.6875 62.40625 49.75 54.046875 
z
M 13.875 23.1875 
Q 13.875 18.65625 15.796875 14.5 
Q 17.71875 10.359375 21.1875 8.171875 
Q 24.65625 6 28.46875 6 
Q 34.03125 6 38.03125 10.484375 
Q 42.046875 14.984375 42.046875 22.703125 
Q 42.046875 30.125 38.078125 34.390625 
Q 34.125 38.671875 28.125 38.671875 
Q 22.171875 38.671875 18.015625 34.390625 
Q 13.875 30.125 13.875 23.1875 
z
" id="ArialMT-54"/>
       </defs>
       <use xlink:href="#ArialMT-54"/>
      </g>
     </g>
    </g>
    <g id="text_4">
     <!-- rank -->
     <g style="fill:#262626;" transform="translate(99.029063 284.149219)scale(0.12 -0.12)">
      <defs>
       <path d="M 6.5 0 
L 6.5 51.859375 
L 14.40625 51.859375 
L 14.40625 44 
Q 17.4375 49.515625 20 51.265625 
Q 22.5625 53.03125 25.640625 53.03125 
Q 30.078125 53.03125 34.671875 50.203125 
L 31.640625 42.046875 
Q 28.421875 43.953125 25.203125 43.953125 
Q 22.3125 43.953125 20.015625 42.21875 
Q 17.71875 40.484375 16.75 37.40625 
Q 15.28125 32.71875 15.28125 27.15625 
L 15.28125 0 
z
" id="ArialMT-114"/>
       <path d="M 40.4375 6.390625 
Q 35.546875 2.25 31.03125 0.53125 
Q 26.515625 -1.171875 21.34375 -1.171875 
Q 12.796875 -1.171875 8.203125 3 
Q 3.609375 7.171875 3.609375 13.671875 
Q 3.609375 17.484375 5.34375 20.625 
Q 7.078125 23.78125 9.890625 25.6875 
Q 12.703125 27.59375 16.21875 28.5625 
Q 18.796875 29.25 24.03125 29.890625 
Q 34.671875 31.15625 39.703125 32.90625 
Q 39.75 34.71875 39.75 35.203125 
Q 39.75 40.578125 37.25 42.78125 
Q 33.890625 45.75 27.25 45.75 
Q 21.046875 45.75 18.09375 43.578125 
Q 15.140625 41.40625 13.71875 35.890625 
L 5.125 37.0625 
Q 6.296875 42.578125 8.984375 45.96875 
Q 11.671875 49.359375 16.75 51.1875 
Q 21.828125 53.03125 28.515625 53.03125 
Q 35.15625 53.03125 39.296875 51.46875 
Q 43.453125 49.90625 45.40625 47.53125 
Q 47.359375 45.171875 48.140625 41.546875 
Q 48.578125 39.3125 48.578125 33.453125 
L 48.578125 21.734375 
Q 48.578125 9.46875 49.140625 6.21875 
Q 49.703125 2.984375 51.375 0 
L 42.1875 0 
Q 40.828125 2.734375 40.4375 6.390625 
z
M 39.703125 26.03125 
Q 34.90625 24.078125 25.34375 22.703125 
Q 19.921875 21.921875 17.671875 20.9375 
Q 15.4375 19.96875 14.203125 18.09375 
Q 12.984375 16.21875 12.984375 13.921875 
Q 12.984375 10.40625 15.640625 8.0625 
Q 18.3125 5.71875 23.4375 5.71875 
Q 28.515625 5.71875 32.46875 7.9375 
Q 36.421875 10.15625 38.28125 14.015625 
Q 39.703125 17 39.703125 22.796875 
z
" id="ArialMT-97"/>
       <path d="M 6.59375 0 
L 6.59375 51.859375 
L 14.5 51.859375 
L 14.5 44.484375 
Q 20.21875 53.03125 31 53.03125 
Q 35.6875 53.03125 39.625 51.34375 
Q 43.5625 49.65625 45.515625 46.921875 
Q 47.46875 44.1875 48.25 40.4375 
Q 48.734375 37.984375 48.734375 31.890625 
L 48.734375 0 
L 39.9375 0 
L 39.9375 31.546875 
Q 39.9375 36.921875 38.90625 39.578125 
Q 37.890625 42.234375 35.28125 43.8125 
Q 32.671875 45.40625 29.15625 45.40625 
Q 23.53125 45.40625 19.453125 41.84375 
Q 15.375 38.28125 15.375 28.328125 
L 15.375 0 
z
" id="ArialMT-110"/>
       <path d="M 6.640625 0 
L 6.640625 71.578125 
L 15.4375 71.578125 
L 15.4375 30.765625 
L 36.234375 51.859375 
L 47.609375 51.859375 
L 27.78125 32.625 
L 49.609375 0 
L 38.765625 0 
L 21.625 26.515625 
L 15.4375 20.5625 
L 15.4375 0 
z
" id="ArialMT-107"/>
      </defs>
      <use xlink:href="#ArialMT-114"/>
      <use x="33.300781" xlink:href="#ArialMT-97"/>
      <use x="88.916016" xlink:href="#ArialMT-110"/>
      <use x="144.53125" xlink:href="#ArialMT-107"/>
     </g>
    </g>
   </g>
   <g id="matplotlib.axis_2">
    <g id="ytick_1">
     <g id="text_5">
      <!-- Calvin cycle -->
      <g style="fill:#262626;" transform="translate(-41.183281 54.095257)scale(0.11 -0.11)">
       <defs>
        <path d="M 58.796875 25.09375 
L 68.265625 22.703125 
Q 65.28125 11.03125 57.546875 4.90625 
Q 49.8125 -1.21875 38.625 -1.21875 
Q 27.046875 -1.21875 19.796875 3.484375 
Q 12.546875 8.203125 8.765625 17.140625 
Q 4.984375 26.078125 4.984375 36.328125 
Q 4.984375 47.515625 9.25 55.828125 
Q 13.53125 64.15625 21.40625 68.46875 
Q 29.296875 72.796875 38.765625 72.796875 
Q 49.515625 72.796875 56.828125 67.328125 
Q 64.15625 61.859375 67.046875 51.953125 
L 57.71875 49.75 
Q 55.21875 57.5625 50.484375 61.125 
Q 45.75 64.703125 38.578125 64.703125 
Q 30.328125 64.703125 24.78125 60.734375 
Q 19.234375 56.78125 16.984375 50.109375 
Q 14.75 43.453125 14.75 36.375 
Q 14.75 27.25 17.40625 20.4375 
Q 20.0625 13.625 25.671875 10.25 
Q 31.296875 6.890625 37.84375 6.890625 
Q 45.796875 6.890625 51.3125 11.46875 
Q 56.84375 16.0625 58.796875 25.09375 
z
" id="ArialMT-67"/>
        <path d="M 6.390625 0 
L 6.390625 71.578125 
L 15.1875 71.578125 
L 15.1875 0 
z
" id="ArialMT-108"/>
        <path d="M 21 0 
L 1.265625 51.859375 
L 10.546875 51.859375 
L 21.6875 20.796875 
Q 23.484375 15.765625 25 10.359375 
Q 26.171875 14.453125 28.265625 20.21875 
L 39.796875 51.859375 
L 48.828125 51.859375 
L 29.203125 0 
z
" id="ArialMT-118"/>
        <path d="M 6.640625 61.46875 
L 6.640625 71.578125 
L 15.4375 71.578125 
L 15.4375 61.46875 
z
M 6.640625 0 
L 6.640625 51.859375 
L 15.4375 51.859375 
L 15.4375 0 
z
" id="ArialMT-105"/>
        <path id="ArialMT-32"/>
        <path d="M 40.4375 19 
L 49.078125 17.875 
Q 47.65625 8.9375 41.8125 3.875 
Q 35.984375 -1.171875 27.484375 -1.171875 
Q 16.84375 -1.171875 10.375 5.78125 
Q 3.90625 12.75 3.90625 25.734375 
Q 3.90625 34.125 6.6875 40.421875 
Q 9.46875 46.734375 15.15625 49.875 
Q 20.84375 53.03125 27.546875 53.03125 
Q 35.984375 53.03125 41.359375 48.75 
Q 46.734375 44.484375 48.25 36.625 
L 39.703125 35.296875 
Q 38.484375 40.53125 35.375 43.15625 
Q 32.28125 45.796875 27.875 45.796875 
Q 21.234375 45.796875 17.078125 41.03125 
Q 12.9375 36.28125 12.9375 25.984375 
Q 12.9375 15.53125 16.9375 10.796875 
Q 20.953125 6.0625 27.390625 6.0625 
Q 32.5625 6.0625 36.03125 9.234375 
Q 39.5 12.40625 40.4375 19 
z
" id="ArialMT-99"/>
        <path d="M 6.203125 -19.96875 
L 5.21875 -11.71875 
Q 8.109375 -12.5 10.25 -12.5 
Q 13.1875 -12.5 14.9375 -11.515625 
Q 16.703125 -10.546875 17.828125 -8.796875 
Q 18.65625 -7.46875 20.515625 -2.25 
Q 20.75 -1.515625 21.296875 -0.09375 
L 1.609375 51.859375 
L 11.078125 51.859375 
L 21.875 21.828125 
Q 23.96875 16.109375 25.640625 9.8125 
Q 27.15625 15.875 29.25 21.625 
L 40.328125 51.859375 
L 49.125 51.859375 
L 29.390625 -0.875 
Q 26.21875 -9.421875 24.46875 -12.640625 
Q 22.125 -17 19.09375 -19.015625 
Q 16.0625 -21.046875 11.859375 -21.046875 
Q 9.328125 -21.046875 6.203125 -19.96875 
z
" id="ArialMT-121"/>
        <path d="M 42.09375 16.703125 
L 51.171875 15.578125 
Q 49.03125 7.625 43.21875 3.21875 
Q 37.40625 -1.171875 28.375 -1.171875 
Q 17 -1.171875 10.328125 5.828125 
Q 3.65625 12.84375 3.65625 25.484375 
Q 3.65625 38.578125 10.390625 45.796875 
Q 17.140625 53.03125 27.875 53.03125 
Q 38.28125 53.03125 44.875 45.953125 
Q 51.46875 38.875 51.46875 26.03125 
Q 51.46875 25.25 51.421875 23.6875 
L 12.75 23.6875 
Q 13.234375 15.140625 17.578125 10.59375 
Q 21.921875 6.0625 28.421875 6.0625 
Q 33.25 6.0625 36.671875 8.59375 
Q 40.09375 11.140625 42.09375 16.703125 
z
M 13.234375 30.90625 
L 42.1875 30.90625 
Q 41.609375 37.453125 38.875 40.71875 
Q 34.671875 45.796875 27.984375 45.796875 
Q 21.921875 45.796875 17.796875 41.75 
Q 13.671875 37.703125 13.234375 30.90625 
z
" id="ArialMT-101"/>
       </defs>
       <use xlink:href="#ArialMT-67"/>
       <use x="72.216797" xlink:href="#ArialMT-97"/>
       <use x="127.832031" xlink:href="#ArialMT-108"/>
       <use x="150.048828" xlink:href="#ArialMT-118"/>
       <use x="200.048828" xlink:href="#ArialMT-105"/>
       <use x="222.265625" xlink:href="#ArialMT-110"/>
       <use x="277.880859" xlink:href="#ArialMT-32"/>
       <use x="305.664062" xlink:href="#ArialMT-99"/>
       <use x="355.664062" xlink:href="#ArialMT-121"/>
       <use x="405.664062" xlink:href="#ArialMT-99"/>
       <use x="455.664062" xlink:href="#ArialMT-108"/>
       <use x="477.880859" xlink:href="#ArialMT-101"/>
      </g>
     </g>
    </g>
    <g id="ytick_2">
     <g id="text_6">
      <!-- Reductive citrate cycle -->
      <g style="fill:#262626;" transform="translate(-92.537813 85.091083)scale(0.11 -0.11)">
       <defs>
        <path d="M 7.859375 0 
L 7.859375 71.578125 
L 39.59375 71.578125 
Q 49.171875 71.578125 54.140625 69.640625 
Q 59.125 67.71875 62.109375 62.828125 
Q 65.09375 57.953125 65.09375 52.046875 
Q 65.09375 44.4375 60.15625 39.203125 
Q 55.21875 33.984375 44.921875 32.5625 
Q 48.6875 30.765625 50.640625 29 
Q 54.78125 25.203125 58.5 19.484375 
L 70.953125 0 
L 59.03125 0 
L 49.5625 14.890625 
Q 45.40625 21.34375 42.71875 24.75 
Q 40.046875 28.171875 37.921875 29.53125 
Q 35.796875 30.90625 33.59375 31.453125 
Q 31.984375 31.78125 28.328125 31.78125 
L 17.328125 31.78125 
L 17.328125 0 
z
M 17.328125 39.984375 
L 37.703125 39.984375 
Q 44.1875 39.984375 47.84375 41.328125 
Q 51.515625 42.671875 53.421875 45.625 
Q 55.328125 48.578125 55.328125 52.046875 
Q 55.328125 57.125 51.640625 60.390625 
Q 47.953125 63.671875 39.984375 63.671875 
L 17.328125 63.671875 
z
" id="ArialMT-82"/>
        <path d="M 40.234375 0 
L 40.234375 6.546875 
Q 35.296875 -1.171875 25.734375 -1.171875 
Q 19.53125 -1.171875 14.328125 2.25 
Q 9.125 5.671875 6.265625 11.796875 
Q 3.421875 17.921875 3.421875 25.875 
Q 3.421875 33.640625 6 39.96875 
Q 8.59375 46.296875 13.765625 49.65625 
Q 18.953125 53.03125 25.34375 53.03125 
Q 30.03125 53.03125 33.6875 51.046875 
Q 37.359375 49.078125 39.65625 45.90625 
L 39.65625 71.578125 
L 48.390625 71.578125 
L 48.390625 0 
z
M 12.453125 25.875 
Q 12.453125 15.921875 16.640625 10.984375 
Q 20.84375 6.0625 26.5625 6.0625 
Q 32.328125 6.0625 36.34375 10.765625 
Q 40.375 15.484375 40.375 25.140625 
Q 40.375 35.796875 36.265625 40.765625 
Q 32.171875 45.75 26.171875 45.75 
Q 20.3125 45.75 16.375 40.96875 
Q 12.453125 36.1875 12.453125 25.875 
z
" id="ArialMT-100"/>
        <path d="M 40.578125 0 
L 40.578125 7.625 
Q 34.515625 -1.171875 24.125 -1.171875 
Q 19.53125 -1.171875 15.546875 0.578125 
Q 11.578125 2.34375 9.640625 5 
Q 7.71875 7.671875 6.9375 11.53125 
Q 6.390625 14.109375 6.390625 19.734375 
L 6.390625 51.859375 
L 15.1875 51.859375 
L 15.1875 23.09375 
Q 15.1875 16.21875 15.71875 13.8125 
Q 16.546875 10.359375 19.234375 8.375 
Q 21.921875 6.390625 25.875 6.390625 
Q 29.828125 6.390625 33.296875 8.421875 
Q 36.765625 10.453125 38.203125 13.9375 
Q 39.65625 17.4375 39.65625 24.078125 
L 39.65625 51.859375 
L 48.4375 51.859375 
L 48.4375 0 
z
" id="ArialMT-117"/>
        <path d="M 25.78125 7.859375 
L 27.046875 0.09375 
Q 23.34375 -0.6875 20.40625 -0.6875 
Q 15.625 -0.6875 12.984375 0.828125 
Q 10.359375 2.34375 9.28125 4.8125 
Q 8.203125 7.28125 8.203125 15.1875 
L 8.203125 45.015625 
L 1.765625 45.015625 
L 1.765625 51.859375 
L 8.203125 51.859375 
L 8.203125 64.703125 
L 16.9375 69.96875 
L 16.9375 51.859375 
L 25.78125 51.859375 
L 25.78125 45.015625 
L 16.9375 45.015625 
L 16.9375 14.703125 
Q 16.9375 10.9375 17.40625 9.859375 
Q 17.875 8.796875 18.921875 8.15625 
Q 19.96875 7.515625 21.921875 7.515625 
Q 23.390625 7.515625 25.78125 7.859375 
z
" id="ArialMT-116"/>
       </defs>
       <use xlink:href="#ArialMT-82"/>
       <use x="72.216797" xlink:href="#ArialMT-101"/>
       <use x="127.832031" xlink:href="#ArialMT-100"/>
       <use x="183.447266" xlink:href="#ArialMT-117"/>
       <use x="239.0625" xlink:href="#ArialMT-99"/>
       <use x="289.0625" xlink:href="#ArialMT-116"/>
       <use x="316.845703" xlink:href="#ArialMT-105"/>
       <use x="339.0625" xlink:href="#ArialMT-118"/>
       <use x="389.0625" xlink:href="#ArialMT-101"/>
       <use x="444.677734" xlink:href="#ArialMT-32"/>
       <use x="472.460938" xlink:href="#ArialMT-99"/>
       <use x="522.460938" xlink:href="#ArialMT-105"/>
       <use x="544.677734" xlink:href="#ArialMT-116"/>
       <use x="572.460938" xlink:href="#ArialMT-114"/>
       <use x="605.761719" xlink:href="#ArialMT-97"/>
       <use x="661.376953" xlink:href="#ArialMT-116"/>
       <use x="689.160156" xlink:href="#ArialMT-101"/>
       <use x="744.775391" xlink:href="#ArialMT-32"/>
       <use x="772.558594" xlink:href="#ArialMT-99"/>
       <use x="822.558594" xlink:href="#ArialMT-121"/>
       <use x="872.558594" xlink:href="#ArialMT-99"/>
       <use x="922.558594" xlink:href="#ArialMT-108"/>
       <use x="944.775391" xlink:href="#ArialMT-101"/>
      </g>
     </g>
    </g>
    <g id="ytick_3">
     <g id="text_7">
      <!-- Reductive glycine pathway -->
      <g style="fill:#262626;" transform="translate(-112.731406 116.15394)scale(0.11 -0.11)">
       <defs>
        <path d="M 4.984375 -4.296875 
L 13.53125 -5.5625 
Q 14.0625 -9.515625 16.5 -11.328125 
Q 19.78125 -13.765625 25.4375 -13.765625 
Q 31.546875 -13.765625 34.859375 -11.328125 
Q 38.1875 -8.890625 39.359375 -4.5 
Q 40.046875 -1.8125 39.984375 6.78125 
Q 34.234375 0 25.640625 0 
Q 14.9375 0 9.078125 7.71875 
Q 3.21875 15.4375 3.21875 26.21875 
Q 3.21875 33.640625 5.90625 39.90625 
Q 8.59375 46.1875 13.6875 49.609375 
Q 18.796875 53.03125 25.6875 53.03125 
Q 34.859375 53.03125 40.828125 45.609375 
L 40.828125 51.859375 
L 48.921875 51.859375 
L 48.921875 7.03125 
Q 48.921875 -5.078125 46.453125 -10.125 
Q 44 -15.1875 38.640625 -18.109375 
Q 33.296875 -21.046875 25.484375 -21.046875 
Q 16.21875 -21.046875 10.5 -16.875 
Q 4.78125 -12.703125 4.984375 -4.296875 
z
M 12.25 26.859375 
Q 12.25 16.65625 16.296875 11.96875 
Q 20.359375 7.28125 26.46875 7.28125 
Q 32.515625 7.28125 36.609375 11.9375 
Q 40.71875 16.609375 40.71875 26.5625 
Q 40.71875 36.078125 36.5 40.90625 
Q 32.28125 45.75 26.3125 45.75 
Q 20.453125 45.75 16.34375 40.984375 
Q 12.25 36.234375 12.25 26.859375 
z
" id="ArialMT-103"/>
        <path d="M 6.59375 -19.875 
L 6.59375 51.859375 
L 14.59375 51.859375 
L 14.59375 45.125 
Q 17.4375 49.078125 21 51.046875 
Q 24.5625 53.03125 29.640625 53.03125 
Q 36.28125 53.03125 41.359375 49.609375 
Q 46.4375 46.1875 49.015625 39.953125 
Q 51.609375 33.734375 51.609375 26.3125 
Q 51.609375 18.359375 48.75 11.984375 
Q 45.90625 5.609375 40.453125 2.21875 
Q 35.015625 -1.171875 29 -1.171875 
Q 24.609375 -1.171875 21.109375 0.6875 
Q 17.625 2.546875 15.375 5.375 
L 15.375 -19.875 
z
M 14.546875 25.640625 
Q 14.546875 15.625 18.59375 10.84375 
Q 22.65625 6.0625 28.421875 6.0625 
Q 34.28125 6.0625 38.453125 11.015625 
Q 42.625 15.96875 42.625 26.375 
Q 42.625 36.28125 38.546875 41.203125 
Q 34.46875 46.140625 28.8125 46.140625 
Q 23.1875 46.140625 18.859375 40.890625 
Q 14.546875 35.640625 14.546875 25.640625 
z
" id="ArialMT-112"/>
        <path d="M 6.59375 0 
L 6.59375 71.578125 
L 15.375 71.578125 
L 15.375 45.90625 
Q 21.53125 53.03125 30.90625 53.03125 
Q 36.671875 53.03125 40.921875 50.75 
Q 45.171875 48.484375 47 44.484375 
Q 48.828125 40.484375 48.828125 32.859375 
L 48.828125 0 
L 40.046875 0 
L 40.046875 32.859375 
Q 40.046875 39.453125 37.1875 42.453125 
Q 34.328125 45.453125 29.109375 45.453125 
Q 25.203125 45.453125 21.75 43.421875 
Q 18.3125 41.40625 16.84375 37.9375 
Q 15.375 34.46875 15.375 28.375 
L 15.375 0 
z
" id="ArialMT-104"/>
        <path d="M 16.15625 0 
L 0.296875 51.859375 
L 9.375 51.859375 
L 17.625 21.921875 
L 20.703125 10.796875 
Q 20.90625 11.625 23.390625 21.484375 
L 31.640625 51.859375 
L 40.671875 51.859375 
L 48.4375 21.78125 
L 51.03125 11.859375 
L 54 21.875 
L 62.890625 51.859375 
L 71.4375 51.859375 
L 55.21875 0 
L 46.09375 0 
L 37.84375 31.0625 
L 35.84375 39.890625 
L 25.34375 0 
z
" id="ArialMT-119"/>
       </defs>
       <use xlink:href="#ArialMT-82"/>
       <use x="72.216797" xlink:href="#ArialMT-101"/>
       <use x="127.832031" xlink:href="#ArialMT-100"/>
       <use x="183.447266" xlink:href="#ArialMT-117"/>
       <use x="239.0625" xlink:href="#ArialMT-99"/>
       <use x="289.0625" xlink:href="#ArialMT-116"/>
       <use x="316.845703" xlink:href="#ArialMT-105"/>
       <use x="339.0625" xlink:href="#ArialMT-118"/>
       <use x="389.0625" xlink:href="#ArialMT-101"/>
       <use x="444.677734" xlink:href="#ArialMT-32"/>
       <use x="472.460938" xlink:href="#ArialMT-103"/>
       <use x="528.076172" xlink:href="#ArialMT-108"/>
       <use x="550.292969" xlink:href="#ArialMT-121"/>
       <use x="600.292969" xlink:href="#ArialMT-99"/>
       <use x="650.292969" xlink:href="#ArialMT-105"/>
       <use x="672.509766" xlink:href="#ArialMT-110"/>
       <use x="728.125" xlink:href="#ArialMT-101"/>
       <use x="783.740234" xlink:href="#ArialMT-32"/>
       <use x="811.523438" xlink:href="#ArialMT-112"/>
       <use x="867.138672" xlink:href="#ArialMT-97"/>
       <use x="922.753906" xlink:href="#ArialMT-116"/>
       <use x="950.537109" xlink:href="#ArialMT-104"/>
       <use x="1006.152344" xlink:href="#ArialMT-119"/>
       <use x="1078.369141" xlink:href="#ArialMT-97"/>
       <use x="1133.984375" xlink:href="#ArialMT-121"/>
      </g>
     </g>
    </g>
    <g id="ytick_4">
     <g id="text_8">
      <!-- Reductive acetyl-CoA pathway -->
      <g style="fill:#262626;" transform="translate(-131.682344 147.283828)scale(0.11 -0.11)">
       <defs>
        <path d="M 3.171875 21.484375 
L 3.171875 30.328125 
L 30.171875 30.328125 
L 30.171875 21.484375 
z
" id="ArialMT-45"/>
        <path d="M 3.328125 25.921875 
Q 3.328125 40.328125 11.328125 47.265625 
Q 18.015625 53.03125 27.640625 53.03125 
Q 38.328125 53.03125 45.109375 46.015625 
Q 51.90625 39.015625 51.90625 26.65625 
Q 51.90625 16.65625 48.90625 10.90625 
Q 45.90625 5.171875 40.15625 2 
Q 34.421875 -1.171875 27.640625 -1.171875 
Q 16.75 -1.171875 10.03125 5.8125 
Q 3.328125 12.796875 3.328125 25.921875 
z
M 12.359375 25.921875 
Q 12.359375 15.96875 16.703125 11.015625 
Q 21.046875 6.0625 27.640625 6.0625 
Q 34.1875 6.0625 38.53125 11.03125 
Q 42.875 16.015625 42.875 26.21875 
Q 42.875 35.84375 38.5 40.796875 
Q 34.125 45.75 27.640625 45.75 
Q 21.046875 45.75 16.703125 40.8125 
Q 12.359375 35.890625 12.359375 25.921875 
z
" id="ArialMT-111"/>
        <path d="M -0.140625 0 
L 27.34375 71.578125 
L 37.546875 71.578125 
L 66.84375 0 
L 56.0625 0 
L 47.703125 21.6875 
L 17.78125 21.6875 
L 9.90625 0 
z
M 20.515625 29.390625 
L 44.78125 29.390625 
L 37.3125 49.21875 
Q 33.890625 58.25 32.234375 64.0625 
Q 30.859375 57.171875 28.375 50.390625 
z
" id="ArialMT-65"/>
       </defs>
       <use xlink:href="#ArialMT-82"/>
       <use x="72.216797" xlink:href="#ArialMT-101"/>
       <use x="127.832031" xlink:href="#ArialMT-100"/>
       <use x="183.447266" xlink:href="#ArialMT-117"/>
       <use x="239.0625" xlink:href="#ArialMT-99"/>
       <use x="289.0625" xlink:href="#ArialMT-116"/>
       <use x="316.845703" xlink:href="#ArialMT-105"/>
       <use x="339.0625" xlink:href="#ArialMT-118"/>
       <use x="389.0625" xlink:href="#ArialMT-101"/>
       <use x="444.677734" xlink:href="#ArialMT-32"/>
       <use x="472.460938" xlink:href="#ArialMT-97"/>
       <use x="528.076172" xlink:href="#ArialMT-99"/>
       <use x="578.076172" xlink:href="#ArialMT-101"/>
       <use x="633.691406" xlink:href="#ArialMT-116"/>
       <use x="661.474609" xlink:href="#ArialMT-121"/>
       <use x="711.474609" xlink:href="#ArialMT-108"/>
       <use x="733.691406" xlink:href="#ArialMT-45"/>
       <use x="766.992188" xlink:href="#ArialMT-67"/>
       <use x="839.208984" xlink:href="#ArialMT-111"/>
       <use x="894.824219" xlink:href="#ArialMT-65"/>
       <use x="956.023438" xlink:href="#ArialMT-32"/>
       <use x="983.806641" xlink:href="#ArialMT-112"/>
       <use x="1039.421875" xlink:href="#ArialMT-97"/>
       <use x="1095.037109" xlink:href="#ArialMT-116"/>
       <use x="1122.820312" xlink:href="#ArialMT-104"/>
       <use x="1178.435547" xlink:href="#ArialMT-119"/>
       <use x="1250.652344" xlink:href="#ArialMT-97"/>
       <use x="1306.267578" xlink:href="#ArialMT-121"/>
      </g>
     </g>
    </g>
    <g id="ytick_5">
     <g id="text_9">
      <!-- Dicarboxylate-hydroxybutyrate cycle -->
      <g style="fill:#262626;" transform="translate(-159.172031 178.279654)scale(0.11 -0.11)">
       <defs>
        <path d="M 7.71875 0 
L 7.71875 71.578125 
L 32.375 71.578125 
Q 40.71875 71.578125 45.125 70.5625 
Q 51.265625 69.140625 55.609375 65.4375 
Q 61.28125 60.640625 64.078125 53.1875 
Q 66.890625 45.75 66.890625 36.1875 
Q 66.890625 28.03125 64.984375 21.734375 
Q 63.09375 15.4375 60.109375 11.296875 
Q 57.125 7.171875 53.578125 4.796875 
Q 50.046875 2.4375 45.046875 1.21875 
Q 40.046875 0 33.546875 0 
z
M 17.1875 8.453125 
L 32.46875 8.453125 
Q 39.546875 8.453125 43.578125 9.765625 
Q 47.609375 11.078125 50 13.484375 
Q 53.375 16.84375 55.25 22.53125 
Q 57.125 28.21875 57.125 36.328125 
Q 57.125 47.5625 53.4375 53.59375 
Q 49.75 59.625 44.484375 61.671875 
Q 40.671875 63.140625 32.234375 63.140625 
L 17.1875 63.140625 
z
" id="ArialMT-68"/>
        <path d="M 14.703125 0 
L 6.546875 0 
L 6.546875 71.578125 
L 15.328125 71.578125 
L 15.328125 46.046875 
Q 20.90625 53.03125 29.546875 53.03125 
Q 34.328125 53.03125 38.59375 51.09375 
Q 42.875 49.171875 45.625 45.671875 
Q 48.390625 42.1875 49.953125 37.25 
Q 51.515625 32.328125 51.515625 26.703125 
Q 51.515625 13.375 44.921875 6.09375 
Q 38.328125 -1.171875 29.109375 -1.171875 
Q 19.921875 -1.171875 14.703125 6.5 
z
M 14.59375 26.3125 
Q 14.59375 17 17.140625 12.84375 
Q 21.296875 6.0625 28.375 6.0625 
Q 34.125 6.0625 38.328125 11.0625 
Q 42.53125 16.0625 42.53125 25.984375 
Q 42.53125 36.140625 38.5 40.96875 
Q 34.46875 45.796875 28.765625 45.796875 
Q 23 45.796875 18.796875 40.796875 
Q 14.59375 35.796875 14.59375 26.3125 
z
" id="ArialMT-98"/>
        <path d="M 0.734375 0 
L 19.671875 26.953125 
L 2.15625 51.859375 
L 13.140625 51.859375 
L 21.09375 39.703125 
Q 23.34375 36.234375 24.703125 33.890625 
Q 26.859375 37.109375 28.65625 39.59375 
L 37.40625 51.859375 
L 47.90625 51.859375 
L 29.984375 27.4375 
L 49.265625 0 
L 38.484375 0 
L 27.828125 16.109375 
L 25 20.453125 
L 11.375 0 
z
" id="ArialMT-120"/>
       </defs>
       <use xlink:href="#ArialMT-68"/>
       <use x="72.216797" xlink:href="#ArialMT-105"/>
       <use x="94.433594" xlink:href="#ArialMT-99"/>
       <use x="144.433594" xlink:href="#ArialMT-97"/>
       <use x="200.048828" xlink:href="#ArialMT-114"/>
       <use x="233.349609" xlink:href="#ArialMT-98"/>
       <use x="288.964844" xlink:href="#ArialMT-111"/>
       <use x="344.580078" xlink:href="#ArialMT-120"/>
       <use x="394.580078" xlink:href="#ArialMT-121"/>
       <use x="444.580078" xlink:href="#ArialMT-108"/>
       <use x="466.796875" xlink:href="#ArialMT-97"/>
       <use x="522.412109" xlink:href="#ArialMT-116"/>
       <use x="550.195312" xlink:href="#ArialMT-101"/>
       <use x="605.810547" xlink:href="#ArialMT-45"/>
       <use x="639.111328" xlink:href="#ArialMT-104"/>
       <use x="694.726562" xlink:href="#ArialMT-121"/>
       <use x="744.726562" xlink:href="#ArialMT-100"/>
       <use x="800.341797" xlink:href="#ArialMT-114"/>
       <use x="833.642578" xlink:href="#ArialMT-111"/>
       <use x="889.257812" xlink:href="#ArialMT-120"/>
       <use x="939.257812" xlink:href="#ArialMT-121"/>
       <use x="989.257812" xlink:href="#ArialMT-98"/>
       <use x="1044.873047" xlink:href="#ArialMT-117"/>
       <use x="1100.488281" xlink:href="#ArialMT-116"/>
       <use x="1128.271484" xlink:href="#ArialMT-121"/>
       <use x="1178.271484" xlink:href="#ArialMT-114"/>
       <use x="1211.572266" xlink:href="#ArialMT-97"/>
       <use x="1267.1875" xlink:href="#ArialMT-116"/>
       <use x="1294.970703" xlink:href="#ArialMT-101"/>
       <use x="1350.585938" xlink:href="#ArialMT-32"/>
       <use x="1378.369141" xlink:href="#ArialMT-99"/>
       <use x="1428.369141" xlink:href="#ArialMT-121"/>
       <use x="1478.369141" xlink:href="#ArialMT-99"/>
       <use x="1528.369141" xlink:href="#ArialMT-108"/>
       <use x="1550.585938" xlink:href="#ArialMT-101"/>
      </g>
     </g>
    </g>
    <g id="ytick_6">
     <g id="text_10">
      <!-- Hydroxypropionate-hydroxybutylate cycle -->
      <g style="fill:#262626;" transform="translate(-183.640156 209.342511)scale(0.11 -0.11)">
       <defs>
        <path d="M 8.015625 0 
L 8.015625 71.578125 
L 17.484375 71.578125 
L 17.484375 42.1875 
L 54.6875 42.1875 
L 54.6875 71.578125 
L 64.15625 71.578125 
L 64.15625 0 
L 54.6875 0 
L 54.6875 33.734375 
L 17.484375 33.734375 
L 17.484375 0 
z
" id="ArialMT-72"/>
       </defs>
       <use xlink:href="#ArialMT-72"/>
       <use x="72.216797" xlink:href="#ArialMT-121"/>
       <use x="122.216797" xlink:href="#ArialMT-100"/>
       <use x="177.832031" xlink:href="#ArialMT-114"/>
       <use x="211.132812" xlink:href="#ArialMT-111"/>
       <use x="266.748047" xlink:href="#ArialMT-120"/>
       <use x="316.748047" xlink:href="#ArialMT-121"/>
       <use x="366.748047" xlink:href="#ArialMT-112"/>
       <use x="422.363281" xlink:href="#ArialMT-114"/>
       <use x="455.664062" xlink:href="#ArialMT-111"/>
       <use x="511.279297" xlink:href="#ArialMT-112"/>
       <use x="566.894531" xlink:href="#ArialMT-105"/>
       <use x="589.111328" xlink:href="#ArialMT-111"/>
       <use x="644.726562" xlink:href="#ArialMT-110"/>
       <use x="700.341797" xlink:href="#ArialMT-97"/>
       <use x="755.957031" xlink:href="#ArialMT-116"/>
       <use x="783.740234" xlink:href="#ArialMT-101"/>
       <use x="839.355469" xlink:href="#ArialMT-45"/>
       <use x="872.65625" xlink:href="#ArialMT-104"/>
       <use x="928.271484" xlink:href="#ArialMT-121"/>
       <use x="978.271484" xlink:href="#ArialMT-100"/>
       <use x="1033.886719" xlink:href="#ArialMT-114"/>
       <use x="1067.1875" xlink:href="#ArialMT-111"/>
       <use x="1122.802734" xlink:href="#ArialMT-120"/>
       <use x="1172.802734" xlink:href="#ArialMT-121"/>
       <use x="1222.802734" xlink:href="#ArialMT-98"/>
       <use x="1278.417969" xlink:href="#ArialMT-117"/>
       <use x="1334.033203" xlink:href="#ArialMT-116"/>
       <use x="1361.816406" xlink:href="#ArialMT-121"/>
       <use x="1411.816406" xlink:href="#ArialMT-108"/>
       <use x="1434.033203" xlink:href="#ArialMT-97"/>
       <use x="1489.648438" xlink:href="#ArialMT-116"/>
       <use x="1517.431641" xlink:href="#ArialMT-101"/>
       <use x="1573.046875" xlink:href="#ArialMT-32"/>
       <use x="1600.830078" xlink:href="#ArialMT-99"/>
       <use x="1650.830078" xlink:href="#ArialMT-121"/>
       <use x="1700.830078" xlink:href="#ArialMT-99"/>
       <use x="1750.830078" xlink:href="#ArialMT-108"/>
       <use x="1773.046875" xlink:href="#ArialMT-101"/>
      </g>
     </g>
    </g>
    <g id="ytick_7">
     <g id="text_11">
      <!-- Hydroxypropionate bi-cycle -->
      <g style="fill:#262626;" transform="translate(-115.163438 240.405368)scale(0.11 -0.11)">
       <use xlink:href="#ArialMT-72"/>
       <use x="72.216797" xlink:href="#ArialMT-121"/>
       <use x="122.216797" xlink:href="#ArialMT-100"/>
       <use x="177.832031" xlink:href="#ArialMT-114"/>
       <use x="211.132812" xlink:href="#ArialMT-111"/>
       <use x="266.748047" xlink:href="#ArialMT-120"/>
       <use x="316.748047" xlink:href="#ArialMT-121"/>
       <use x="366.748047" xlink:href="#ArialMT-112"/>
       <use x="422.363281" xlink:href="#ArialMT-114"/>
       <use x="455.664062" xlink:href="#ArialMT-111"/>
       <use x="511.279297" xlink:href="#ArialMT-112"/>
       <use x="566.894531" xlink:href="#ArialMT-105"/>
       <use x="589.111328" xlink:href="#ArialMT-111"/>
       <use x="644.726562" xlink:href="#ArialMT-110"/>
       <use x="700.341797" xlink:href="#ArialMT-97"/>
       <use x="755.957031" xlink:href="#ArialMT-116"/>
       <use x="783.740234" xlink:href="#ArialMT-101"/>
       <use x="839.355469" xlink:href="#ArialMT-32"/>
       <use x="867.138672" xlink:href="#ArialMT-98"/>
       <use x="922.753906" xlink:href="#ArialMT-105"/>
       <use x="944.970703" xlink:href="#ArialMT-45"/>
       <use x="978.271484" xlink:href="#ArialMT-99"/>
       <use x="1028.271484" xlink:href="#ArialMT-121"/>
       <use x="1078.271484" xlink:href="#ArialMT-99"/>
       <use x="1128.271484" xlink:href="#ArialMT-108"/>
       <use x="1150.488281" xlink:href="#ArialMT-101"/>
      </g>
     </g>
    </g>
    <g id="text_12">
     <!-- Pathway -->
     <g style="fill:#262626;" transform="translate(-190.165781 166.291875)rotate(-90)scale(0.12 -0.12)">
      <defs>
       <path d="M 7.71875 0 
L 7.71875 71.578125 
L 34.71875 71.578125 
Q 41.84375 71.578125 45.609375 70.90625 
Q 50.875 70.015625 54.4375 67.546875 
Q 58.015625 65.09375 60.1875 60.640625 
Q 62.359375 56.203125 62.359375 50.875 
Q 62.359375 41.75 56.546875 35.421875 
Q 50.734375 29.109375 35.546875 29.109375 
L 17.1875 29.109375 
L 17.1875 0 
z
M 17.1875 37.546875 
L 35.6875 37.546875 
Q 44.875 37.546875 48.734375 40.96875 
Q 52.59375 44.390625 52.59375 50.59375 
Q 52.59375 55.078125 50.3125 58.265625 
Q 48.046875 61.46875 44.34375 62.5 
Q 41.9375 63.140625 35.5 63.140625 
L 17.1875 63.140625 
z
" id="ArialMT-80"/>
      </defs>
      <use xlink:href="#ArialMT-80"/>
      <use x="66.699219" xlink:href="#ArialMT-97"/>
      <use x="122.314453" xlink:href="#ArialMT-116"/>
      <use x="150.097656" xlink:href="#ArialMT-104"/>
      <use x="205.712891" xlink:href="#ArialMT-119"/>
      <use x="277.929688" xlink:href="#ArialMT-97"/>
      <use x="333.544922" xlink:href="#ArialMT-121"/>
     </g>
    </g>
   </g>
   <g id="PolyCollection_1">
    <defs>
     <path d="M 83.245315 -174.504627 
L 83.245315 -177.061087 
L 83.799955 -178.991172 
L 84.354595 -181.860375 
L 84.909235 -184.471593 
L 85.463875 -185.157787 
L 86.018515 -183.417004 
L 86.573155 -180.474599 
L 87.127795 -177.959007 
L 87.682435 -176.544628 
L 88.237076 -175.98411 
L 88.791716 -175.822984 
L 89.346356 -175.788895 
L 89.900996 -175.783543 
L 90.455636 -175.782916 
L 91.010276 -175.782861 
L 91.564916 -175.782857 
L 92.119556 -175.782857 
L 92.674196 -175.782857 
L 93.228837 -175.782857 
L 93.783477 -175.782857 
L 94.338117 -175.782857 
L 94.892757 -175.782857 
L 95.447397 -175.782857 
L 96.002037 -175.782857 
L 96.556677 -175.782857 
L 97.111317 -175.782857 
L 97.665957 -175.782857 
L 98.220598 -175.782857 
L 98.775238 -175.782857 
L 99.329878 -175.782857 
L 99.884518 -175.782857 
L 100.439158 -175.782857 
L 100.993798 -175.782857 
L 101.548438 -175.782857 
L 102.103078 -175.782857 
L 102.657718 -175.782857 
L 103.212359 -175.782857 
L 103.766999 -175.782857 
L 104.321639 -175.782857 
L 104.876279 -175.782857 
L 105.430919 -175.782859 
L 105.985559 -175.782876 
L 106.540199 -175.783039 
L 107.094839 -175.784158 
L 107.649479 -175.789898 
L 108.20412 -175.811611 
L 108.75876 -175.871487 
L 109.3134 -175.989031 
L 109.86804 -176.144827 
L 110.42268 -176.26247 
L 110.97732 -176.26247 
L 111.53196 -176.144827 
L 112.0866 -175.989031 
L 112.64124 -175.871487 
L 113.19588 -175.811611 
L 113.750521 -175.789898 
L 114.305161 -175.784158 
L 114.859801 -175.783039 
L 115.414441 -175.782876 
L 115.969081 -175.782859 
L 116.523721 -175.782857 
L 117.078361 -175.782857 
L 117.633001 -175.782857 
L 118.187641 -175.782857 
L 118.742282 -175.782857 
L 119.296922 -175.782857 
L 119.851562 -175.782857 
L 120.406202 -175.782857 
L 120.960842 -175.782857 
L 121.515482 -175.782857 
L 122.070122 -175.782857 
L 122.624762 -175.782857 
L 123.179402 -175.782857 
L 123.734043 -175.782857 
L 124.288683 -175.782857 
L 124.843323 -175.782857 
L 125.397963 -175.782857 
L 125.952603 -175.782857 
L 126.507243 -175.782857 
L 127.061883 -175.782857 
L 127.616523 -175.782857 
L 128.171163 -175.782857 
L 128.725804 -175.782857 
L 129.280444 -175.782857 
L 129.835084 -175.782857 
L 130.389724 -175.782857 
L 130.944364 -175.782857 
L 131.499004 -175.782861 
L 132.053644 -175.782892 
L 132.608284 -175.783086 
L 133.162924 -175.784007 
L 133.717565 -175.787211 
L 134.272205 -175.795294 
L 134.826845 -175.80967 
L 135.381485 -175.826485 
L 135.936125 -175.836434 
L 136.490765 -175.832512 
L 137.045405 -175.817589 
L 137.600045 -175.801192 
L 138.154685 -175.790162 
L 138.154685 -175.775552 
L 138.154685 -175.775552 
L 137.600045 -175.764522 
L 137.045405 -175.748125 
L 136.490765 -175.733202 
L 135.936125 -175.72928 
L 135.381485 -175.739229 
L 134.826845 -175.756044 
L 134.272205 -175.770421 
L 133.717565 -175.778504 
L 133.162924 -175.781707 
L 132.608284 -175.782628 
L 132.053644 -175.782823 
L 131.499004 -175.782853 
L 130.944364 -175.782857 
L 130.389724 -175.782857 
L 129.835084 -175.782857 
L 129.280444 -175.782857 
L 128.725804 -175.782857 
L 128.171163 -175.782857 
L 127.616523 -175.782857 
L 127.061883 -175.782857 
L 126.507243 -175.782857 
L 125.952603 -175.782857 
L 125.397963 -175.782857 
L 124.843323 -175.782857 
L 124.288683 -175.782857 
L 123.734043 -175.782857 
L 123.179402 -175.782857 
L 122.624762 -175.782857 
L 122.070122 -175.782857 
L 121.515482 -175.782857 
L 120.960842 -175.782857 
L 120.406202 -175.782857 
L 119.851562 -175.782857 
L 119.296922 -175.782857 
L 118.742282 -175.782857 
L 118.187641 -175.782857 
L 117.633001 -175.782857 
L 117.078361 -175.782857 
L 116.523721 -175.782857 
L 115.969081 -175.782856 
L 115.414441 -175.782838 
L 114.859801 -175.782676 
L 114.305161 -175.781556 
L 113.750521 -175.775817 
L 113.19588 -175.754103 
L 112.64124 -175.694228 
L 112.0866 -175.576683 
L 111.53196 -175.420888 
L 110.97732 -175.303244 
L 110.42268 -175.303244 
L 109.86804 -175.420888 
L 109.3134 -175.576683 
L 108.75876 -175.694228 
L 108.20412 -175.754103 
L 107.649479 -175.775817 
L 107.094839 -175.781556 
L 106.540199 -175.782676 
L 105.985559 -175.782838 
L 105.430919 -175.782856 
L 104.876279 -175.782857 
L 104.321639 -175.782857 
L 103.766999 -175.782857 
L 103.212359 -175.782857 
L 102.657718 -175.782857 
L 102.103078 -175.782857 
L 101.548438 -175.782857 
L 100.993798 -175.782857 
L 100.439158 -175.782857 
L 99.884518 -175.782857 
L 99.329878 -175.782857 
L 98.775238 -175.782857 
L 98.220598 -175.782857 
L 97.665957 -175.782857 
L 97.111317 -175.782857 
L 96.556677 -175.782857 
L 96.002037 -175.782857 
L 95.447397 -175.782857 
L 94.892757 -175.782857 
L 94.338117 -175.782857 
L 93.783477 -175.782857 
L 93.228837 -175.782857 
L 92.674196 -175.782857 
L 92.119556 -175.782857 
L 91.564916 -175.782857 
L 91.010276 -175.782853 
L 90.455636 -175.782798 
L 89.900996 -175.782171 
L 89.346356 -175.776819 
L 88.791716 -175.74273 
L 88.237076 -175.581605 
L 87.682435 -175.021086 
L 87.127795 -173.606707 
L 86.573155 -171.091115 
L 86.018515 -168.14871 
L 85.463875 -166.407928 
L 84.909235 -167.094121 
L 84.354595 -169.705339 
L 83.799955 -172.574542 
L 83.245315 -174.504627 
z
" id="m9b5cb6a4ad" style="stroke:#595959;stroke-width:1.5;"/>
    </defs>
    <g clip-path="url(#pdeb51692a6)">
     <use style="fill:#95a3c3;stroke:#595959;stroke-width:1.5;" x="0" xlink:href="#m9b5cb6a4ad" y="288"/>
    </g>
   </g>
   <g id="PolyCollection_2">
    <defs>
     <path d="M 83.565279 -144.652919 
L 83.565279 -144.787081 
L 84.113455 -144.911016 
L 84.661631 -145.090783 
L 85.209807 -145.210627 
L 85.757984 -145.16255 
L 86.30616 -144.992115 
L 86.854336 -144.834057 
L 87.402512 -144.752589 
L 87.950688 -144.726348 
L 88.498865 -144.720843 
L 89.047041 -144.720076 
L 89.595217 -144.720005 
L 90.143393 -144.72 
L 90.691569 -144.72 
L 91.239745 -144.72 
L 91.787922 -144.72 
L 92.336098 -144.72 
L 92.884274 -144.72 
L 93.43245 -144.72 
L 93.980626 -144.72 
L 94.528803 -144.72 
L 95.076979 -144.72 
L 95.625155 -144.72 
L 96.173331 -144.72 
L 96.721507 -144.72 
L 97.269684 -144.72 
L 97.81786 -144.72 
L 98.366036 -144.72 
L 98.914212 -144.72 
L 99.462388 -144.72 
L 100.010564 -144.72 
L 100.558741 -144.72 
L 101.106917 -144.72 
L 101.655093 -144.72 
L 102.203269 -144.72 
L 102.751445 -144.72 
L 103.299622 -144.72 
L 103.847798 -144.72 
L 104.395974 -144.72 
L 104.94415 -144.72 
L 105.492326 -144.72 
L 106.040502 -144.720011 
L 106.588679 -144.720234 
L 107.136855 -144.723421 
L 107.685031 -144.754095 
L 108.233207 -144.951629 
L 108.781383 -145.79269 
L 109.32956 -148.106372 
L 109.877736 -152.007439 
L 110.425912 -155.410429 
L 110.974088 -155.410429 
L 111.522264 -152.007439 
L 112.07044 -148.106372 
L 112.618617 -145.79269 
L 113.166793 -144.951629 
L 113.714969 -144.754095 
L 114.263145 -144.723421 
L 114.811321 -144.720234 
L 115.359498 -144.720011 
L 115.907674 -144.72 
L 116.45585 -144.72 
L 117.004026 -144.72 
L 117.552202 -144.72 
L 118.100378 -144.72 
L 118.648555 -144.72 
L 119.196731 -144.72 
L 119.744907 -144.72 
L 120.293083 -144.72 
L 120.841259 -144.72 
L 121.389436 -144.72 
L 121.937612 -144.72 
L 122.485788 -144.72 
L 123.033964 -144.72 
L 123.58214 -144.72 
L 124.130316 -144.72 
L 124.678493 -144.72 
L 125.226669 -144.72 
L 125.774845 -144.72 
L 126.323021 -144.72 
L 126.871197 -144.72 
L 127.419374 -144.72 
L 127.96755 -144.72 
L 128.515726 -144.72 
L 129.063902 -144.72 
L 129.612078 -144.72 
L 130.160255 -144.72 
L 130.708431 -144.72 
L 131.256607 -144.72 
L 131.804783 -144.720001 
L 132.352959 -144.720014 
L 132.901135 -144.720155 
L 133.449312 -144.721164 
L 133.997488 -144.725975 
L 134.545664 -144.740911 
L 135.09384 -144.769888 
L 135.642016 -144.801134 
L 136.190193 -144.809948 
L 136.738369 -144.787977 
L 137.286545 -144.75502 
L 137.834721 -144.732298 
L 137.834721 -144.707702 
L 137.834721 -144.707702 
L 137.286545 -144.68498 
L 136.738369 -144.652023 
L 136.190193 -144.630052 
L 135.642016 -144.638866 
L 135.09384 -144.670112 
L 134.545664 -144.699089 
L 133.997488 -144.714025 
L 133.449312 -144.718836 
L 132.901135 -144.719845 
L 132.352959 -144.719986 
L 131.804783 -144.719999 
L 131.256607 -144.72 
L 130.708431 -144.72 
L 130.160255 -144.72 
L 129.612078 -144.72 
L 129.063902 -144.72 
L 128.515726 -144.72 
L 127.96755 -144.72 
L 127.419374 -144.72 
L 126.871197 -144.72 
L 126.323021 -144.72 
L 125.774845 -144.72 
L 125.226669 -144.72 
L 124.678493 -144.72 
L 124.130316 -144.72 
L 123.58214 -144.72 
L 123.033964 -144.72 
L 122.485788 -144.72 
L 121.937612 -144.72 
L 121.389436 -144.72 
L 120.841259 -144.72 
L 120.293083 -144.72 
L 119.744907 -144.72 
L 119.196731 -144.72 
L 118.648555 -144.72 
L 118.100378 -144.72 
L 117.552202 -144.72 
L 117.004026 -144.72 
L 116.45585 -144.72 
L 115.907674 -144.72 
L 115.359498 -144.719989 
L 114.811321 -144.719766 
L 114.263145 -144.716579 
L 113.714969 -144.685905 
L 113.166793 -144.488371 
L 112.618617 -143.64731 
L 112.07044 -141.333628 
L 111.522264 -137.432561 
L 110.974088 -134.029571 
L 110.425912 -134.029571 
L 109.877736 -137.432561 
L 109.32956 -141.333628 
L 108.781383 -143.64731 
L 108.233207 -144.488371 
L 107.685031 -144.685905 
L 107.136855 -144.716579 
L 106.588679 -144.719766 
L 106.040502 -144.719989 
L 105.492326 -144.72 
L 104.94415 -144.72 
L 104.395974 -144.72 
L 103.847798 -144.72 
L 103.299622 -144.72 
L 102.751445 -144.72 
L 102.203269 -144.72 
L 101.655093 -144.72 
L 101.106917 -144.72 
L 100.558741 -144.72 
L 100.010564 -144.72 
L 99.462388 -144.72 
L 98.914212 -144.72 
L 98.366036 -144.72 
L 97.81786 -144.72 
L 97.269684 -144.72 
L 96.721507 -144.72 
L 96.173331 -144.72 
L 95.625155 -144.72 
L 95.076979 -144.72 
L 94.528803 -144.72 
L 93.980626 -144.72 
L 93.43245 -144.72 
L 92.884274 -144.72 
L 92.336098 -144.72 
L 91.787922 -144.72 
L 91.239745 -144.72 
L 90.691569 -144.72 
L 90.143393 -144.72 
L 89.595217 -144.719995 
L 89.047041 -144.719924 
L 88.498865 -144.719157 
L 87.950688 -144.713652 
L 87.402512 -144.687411 
L 86.854336 -144.605943 
L 86.30616 -144.447885 
L 85.757984 -144.27745 
L 85.209807 -144.229373 
L 84.661631 -144.349217 
L 84.113455 -144.528984 
L 83.565279 -144.652919 
z
" id="mc36f169226" style="stroke:#595959;stroke-width:1.5;"/>
    </defs>
    <g clip-path="url(#pdeb51692a6)">
     <use style="fill:#db96c0;stroke:#595959;stroke-width:1.5;" x="0" xlink:href="#mc36f169226" y="288"/>
    </g>
   </g>
   <g id="PolyCollection_3">
    <defs>
     <path d="M 83.769814 -113.642156 
L 83.769814 -113.67213 
L 84.570057 -113.725766 
L 85.370299 -113.76778 
L 86.170542 -113.719952 
L 86.970784 -113.669698 
L 87.771027 -113.658027 
L 88.571269 -113.657165 
L 89.371512 -113.657143 
L 90.171754 -113.657143 
L 90.971997 -113.657143 
L 91.772239 -113.657143 
L 92.572482 -113.657143 
L 93.372724 -113.657143 
L 94.172967 -113.657143 
L 94.973209 -113.657143 
L 95.773452 -113.657143 
L 96.573694 -113.657143 
L 97.373937 -113.657143 
L 98.174179 -113.657143 
L 98.974422 -113.657143 
L 99.774664 -113.657143 
L 100.574907 -113.657143 
L 101.375149 -113.657143 
L 102.175392 -113.657143 
L 102.975634 -113.657143 
L 103.775877 -113.657143 
L 104.576119 -113.657143 
L 105.376362 -113.657143 
L 106.176604 -113.657143 
L 106.976847 -113.657143 
L 107.777089 -113.657143 
L 108.577332 -113.657143 
L 109.377574 -113.657143 
L 110.177817 -113.657143 
L 110.978059 -113.657143 
L 111.778302 -113.657143 
L 112.578544 -113.657143 
L 113.378787 -113.657143 
L 114.179029 -113.657143 
L 114.979272 -113.657143 
L 115.779514 -113.657143 
L 116.579757 -113.657143 
L 117.379999 -113.657143 
L 118.180242 -113.657143 
L 118.980484 -113.657143 
L 119.780727 -113.657143 
L 120.580969 -113.657143 
L 121.381212 -113.657143 
L 122.181454 -113.657143 
L 122.981697 -113.657143 
L 123.781939 -113.657143 
L 124.582182 -113.657143 
L 125.382424 -113.657143 
L 126.182667 -113.657143 
L 126.982909 -113.657143 
L 127.783152 -113.657143 
L 128.583394 -113.657143 
L 129.383637 -113.657143 
L 130.183879 -113.657143 
L 130.984122 -113.657143 
L 131.784364 -113.657147 
L 132.584607 -113.657828 
L 133.38485 -113.695131 
L 134.185092 -114.399209 
L 134.985335 -118.761326 
L 135.785577 -126.019347 
L 136.58582 -124.199832 
L 137.386062 -116.82301 
L 138.186305 -113.991892 
L 138.986547 -113.669606 
L 139.78679 -113.657306 
L 140.587032 -113.657144 
L 141.387275 -113.657143 
L 142.187517 -113.657143 
L 142.98776 -113.657143 
L 143.788002 -113.657143 
L 144.588245 -113.657143 
L 145.388487 -113.657143 
L 146.18873 -113.657143 
L 146.988972 -113.657143 
L 147.789215 -113.657143 
L 148.589457 -113.657143 
L 149.3897 -113.657143 
L 150.189942 -113.657143 
L 150.990185 -113.657143 
L 151.790427 -113.657143 
L 152.59067 -113.657143 
L 153.390912 -113.657143 
L 154.191155 -113.657143 
L 154.991397 -113.657143 
L 155.79164 -113.657143 
L 156.591882 -113.657143 
L 157.392125 -113.657143 
L 158.192367 -113.657156 
L 158.99261 -113.657665 
L 159.792852 -113.664555 
L 160.593095 -113.694223 
L 161.393337 -113.722459 
L 162.19358 -113.697655 
L 162.993822 -113.665991 
L 162.993822 -113.648295 
L 162.993822 -113.648295 
L 162.19358 -113.616631 
L 161.393337 -113.591827 
L 160.593095 -113.620063 
L 159.792852 -113.649731 
L 158.99261 -113.656621 
L 158.192367 -113.65713 
L 157.392125 -113.657143 
L 156.591882 -113.657143 
L 155.79164 -113.657143 
L 154.991397 -113.657143 
L 154.191155 -113.657143 
L 153.390912 -113.657143 
L 152.59067 -113.657143 
L 151.790427 -113.657143 
L 150.990185 -113.657143 
L 150.189942 -113.657143 
L 149.3897 -113.657143 
L 148.589457 -113.657143 
L 147.789215 -113.657143 
L 146.988972 -113.657143 
L 146.18873 -113.657143 
L 145.388487 -113.657143 
L 144.588245 -113.657143 
L 143.788002 -113.657143 
L 142.98776 -113.657143 
L 142.187517 -113.657143 
L 141.387275 -113.657143 
L 140.587032 -113.657142 
L 139.78679 -113.656979 
L 138.986547 -113.64468 
L 138.186305 -113.322393 
L 137.386062 -110.491276 
L 136.58582 -103.114454 
L 135.785577 -101.294938 
L 134.985335 -108.552959 
L 134.185092 -112.915077 
L 133.38485 -113.619155 
L 132.584607 -113.656458 
L 131.784364 -113.657139 
L 130.984122 -113.657143 
L 130.183879 -113.657143 
L 129.383637 -113.657143 
L 128.583394 -113.657143 
L 127.783152 -113.657143 
L 126.982909 -113.657143 
L 126.182667 -113.657143 
L 125.382424 -113.657143 
L 124.582182 -113.657143 
L 123.781939 -113.657143 
L 122.981697 -113.657143 
L 122.181454 -113.657143 
L 121.381212 -113.657143 
L 120.580969 -113.657143 
L 119.780727 -113.657143 
L 118.980484 -113.657143 
L 118.180242 -113.657143 
L 117.379999 -113.657143 
L 116.579757 -113.657143 
L 115.779514 -113.657143 
L 114.979272 -113.657143 
L 114.179029 -113.657143 
L 113.378787 -113.657143 
L 112.578544 -113.657143 
L 111.778302 -113.657143 
L 110.978059 -113.657143 
L 110.177817 -113.657143 
L 109.377574 -113.657143 
L 108.577332 -113.657143 
L 107.777089 -113.657143 
L 106.976847 -113.657143 
L 106.176604 -113.657143 
L 105.376362 -113.657143 
L 104.576119 -113.657143 
L 103.775877 -113.657143 
L 102.975634 -113.657143 
L 102.175392 -113.657143 
L 101.375149 -113.657143 
L 100.574907 -113.657143 
L 99.774664 -113.657143 
L 98.974422 -113.657143 
L 98.174179 -113.657143 
L 97.373937 -113.657143 
L 96.573694 -113.657143 
L 95.773452 -113.657143 
L 94.973209 -113.657143 
L 94.172967 -113.657143 
L 93.372724 -113.657143 
L 92.572482 -113.657143 
L 91.772239 -113.657143 
L 90.971997 -113.657143 
L 90.171754 -113.657143 
L 89.371512 -113.657143 
L 88.571269 -113.657121 
L 87.771027 -113.656259 
L 86.970784 -113.644588 
L 86.170542 -113.594334 
L 85.370299 -113.546505 
L 84.570057 -113.58852 
L 83.769814 -113.642156 
z
" id="me64596b800" style="stroke:#595959;stroke-width:1.5;"/>
    </defs>
    <g clip-path="url(#pdeb51692a6)">
     <use style="fill:#a2c865;stroke:#595959;stroke-width:1.5;" x="0" xlink:href="#me64596b800" y="288"/>
    </g>
   </g>
   <g id="PolyCollection_4">
    <defs>
     <path d="M 83.667387 -82.58615 
L 83.667387 -82.602421 
L 84.469699 -82.629341 
L 85.272011 -82.65422 
L 86.074322 -82.634944 
L 86.876634 -82.60523 
L 87.678946 -82.595455 
L 88.481258 -82.594335 
L 89.283569 -82.594287 
L 90.085881 -82.594286 
L 90.888193 -82.594286 
L 91.690505 -82.594286 
L 92.492816 -82.594286 
L 93.295128 -82.594286 
L 94.09744 -82.594286 
L 94.899751 -82.594286 
L 95.702063 -82.594286 
L 96.504375 -82.594286 
L 97.306687 -82.594286 
L 98.108998 -82.594286 
L 98.91131 -82.594286 
L 99.713622 -82.594286 
L 100.515934 -82.594286 
L 101.318245 -82.594286 
L 102.120557 -82.594286 
L 102.922869 -82.594286 
L 103.725181 -82.594286 
L 104.527492 -82.594286 
L 105.329804 -82.594286 
L 106.132116 -82.594286 
L 106.934428 -82.594286 
L 107.736739 -82.594286 
L 108.539051 -82.594286 
L 109.341363 -82.594286 
L 110.143675 -82.594286 
L 110.945986 -82.594286 
L 111.748298 -82.594286 
L 112.55061 -82.594286 
L 113.352921 -82.594286 
L 114.155233 -82.594286 
L 114.957545 -82.594286 
L 115.759857 -82.594286 
L 116.562168 -82.594286 
L 117.36448 -82.594286 
L 118.166792 -82.594286 
L 118.969104 -82.594286 
L 119.771415 -82.594286 
L 120.573727 -82.594286 
L 121.376039 -82.594286 
L 122.178351 -82.594286 
L 122.980662 -82.594286 
L 123.782974 -82.594286 
L 124.585286 -82.594286 
L 125.387598 -82.594286 
L 126.189909 -82.594286 
L 126.992221 -82.594286 
L 127.794533 -82.594286 
L 128.596844 -82.594286 
L 129.399156 -82.594286 
L 130.201468 -82.594286 
L 131.00378 -82.594286 
L 131.806091 -82.594286 
L 132.608403 -82.594286 
L 133.410715 -82.594294 
L 134.213027 -82.594393 
L 135.015338 -82.594855 
L 135.81765 -82.595485 
L 136.619962 -82.595289 
L 137.422274 -82.594618 
L 138.224585 -82.59433 
L 139.026897 -82.594288 
L 139.829209 -82.594286 
L 140.631521 -82.594286 
L 141.433832 -82.594286 
L 142.236144 -82.594286 
L 143.038456 -82.594286 
L 143.840767 -82.594286 
L 144.643079 -82.594286 
L 145.445391 -82.594286 
L 146.247703 -82.594286 
L 147.050014 -82.594286 
L 147.852326 -82.594286 
L 148.654638 -82.594286 
L 149.45695 -82.594286 
L 150.259261 -82.594286 
L 151.061573 -82.594286 
L 151.863885 -82.594286 
L 152.666197 -82.594286 
L 153.468508 -82.594286 
L 154.27082 -82.594286 
L 155.073132 -82.594286 
L 155.875444 -82.594286 
L 156.677755 -82.594287 
L 157.480067 -82.594458 
L 158.282379 -82.604554 
L 159.084691 -82.836602 
L 159.887002 -84.863125 
L 160.689314 -91.023304 
L 161.491626 -95.019429 
L 162.293937 -89.861651 
L 163.096249 -84.280853 
L 163.096249 -80.907718 
L 163.096249 -80.907718 
L 162.293937 -75.32692 
L 161.491626 -70.169143 
L 160.689314 -74.165268 
L 159.887002 -80.325446 
L 159.084691 -82.35197 
L 158.282379 -82.584017 
L 157.480067 -82.594113 
L 156.677755 -82.594285 
L 155.875444 -82.594286 
L 155.073132 -82.594286 
L 154.27082 -82.594286 
L 153.468508 -82.594286 
L 152.666197 -82.594286 
L 151.863885 -82.594286 
L 151.061573 -82.594286 
L 150.259261 -82.594286 
L 149.45695 -82.594286 
L 148.654638 -82.594286 
L 147.852326 -82.594286 
L 147.050014 -82.594286 
L 146.247703 -82.594286 
L 145.445391 -82.594286 
L 144.643079 -82.594286 
L 143.840767 -82.594286 
L 143.038456 -82.594286 
L 142.236144 -82.594286 
L 141.433832 -82.594286 
L 140.631521 -82.594286 
L 139.829209 -82.594286 
L 139.026897 -82.594283 
L 138.224585 -82.594242 
L 137.422274 -82.593953 
L 136.619962 -82.593283 
L 135.81765 -82.593087 
L 135.015338 -82.593717 
L 134.213027 -82.594179 
L 133.410715 -82.594278 
L 132.608403 -82.594285 
L 131.806091 -82.594286 
L 131.00378 -82.594286 
L 130.201468 -82.594286 
L 129.399156 -82.594286 
L 128.596844 -82.594286 
L 127.794533 -82.594286 
L 126.992221 -82.594286 
L 126.189909 -82.594286 
L 125.387598 -82.594286 
L 124.585286 -82.594286 
L 123.782974 -82.594286 
L 122.980662 -82.594286 
L 122.178351 -82.594286 
L 121.376039 -82.594286 
L 120.573727 -82.594286 
L 119.771415 -82.594286 
L 118.969104 -82.594286 
L 118.166792 -82.594286 
L 117.36448 -82.594286 
L 116.562168 -82.594286 
L 115.759857 -82.594286 
L 114.957545 -82.594286 
L 114.155233 -82.594286 
L 113.352921 -82.594286 
L 112.55061 -82.594286 
L 111.748298 -82.594286 
L 110.945986 -82.594286 
L 110.143675 -82.594286 
L 109.341363 -82.594286 
L 108.539051 -82.594286 
L 107.736739 -82.594286 
L 106.934428 -82.594286 
L 106.132116 -82.594286 
L 105.329804 -82.594286 
L 104.527492 -82.594286 
L 103.725181 -82.594286 
L 102.922869 -82.594286 
L 102.120557 -82.594286 
L 101.318245 -82.594286 
L 100.515934 -82.594286 
L 99.713622 -82.594286 
L 98.91131 -82.594286 
L 98.108998 -82.594286 
L 97.306687 -82.594286 
L 96.504375 -82.594286 
L 95.702063 -82.594286 
L 94.899751 -82.594286 
L 94.09744 -82.594286 
L 93.295128 -82.594286 
L 92.492816 -82.594286 
L 91.690505 -82.594286 
L 90.888193 -82.594286 
L 90.085881 -82.594286 
L 89.283569 -82.594285 
L 88.481258 -82.594236 
L 87.678946 -82.593117 
L 86.876634 -82.583342 
L 86.074322 -82.553627 
L 85.272011 -82.534351 
L 84.469699 -82.559231 
L 83.667387 -82.58615 
z
" id="m732e57b872" style="stroke:#595959;stroke-width:1.5;"/>
    </defs>
    <g clip-path="url(#pdeb51692a6)">
     <use style="fill:#e5c849;stroke:#595959;stroke-width:1.5;" x="0" xlink:href="#m732e57b872" y="288"/>
    </g>
   </g>
   <g id="line2d_4">
    <path clip-path="url(#pdeb51692a6)" d="M 34.609091 37.666286 
L 34.609091 62.516571 
" style="fill:none;stroke:#595959;stroke-linecap:round;stroke-width:1.5;"/>
   </g>
   <g id="line2d_5">
    <path clip-path="url(#pdeb51692a6)" d="M 59.972727 68.729143 
L 59.972727 93.579429 
" style="fill:none;stroke:#595959;stroke-linecap:round;stroke-width:1.5;"/>
   </g>
   <g id="line2d_6">
    <path clip-path="url(#pdeb51692a6)" d="M 85.336364 112.217143 
L 85.336364 112.217143 
" style="fill:none;stroke:#595959;stroke-linecap:round;stroke-width:1.5;"/>
   </g>
   <g id="line2d_7">
    <path clip-path="url(#pdeb51692a6)" d="M 85.336364 112.217143 
L 85.336364 112.217143 
" style="fill:none;stroke:#595959;stroke-linecap:round;stroke-width:4.5;"/>
   </g>
   <g id="line2d_8">
    <path clip-path="url(#pdeb51692a6)" d="M 110.7 143.28 
L 110.7 143.28 
" style="fill:none;stroke:#595959;stroke-linecap:round;stroke-width:1.5;"/>
   </g>
   <g id="line2d_9">
    <path clip-path="url(#pdeb51692a6)" d="M 110.7 143.28 
L 110.7 143.28 
" style="fill:none;stroke:#595959;stroke-linecap:round;stroke-width:4.5;"/>
   </g>
   <g id="line2d_10">
    <path clip-path="url(#pdeb51692a6)" d="M 136.063636 174.342857 
L 136.063636 174.342857 
" style="fill:none;stroke:#595959;stroke-linecap:round;stroke-width:1.5;"/>
   </g>
   <g id="line2d_11">
    <path clip-path="url(#pdeb51692a6)" d="M 136.063636 174.342857 
L 136.063636 174.342857 
" style="fill:none;stroke:#595959;stroke-linecap:round;stroke-width:4.5;"/>
   </g>
   <g id="line2d_12">
    <path clip-path="url(#pdeb51692a6)" d="M 161.427273 205.405714 
L 161.427273 205.405714 
" style="fill:none;stroke:#595959;stroke-linecap:round;stroke-width:1.5;"/>
   </g>
   <g id="line2d_13">
    <path clip-path="url(#pdeb51692a6)" d="M 161.427273 205.405714 
L 161.427273 205.405714 
" style="fill:none;stroke:#595959;stroke-linecap:round;stroke-width:4.5;"/>
   </g>
   <g id="line2d_14">
    <path clip-path="url(#pdeb51692a6)" d="M 186.790909 224.043429 
L 186.790909 248.893714 
" style="fill:none;stroke:#595959;stroke-linecap:round;stroke-width:1.5;"/>
   </g>
   <g id="patch_3">
    <path d="M 27 252 
L 27 34.56 
" style="fill:none;stroke:#cccccc;stroke-linecap:square;stroke-linejoin:miter;stroke-width:1.25;"/>
   </g>
   <g id="patch_4">
    <path d="M 194.4 252 
L 194.4 34.56 
" style="fill:none;stroke:#cccccc;stroke-linecap:square;stroke-linejoin:miter;stroke-width:1.25;"/>
   </g>
   <g id="patch_5">
    <path d="M 27 252 
L 194.4 252 
" style="fill:none;stroke:#cccccc;stroke-linecap:square;stroke-linejoin:miter;stroke-width:1.25;"/>
   </g>
   <g id="patch_6">
    <path d="M 27 34.56 
L 194.4 34.56 
" style="fill:none;stroke:#cccccc;stroke-linecap:square;stroke-linejoin:miter;stroke-width:1.25;"/>
   </g>
   <g id="PathCollection_1">
    <defs>
     <path d="M 0 1.5 
C 0.397805 1.5 0.77937 1.341951 1.06066 1.06066 
C 1.341951 0.77937 1.5 0.397805 1.5 0 
C 1.5 -0.397805 1.341951 -0.77937 1.06066 -1.06066 
C 0.77937 -1.341951 0.397805 -1.5 0 -1.5 
C -0.397805 -1.5 -0.77937 -1.341951 -1.06066 -1.06066 
C -1.341951 -0.77937 -1.5 -0.397805 -1.5 0 
C -1.5 0.397805 -1.341951 0.77937 -1.06066 1.06066 
C -0.77937 1.341951 -0.397805 1.5 0 1.5 
z
" id="ma3e7e7e7c2" style="stroke:#595959;"/>
    </defs>
    <g clip-path="url(#pdeb51692a6)">
     <use style="fill:#ffffff;stroke:#595959;" x="85.336364" xlink:href="#ma3e7e7e7c2" y="112.217143"/>
    </g>
   </g>
   <g id="PathCollection_2">
    <g clip-path="url(#pdeb51692a6)">
     <use style="fill:#ffffff;stroke:#595959;" x="110.7" xlink:href="#ma3e7e7e7c2" y="143.28"/>
    </g>
   </g>
   <g id="PathCollection_3">
    <g clip-path="url(#pdeb51692a6)">
     <use style="fill:#ffffff;stroke:#595959;" x="136.063636" xlink:href="#ma3e7e7e7c2" y="174.342857"/>
    </g>
   </g>
   <g id="PathCollection_4">
    <g clip-path="url(#pdeb51692a6)">
     <use style="fill:#ffffff;stroke:#595959;" x="161.427273" xlink:href="#ma3e7e7e7c2" y="205.405714"/>
    </g>
   </g>
  </g>
 </g>
 <defs>
  <clipPath id="pdeb51692a6">
   <rect height="217.44" width="167.4" x="27" y="34.56"/>
  </clipPath>
 </defs>
</svg>
