<?xml version="1.0" encoding="utf-8" standalone="no"?>
<!DOCTYPE svg PUBLIC "-//W3C//DTD SVG 1.1//EN"
  "http://www.w3.org/Graphics/SVG/1.1/DTD/svg11.dtd">
<!-- Created with matplotlib (https://matplotlib.org/) -->
<svg height="216pt" version="1.1" viewBox="0 0 216 216" width="216pt" xmlns="http://www.w3.org/2000/svg" xmlns:xlink="http://www.w3.org/1999/xlink">
 <metadata>
  <rdf:RDF xmlns:cc="http://creativecommons.org/ns#" xmlns:dc="http://purl.org/dc/elements/1.1/" xmlns:rdf="http://www.w3.org/1999/02/22-rdf-syntax-ns#">
   <cc:Work>
    <dc:type rdf:resource="http://purl.org/dc/dcmitype/StillImage"/>
    <dc:date>2023-05-12T13:21:34.074073</dc:date>
    <dc:format>image/svg+xml</dc:format>
    <dc:creator>
     <cc:Agent>
      <dc:title>Matplotlib v3.3.4, https://matplotlib.org/</dc:title>
     </cc:Agent>
    </dc:creator>
   </cc:Work>
  </rdf:RDF>
 </metadata>
 <defs>
  <style type="text/css">*{stroke-linecap:butt;stroke-linejoin:round;}</style>
 </defs>
 <g id="figure_1">
  <g id="patch_1">
   <path d="M 0 216 
L 216 216 
L 216 0 
L 0 0 
z
" style="fill:none;"/>
  </g>
  <g id="axes_1">
   <g id="patch_2">
    <path d="M 37.3 189.2 
L 196.8875 189.2 
L 196.8875 10.8 
L 37.3 10.8 
z
" style="fill:#ffffff;"/>
   </g>
   <g id="PathCollection_1">
    <defs>
     <path d="M 0 3 
C 0.795609 3 1.55874 2.683901 2.12132 2.12132 
C 2.683901 1.55874 3 0.795609 3 0 
C 3 -0.795609 2.683901 -1.55874 2.12132 -2.12132 
C 1.55874 -2.683901 0.795609 -3 0 -3 
C -0.795609 -3 -1.55874 -2.683901 -2.12132 -2.12132 
C -2.683901 -1.55874 -3 -0.795609 -3 0 
C -3 0.795609 -2.683901 1.55874 -2.12132 2.12132 
C -1.55874 2.683901 -0.795609 3 0 3 
z
" id="m90150dcbde" style="stroke:#000000;stroke-opacity:0.8;"/>
    </defs>
    <g clip-path="url(#pe6b825119f)">
     <use style="fill-opacity:0.8;stroke:#000000;stroke-opacity:0.8;" x="37.3" xlink:href="#m90150dcbde" y="181.090909"/>
     <use style="fill-opacity:0.8;stroke:#000000;stroke-opacity:0.8;" x="38.819881" xlink:href="#m90150dcbde" y="170.860487"/>
     <use style="fill-opacity:0.8;stroke:#000000;stroke-opacity:0.8;" x="40.339762" xlink:href="#m90150dcbde" y="157.453471"/>
     <use style="fill-opacity:0.8;stroke:#000000;stroke-opacity:0.8;" x="41.859643" xlink:href="#m90150dcbde" y="147.493819"/>
     <use style="fill-opacity:0.8;stroke:#000000;stroke-opacity:0.8;" x="43.379524" xlink:href="#m90150dcbde" y="135.489708"/>
     <use style="fill-opacity:0.8;stroke:#000000;stroke-opacity:0.8;" x="46.419286" xlink:href="#m90150dcbde" y="116.023583"/>
     <use style="fill-opacity:0.8;stroke:#000000;stroke-opacity:0.8;" x="47.939167" xlink:href="#m90150dcbde" y="116.023583"/>
     <use style="fill-opacity:0.8;stroke:#000000;stroke-opacity:0.8;" x="49.459048" xlink:href="#m90150dcbde" y="118.11275"/>
     <use style="fill-opacity:0.8;stroke:#000000;stroke-opacity:0.8;" x="50.978929" xlink:href="#m90150dcbde" y="117.498289"/>
     <use style="fill-opacity:0.8;stroke:#000000;stroke-opacity:0.8;" x="52.49881" xlink:href="#m90150dcbde" y="122.905546"/>
     <use style="fill-opacity:0.8;stroke:#000000;stroke-opacity:0.8;" x="54.01869" xlink:href="#m90150dcbde" y="145.222771"/>
     <use style="fill-opacity:0.8;stroke:#000000;stroke-opacity:0.8;" x="55.538571" xlink:href="#m90150dcbde" y="145.176423"/>
     <use style="fill-opacity:0.8;stroke:#000000;stroke-opacity:0.8;" x="57.058452" xlink:href="#m90150dcbde" y="127.958172"/>
     <use style="fill-opacity:0.8;stroke:#000000;stroke-opacity:0.8;" x="58.578333" xlink:href="#m90150dcbde" y="152.522568"/>
     <use style="fill-opacity:0.8;stroke:#000000;stroke-opacity:0.8;" x="60.098214" xlink:href="#m90150dcbde" y="152.522568"/>
     <use style="fill-opacity:0.8;stroke:#000000;stroke-opacity:0.8;" x="70.737381" xlink:href="#m90150dcbde" y="122.01316"/>
     <use style="fill-opacity:0.8;stroke:#000000;stroke-opacity:0.8;" x="72.257262" xlink:href="#m90150dcbde" y="122.866717"/>
     <use style="fill-opacity:0.8;stroke:#000000;stroke-opacity:0.8;" x="73.777143" xlink:href="#m90150dcbde" y="117.84342"/>
     <use style="fill-opacity:0.8;stroke:#000000;stroke-opacity:0.8;" x="75.297024" xlink:href="#m90150dcbde" y="122.027503"/>
     <use style="fill-opacity:0.8;stroke:#000000;stroke-opacity:0.8;" x="76.816905" xlink:href="#m90150dcbde" y="127.895087"/>
     <use style="fill-opacity:0.8;stroke:#000000;stroke-opacity:0.8;" x="78.336786" xlink:href="#m90150dcbde" y="123.699957"/>
     <use style="fill-opacity:0.8;stroke:#000000;stroke-opacity:0.8;" x="79.856667" xlink:href="#m90150dcbde" y="129.295941"/>
     <use style="fill-opacity:0.8;stroke:#000000;stroke-opacity:0.8;" x="81.376548" xlink:href="#m90150dcbde" y="132.245354"/>
     <use style="fill-opacity:0.8;stroke:#000000;stroke-opacity:0.8;" x="82.896429" xlink:href="#m90150dcbde" y="132.245354"/>
     <use style="fill-opacity:0.8;stroke:#000000;stroke-opacity:0.8;" x="84.41631" xlink:href="#m90150dcbde" y="128.537521"/>
     <use style="fill-opacity:0.8;stroke:#000000;stroke-opacity:0.8;" x="85.93619" xlink:href="#m90150dcbde" y="119.42243"/>
     <use style="fill-opacity:0.8;stroke:#000000;stroke-opacity:0.8;" x="90.495833" xlink:href="#m90150dcbde" y="125.756646"/>
     <use style="fill-opacity:0.8;stroke:#000000;stroke-opacity:0.8;" x="92.015714" xlink:href="#m90150dcbde" y="121.701203"/>
     <use style="fill-opacity:0.8;stroke:#000000;stroke-opacity:0.8;" x="93.535595" xlink:href="#m90150dcbde" y="112.467971"/>
     <use style="fill-opacity:0.8;stroke:#000000;stroke-opacity:0.8;" x="95.055476" xlink:href="#m90150dcbde" y="100.912371"/>
     <use style="fill-opacity:0.8;stroke:#000000;stroke-opacity:0.8;" x="96.575357" xlink:href="#m90150dcbde" y="87.152354"/>
     <use style="fill-opacity:0.8;stroke:#000000;stroke-opacity:0.8;" x="98.095238" xlink:href="#m90150dcbde" y="102.905043"/>
     <use style="fill-opacity:0.8;stroke:#000000;stroke-opacity:0.8;" x="99.615119" xlink:href="#m90150dcbde" y="94.085569"/>
     <use style="fill-opacity:0.8;stroke:#000000;stroke-opacity:0.8;" x="101.135" xlink:href="#m90150dcbde" y="104.101869"/>
     <use style="fill-opacity:0.8;stroke:#000000;stroke-opacity:0.8;" x="102.654881" xlink:href="#m90150dcbde" y="115.318416"/>
     <use style="fill-opacity:0.8;stroke:#000000;stroke-opacity:0.8;" x="104.174762" xlink:href="#m90150dcbde" y="112.504574"/>
     <use style="fill-opacity:0.8;stroke:#000000;stroke-opacity:0.8;" x="105.694643" xlink:href="#m90150dcbde" y="109.071395"/>
     <use style="fill-opacity:0.8;stroke:#000000;stroke-opacity:0.8;" x="107.214524" xlink:href="#m90150dcbde" y="140.356239"/>
     <use style="fill-opacity:0.8;stroke:#000000;stroke-opacity:0.8;" x="108.734405" xlink:href="#m90150dcbde" y="116.023583"/>
     <use style="fill-opacity:0.8;stroke:#000000;stroke-opacity:0.8;" x="110.254286" xlink:href="#m90150dcbde" y="113.416513"/>
     <use style="fill-opacity:0.8;stroke:#000000;stroke-opacity:0.8;" x="111.774167" xlink:href="#m90150dcbde" y="107.1262"/>
     <use style="fill-opacity:0.8;stroke:#000000;stroke-opacity:0.8;" x="113.294048" xlink:href="#m90150dcbde" y="100.795879"/>
     <use style="fill-opacity:0.8;stroke:#000000;stroke-opacity:0.8;" x="114.813929" xlink:href="#m90150dcbde" y="98.090082"/>
     <use style="fill-opacity:0.8;stroke:#000000;stroke-opacity:0.8;" x="116.33381" xlink:href="#m90150dcbde" y="103.586645"/>
     <use style="fill-opacity:0.8;stroke:#000000;stroke-opacity:0.8;" x="117.85369" xlink:href="#m90150dcbde" y="92.389817"/>
     <use style="fill-opacity:0.8;stroke:#000000;stroke-opacity:0.8;" x="119.373571" xlink:href="#m90150dcbde" y="99.216026"/>
     <use style="fill-opacity:0.8;stroke:#000000;stroke-opacity:0.8;" x="120.893452" xlink:href="#m90150dcbde" y="92.651203"/>
     <use style="fill-opacity:0.8;stroke:#000000;stroke-opacity:0.8;" x="122.413333" xlink:href="#m90150dcbde" y="83.563214"/>
     <use style="fill-opacity:0.8;stroke:#000000;stroke-opacity:0.8;" x="123.933214" xlink:href="#m90150dcbde" y="65.822696"/>
     <use style="fill-opacity:0.8;stroke:#000000;stroke-opacity:0.8;" x="125.453095" xlink:href="#m90150dcbde" y="52.313985"/>
     <use style="fill-opacity:0.8;stroke:#000000;stroke-opacity:0.8;" x="126.972976" xlink:href="#m90150dcbde" y="54.965095"/>
     <use style="fill-opacity:0.8;stroke:#000000;stroke-opacity:0.8;" x="128.492857" xlink:href="#m90150dcbde" y="52.715273"/>
     <use style="fill-opacity:0.8;stroke:#000000;stroke-opacity:0.8;" x="130.012738" xlink:href="#m90150dcbde" y="48.804619"/>
     <use style="fill-opacity:0.8;stroke:#000000;stroke-opacity:0.8;" x="131.532619" xlink:href="#m90150dcbde" y="48.212097"/>
     <use style="fill-opacity:0.8;stroke:#000000;stroke-opacity:0.8;" x="133.0525" xlink:href="#m90150dcbde" y="51.859665"/>
     <use style="fill-opacity:0.8;stroke:#000000;stroke-opacity:0.8;" x="134.572381" xlink:href="#m90150dcbde" y="52.374278"/>
     <use style="fill-opacity:0.8;stroke:#000000;stroke-opacity:0.8;" x="136.092262" xlink:href="#m90150dcbde" y="94.038865"/>
     <use style="fill-opacity:0.8;stroke:#000000;stroke-opacity:0.8;" x="137.612143" xlink:href="#m90150dcbde" y="76.325473"/>
     <use style="fill-opacity:0.8;stroke:#000000;stroke-opacity:0.8;" x="139.132024" xlink:href="#m90150dcbde" y="86.046383"/>
     <use style="fill-opacity:0.8;stroke:#000000;stroke-opacity:0.8;" x="140.651905" xlink:href="#m90150dcbde" y="73.285224"/>
     <use style="fill-opacity:0.8;stroke:#000000;stroke-opacity:0.8;" x="142.171786" xlink:href="#m90150dcbde" y="80.16601"/>
     <use style="fill-opacity:0.8;stroke:#000000;stroke-opacity:0.8;" x="143.691667" xlink:href="#m90150dcbde" y="87.901862"/>
     <use style="fill-opacity:0.8;stroke:#000000;stroke-opacity:0.8;" x="145.211548" xlink:href="#m90150dcbde" y="71.373183"/>
     <use style="fill-opacity:0.8;stroke:#000000;stroke-opacity:0.8;" x="146.731429" xlink:href="#m90150dcbde" y="50.075074"/>
     <use style="fill-opacity:0.8;stroke:#000000;stroke-opacity:0.8;" x="148.25131" xlink:href="#m90150dcbde" y="43.945912"/>
     <use style="fill-opacity:0.8;stroke:#000000;stroke-opacity:0.8;" x="149.77119" xlink:href="#m90150dcbde" y="52.566237"/>
     <use style="fill-opacity:0.8;stroke:#000000;stroke-opacity:0.8;" x="151.291071" xlink:href="#m90150dcbde" y="47.010486"/>
     <use style="fill-opacity:0.8;stroke:#000000;stroke-opacity:0.8;" x="152.810952" xlink:href="#m90150dcbde" y="48.164838"/>
     <use style="fill-opacity:0.8;stroke:#000000;stroke-opacity:0.8;" x="154.330833" xlink:href="#m90150dcbde" y="53.632665"/>
     <use style="fill-opacity:0.8;stroke:#000000;stroke-opacity:0.8;" x="157.370595" xlink:href="#m90150dcbde" y="29.50747"/>
     <use style="fill-opacity:0.8;stroke:#000000;stroke-opacity:0.8;" x="158.890476" xlink:href="#m90150dcbde" y="31.670373"/>
     <use style="fill-opacity:0.8;stroke:#000000;stroke-opacity:0.8;" x="160.410357" xlink:href="#m90150dcbde" y="40.321984"/>
     <use style="fill-opacity:0.8;stroke:#000000;stroke-opacity:0.8;" x="161.930238" xlink:href="#m90150dcbde" y="47.982265"/>
     <use style="fill-opacity:0.8;stroke:#000000;stroke-opacity:0.8;" x="163.450119" xlink:href="#m90150dcbde" y="52.338111"/>
     <use style="fill-opacity:0.8;stroke:#000000;stroke-opacity:0.8;" x="164.97" xlink:href="#m90150dcbde" y="56.205802"/>
     <use style="fill-opacity:0.8;stroke:#000000;stroke-opacity:0.8;" x="166.489881" xlink:href="#m90150dcbde" y="51.812406"/>
     <use style="fill-opacity:0.8;stroke:#000000;stroke-opacity:0.8;" x="168.009762" xlink:href="#m90150dcbde" y="53.16422"/>
     <use style="fill-opacity:0.8;stroke:#000000;stroke-opacity:0.8;" x="189.288095" xlink:href="#m90150dcbde" y="67.35827"/>
    </g>
   </g>
   <g id="PolyCollection_1">
    <path clip-path="url(#pe6b825119f)" d="M 37.3 146.923457 
L 37.3 163.029811 
L 38.835233 161.60498 
L 40.370467 160.179608 
L 41.9057 158.754235 
L 43.440933 157.328863 
L 44.976166 155.903491 
L 46.5114 154.478118 
L 48.046633 153.018878 
L 49.581866 151.559519 
L 51.1171 150.132087 
L 52.652333 148.739454 
L 54.187566 147.3324 
L 55.722799 145.931832 
L 57.258033 144.508174 
L 58.793266 143.084475 
L 60.328499 141.682904 
L 61.863733 140.283898 
L 63.398966 138.885627 
L 64.934199 137.484943 
L 66.469432 136.064977 
L 68.004666 134.655218 
L 69.539899 133.264456 
L 71.075132 131.887899 
L 72.610366 130.466178 
L 74.145599 129.088781 
L 75.680832 127.695345 
L 77.216065 126.34194 
L 78.751299 124.898201 
L 80.286532 123.533568 
L 81.821765 122.177492 
L 83.356999 120.841525 
L 84.892232 119.512375 
L 86.427465 118.139882 
L 87.962698 116.727319 
L 89.497932 115.336068 
L 91.033165 113.948665 
L 92.568398 112.59311 
L 94.103632 111.263535 
L 95.638865 109.90778 
L 97.174098 108.603372 
L 98.709331 107.302977 
L 100.244565 106.000722 
L 101.779798 104.729282 
L 103.315031 103.461957 
L 104.850265 102.157643 
L 106.385498 100.868298 
L 107.920731 99.636312 
L 109.455964 98.325296 
L 110.991198 97.032007 
L 112.526431 95.91388 
L 114.061664 94.726392 
L 115.596898 93.570392 
L 117.132131 92.284199 
L 118.667364 91.020632 
L 120.202597 89.773715 
L 121.737831 88.574296 
L 123.273064 87.355001 
L 124.808297 86.128534 
L 126.343531 84.910835 
L 127.878764 83.682588 
L 129.413997 82.490956 
L 130.94923 81.335 
L 132.484464 80.154699 
L 134.019697 78.929838 
L 135.55493 77.798124 
L 137.090164 76.622444 
L 138.625397 75.420842 
L 140.16063 74.21811 
L 141.695863 73.109182 
L 143.231097 72.001012 
L 144.76633 70.892842 
L 146.301563 69.785134 
L 147.836797 68.614328 
L 149.37203 67.396077 
L 150.907263 66.208592 
L 152.442496 65.095332 
L 153.97773 63.982072 
L 155.512963 62.842608 
L 157.048196 61.689249 
L 158.58343 60.533722 
L 160.118663 59.362007 
L 161.653896 58.224952 
L 163.189129 57.085407 
L 164.724363 55.947443 
L 166.259596 54.843051 
L 167.794829 53.705599 
L 169.330063 52.62459 
L 170.865296 51.500554 
L 172.400529 50.354546 
L 173.935762 49.207101 
L 175.470996 48.059647 
L 177.006229 46.911258 
L 178.541462 45.758759 
L 180.076696 44.58423 
L 181.611929 43.468645 
L 183.147162 42.307749 
L 184.682395 41.17486 
L 186.217629 40.027233 
L 187.752862 38.879606 
L 189.288095 37.731979 
L 189.288095 18.909091 
L 189.288095 18.909091 
L 187.752862 20.339614 
L 186.217629 21.760017 
L 184.682395 23.180732 
L 183.147162 24.617736 
L 181.611929 26.05667 
L 180.076696 27.48386 
L 178.541462 28.928466 
L 177.006229 30.357165 
L 175.470996 31.764758 
L 173.935762 33.198299 
L 172.400529 34.580692 
L 170.865296 36.034858 
L 169.330063 37.496487 
L 167.794829 38.924309 
L 166.259596 40.351937 
L 164.724363 41.788766 
L 163.189129 43.269168 
L 161.653896 44.726533 
L 160.118663 46.129722 
L 158.58343 47.508949 
L 157.048196 48.919662 
L 155.512963 50.358533 
L 153.97773 51.809368 
L 152.442496 53.259214 
L 150.907263 54.690875 
L 149.37203 56.029075 
L 147.836797 57.47507 
L 146.301563 58.823449 
L 144.76633 60.203949 
L 143.231097 61.628324 
L 141.695863 63.011485 
L 140.16063 64.369335 
L 138.625397 65.757152 
L 137.090164 67.1104 
L 135.55493 68.464627 
L 134.019697 69.872031 
L 132.484464 71.283726 
L 130.94923 72.617261 
L 129.413997 73.968182 
L 127.878764 75.281382 
L 126.343531 76.654786 
L 124.808297 78.037068 
L 123.273064 79.393081 
L 121.737831 80.744633 
L 120.202597 82.013069 
L 118.667364 83.356383 
L 117.132131 84.731312 
L 115.596898 86.07499 
L 114.061664 87.336213 
L 112.526431 88.671691 
L 110.991198 90.006325 
L 109.455964 91.30954 
L 107.920731 92.575617 
L 106.385498 93.842134 
L 104.850265 95.106482 
L 103.315031 96.362705 
L 101.779798 97.575369 
L 100.244565 98.799285 
L 98.709331 100.053857 
L 97.174098 101.287912 
L 95.638865 102.511142 
L 94.103632 103.764294 
L 92.568398 105.01481 
L 91.033165 106.266366 
L 89.497932 107.477747 
L 87.962698 108.684339 
L 86.427465 109.929106 
L 84.892232 111.134207 
L 83.356999 112.328508 
L 81.821765 113.49823 
L 80.286532 114.714386 
L 78.751299 115.853542 
L 77.216065 116.99257 
L 75.680832 118.23787 
L 74.145599 119.459418 
L 72.610366 120.604164 
L 71.075132 121.74891 
L 69.539899 122.893702 
L 68.004666 124.126349 
L 66.469432 125.297473 
L 64.934199 126.40947 
L 63.398966 127.604809 
L 61.863733 128.74675 
L 60.328499 129.850987 
L 58.793266 131.014022 
L 57.258033 132.12876 
L 55.722799 133.244559 
L 54.187566 134.361907 
L 52.652333 135.481186 
L 51.1171 136.638175 
L 49.581866 137.769051 
L 48.046633 138.912875 
L 46.5114 140.058104 
L 44.976166 141.230411 
L 43.440933 142.401798 
L 41.9057 143.531402 
L 40.370467 144.69824 
L 38.835233 145.820652 
L 37.3 146.923457 
z
" style="fill:#e41a1c;fill-opacity:0.15;"/>
   </g>
   <g id="matplotlib.axis_1">
    <g id="xtick_1">
     <g id="line2d_1">
      <defs>
       <path d="M 0 0 
L 0 3.5 
" id="m74b5cf738d" style="stroke:#000000;stroke-width:0.8;"/>
      </defs>
      <g>
       <use style="stroke:#000000;stroke-width:0.8;" x="37.3" xlink:href="#m74b5cf738d" y="189.2"/>
      </g>
     </g>
     <g id="text_1">
      <!-- 0 -->
      <g transform="translate(34.519531 203.357812)scale(0.1 -0.1)">
       <defs>
        <path d="M 4.15625 35.296875 
Q 4.15625 48 6.765625 55.734375 
Q 9.375 63.484375 14.515625 67.671875 
Q 19.671875 71.875 27.484375 71.875 
Q 33.25 71.875 37.59375 69.546875 
Q 41.9375 67.234375 44.765625 62.859375 
Q 47.609375 58.5 49.21875 52.21875 
Q 50.828125 45.953125 50.828125 35.296875 
Q 50.828125 22.703125 48.234375 14.96875 
Q 45.65625 7.234375 40.5 3 
Q 35.359375 -1.21875 27.484375 -1.21875 
Q 17.140625 -1.21875 11.234375 6.203125 
Q 4.15625 15.140625 4.15625 35.296875 
z
M 13.1875 35.296875 
Q 13.1875 17.671875 17.3125 11.828125 
Q 21.4375 6 27.484375 6 
Q 33.546875 6 37.671875 11.859375 
Q 41.796875 17.71875 41.796875 35.296875 
Q 41.796875 52.984375 37.671875 58.78125 
Q 33.546875 64.59375 27.390625 64.59375 
Q 21.34375 64.59375 17.71875 59.46875 
Q 13.1875 52.9375 13.1875 35.296875 
z
" id="ArialMT-48"/>
       </defs>
       <use xlink:href="#ArialMT-48"/>
      </g>
     </g>
    </g>
    <g id="xtick_2">
     <g id="line2d_2">
      <g>
       <use style="stroke:#000000;stroke-width:0.8;" x="75.297024" xlink:href="#m74b5cf738d" y="189.2"/>
      </g>
     </g>
     <g id="text_2">
      <!-- 25 -->
      <g transform="translate(69.736086 203.357812)scale(0.1 -0.1)">
       <defs>
        <path d="M 50.34375 8.453125 
L 50.34375 0 
L 3.03125 0 
Q 2.9375 3.171875 4.046875 6.109375 
Q 5.859375 10.9375 9.828125 15.625 
Q 13.8125 20.3125 21.34375 26.46875 
Q 33.015625 36.03125 37.109375 41.625 
Q 41.21875 47.21875 41.21875 52.203125 
Q 41.21875 57.421875 37.46875 61 
Q 33.734375 64.59375 27.734375 64.59375 
Q 21.390625 64.59375 17.578125 60.78125 
Q 13.765625 56.984375 13.71875 50.25 
L 4.6875 51.171875 
Q 5.609375 61.28125 11.65625 66.578125 
Q 17.71875 71.875 27.9375 71.875 
Q 38.234375 71.875 44.234375 66.15625 
Q 50.25 60.453125 50.25 52 
Q 50.25 47.703125 48.484375 43.546875 
Q 46.734375 39.40625 42.65625 34.8125 
Q 38.578125 30.21875 29.109375 22.21875 
Q 21.1875 15.578125 18.9375 13.203125 
Q 16.703125 10.84375 15.234375 8.453125 
z
" id="ArialMT-50"/>
        <path d="M 4.15625 18.75 
L 13.375 19.53125 
Q 14.40625 12.796875 18.140625 9.390625 
Q 21.875 6 27.15625 6 
Q 33.5 6 37.890625 10.78125 
Q 42.28125 15.578125 42.28125 23.484375 
Q 42.28125 31 38.0625 35.34375 
Q 33.84375 39.703125 27 39.703125 
Q 22.75 39.703125 19.328125 37.765625 
Q 15.921875 35.84375 13.96875 32.765625 
L 5.71875 33.84375 
L 12.640625 70.609375 
L 48.25 70.609375 
L 48.25 62.203125 
L 19.671875 62.203125 
L 15.828125 42.96875 
Q 22.265625 47.46875 29.34375 47.46875 
Q 38.71875 47.46875 45.15625 40.96875 
Q 51.609375 34.46875 51.609375 24.265625 
Q 51.609375 14.546875 45.953125 7.46875 
Q 39.0625 -1.21875 27.15625 -1.21875 
Q 17.390625 -1.21875 11.203125 4.25 
Q 5.03125 9.71875 4.15625 18.75 
z
" id="ArialMT-53"/>
       </defs>
       <use xlink:href="#ArialMT-50"/>
       <use x="55.615234" xlink:href="#ArialMT-53"/>
      </g>
     </g>
    </g>
    <g id="xtick_3">
     <g id="line2d_3">
      <g>
       <use style="stroke:#000000;stroke-width:0.8;" x="113.294048" xlink:href="#m74b5cf738d" y="189.2"/>
      </g>
     </g>
     <g id="text_3">
      <!-- 50 -->
      <g transform="translate(107.73311 203.357812)scale(0.1 -0.1)">
       <use xlink:href="#ArialMT-53"/>
       <use x="55.615234" xlink:href="#ArialMT-48"/>
      </g>
     </g>
    </g>
    <g id="xtick_4">
     <g id="line2d_4">
      <g>
       <use style="stroke:#000000;stroke-width:0.8;" x="151.291071" xlink:href="#m74b5cf738d" y="189.2"/>
      </g>
     </g>
     <g id="text_4">
      <!-- 75 -->
      <g transform="translate(145.730134 203.357812)scale(0.1 -0.1)">
       <defs>
        <path d="M 4.734375 62.203125 
L 4.734375 70.65625 
L 51.078125 70.65625 
L 51.078125 63.8125 
Q 44.234375 56.546875 37.515625 44.484375 
Q 30.8125 32.421875 27.15625 19.671875 
Q 24.515625 10.6875 23.78125 0 
L 14.75 0 
Q 14.890625 8.453125 18.0625 20.40625 
Q 21.234375 32.375 27.171875 43.484375 
Q 33.109375 54.59375 39.796875 62.203125 
z
" id="ArialMT-55"/>
       </defs>
       <use xlink:href="#ArialMT-55"/>
       <use x="55.615234" xlink:href="#ArialMT-53"/>
      </g>
     </g>
    </g>
    <g id="xtick_5">
     <g id="line2d_5">
      <g>
       <use style="stroke:#000000;stroke-width:0.8;" x="189.288095" xlink:href="#m74b5cf738d" y="189.2"/>
      </g>
     </g>
     <g id="text_5">
      <!-- 100 -->
      <g transform="translate(180.946689 203.357812)scale(0.1 -0.1)">
       <defs>
        <path d="M 37.25 0 
L 28.46875 0 
L 28.46875 56 
Q 25.296875 52.984375 20.140625 49.953125 
Q 14.984375 46.921875 10.890625 45.40625 
L 10.890625 53.90625 
Q 18.265625 57.375 23.78125 62.296875 
Q 29.296875 67.234375 31.59375 71.875 
L 37.25 71.875 
z
" id="ArialMT-49"/>
       </defs>
       <use xlink:href="#ArialMT-49"/>
       <use x="55.615234" xlink:href="#ArialMT-48"/>
       <use x="111.230469" xlink:href="#ArialMT-48"/>
      </g>
     </g>
    </g>
    <g id="text_6">
     <!-- expansion iteration -->
     <g transform="translate(75.124219 216.503125)scale(0.1 -0.1)">
      <defs>
       <path d="M 42.09375 16.703125 
L 51.171875 15.578125 
Q 49.03125 7.625 43.21875 3.21875 
Q 37.40625 -1.171875 28.375 -1.171875 
Q 17 -1.171875 10.328125 5.828125 
Q 3.65625 12.84375 3.65625 25.484375 
Q 3.65625 38.578125 10.390625 45.796875 
Q 17.140625 53.03125 27.875 53.03125 
Q 38.28125 53.03125 44.875 45.953125 
Q 51.46875 38.875 51.46875 26.03125 
Q 51.46875 25.25 51.421875 23.6875 
L 12.75 23.6875 
Q 13.234375 15.140625 17.578125 10.59375 
Q 21.921875 6.0625 28.421875 6.0625 
Q 33.25 6.0625 36.671875 8.59375 
Q 40.09375 11.140625 42.09375 16.703125 
z
M 13.234375 30.90625 
L 42.1875 30.90625 
Q 41.609375 37.453125 38.875 40.71875 
Q 34.671875 45.796875 27.984375 45.796875 
Q 21.921875 45.796875 17.796875 41.75 
Q 13.671875 37.703125 13.234375 30.90625 
z
" id="ArialMT-101"/>
       <path d="M 0.734375 0 
L 19.671875 26.953125 
L 2.15625 51.859375 
L 13.140625 51.859375 
L 21.09375 39.703125 
Q 23.34375 36.234375 24.703125 33.890625 
Q 26.859375 37.109375 28.65625 39.59375 
L 37.40625 51.859375 
L 47.90625 51.859375 
L 29.984375 27.4375 
L 49.265625 0 
L 38.484375 0 
L 27.828125 16.109375 
L 25 20.453125 
L 11.375 0 
z
" id="ArialMT-120"/>
       <path d="M 6.59375 -19.875 
L 6.59375 51.859375 
L 14.59375 51.859375 
L 14.59375 45.125 
Q 17.4375 49.078125 21 51.046875 
Q 24.5625 53.03125 29.640625 53.03125 
Q 36.28125 53.03125 41.359375 49.609375 
Q 46.4375 46.1875 49.015625 39.953125 
Q 51.609375 33.734375 51.609375 26.3125 
Q 51.609375 18.359375 48.75 11.984375 
Q 45.90625 5.609375 40.453125 2.21875 
Q 35.015625 -1.171875 29 -1.171875 
Q 24.609375 -1.171875 21.109375 0.6875 
Q 17.625 2.546875 15.375 5.375 
L 15.375 -19.875 
z
M 14.546875 25.640625 
Q 14.546875 15.625 18.59375 10.84375 
Q 22.65625 6.0625 28.421875 6.0625 
Q 34.28125 6.0625 38.453125 11.015625 
Q 42.625 15.96875 42.625 26.375 
Q 42.625 36.28125 38.546875 41.203125 
Q 34.46875 46.140625 28.8125 46.140625 
Q 23.1875 46.140625 18.859375 40.890625 
Q 14.546875 35.640625 14.546875 25.640625 
z
" id="ArialMT-112"/>
       <path d="M 40.4375 6.390625 
Q 35.546875 2.25 31.03125 0.53125 
Q 26.515625 -1.171875 21.34375 -1.171875 
Q 12.796875 -1.171875 8.203125 3 
Q 3.609375 7.171875 3.609375 13.671875 
Q 3.609375 17.484375 5.34375 20.625 
Q 7.078125 23.78125 9.890625 25.6875 
Q 12.703125 27.59375 16.21875 28.5625 
Q 18.796875 29.25 24.03125 29.890625 
Q 34.671875 31.15625 39.703125 32.90625 
Q 39.75 34.71875 39.75 35.203125 
Q 39.75 40.578125 37.25 42.78125 
Q 33.890625 45.75 27.25 45.75 
Q 21.046875 45.75 18.09375 43.578125 
Q 15.140625 41.40625 13.71875 35.890625 
L 5.125 37.0625 
Q 6.296875 42.578125 8.984375 45.96875 
Q 11.671875 49.359375 16.75 51.1875 
Q 21.828125 53.03125 28.515625 53.03125 
Q 35.15625 53.03125 39.296875 51.46875 
Q 43.453125 49.90625 45.40625 47.53125 
Q 47.359375 45.171875 48.140625 41.546875 
Q 48.578125 39.3125 48.578125 33.453125 
L 48.578125 21.734375 
Q 48.578125 9.46875 49.140625 6.21875 
Q 49.703125 2.984375 51.375 0 
L 42.1875 0 
Q 40.828125 2.734375 40.4375 6.390625 
z
M 39.703125 26.03125 
Q 34.90625 24.078125 25.34375 22.703125 
Q 19.921875 21.921875 17.671875 20.9375 
Q 15.4375 19.96875 14.203125 18.09375 
Q 12.984375 16.21875 12.984375 13.921875 
Q 12.984375 10.40625 15.640625 8.0625 
Q 18.3125 5.71875 23.4375 5.71875 
Q 28.515625 5.71875 32.46875 7.9375 
Q 36.421875 10.15625 38.28125 14.015625 
Q 39.703125 17 39.703125 22.796875 
z
" id="ArialMT-97"/>
       <path d="M 6.59375 0 
L 6.59375 51.859375 
L 14.5 51.859375 
L 14.5 44.484375 
Q 20.21875 53.03125 31 53.03125 
Q 35.6875 53.03125 39.625 51.34375 
Q 43.5625 49.65625 45.515625 46.921875 
Q 47.46875 44.1875 48.25 40.4375 
Q 48.734375 37.984375 48.734375 31.890625 
L 48.734375 0 
L 39.9375 0 
L 39.9375 31.546875 
Q 39.9375 36.921875 38.90625 39.578125 
Q 37.890625 42.234375 35.28125 43.8125 
Q 32.671875 45.40625 29.15625 45.40625 
Q 23.53125 45.40625 19.453125 41.84375 
Q 15.375 38.28125 15.375 28.328125 
L 15.375 0 
z
" id="ArialMT-110"/>
       <path d="M 3.078125 15.484375 
L 11.765625 16.84375 
Q 12.5 11.625 15.84375 8.84375 
Q 19.1875 6.0625 25.203125 6.0625 
Q 31.25 6.0625 34.171875 8.515625 
Q 37.109375 10.984375 37.109375 14.3125 
Q 37.109375 17.28125 34.515625 19 
Q 32.71875 20.171875 25.53125 21.96875 
Q 15.875 24.421875 12.140625 26.203125 
Q 8.40625 27.984375 6.46875 31.125 
Q 4.546875 34.28125 4.546875 38.09375 
Q 4.546875 41.546875 6.125 44.5 
Q 7.71875 47.46875 10.453125 49.421875 
Q 12.5 50.921875 16.03125 51.96875 
Q 19.578125 53.03125 23.640625 53.03125 
Q 29.734375 53.03125 34.34375 51.265625 
Q 38.96875 49.515625 41.15625 46.5 
Q 43.359375 43.5 44.1875 38.484375 
L 35.59375 37.3125 
Q 35.015625 41.3125 32.203125 43.546875 
Q 29.390625 45.796875 24.265625 45.796875 
Q 18.21875 45.796875 15.625 43.796875 
Q 13.03125 41.796875 13.03125 39.109375 
Q 13.03125 37.40625 14.109375 36.03125 
Q 15.1875 34.625 17.484375 33.6875 
Q 18.796875 33.203125 25.25 31.453125 
Q 34.578125 28.953125 38.25 27.359375 
Q 41.9375 25.78125 44.03125 22.75 
Q 46.140625 19.734375 46.140625 15.234375 
Q 46.140625 10.84375 43.578125 6.953125 
Q 41.015625 3.078125 36.171875 0.953125 
Q 31.34375 -1.171875 25.25 -1.171875 
Q 15.140625 -1.171875 9.84375 3.03125 
Q 4.546875 7.234375 3.078125 15.484375 
z
" id="ArialMT-115"/>
       <path d="M 6.640625 61.46875 
L 6.640625 71.578125 
L 15.4375 71.578125 
L 15.4375 61.46875 
z
M 6.640625 0 
L 6.640625 51.859375 
L 15.4375 51.859375 
L 15.4375 0 
z
" id="ArialMT-105"/>
       <path d="M 3.328125 25.921875 
Q 3.328125 40.328125 11.328125 47.265625 
Q 18.015625 53.03125 27.640625 53.03125 
Q 38.328125 53.03125 45.109375 46.015625 
Q 51.90625 39.015625 51.90625 26.65625 
Q 51.90625 16.65625 48.90625 10.90625 
Q 45.90625 5.171875 40.15625 2 
Q 34.421875 -1.171875 27.640625 -1.171875 
Q 16.75 -1.171875 10.03125 5.8125 
Q 3.328125 12.796875 3.328125 25.921875 
z
M 12.359375 25.921875 
Q 12.359375 15.96875 16.703125 11.015625 
Q 21.046875 6.0625 27.640625 6.0625 
Q 34.1875 6.0625 38.53125 11.03125 
Q 42.875 16.015625 42.875 26.21875 
Q 42.875 35.84375 38.5 40.796875 
Q 34.125 45.75 27.640625 45.75 
Q 21.046875 45.75 16.703125 40.8125 
Q 12.359375 35.890625 12.359375 25.921875 
z
" id="ArialMT-111"/>
       <path id="ArialMT-32"/>
       <path d="M 25.78125 7.859375 
L 27.046875 0.09375 
Q 23.34375 -0.6875 20.40625 -0.6875 
Q 15.625 -0.6875 12.984375 0.828125 
Q 10.359375 2.34375 9.28125 4.8125 
Q 8.203125 7.28125 8.203125 15.1875 
L 8.203125 45.015625 
L 1.765625 45.015625 
L 1.765625 51.859375 
L 8.203125 51.859375 
L 8.203125 64.703125 
L 16.9375 69.96875 
L 16.9375 51.859375 
L 25.78125 51.859375 
L 25.78125 45.015625 
L 16.9375 45.015625 
L 16.9375 14.703125 
Q 16.9375 10.9375 17.40625 9.859375 
Q 17.875 8.796875 18.921875 8.15625 
Q 19.96875 7.515625 21.921875 7.515625 
Q 23.390625 7.515625 25.78125 7.859375 
z
" id="ArialMT-116"/>
       <path d="M 6.5 0 
L 6.5 51.859375 
L 14.40625 51.859375 
L 14.40625 44 
Q 17.4375 49.515625 20 51.265625 
Q 22.5625 53.03125 25.640625 53.03125 
Q 30.078125 53.03125 34.671875 50.203125 
L 31.640625 42.046875 
Q 28.421875 43.953125 25.203125 43.953125 
Q 22.3125 43.953125 20.015625 42.21875 
Q 17.71875 40.484375 16.75 37.40625 
Q 15.28125 32.71875 15.28125 27.15625 
L 15.28125 0 
z
" id="ArialMT-114"/>
      </defs>
      <use xlink:href="#ArialMT-101"/>
      <use x="55.615234" xlink:href="#ArialMT-120"/>
      <use x="105.615234" xlink:href="#ArialMT-112"/>
      <use x="161.230469" xlink:href="#ArialMT-97"/>
      <use x="216.845703" xlink:href="#ArialMT-110"/>
      <use x="272.460938" xlink:href="#ArialMT-115"/>
      <use x="322.460938" xlink:href="#ArialMT-105"/>
      <use x="344.677734" xlink:href="#ArialMT-111"/>
      <use x="400.292969" xlink:href="#ArialMT-110"/>
      <use x="455.908203" xlink:href="#ArialMT-32"/>
      <use x="483.691406" xlink:href="#ArialMT-105"/>
      <use x="505.908203" xlink:href="#ArialMT-116"/>
      <use x="533.691406" xlink:href="#ArialMT-101"/>
      <use x="589.306641" xlink:href="#ArialMT-114"/>
      <use x="622.607422" xlink:href="#ArialMT-97"/>
      <use x="678.222656" xlink:href="#ArialMT-116"/>
      <use x="706.005859" xlink:href="#ArialMT-105"/>
      <use x="728.222656" xlink:href="#ArialMT-111"/>
      <use x="783.837891" xlink:href="#ArialMT-110"/>
     </g>
    </g>
   </g>
   <g id="matplotlib.axis_2">
    <g id="ytick_1">
     <g id="line2d_6">
      <defs>
       <path d="M 0 0 
L -3.5 0 
" id="ma32d32a169" style="stroke:#000000;stroke-width:0.8;"/>
      </defs>
      <g>
       <use style="stroke:#000000;stroke-width:0.8;" x="37.3" xlink:href="#ma32d32a169" y="189.021553"/>
      </g>
     </g>
     <g id="text_7">
      <!-- 1.25 -->
      <g transform="translate(10.839063 192.600459)scale(0.1 -0.1)">
       <defs>
        <path d="M 9.078125 0 
L 9.078125 10.015625 
L 19.09375 10.015625 
L 19.09375 0 
z
" id="ArialMT-46"/>
       </defs>
       <use xlink:href="#ArialMT-49"/>
       <use x="55.615234" xlink:href="#ArialMT-46"/>
       <use x="83.398438" xlink:href="#ArialMT-50"/>
       <use x="139.013672" xlink:href="#ArialMT-53"/>
      </g>
     </g>
    </g>
    <g id="ytick_2">
     <g id="line2d_7">
      <g>
       <use style="stroke:#000000;stroke-width:0.8;" x="37.3" xlink:href="#ma32d32a169" y="164.688896"/>
      </g>
     </g>
     <g id="text_8">
      <!-- 1.50 -->
      <g transform="translate(10.839063 168.267802)scale(0.1 -0.1)">
       <use xlink:href="#ArialMT-49"/>
       <use x="55.615234" xlink:href="#ArialMT-46"/>
       <use x="83.398438" xlink:href="#ArialMT-53"/>
       <use x="139.013672" xlink:href="#ArialMT-48"/>
      </g>
     </g>
    </g>
    <g id="ytick_3">
     <g id="line2d_8">
      <g>
       <use style="stroke:#000000;stroke-width:0.8;" x="37.3" xlink:href="#ma32d32a169" y="140.356239"/>
      </g>
     </g>
     <g id="text_9">
      <!-- 1.75 -->
      <g transform="translate(10.839063 143.935146)scale(0.1 -0.1)">
       <use xlink:href="#ArialMT-49"/>
       <use x="55.615234" xlink:href="#ArialMT-46"/>
       <use x="83.398438" xlink:href="#ArialMT-55"/>
       <use x="139.013672" xlink:href="#ArialMT-53"/>
      </g>
     </g>
    </g>
    <g id="ytick_4">
     <g id="line2d_9">
      <g>
       <use style="stroke:#000000;stroke-width:0.8;" x="37.3" xlink:href="#ma32d32a169" y="116.023583"/>
      </g>
     </g>
     <g id="text_10">
      <!-- 2.00 -->
      <g transform="translate(10.839063 119.602489)scale(0.1 -0.1)">
       <use xlink:href="#ArialMT-50"/>
       <use x="55.615234" xlink:href="#ArialMT-46"/>
       <use x="83.398438" xlink:href="#ArialMT-48"/>
       <use x="139.013672" xlink:href="#ArialMT-48"/>
      </g>
     </g>
    </g>
    <g id="ytick_5">
     <g id="line2d_10">
      <g>
       <use style="stroke:#000000;stroke-width:0.8;" x="37.3" xlink:href="#ma32d32a169" y="91.690926"/>
      </g>
     </g>
     <g id="text_11">
      <!-- 2.25 -->
      <g transform="translate(10.839063 95.269832)scale(0.1 -0.1)">
       <use xlink:href="#ArialMT-50"/>
       <use x="55.615234" xlink:href="#ArialMT-46"/>
       <use x="83.398438" xlink:href="#ArialMT-50"/>
       <use x="139.013672" xlink:href="#ArialMT-53"/>
      </g>
     </g>
    </g>
    <g id="ytick_6">
     <g id="line2d_11">
      <g>
       <use style="stroke:#000000;stroke-width:0.8;" x="37.3" xlink:href="#ma32d32a169" y="67.35827"/>
      </g>
     </g>
     <g id="text_12">
      <!-- 2.50 -->
      <g transform="translate(10.839063 70.937176)scale(0.1 -0.1)">
       <use xlink:href="#ArialMT-50"/>
       <use x="55.615234" xlink:href="#ArialMT-46"/>
       <use x="83.398438" xlink:href="#ArialMT-53"/>
       <use x="139.013672" xlink:href="#ArialMT-48"/>
      </g>
     </g>
    </g>
    <g id="ytick_7">
     <g id="line2d_12">
      <g>
       <use style="stroke:#000000;stroke-width:0.8;" x="37.3" xlink:href="#ma32d32a169" y="43.025613"/>
      </g>
     </g>
     <g id="text_13">
      <!-- 2.75 -->
      <g transform="translate(10.839063 46.604519)scale(0.1 -0.1)">
       <use xlink:href="#ArialMT-50"/>
       <use x="55.615234" xlink:href="#ArialMT-46"/>
       <use x="83.398438" xlink:href="#ArialMT-55"/>
       <use x="139.013672" xlink:href="#ArialMT-53"/>
      </g>
     </g>
    </g>
    <g id="ytick_8">
     <g id="line2d_13">
      <g>
       <use style="stroke:#000000;stroke-width:0.8;" x="37.3" xlink:href="#ma32d32a169" y="18.692956"/>
      </g>
     </g>
     <g id="text_14">
      <!-- 3.00 -->
      <g transform="translate(10.839063 22.271863)scale(0.1 -0.1)">
       <defs>
        <path d="M 4.203125 18.890625 
L 12.984375 20.0625 
Q 14.5 12.59375 18.140625 9.296875 
Q 21.78125 6 27 6 
Q 33.203125 6 37.46875 10.296875 
Q 41.75 14.59375 41.75 20.953125 
Q 41.75 27 37.796875 30.921875 
Q 33.84375 34.859375 27.734375 34.859375 
Q 25.25 34.859375 21.53125 33.890625 
L 22.515625 41.609375 
Q 23.390625 41.5 23.921875 41.5 
Q 29.546875 41.5 34.03125 44.421875 
Q 38.53125 47.359375 38.53125 53.46875 
Q 38.53125 58.296875 35.25 61.46875 
Q 31.984375 64.65625 26.8125 64.65625 
Q 21.6875 64.65625 18.265625 61.421875 
Q 14.84375 58.203125 13.875 51.765625 
L 5.078125 53.328125 
Q 6.6875 62.15625 12.390625 67.015625 
Q 18.109375 71.875 26.609375 71.875 
Q 32.46875 71.875 37.390625 69.359375 
Q 42.328125 66.84375 44.9375 62.5 
Q 47.5625 58.15625 47.5625 53.265625 
Q 47.5625 48.640625 45.0625 44.828125 
Q 42.578125 41.015625 37.703125 38.765625 
Q 44.046875 37.3125 47.5625 32.6875 
Q 51.078125 28.078125 51.078125 21.140625 
Q 51.078125 11.765625 44.234375 5.25 
Q 37.40625 -1.265625 26.953125 -1.265625 
Q 17.53125 -1.265625 11.296875 4.34375 
Q 5.078125 9.96875 4.203125 18.890625 
z
" id="ArialMT-51"/>
       </defs>
       <use xlink:href="#ArialMT-51"/>
       <use x="55.615234" xlink:href="#ArialMT-46"/>
       <use x="83.398438" xlink:href="#ArialMT-48"/>
       <use x="139.013672" xlink:href="#ArialMT-48"/>
      </g>
     </g>
    </g>
    <g id="text_15">
     <!-- mean DOR -->
     <g transform="translate(4.851563 125.00625)rotate(-90)scale(0.1 -0.1)">
      <defs>
       <path d="M 6.59375 0 
L 6.59375 51.859375 
L 14.453125 51.859375 
L 14.453125 44.578125 
Q 16.890625 48.390625 20.9375 50.703125 
Q 25 53.03125 30.171875 53.03125 
Q 35.9375 53.03125 39.625 50.640625 
Q 43.3125 48.25 44.828125 43.953125 
Q 50.984375 53.03125 60.84375 53.03125 
Q 68.5625 53.03125 72.703125 48.75 
Q 76.859375 44.484375 76.859375 35.59375 
L 76.859375 0 
L 68.109375 0 
L 68.109375 32.671875 
Q 68.109375 37.9375 67.25 40.25 
Q 66.40625 42.578125 64.15625 43.984375 
Q 61.921875 45.40625 58.890625 45.40625 
Q 53.421875 45.40625 49.796875 41.765625 
Q 46.1875 38.140625 46.1875 30.125 
L 46.1875 0 
L 37.40625 0 
L 37.40625 33.6875 
Q 37.40625 39.546875 35.25 42.46875 
Q 33.109375 45.40625 28.21875 45.40625 
Q 24.515625 45.40625 21.359375 43.453125 
Q 18.21875 41.5 16.796875 37.734375 
Q 15.375 33.984375 15.375 26.90625 
L 15.375 0 
z
" id="ArialMT-109"/>
       <path d="M 7.71875 0 
L 7.71875 71.578125 
L 32.375 71.578125 
Q 40.71875 71.578125 45.125 70.5625 
Q 51.265625 69.140625 55.609375 65.4375 
Q 61.28125 60.640625 64.078125 53.1875 
Q 66.890625 45.75 66.890625 36.1875 
Q 66.890625 28.03125 64.984375 21.734375 
Q 63.09375 15.4375 60.109375 11.296875 
Q 57.125 7.171875 53.578125 4.796875 
Q 50.046875 2.4375 45.046875 1.21875 
Q 40.046875 0 33.546875 0 
z
M 17.1875 8.453125 
L 32.46875 8.453125 
Q 39.546875 8.453125 43.578125 9.765625 
Q 47.609375 11.078125 50 13.484375 
Q 53.375 16.84375 55.25 22.53125 
Q 57.125 28.21875 57.125 36.328125 
Q 57.125 47.5625 53.4375 53.59375 
Q 49.75 59.625 44.484375 61.671875 
Q 40.671875 63.140625 32.234375 63.140625 
L 17.1875 63.140625 
z
" id="ArialMT-68"/>
       <path d="M 4.828125 34.859375 
Q 4.828125 52.6875 14.390625 62.765625 
Q 23.96875 72.859375 39.109375 72.859375 
Q 49.03125 72.859375 56.984375 68.109375 
Q 64.9375 63.375 69.109375 54.90625 
Q 73.296875 46.4375 73.296875 35.6875 
Q 73.296875 24.8125 68.890625 16.21875 
Q 64.5 7.625 56.4375 3.203125 
Q 48.390625 -1.21875 39.0625 -1.21875 
Q 28.953125 -1.21875 20.984375 3.65625 
Q 13.03125 8.546875 8.921875 16.984375 
Q 4.828125 25.4375 4.828125 34.859375 
z
M 14.59375 34.71875 
Q 14.59375 21.78125 21.546875 14.328125 
Q 28.515625 6.890625 39.015625 6.890625 
Q 49.703125 6.890625 56.609375 14.40625 
Q 63.53125 21.921875 63.53125 35.75 
Q 63.53125 44.484375 60.578125 51 
Q 57.625 57.515625 51.921875 61.109375 
Q 46.234375 64.703125 39.15625 64.703125 
Q 29.109375 64.703125 21.84375 57.78125 
Q 14.59375 50.875 14.59375 34.71875 
z
" id="ArialMT-79"/>
       <path d="M 7.859375 0 
L 7.859375 71.578125 
L 39.59375 71.578125 
Q 49.171875 71.578125 54.140625 69.640625 
Q 59.125 67.71875 62.109375 62.828125 
Q 65.09375 57.953125 65.09375 52.046875 
Q 65.09375 44.4375 60.15625 39.203125 
Q 55.21875 33.984375 44.921875 32.5625 
Q 48.6875 30.765625 50.640625 29 
Q 54.78125 25.203125 58.5 19.484375 
L 70.953125 0 
L 59.03125 0 
L 49.5625 14.890625 
Q 45.40625 21.34375 42.71875 24.75 
Q 40.046875 28.171875 37.921875 29.53125 
Q 35.796875 30.90625 33.59375 31.453125 
Q 31.984375 31.78125 28.328125 31.78125 
L 17.328125 31.78125 
L 17.328125 0 
z
M 17.328125 39.984375 
L 37.703125 39.984375 
Q 44.1875 39.984375 47.84375 41.328125 
Q 51.515625 42.671875 53.421875 45.625 
Q 55.328125 48.578125 55.328125 52.046875 
Q 55.328125 57.125 51.640625 60.390625 
Q 47.953125 63.671875 39.984375 63.671875 
L 17.328125 63.671875 
z
" id="ArialMT-82"/>
      </defs>
      <use xlink:href="#ArialMT-109"/>
      <use x="83.300781" xlink:href="#ArialMT-101"/>
      <use x="138.916016" xlink:href="#ArialMT-97"/>
      <use x="194.53125" xlink:href="#ArialMT-110"/>
      <use x="250.146484" xlink:href="#ArialMT-32"/>
      <use x="277.929688" xlink:href="#ArialMT-68"/>
      <use x="350.146484" xlink:href="#ArialMT-79"/>
      <use x="427.929688" xlink:href="#ArialMT-82"/>
     </g>
    </g>
   </g>
   <g id="line2d_14">
    <path clip-path="url(#pe6b825119f)" d="M 37.3 154.659326 
L 38.835233 153.382923 
L 40.370467 152.10652 
L 41.9057 150.830117 
L 43.440933 149.553715 
L 44.976166 148.277312 
L 46.5114 147.000909 
L 48.046633 145.724506 
L 49.581866 144.448104 
L 51.1171 143.171701 
L 52.652333 141.895298 
L 54.187566 140.618895 
L 55.722799 139.342492 
L 57.258033 138.06609 
L 58.793266 136.789687 
L 60.328499 135.513284 
L 61.863733 134.236881 
L 63.398966 132.960479 
L 64.934199 131.684076 
L 66.469432 130.407673 
L 68.004666 129.13127 
L 69.539899 127.854868 
L 71.075132 126.578465 
L 72.610366 125.302062 
L 74.145599 124.025659 
L 75.680832 122.749257 
L 77.216065 121.472854 
L 78.751299 120.196451 
L 80.286532 118.920048 
L 81.821765 117.643645 
L 83.356999 116.367243 
L 84.892232 115.09084 
L 86.427465 113.814437 
L 87.962698 112.538034 
L 89.497932 111.261632 
L 91.033165 109.985229 
L 92.568398 108.708826 
L 94.103632 107.432423 
L 95.638865 106.156021 
L 97.174098 104.879618 
L 98.709331 103.603215 
L 100.244565 102.326812 
L 101.779798 101.05041 
L 103.315031 99.774007 
L 104.850265 98.497604 
L 106.385498 97.221201 
L 107.920731 95.944798 
L 109.455964 94.668396 
L 110.991198 93.391993 
L 112.526431 92.11559 
L 114.061664 90.839187 
L 115.596898 89.562785 
L 117.132131 88.286382 
L 118.667364 87.009979 
L 120.202597 85.733576 
L 121.737831 84.457174 
L 123.273064 83.180771 
L 124.808297 81.904368 
L 126.343531 80.627965 
L 127.878764 79.351562 
L 129.413997 78.07516 
L 130.94923 76.798757 
L 132.484464 75.522354 
L 134.019697 74.245951 
L 135.55493 72.969549 
L 137.090164 71.693146 
L 138.625397 70.416743 
L 140.16063 69.14034 
L 141.695863 67.863938 
L 143.231097 66.587535 
L 144.76633 65.311132 
L 146.301563 64.034729 
L 147.836797 62.758327 
L 149.37203 61.481924 
L 150.907263 60.205521 
L 152.442496 58.929118 
L 153.97773 57.652715 
L 155.512963 56.376313 
L 157.048196 55.09991 
L 158.58343 53.823507 
L 160.118663 52.547104 
L 161.653896 51.270702 
L 163.189129 49.994299 
L 164.724363 48.717896 
L 166.259596 47.441493 
L 167.794829 46.165091 
L 169.330063 44.888688 
L 170.865296 43.612285 
L 172.400529 42.335882 
L 173.935762 41.05948 
L 175.470996 39.783077 
L 177.006229 38.506674 
L 178.541462 37.230271 
L 180.076696 35.953868 
L 181.611929 34.677466 
L 183.147162 33.401063 
L 184.682395 32.12466 
L 186.217629 30.848257 
L 187.752862 29.571855 
L 189.288095 28.295452 
" style="fill:none;stroke:#e41a1c;stroke-linecap:square;stroke-width:2.25;"/>
   </g>
   <g id="patch_3">
    <path d="M 37.3 189.2 
L 37.3 10.8 
" style="fill:none;stroke:#000000;stroke-linecap:square;stroke-linejoin:miter;stroke-width:0.8;"/>
   </g>
   <g id="patch_4">
    <path d="M 37.3 189.2 
L 196.8875 189.2 
" style="fill:none;stroke:#000000;stroke-linecap:square;stroke-linejoin:miter;stroke-width:0.8;"/>
   </g>
   <g id="text_16">
    <!-- $r=0.89$  -->
    <g transform="translate(53.25875 44.6375)scale(0.1 -0.1)">
     <defs>
      <path d="M 44.578125 46.390625 
Q 43.21875 47.125 41.453125 47.515625 
Q 39.703125 47.90625 37.703125 47.90625 
Q 30.515625 47.90625 25.140625 42.453125 
Q 19.78125 37.015625 18.015625 27.875 
L 12.5 0 
L 3.515625 0 
L 14.203125 54.6875 
L 23.1875 54.6875 
L 21.484375 46.1875 
Q 25.046875 50.921875 30 53.453125 
Q 34.96875 56 40.578125 56 
Q 42.046875 56 43.453125 55.828125 
Q 44.875 55.671875 46.296875 55.28125 
z
" id="DejaVuSans-Oblique-114"/>
      <path d="M 10.59375 45.40625 
L 73.1875 45.40625 
L 73.1875 37.203125 
L 10.59375 37.203125 
z
M 10.59375 25.484375 
L 73.1875 25.484375 
L 73.1875 17.1875 
L 10.59375 17.1875 
z
" id="DejaVuSans-61"/>
      <path d="M 31.78125 66.40625 
Q 24.171875 66.40625 20.328125 58.90625 
Q 16.5 51.421875 16.5 36.375 
Q 16.5 21.390625 20.328125 13.890625 
Q 24.171875 6.390625 31.78125 6.390625 
Q 39.453125 6.390625 43.28125 13.890625 
Q 47.125 21.390625 47.125 36.375 
Q 47.125 51.421875 43.28125 58.90625 
Q 39.453125 66.40625 31.78125 66.40625 
z
M 31.78125 74.21875 
Q 44.046875 74.21875 50.515625 64.515625 
Q 56.984375 54.828125 56.984375 36.375 
Q 56.984375 17.96875 50.515625 8.265625 
Q 44.046875 -1.421875 31.78125 -1.421875 
Q 19.53125 -1.421875 13.0625 8.265625 
Q 6.59375 17.96875 6.59375 36.375 
Q 6.59375 54.828125 13.0625 64.515625 
Q 19.53125 74.21875 31.78125 74.21875 
z
" id="DejaVuSans-48"/>
      <path d="M 10.6875 12.40625 
L 21 12.40625 
L 21 0 
L 10.6875 0 
z
" id="DejaVuSans-46"/>
      <path d="M 31.78125 34.625 
Q 24.75 34.625 20.71875 30.859375 
Q 16.703125 27.09375 16.703125 20.515625 
Q 16.703125 13.921875 20.71875 10.15625 
Q 24.75 6.390625 31.78125 6.390625 
Q 38.8125 6.390625 42.859375 10.171875 
Q 46.921875 13.96875 46.921875 20.515625 
Q 46.921875 27.09375 42.890625 30.859375 
Q 38.875 34.625 31.78125 34.625 
z
M 21.921875 38.8125 
Q 15.578125 40.375 12.03125 44.71875 
Q 8.5 49.078125 8.5 55.328125 
Q 8.5 64.0625 14.71875 69.140625 
Q 20.953125 74.21875 31.78125 74.21875 
Q 42.671875 74.21875 48.875 69.140625 
Q 55.078125 64.0625 55.078125 55.328125 
Q 55.078125 49.078125 51.53125 44.71875 
Q 48 40.375 41.703125 38.8125 
Q 48.828125 37.15625 52.796875 32.3125 
Q 56.78125 27.484375 56.78125 20.515625 
Q 56.78125 9.90625 50.3125 4.234375 
Q 43.84375 -1.421875 31.78125 -1.421875 
Q 19.734375 -1.421875 13.25 4.234375 
Q 6.78125 9.90625 6.78125 20.515625 
Q 6.78125 27.484375 10.78125 32.3125 
Q 14.796875 37.15625 21.921875 38.8125 
z
M 18.3125 54.390625 
Q 18.3125 48.734375 21.84375 45.5625 
Q 25.390625 42.390625 31.78125 42.390625 
Q 38.140625 42.390625 41.71875 45.5625 
Q 45.3125 48.734375 45.3125 54.390625 
Q 45.3125 60.0625 41.71875 63.234375 
Q 38.140625 66.40625 31.78125 66.40625 
Q 25.390625 66.40625 21.84375 63.234375 
Q 18.3125 60.0625 18.3125 54.390625 
z
" id="DejaVuSans-56"/>
      <path d="M 10.984375 1.515625 
L 10.984375 10.5 
Q 14.703125 8.734375 18.5 7.8125 
Q 22.3125 6.890625 25.984375 6.890625 
Q 35.75 6.890625 40.890625 13.453125 
Q 46.046875 20.015625 46.78125 33.40625 
Q 43.953125 29.203125 39.59375 26.953125 
Q 35.25 24.703125 29.984375 24.703125 
Q 19.046875 24.703125 12.671875 31.3125 
Q 6.296875 37.9375 6.296875 49.421875 
Q 6.296875 60.640625 12.9375 67.421875 
Q 19.578125 74.21875 30.609375 74.21875 
Q 43.265625 74.21875 49.921875 64.515625 
Q 56.59375 54.828125 56.59375 36.375 
Q 56.59375 19.140625 48.40625 8.859375 
Q 40.234375 -1.421875 26.421875 -1.421875 
Q 22.703125 -1.421875 18.890625 -0.6875 
Q 15.09375 0.046875 10.984375 1.515625 
z
M 30.609375 32.421875 
Q 37.25 32.421875 41.125 36.953125 
Q 45.015625 41.5 45.015625 49.421875 
Q 45.015625 57.28125 41.125 61.84375 
Q 37.25 66.40625 30.609375 66.40625 
Q 23.96875 66.40625 20.09375 61.84375 
Q 16.21875 57.28125 16.21875 49.421875 
Q 16.21875 41.5 20.09375 36.953125 
Q 23.96875 32.421875 30.609375 32.421875 
z
" id="DejaVuSans-57"/>
     </defs>
     <use transform="translate(0 0.78125)" xlink:href="#DejaVuSans-Oblique-114"/>
     <use transform="translate(60.595703 0.78125)" xlink:href="#DejaVuSans-61"/>
     <use transform="translate(163.867188 0.78125)" xlink:href="#DejaVuSans-48"/>
     <use transform="translate(227.490234 0.78125)" xlink:href="#DejaVuSans-46"/>
     <use transform="translate(256.652344 0.78125)" xlink:href="#DejaVuSans-56"/>
     <use transform="translate(320.275391 0.78125)" xlink:href="#DejaVuSans-57"/>
     <use transform="translate(383.898438 0.78125)" xlink:href="#ArialMT-32"/>
    </g>
    <!-- $P&lt;10^{-26}$ -->
    <g transform="translate(53.25875 55.4)scale(0.1 -0.1)">
     <defs>
      <path d="M 16.890625 72.90625 
L 39.703125 72.90625 
Q 49.65625 72.90625 54.875 68.265625 
Q 60.109375 63.625 60.109375 54.6875 
Q 60.109375 42.671875 52.390625 35.984375 
Q 44.671875 29.296875 30.71875 29.296875 
L 18.3125 29.296875 
L 12.59375 0 
L 2.6875 0 
z
M 25.203125 64.796875 
L 19.921875 37.40625 
L 32.328125 37.40625 
Q 40.71875 37.40625 45.203125 41.703125 
Q 49.703125 46 49.703125 54 
Q 49.703125 59.125 46.65625 61.953125 
Q 43.609375 64.796875 38.09375 64.796875 
z
" id="DejaVuSans-Oblique-80"/>
      <path d="M 73.1875 49.21875 
L 22.796875 31.296875 
L 73.1875 13.484375 
L 73.1875 4.59375 
L 10.59375 27.296875 
L 10.59375 35.40625 
L 73.1875 58.109375 
z
" id="DejaVuSans-60"/>
      <path d="M 12.40625 8.296875 
L 28.515625 8.296875 
L 28.515625 63.921875 
L 10.984375 60.40625 
L 10.984375 69.390625 
L 28.421875 72.90625 
L 38.28125 72.90625 
L 38.28125 8.296875 
L 54.390625 8.296875 
L 54.390625 0 
L 12.40625 0 
z
" id="DejaVuSans-49"/>
      <path d="M 10.59375 35.5 
L 73.1875 35.5 
L 73.1875 27.203125 
L 10.59375 27.203125 
z
" id="DejaVuSans-8722"/>
      <path d="M 19.1875 8.296875 
L 53.609375 8.296875 
L 53.609375 0 
L 7.328125 0 
L 7.328125 8.296875 
Q 12.9375 14.109375 22.625 23.890625 
Q 32.328125 33.6875 34.8125 36.53125 
Q 39.546875 41.84375 41.421875 45.53125 
Q 43.3125 49.21875 43.3125 52.78125 
Q 43.3125 58.59375 39.234375 62.25 
Q 35.15625 65.921875 28.609375 65.921875 
Q 23.96875 65.921875 18.8125 64.3125 
Q 13.671875 62.703125 7.8125 59.421875 
L 7.8125 69.390625 
Q 13.765625 71.78125 18.9375 73 
Q 24.125 74.21875 28.421875 74.21875 
Q 39.75 74.21875 46.484375 68.546875 
Q 53.21875 62.890625 53.21875 53.421875 
Q 53.21875 48.921875 51.53125 44.890625 
Q 49.859375 40.875 45.40625 35.40625 
Q 44.1875 33.984375 37.640625 27.21875 
Q 31.109375 20.453125 19.1875 8.296875 
z
" id="DejaVuSans-50"/>
      <path d="M 33.015625 40.375 
Q 26.375 40.375 22.484375 35.828125 
Q 18.609375 31.296875 18.609375 23.390625 
Q 18.609375 15.53125 22.484375 10.953125 
Q 26.375 6.390625 33.015625 6.390625 
Q 39.65625 6.390625 43.53125 10.953125 
Q 47.40625 15.53125 47.40625 23.390625 
Q 47.40625 31.296875 43.53125 35.828125 
Q 39.65625 40.375 33.015625 40.375 
z
M 52.59375 71.296875 
L 52.59375 62.3125 
Q 48.875 64.0625 45.09375 64.984375 
Q 41.3125 65.921875 37.59375 65.921875 
Q 27.828125 65.921875 22.671875 59.328125 
Q 17.53125 52.734375 16.796875 39.40625 
Q 19.671875 43.65625 24.015625 45.921875 
Q 28.375 48.1875 33.59375 48.1875 
Q 44.578125 48.1875 50.953125 41.515625 
Q 57.328125 34.859375 57.328125 23.390625 
Q 57.328125 12.15625 50.6875 5.359375 
Q 44.046875 -1.421875 33.015625 -1.421875 
Q 20.359375 -1.421875 13.671875 8.265625 
Q 6.984375 17.96875 6.984375 36.375 
Q 6.984375 53.65625 15.1875 63.9375 
Q 23.390625 74.21875 37.203125 74.21875 
Q 40.921875 74.21875 44.703125 73.484375 
Q 48.484375 72.75 52.59375 71.296875 
z
" id="DejaVuSans-54"/>
     </defs>
     <use transform="translate(0 0.765625)" xlink:href="#DejaVuSans-Oblique-80"/>
     <use transform="translate(79.785156 0.765625)" xlink:href="#DejaVuSans-60"/>
     <use transform="translate(183.056641 0.765625)" xlink:href="#DejaVuSans-49"/>
     <use transform="translate(246.679688 0.765625)" xlink:href="#DejaVuSans-48"/>
     <use transform="translate(311.259766 39.046875)scale(0.7)" xlink:href="#DejaVuSans-8722"/>
     <use transform="translate(369.912109 39.046875)scale(0.7)" xlink:href="#DejaVuSans-50"/>
     <use transform="translate(414.448242 39.046875)scale(0.7)" xlink:href="#DejaVuSans-54"/>
    </g>
   </g>
  </g>
 </g>
 <defs>
  <clipPath id="pe6b825119f">
   <rect height="178.4" width="159.5875" x="37.3" y="10.8"/>
  </clipPath>
 </defs>
</svg>
