<?xml version="1.0" encoding="utf-8" standalone="no"?>
<!DOCTYPE svg PUBLIC "-//W3C//DTD SVG 1.1//EN"
  "http://www.w3.org/Graphics/SVG/1.1/DTD/svg11.dtd">
<!-- Created with matplotlib (https://matplotlib.org/) -->
<svg height="216pt" version="1.1" viewBox="0 0 216 216" width="216pt" xmlns="http://www.w3.org/2000/svg" xmlns:xlink="http://www.w3.org/1999/xlink">
 <metadata>
  <rdf:RDF xmlns:cc="http://creativecommons.org/ns#" xmlns:dc="http://purl.org/dc/elements/1.1/" xmlns:rdf="http://www.w3.org/1999/02/22-rdf-syntax-ns#">
   <cc:Work>
    <dc:type rdf:resource="http://purl.org/dc/dcmitype/StillImage"/>
    <dc:date>2023-05-14T13:30:02.011294</dc:date>
    <dc:format>image/svg+xml</dc:format>
    <dc:creator>
     <cc:Agent>
      <dc:title>Matplotlib v3.3.4, https://matplotlib.org/</dc:title>
     </cc:Agent>
    </dc:creator>
   </cc:Work>
  </rdf:RDF>
 </metadata>
 <defs>
  <style type="text/css">*{stroke-linecap:butt;stroke-linejoin:round;}</style>
 </defs>
 <g id="figure_1">
  <g id="patch_1">
   <path d="M 0 216 
L 216 216 
L 216 0 
L 0 0 
z
" style="fill:none;"/>
  </g>
  <g id="axes_1">
   <g id="patch_2">
    <path d="M 39.925 189.2 
L 196.8875 189.2 
L 196.8875 10.8 
L 39.925 10.8 
z
" style="fill:#ffffff;"/>
   </g>
   <g id="PathCollection_1">
    <defs>
     <path d="M 0 3 
C 0.795609 3 1.55874 2.683901 2.12132 2.12132 
C 2.683901 1.55874 3 0.795609 3 0 
C 3 -0.795609 2.683901 -1.55874 2.12132 -2.12132 
C 1.55874 -2.683901 0.795609 -3 0 -3 
C -0.795609 -3 -1.55874 -2.683901 -2.12132 -2.12132 
C -2.683901 -1.55874 -3 -0.795609 -3 0 
C -3 0.795609 -2.683901 1.55874 -2.12132 2.12132 
C -1.55874 2.683901 -0.795609 3 0 3 
z
" id="mf98ffa942d" style="stroke:#000000;stroke-opacity:0.8;"/>
    </defs>
    <g clip-path="url(#pc408df18eb)">
     <use style="fill-opacity:0.8;stroke:#000000;stroke-opacity:0.8;" x="39.925" xlink:href="#mf98ffa942d" y="160.097919"/>
     <use style="fill-opacity:0.8;stroke:#000000;stroke-opacity:0.8;" x="41.419881" xlink:href="#mf98ffa942d" y="158.672076"/>
     <use style="fill-opacity:0.8;stroke:#000000;stroke-opacity:0.8;" x="42.914762" xlink:href="#mf98ffa942d" y="158.369564"/>
     <use style="fill-opacity:0.8;stroke:#000000;stroke-opacity:0.8;" x="44.409643" xlink:href="#mf98ffa942d" y="158.902587"/>
     <use style="fill-opacity:0.8;stroke:#000000;stroke-opacity:0.8;" x="45.904524" xlink:href="#mf98ffa942d" y="154.461655"/>
     <use style="fill-opacity:0.8;stroke:#000000;stroke-opacity:0.8;" x="47.399405" xlink:href="#mf98ffa942d" y="155.518695"/>
     <use style="fill-opacity:0.8;stroke:#000000;stroke-opacity:0.8;" x="48.894286" xlink:href="#mf98ffa942d" y="154.202615"/>
     <use style="fill-opacity:0.8;stroke:#000000;stroke-opacity:0.8;" x="50.389167" xlink:href="#mf98ffa942d" y="154.035944"/>
     <use style="fill-opacity:0.8;stroke:#000000;stroke-opacity:0.8;" x="51.884048" xlink:href="#mf98ffa942d" y="149.844675"/>
     <use style="fill-opacity:0.8;stroke:#000000;stroke-opacity:0.8;" x="53.378929" xlink:href="#mf98ffa942d" y="153.793565"/>
     <use style="fill-opacity:0.8;stroke:#000000;stroke-opacity:0.8;" x="54.87381" xlink:href="#mf98ffa942d" y="151.277317"/>
     <use style="fill-opacity:0.8;stroke:#000000;stroke-opacity:0.8;" x="56.36869" xlink:href="#mf98ffa942d" y="152.273767"/>
     <use style="fill-opacity:0.8;stroke:#000000;stroke-opacity:0.8;" x="57.863571" xlink:href="#mf98ffa942d" y="150.912029"/>
     <use style="fill-opacity:0.8;stroke:#000000;stroke-opacity:0.8;" x="59.358452" xlink:href="#mf98ffa942d" y="144.031331"/>
     <use style="fill-opacity:0.8;stroke:#000000;stroke-opacity:0.8;" x="60.853333" xlink:href="#mf98ffa942d" y="153.083565"/>
     <use style="fill-opacity:0.8;stroke:#000000;stroke-opacity:0.8;" x="62.348214" xlink:href="#mf98ffa942d" y="154.825107"/>
     <use style="fill-opacity:0.8;stroke:#000000;stroke-opacity:0.8;" x="63.843095" xlink:href="#mf98ffa942d" y="155.30971"/>
     <use style="fill-opacity:0.8;stroke:#000000;stroke-opacity:0.8;" x="65.337976" xlink:href="#mf98ffa942d" y="145.693368"/>
     <use style="fill-opacity:0.8;stroke:#000000;stroke-opacity:0.8;" x="66.832857" xlink:href="#mf98ffa942d" y="145.390491"/>
     <use style="fill-opacity:0.8;stroke:#000000;stroke-opacity:0.8;" x="68.327738" xlink:href="#mf98ffa942d" y="153.568168"/>
     <use style="fill-opacity:0.8;stroke:#000000;stroke-opacity:0.8;" x="69.822619" xlink:href="#mf98ffa942d" y="145.160305"/>
     <use style="fill-opacity:0.8;stroke:#000000;stroke-opacity:0.8;" x="71.3175" xlink:href="#mf98ffa942d" y="135.995249"/>
     <use style="fill-opacity:0.8;stroke:#000000;stroke-opacity:0.8;" x="72.812381" xlink:href="#mf98ffa942d" y="142.859622"/>
     <use style="fill-opacity:0.8;stroke:#000000;stroke-opacity:0.8;" x="74.307262" xlink:href="#mf98ffa942d" y="150.703308"/>
     <use style="fill-opacity:0.8;stroke:#000000;stroke-opacity:0.8;" x="75.802143" xlink:href="#mf98ffa942d" y="154.06217"/>
     <use style="fill-opacity:0.8;stroke:#000000;stroke-opacity:0.8;" x="77.297024" xlink:href="#mf98ffa942d" y="153.098161"/>
     <use style="fill-opacity:0.8;stroke:#000000;stroke-opacity:0.8;" x="78.791905" xlink:href="#mf98ffa942d" y="151.44563"/>
     <use style="fill-opacity:0.8;stroke:#000000;stroke-opacity:0.8;" x="80.286786" xlink:href="#mf98ffa942d" y="143.021028"/>
     <use style="fill-opacity:0.8;stroke:#000000;stroke-opacity:0.8;" x="81.781667" xlink:href="#mf98ffa942d" y="148.418283"/>
     <use style="fill-opacity:0.8;stroke:#000000;stroke-opacity:0.8;" x="83.276548" xlink:href="#mf98ffa942d" y="146.728974"/>
     <use style="fill-opacity:0.8;stroke:#000000;stroke-opacity:0.8;" x="84.771429" xlink:href="#mf98ffa942d" y="152.30444"/>
     <use style="fill-opacity:0.8;stroke:#000000;stroke-opacity:0.8;" x="86.26631" xlink:href="#mf98ffa942d" y="155.558895"/>
     <use style="fill-opacity:0.8;stroke:#000000;stroke-opacity:0.8;" x="87.76119" xlink:href="#mf98ffa942d" y="154.902509"/>
     <use style="fill-opacity:0.8;stroke:#000000;stroke-opacity:0.8;" x="89.256071" xlink:href="#mf98ffa942d" y="155.348411"/>
     <use style="fill-opacity:0.8;stroke:#000000;stroke-opacity:0.8;" x="90.750952" xlink:href="#mf98ffa942d" y="150.071832"/>
     <use style="fill-opacity:0.8;stroke:#000000;stroke-opacity:0.8;" x="92.245833" xlink:href="#mf98ffa942d" y="146.495992"/>
     <use style="fill-opacity:0.8;stroke:#000000;stroke-opacity:0.8;" x="93.740714" xlink:href="#mf98ffa942d" y="152.195902"/>
     <use style="fill-opacity:0.8;stroke:#000000;stroke-opacity:0.8;" x="95.235595" xlink:href="#mf98ffa942d" y="154.945537"/>
     <use style="fill-opacity:0.8;stroke:#000000;stroke-opacity:0.8;" x="96.730476" xlink:href="#mf98ffa942d" y="154.578479"/>
     <use style="fill-opacity:0.8;stroke:#000000;stroke-opacity:0.8;" x="98.225357" xlink:href="#mf98ffa942d" y="150.048187"/>
     <use style="fill-opacity:0.8;stroke:#000000;stroke-opacity:0.8;" x="99.720238" xlink:href="#mf98ffa942d" y="138.503474"/>
     <use style="fill-opacity:0.8;stroke:#000000;stroke-opacity:0.8;" x="101.215119" xlink:href="#mf98ffa942d" y="135.221643"/>
     <use style="fill-opacity:0.8;stroke:#000000;stroke-opacity:0.8;" x="102.71" xlink:href="#mf98ffa942d" y="132.664505"/>
     <use style="fill-opacity:0.8;stroke:#000000;stroke-opacity:0.8;" x="104.204881" xlink:href="#mf98ffa942d" y="58.470874"/>
     <use style="fill-opacity:0.8;stroke:#000000;stroke-opacity:0.8;" x="105.699762" xlink:href="#mf98ffa942d" y="125.504804"/>
     <use style="fill-opacity:0.8;stroke:#000000;stroke-opacity:0.8;" x="107.194643" xlink:href="#mf98ffa942d" y="112.013455"/>
     <use style="fill-opacity:0.8;stroke:#000000;stroke-opacity:0.8;" x="108.689524" xlink:href="#mf98ffa942d" y="123.273746"/>
     <use style="fill-opacity:0.8;stroke:#000000;stroke-opacity:0.8;" x="110.184405" xlink:href="#mf98ffa942d" y="127.278451"/>
     <use style="fill-opacity:0.8;stroke:#000000;stroke-opacity:0.8;" x="111.679286" xlink:href="#mf98ffa942d" y="87.667975"/>
     <use style="fill-opacity:0.8;stroke:#000000;stroke-opacity:0.8;" x="113.174167" xlink:href="#mf98ffa942d" y="122.202924"/>
     <use style="fill-opacity:0.8;stroke:#000000;stroke-opacity:0.8;" x="114.669048" xlink:href="#mf98ffa942d" y="129.298481"/>
     <use style="fill-opacity:0.8;stroke:#000000;stroke-opacity:0.8;" x="116.163929" xlink:href="#mf98ffa942d" y="136.200669"/>
     <use style="fill-opacity:0.8;stroke:#000000;stroke-opacity:0.8;" x="117.65881" xlink:href="#mf98ffa942d" y="135.676219"/>
     <use style="fill-opacity:0.8;stroke:#000000;stroke-opacity:0.8;" x="119.15369" xlink:href="#mf98ffa942d" y="134.232971"/>
     <use style="fill-opacity:0.8;stroke:#000000;stroke-opacity:0.8;" x="120.648571" xlink:href="#mf98ffa942d" y="120.918036"/>
     <use style="fill-opacity:0.8;stroke:#000000;stroke-opacity:0.8;" x="122.143452" xlink:href="#mf98ffa942d" y="135.139536"/>
     <use style="fill-opacity:0.8;stroke:#000000;stroke-opacity:0.8;" x="123.638333" xlink:href="#mf98ffa942d" y="140.830456"/>
     <use style="fill-opacity:0.8;stroke:#000000;stroke-opacity:0.8;" x="125.133214" xlink:href="#mf98ffa942d" y="144.389296"/>
     <use style="fill-opacity:0.8;stroke:#000000;stroke-opacity:0.8;" x="126.628095" xlink:href="#mf98ffa942d" y="143.758768"/>
     <use style="fill-opacity:0.8;stroke:#000000;stroke-opacity:0.8;" x="128.122976" xlink:href="#mf98ffa942d" y="134.121854"/>
     <use style="fill-opacity:0.8;stroke:#000000;stroke-opacity:0.8;" x="129.617857" xlink:href="#mf98ffa942d" y="114.625429"/>
     <use style="fill-opacity:0.8;stroke:#000000;stroke-opacity:0.8;" x="131.112738" xlink:href="#mf98ffa942d" y="67.950131"/>
     <use style="fill-opacity:0.8;stroke:#000000;stroke-opacity:0.8;" x="132.607619" xlink:href="#mf98ffa942d" y="82.760737"/>
     <use style="fill-opacity:0.8;stroke:#000000;stroke-opacity:0.8;" x="134.1025" xlink:href="#mf98ffa942d" y="81.544037"/>
     <use style="fill-opacity:0.8;stroke:#000000;stroke-opacity:0.8;" x="135.597381" xlink:href="#mf98ffa942d" y="82.899411"/>
     <use style="fill-opacity:0.8;stroke:#000000;stroke-opacity:0.8;" x="137.092262" xlink:href="#mf98ffa942d" y="146.268834"/>
     <use style="fill-opacity:0.8;stroke:#000000;stroke-opacity:0.8;" x="138.587143" xlink:href="#mf98ffa942d" y="138.978254"/>
     <use style="fill-opacity:0.8;stroke:#000000;stroke-opacity:0.8;" x="140.082024" xlink:href="#mf98ffa942d" y="131.232873"/>
     <use style="fill-opacity:0.8;stroke:#000000;stroke-opacity:0.8;" x="141.576905" xlink:href="#mf98ffa942d" y="126.673539"/>
     <use style="fill-opacity:0.8;stroke:#000000;stroke-opacity:0.8;" x="143.071786" xlink:href="#mf98ffa942d" y="118.130559"/>
     <use style="fill-opacity:0.8;stroke:#000000;stroke-opacity:0.8;" x="144.566667" xlink:href="#mf98ffa942d" y="111.056027"/>
     <use style="fill-opacity:0.8;stroke:#000000;stroke-opacity:0.8;" x="146.061548" xlink:href="#mf98ffa942d" y="115.098473"/>
     <use style="fill-opacity:0.8;stroke:#000000;stroke-opacity:0.8;" x="147.556429" xlink:href="#mf98ffa942d" y="127.848411"/>
     <use style="fill-opacity:0.8;stroke:#000000;stroke-opacity:0.8;" x="149.05131" xlink:href="#mf98ffa942d" y="128.456643"/>
     <use style="fill-opacity:0.8;stroke:#000000;stroke-opacity:0.8;" x="150.54619" xlink:href="#mf98ffa942d" y="103.100797"/>
     <use style="fill-opacity:0.8;stroke:#000000;stroke-opacity:0.8;" x="152.041071" xlink:href="#mf98ffa942d" y="117.691387"/>
     <use style="fill-opacity:0.8;stroke:#000000;stroke-opacity:0.8;" x="153.535952" xlink:href="#mf98ffa942d" y="134.42851"/>
     <use style="fill-opacity:0.8;stroke:#000000;stroke-opacity:0.8;" x="155.030833" xlink:href="#mf98ffa942d" y="133.303683"/>
     <use style="fill-opacity:0.8;stroke:#000000;stroke-opacity:0.8;" x="156.525714" xlink:href="#mf98ffa942d" y="118.943279"/>
     <use style="fill-opacity:0.8;stroke:#000000;stroke-opacity:0.8;" x="158.020595" xlink:href="#mf98ffa942d" y="113.979401"/>
     <use style="fill-opacity:0.8;stroke:#000000;stroke-opacity:0.8;" x="159.515476" xlink:href="#mf98ffa942d" y="112.060569"/>
     <use style="fill-opacity:0.8;stroke:#000000;stroke-opacity:0.8;" x="161.010357" xlink:href="#mf98ffa942d" y="94.996432"/>
     <use style="fill-opacity:0.8;stroke:#000000;stroke-opacity:0.8;" x="162.505238" xlink:href="#mf98ffa942d" y="93.949238"/>
     <use style="fill-opacity:0.8;stroke:#000000;stroke-opacity:0.8;" x="164.000119" xlink:href="#mf98ffa942d" y="74.037016"/>
     <use style="fill-opacity:0.8;stroke:#000000;stroke-opacity:0.8;" x="165.495" xlink:href="#mf98ffa942d" y="73.828936"/>
     <use style="fill-opacity:0.8;stroke:#000000;stroke-opacity:0.8;" x="166.989881" xlink:href="#mf98ffa942d" y="152.7504"/>
     <use style="fill-opacity:0.8;stroke:#000000;stroke-opacity:0.8;" x="168.484762" xlink:href="#mf98ffa942d" y="153.295579"/>
     <use style="fill-opacity:0.8;stroke:#000000;stroke-opacity:0.8;" x="169.979643" xlink:href="#mf98ffa942d" y="23.028217"/>
     <use style="fill-opacity:0.8;stroke:#000000;stroke-opacity:0.8;" x="171.474524" xlink:href="#mf98ffa942d" y="23.028217"/>
     <use style="fill-opacity:0.8;stroke:#000000;stroke-opacity:0.8;" x="172.969405" xlink:href="#mf98ffa942d" y="18.909091"/>
     <use style="fill-opacity:0.8;stroke:#000000;stroke-opacity:0.8;" x="174.464286" xlink:href="#mf98ffa942d" y="18.909091"/>
     <use style="fill-opacity:0.8;stroke:#000000;stroke-opacity:0.8;" x="175.959167" xlink:href="#mf98ffa942d" y="31.084743"/>
     <use style="fill-opacity:0.8;stroke:#000000;stroke-opacity:0.8;" x="177.454048" xlink:href="#mf98ffa942d" y="31.084743"/>
     <use style="fill-opacity:0.8;stroke:#000000;stroke-opacity:0.8;" x="178.948929" xlink:href="#mf98ffa942d" y="27.086768"/>
     <use style="fill-opacity:0.8;stroke:#000000;stroke-opacity:0.8;" x="180.44381" xlink:href="#mf98ffa942d" y="27.086768"/>
     <use style="fill-opacity:0.8;stroke:#000000;stroke-opacity:0.8;" x="181.93869" xlink:href="#mf98ffa942d" y="38.898967"/>
     <use style="fill-opacity:0.8;stroke:#000000;stroke-opacity:0.8;" x="183.433571" xlink:href="#mf98ffa942d" y="38.898967"/>
     <use style="fill-opacity:0.8;stroke:#000000;stroke-opacity:0.8;" x="184.928452" xlink:href="#mf98ffa942d" y="35.022143"/>
     <use style="fill-opacity:0.8;stroke:#000000;stroke-opacity:0.8;" x="186.423333" xlink:href="#mf98ffa942d" y="35.022143"/>
     <use style="fill-opacity:0.8;stroke:#000000;stroke-opacity:0.8;" x="187.918214" xlink:href="#mf98ffa942d" y="46.47089"/>
     <use style="fill-opacity:0.8;stroke:#000000;stroke-opacity:0.8;" x="189.413095" xlink:href="#mf98ffa942d" y="154.658525"/>
    </g>
   </g>
   <g id="PolyCollection_1">
    <path clip-path="url(#pc408df18eb)" d="M 39.925 165.512284 
L 39.925 181.090909 
L 41.434981 179.861588 
L 42.944962 178.630799 
L 44.454942 177.399932 
L 45.964923 176.168526 
L 47.474904 174.925166 
L 48.984885 173.665089 
L 50.494865 172.356114 
L 52.004846 171.121052 
L 53.514827 169.892254 
L 55.024808 168.644477 
L 56.534788 167.413624 
L 58.044769 166.153724 
L 59.55475 164.893824 
L 61.064731 163.633205 
L 62.574711 162.372176 
L 64.084692 161.112773 
L 65.594673 159.91251 
L 67.104654 158.803302 
L 68.614634 157.616532 
L 70.124615 156.391015 
L 71.634596 155.163356 
L 73.144577 154.027113 
L 74.654557 152.797318 
L 76.164538 151.569523 
L 77.674519 150.408976 
L 79.1845 149.317659 
L 80.694481 148.163811 
L 82.204461 147.041218 
L 83.714442 145.944031 
L 85.224423 144.821855 
L 86.734404 143.835594 
L 88.244384 142.757802 
L 89.754365 141.659036 
L 91.264346 140.580202 
L 92.774327 139.476073 
L 94.284307 138.380996 
L 95.794288 137.420756 
L 97.304269 136.511638 
L 98.81425 135.472895 
L 100.32423 134.546359 
L 101.834211 133.527342 
L 103.344192 132.582401 
L 104.854173 131.762961 
L 106.364153 130.86335 
L 107.874134 129.930696 
L 109.384115 129.026993 
L 110.894096 128.194257 
L 112.404076 127.36252 
L 113.914057 126.530115 
L 115.424038 125.697708 
L 116.934019 124.738175 
L 118.444 123.907469 
L 119.95398 123.028673 
L 121.463961 122.19353 
L 122.973942 121.313653 
L 124.483923 120.544894 
L 125.993903 119.710923 
L 127.503884 118.831863 
L 129.013865 118.006718 
L 130.523846 117.148246 
L 132.033826 116.304465 
L 133.543807 115.420205 
L 135.053788 114.625448 
L 136.563769 113.725764 
L 138.073749 112.868027 
L 139.58373 112.030035 
L 141.093711 111.247899 
L 142.603692 110.380604 
L 144.113672 109.521655 
L 145.623653 108.684644 
L 147.133634 107.845581 
L 148.643615 107.006517 
L 150.153595 106.168841 
L 151.663576 105.332607 
L 153.173557 104.456565 
L 154.683538 103.552264 
L 156.193519 102.700677 
L 157.703499 101.879959 
L 159.21348 101.112491 
L 160.723461 100.311676 
L 162.233442 99.476681 
L 163.743422 98.641687 
L 165.253403 97.806692 
L 166.763384 96.971697 
L 168.273365 96.145215 
L 169.783345 95.324794 
L 171.293326 94.504304 
L 172.803307 93.683814 
L 174.313288 92.863324 
L 175.823268 92.042834 
L 177.333249 91.222344 
L 178.84323 90.401854 
L 180.353211 89.581365 
L 181.863191 88.760875 
L 183.373172 87.940385 
L 184.883153 87.119895 
L 186.393134 86.29939 
L 187.903114 85.480929 
L 189.413095 84.686792 
L 189.413095 53.701577 
L 189.413095 53.701577 
L 187.903114 54.976519 
L 186.393134 56.244057 
L 184.883153 57.484572 
L 183.373172 58.725087 
L 181.863191 59.965602 
L 180.353211 61.206117 
L 178.84323 62.446632 
L 177.333249 63.687147 
L 175.823268 64.927662 
L 174.313288 66.168177 
L 172.803307 67.408692 
L 171.293326 68.649207 
L 169.783345 69.891086 
L 168.273365 71.133259 
L 166.763384 72.38883 
L 165.253403 73.61492 
L 163.743422 74.854792 
L 162.233442 76.094663 
L 160.723461 77.334534 
L 159.21348 78.574406 
L 157.703499 79.814277 
L 156.193519 81.055859 
L 154.683538 82.29765 
L 153.173557 83.539441 
L 151.663576 84.781232 
L 150.153595 86.05143 
L 148.643615 87.347028 
L 147.133634 88.582688 
L 145.623653 89.782782 
L 144.113672 91.085187 
L 142.603692 92.395733 
L 141.093711 93.684326 
L 139.58373 94.984784 
L 138.073749 96.285623 
L 136.563769 97.512764 
L 135.053788 98.719492 
L 133.543807 99.936405 
L 132.033826 101.128565 
L 130.523846 102.332097 
L 129.013865 103.53563 
L 127.503884 104.7411 
L 125.993903 105.958318 
L 124.483923 107.190343 
L 122.973942 108.465164 
L 121.463961 109.734456 
L 119.95398 110.921847 
L 118.444 112.157876 
L 116.934019 113.423804 
L 115.424038 114.599924 
L 113.914057 115.779563 
L 112.404076 117.035427 
L 110.894096 118.220734 
L 109.384115 119.481644 
L 107.874134 120.584219 
L 106.364153 121.688317 
L 104.854173 122.871089 
L 103.344192 124.16654 
L 101.834211 125.358047 
L 100.32423 126.543151 
L 98.81425 127.778196 
L 97.304269 128.933747 
L 95.794288 130.043931 
L 94.284307 131.190454 
L 92.774327 132.243308 
L 91.264346 133.444111 
L 89.754365 134.582982 
L 88.244384 135.716599 
L 86.734404 136.800601 
L 85.224423 137.881787 
L 83.714442 138.909833 
L 82.204461 139.996677 
L 80.694481 140.966702 
L 79.1845 142.081927 
L 77.674519 143.084177 
L 76.164538 144.037671 
L 74.654557 144.959517 
L 73.144577 145.923229 
L 71.634596 146.946402 
L 70.124615 147.817497 
L 68.614634 148.858245 
L 67.104654 149.820598 
L 65.594673 150.727471 
L 64.084692 151.594367 
L 62.574711 152.477652 
L 61.064731 153.375647 
L 59.55475 154.228447 
L 58.044769 155.119417 
L 56.534788 156.034057 
L 55.024808 156.850755 
L 53.514827 157.70063 
L 52.004846 158.544406 
L 50.494865 159.442135 
L 48.984885 160.312119 
L 47.474904 161.182616 
L 45.964923 162.053786 
L 44.454942 162.924393 
L 42.944962 163.794392 
L 41.434981 164.664601 
L 39.925 165.512284 
z
" style="fill:#e41a1c;fill-opacity:0.15;"/>
   </g>
   <g id="matplotlib.axis_1">
    <g id="xtick_1">
     <g id="line2d_1">
      <defs>
       <path d="M 0 0 
L 0 3.5 
" id="mdcf168e616" style="stroke:#000000;stroke-width:0.8;"/>
      </defs>
      <g>
       <use style="stroke:#000000;stroke-width:0.8;" x="39.925" xlink:href="#mdcf168e616" y="189.2"/>
      </g>
     </g>
     <g id="text_1">
      <!-- 0 -->
      <g transform="translate(37.144531 203.357812)scale(0.1 -0.1)">
       <defs>
        <path d="M 4.15625 35.296875 
Q 4.15625 48 6.765625 55.734375 
Q 9.375 63.484375 14.515625 67.671875 
Q 19.671875 71.875 27.484375 71.875 
Q 33.25 71.875 37.59375 69.546875 
Q 41.9375 67.234375 44.765625 62.859375 
Q 47.609375 58.5 49.21875 52.21875 
Q 50.828125 45.953125 50.828125 35.296875 
Q 50.828125 22.703125 48.234375 14.96875 
Q 45.65625 7.234375 40.5 3 
Q 35.359375 -1.21875 27.484375 -1.21875 
Q 17.140625 -1.21875 11.234375 6.203125 
Q 4.15625 15.140625 4.15625 35.296875 
z
M 13.1875 35.296875 
Q 13.1875 17.671875 17.3125 11.828125 
Q 21.4375 6 27.484375 6 
Q 33.546875 6 37.671875 11.859375 
Q 41.796875 17.71875 41.796875 35.296875 
Q 41.796875 52.984375 37.671875 58.78125 
Q 33.546875 64.59375 27.390625 64.59375 
Q 21.34375 64.59375 17.71875 59.46875 
Q 13.1875 52.9375 13.1875 35.296875 
z
" id="ArialMT-48"/>
       </defs>
       <use xlink:href="#ArialMT-48"/>
      </g>
     </g>
    </g>
    <g id="xtick_2">
     <g id="line2d_2">
      <g>
       <use style="stroke:#000000;stroke-width:0.8;" x="77.297024" xlink:href="#mdcf168e616" y="189.2"/>
      </g>
     </g>
     <g id="text_2">
      <!-- 25 -->
      <g transform="translate(71.736086 203.357812)scale(0.1 -0.1)">
       <defs>
        <path d="M 50.34375 8.453125 
L 50.34375 0 
L 3.03125 0 
Q 2.9375 3.171875 4.046875 6.109375 
Q 5.859375 10.9375 9.828125 15.625 
Q 13.8125 20.3125 21.34375 26.46875 
Q 33.015625 36.03125 37.109375 41.625 
Q 41.21875 47.21875 41.21875 52.203125 
Q 41.21875 57.421875 37.46875 61 
Q 33.734375 64.59375 27.734375 64.59375 
Q 21.390625 64.59375 17.578125 60.78125 
Q 13.765625 56.984375 13.71875 50.25 
L 4.6875 51.171875 
Q 5.609375 61.28125 11.65625 66.578125 
Q 17.71875 71.875 27.9375 71.875 
Q 38.234375 71.875 44.234375 66.15625 
Q 50.25 60.453125 50.25 52 
Q 50.25 47.703125 48.484375 43.546875 
Q 46.734375 39.40625 42.65625 34.8125 
Q 38.578125 30.21875 29.109375 22.21875 
Q 21.1875 15.578125 18.9375 13.203125 
Q 16.703125 10.84375 15.234375 8.453125 
z
" id="ArialMT-50"/>
        <path d="M 4.15625 18.75 
L 13.375 19.53125 
Q 14.40625 12.796875 18.140625 9.390625 
Q 21.875 6 27.15625 6 
Q 33.5 6 37.890625 10.78125 
Q 42.28125 15.578125 42.28125 23.484375 
Q 42.28125 31 38.0625 35.34375 
Q 33.84375 39.703125 27 39.703125 
Q 22.75 39.703125 19.328125 37.765625 
Q 15.921875 35.84375 13.96875 32.765625 
L 5.71875 33.84375 
L 12.640625 70.609375 
L 48.25 70.609375 
L 48.25 62.203125 
L 19.671875 62.203125 
L 15.828125 42.96875 
Q 22.265625 47.46875 29.34375 47.46875 
Q 38.71875 47.46875 45.15625 40.96875 
Q 51.609375 34.46875 51.609375 24.265625 
Q 51.609375 14.546875 45.953125 7.46875 
Q 39.0625 -1.21875 27.15625 -1.21875 
Q 17.390625 -1.21875 11.203125 4.25 
Q 5.03125 9.71875 4.15625 18.75 
z
" id="ArialMT-53"/>
       </defs>
       <use xlink:href="#ArialMT-50"/>
       <use x="55.615234" xlink:href="#ArialMT-53"/>
      </g>
     </g>
    </g>
    <g id="xtick_3">
     <g id="line2d_3">
      <g>
       <use style="stroke:#000000;stroke-width:0.8;" x="114.669048" xlink:href="#mdcf168e616" y="189.2"/>
      </g>
     </g>
     <g id="text_3">
      <!-- 50 -->
      <g transform="translate(109.10811 203.357812)scale(0.1 -0.1)">
       <use xlink:href="#ArialMT-53"/>
       <use x="55.615234" xlink:href="#ArialMT-48"/>
      </g>
     </g>
    </g>
    <g id="xtick_4">
     <g id="line2d_4">
      <g>
       <use style="stroke:#000000;stroke-width:0.8;" x="152.041071" xlink:href="#mdcf168e616" y="189.2"/>
      </g>
     </g>
     <g id="text_4">
      <!-- 75 -->
      <g transform="translate(146.480134 203.357812)scale(0.1 -0.1)">
       <defs>
        <path d="M 4.734375 62.203125 
L 4.734375 70.65625 
L 51.078125 70.65625 
L 51.078125 63.8125 
Q 44.234375 56.546875 37.515625 44.484375 
Q 30.8125 32.421875 27.15625 19.671875 
Q 24.515625 10.6875 23.78125 0 
L 14.75 0 
Q 14.890625 8.453125 18.0625 20.40625 
Q 21.234375 32.375 27.171875 43.484375 
Q 33.109375 54.59375 39.796875 62.203125 
z
" id="ArialMT-55"/>
       </defs>
       <use xlink:href="#ArialMT-55"/>
       <use x="55.615234" xlink:href="#ArialMT-53"/>
      </g>
     </g>
    </g>
    <g id="xtick_5">
     <g id="line2d_5">
      <g>
       <use style="stroke:#000000;stroke-width:0.8;" x="189.413095" xlink:href="#mdcf168e616" y="189.2"/>
      </g>
     </g>
     <g id="text_5">
      <!-- 100 -->
      <g transform="translate(181.071689 203.357812)scale(0.1 -0.1)">
       <defs>
        <path d="M 37.25 0 
L 28.46875 0 
L 28.46875 56 
Q 25.296875 52.984375 20.140625 49.953125 
Q 14.984375 46.921875 10.890625 45.40625 
L 10.890625 53.90625 
Q 18.265625 57.375 23.78125 62.296875 
Q 29.296875 67.234375 31.59375 71.875 
L 37.25 71.875 
z
" id="ArialMT-49"/>
       </defs>
       <use xlink:href="#ArialMT-49"/>
       <use x="55.615234" xlink:href="#ArialMT-48"/>
       <use x="111.230469" xlink:href="#ArialMT-48"/>
      </g>
     </g>
    </g>
    <g id="text_6">
     <!-- expansion iteration -->
     <g transform="translate(76.436719 216.503125)scale(0.1 -0.1)">
      <defs>
       <path d="M 42.09375 16.703125 
L 51.171875 15.578125 
Q 49.03125 7.625 43.21875 3.21875 
Q 37.40625 -1.171875 28.375 -1.171875 
Q 17 -1.171875 10.328125 5.828125 
Q 3.65625 12.84375 3.65625 25.484375 
Q 3.65625 38.578125 10.390625 45.796875 
Q 17.140625 53.03125 27.875 53.03125 
Q 38.28125 53.03125 44.875 45.953125 
Q 51.46875 38.875 51.46875 26.03125 
Q 51.46875 25.25 51.421875 23.6875 
L 12.75 23.6875 
Q 13.234375 15.140625 17.578125 10.59375 
Q 21.921875 6.0625 28.421875 6.0625 
Q 33.25 6.0625 36.671875 8.59375 
Q 40.09375 11.140625 42.09375 16.703125 
z
M 13.234375 30.90625 
L 42.1875 30.90625 
Q 41.609375 37.453125 38.875 40.71875 
Q 34.671875 45.796875 27.984375 45.796875 
Q 21.921875 45.796875 17.796875 41.75 
Q 13.671875 37.703125 13.234375 30.90625 
z
" id="ArialMT-101"/>
       <path d="M 0.734375 0 
L 19.671875 26.953125 
L 2.15625 51.859375 
L 13.140625 51.859375 
L 21.09375 39.703125 
Q 23.34375 36.234375 24.703125 33.890625 
Q 26.859375 37.109375 28.65625 39.59375 
L 37.40625 51.859375 
L 47.90625 51.859375 
L 29.984375 27.4375 
L 49.265625 0 
L 38.484375 0 
L 27.828125 16.109375 
L 25 20.453125 
L 11.375 0 
z
" id="ArialMT-120"/>
       <path d="M 6.59375 -19.875 
L 6.59375 51.859375 
L 14.59375 51.859375 
L 14.59375 45.125 
Q 17.4375 49.078125 21 51.046875 
Q 24.5625 53.03125 29.640625 53.03125 
Q 36.28125 53.03125 41.359375 49.609375 
Q 46.4375 46.1875 49.015625 39.953125 
Q 51.609375 33.734375 51.609375 26.3125 
Q 51.609375 18.359375 48.75 11.984375 
Q 45.90625 5.609375 40.453125 2.21875 
Q 35.015625 -1.171875 29 -1.171875 
Q 24.609375 -1.171875 21.109375 0.6875 
Q 17.625 2.546875 15.375 5.375 
L 15.375 -19.875 
z
M 14.546875 25.640625 
Q 14.546875 15.625 18.59375 10.84375 
Q 22.65625 6.0625 28.421875 6.0625 
Q 34.28125 6.0625 38.453125 11.015625 
Q 42.625 15.96875 42.625 26.375 
Q 42.625 36.28125 38.546875 41.203125 
Q 34.46875 46.140625 28.8125 46.140625 
Q 23.1875 46.140625 18.859375 40.890625 
Q 14.546875 35.640625 14.546875 25.640625 
z
" id="ArialMT-112"/>
       <path d="M 40.4375 6.390625 
Q 35.546875 2.25 31.03125 0.53125 
Q 26.515625 -1.171875 21.34375 -1.171875 
Q 12.796875 -1.171875 8.203125 3 
Q 3.609375 7.171875 3.609375 13.671875 
Q 3.609375 17.484375 5.34375 20.625 
Q 7.078125 23.78125 9.890625 25.6875 
Q 12.703125 27.59375 16.21875 28.5625 
Q 18.796875 29.25 24.03125 29.890625 
Q 34.671875 31.15625 39.703125 32.90625 
Q 39.75 34.71875 39.75 35.203125 
Q 39.75 40.578125 37.25 42.78125 
Q 33.890625 45.75 27.25 45.75 
Q 21.046875 45.75 18.09375 43.578125 
Q 15.140625 41.40625 13.71875 35.890625 
L 5.125 37.0625 
Q 6.296875 42.578125 8.984375 45.96875 
Q 11.671875 49.359375 16.75 51.1875 
Q 21.828125 53.03125 28.515625 53.03125 
Q 35.15625 53.03125 39.296875 51.46875 
Q 43.453125 49.90625 45.40625 47.53125 
Q 47.359375 45.171875 48.140625 41.546875 
Q 48.578125 39.3125 48.578125 33.453125 
L 48.578125 21.734375 
Q 48.578125 9.46875 49.140625 6.21875 
Q 49.703125 2.984375 51.375 0 
L 42.1875 0 
Q 40.828125 2.734375 40.4375 6.390625 
z
M 39.703125 26.03125 
Q 34.90625 24.078125 25.34375 22.703125 
Q 19.921875 21.921875 17.671875 20.9375 
Q 15.4375 19.96875 14.203125 18.09375 
Q 12.984375 16.21875 12.984375 13.921875 
Q 12.984375 10.40625 15.640625 8.0625 
Q 18.3125 5.71875 23.4375 5.71875 
Q 28.515625 5.71875 32.46875 7.9375 
Q 36.421875 10.15625 38.28125 14.015625 
Q 39.703125 17 39.703125 22.796875 
z
" id="ArialMT-97"/>
       <path d="M 6.59375 0 
L 6.59375 51.859375 
L 14.5 51.859375 
L 14.5 44.484375 
Q 20.21875 53.03125 31 53.03125 
Q 35.6875 53.03125 39.625 51.34375 
Q 43.5625 49.65625 45.515625 46.921875 
Q 47.46875 44.1875 48.25 40.4375 
Q 48.734375 37.984375 48.734375 31.890625 
L 48.734375 0 
L 39.9375 0 
L 39.9375 31.546875 
Q 39.9375 36.921875 38.90625 39.578125 
Q 37.890625 42.234375 35.28125 43.8125 
Q 32.671875 45.40625 29.15625 45.40625 
Q 23.53125 45.40625 19.453125 41.84375 
Q 15.375 38.28125 15.375 28.328125 
L 15.375 0 
z
" id="ArialMT-110"/>
       <path d="M 3.078125 15.484375 
L 11.765625 16.84375 
Q 12.5 11.625 15.84375 8.84375 
Q 19.1875 6.0625 25.203125 6.0625 
Q 31.25 6.0625 34.171875 8.515625 
Q 37.109375 10.984375 37.109375 14.3125 
Q 37.109375 17.28125 34.515625 19 
Q 32.71875 20.171875 25.53125 21.96875 
Q 15.875 24.421875 12.140625 26.203125 
Q 8.40625 27.984375 6.46875 31.125 
Q 4.546875 34.28125 4.546875 38.09375 
Q 4.546875 41.546875 6.125 44.5 
Q 7.71875 47.46875 10.453125 49.421875 
Q 12.5 50.921875 16.03125 51.96875 
Q 19.578125 53.03125 23.640625 53.03125 
Q 29.734375 53.03125 34.34375 51.265625 
Q 38.96875 49.515625 41.15625 46.5 
Q 43.359375 43.5 44.1875 38.484375 
L 35.59375 37.3125 
Q 35.015625 41.3125 32.203125 43.546875 
Q 29.390625 45.796875 24.265625 45.796875 
Q 18.21875 45.796875 15.625 43.796875 
Q 13.03125 41.796875 13.03125 39.109375 
Q 13.03125 37.40625 14.109375 36.03125 
Q 15.1875 34.625 17.484375 33.6875 
Q 18.796875 33.203125 25.25 31.453125 
Q 34.578125 28.953125 38.25 27.359375 
Q 41.9375 25.78125 44.03125 22.75 
Q 46.140625 19.734375 46.140625 15.234375 
Q 46.140625 10.84375 43.578125 6.953125 
Q 41.015625 3.078125 36.171875 0.953125 
Q 31.34375 -1.171875 25.25 -1.171875 
Q 15.140625 -1.171875 9.84375 3.03125 
Q 4.546875 7.234375 3.078125 15.484375 
z
" id="ArialMT-115"/>
       <path d="M 6.640625 61.46875 
L 6.640625 71.578125 
L 15.4375 71.578125 
L 15.4375 61.46875 
z
M 6.640625 0 
L 6.640625 51.859375 
L 15.4375 51.859375 
L 15.4375 0 
z
" id="ArialMT-105"/>
       <path d="M 3.328125 25.921875 
Q 3.328125 40.328125 11.328125 47.265625 
Q 18.015625 53.03125 27.640625 53.03125 
Q 38.328125 53.03125 45.109375 46.015625 
Q 51.90625 39.015625 51.90625 26.65625 
Q 51.90625 16.65625 48.90625 10.90625 
Q 45.90625 5.171875 40.15625 2 
Q 34.421875 -1.171875 27.640625 -1.171875 
Q 16.75 -1.171875 10.03125 5.8125 
Q 3.328125 12.796875 3.328125 25.921875 
z
M 12.359375 25.921875 
Q 12.359375 15.96875 16.703125 11.015625 
Q 21.046875 6.0625 27.640625 6.0625 
Q 34.1875 6.0625 38.53125 11.03125 
Q 42.875 16.015625 42.875 26.21875 
Q 42.875 35.84375 38.5 40.796875 
Q 34.125 45.75 27.640625 45.75 
Q 21.046875 45.75 16.703125 40.8125 
Q 12.359375 35.890625 12.359375 25.921875 
z
" id="ArialMT-111"/>
       <path id="ArialMT-32"/>
       <path d="M 25.78125 7.859375 
L 27.046875 0.09375 
Q 23.34375 -0.6875 20.40625 -0.6875 
Q 15.625 -0.6875 12.984375 0.828125 
Q 10.359375 2.34375 9.28125 4.8125 
Q 8.203125 7.28125 8.203125 15.1875 
L 8.203125 45.015625 
L 1.765625 45.015625 
L 1.765625 51.859375 
L 8.203125 51.859375 
L 8.203125 64.703125 
L 16.9375 69.96875 
L 16.9375 51.859375 
L 25.78125 51.859375 
L 25.78125 45.015625 
L 16.9375 45.015625 
L 16.9375 14.703125 
Q 16.9375 10.9375 17.40625 9.859375 
Q 17.875 8.796875 18.921875 8.15625 
Q 19.96875 7.515625 21.921875 7.515625 
Q 23.390625 7.515625 25.78125 7.859375 
z
" id="ArialMT-116"/>
       <path d="M 6.5 0 
L 6.5 51.859375 
L 14.40625 51.859375 
L 14.40625 44 
Q 17.4375 49.515625 20 51.265625 
Q 22.5625 53.03125 25.640625 53.03125 
Q 30.078125 53.03125 34.671875 50.203125 
L 31.640625 42.046875 
Q 28.421875 43.953125 25.203125 43.953125 
Q 22.3125 43.953125 20.015625 42.21875 
Q 17.71875 40.484375 16.75 37.40625 
Q 15.28125 32.71875 15.28125 27.15625 
L 15.28125 0 
z
" id="ArialMT-114"/>
      </defs>
      <use xlink:href="#ArialMT-101"/>
      <use x="55.615234" xlink:href="#ArialMT-120"/>
      <use x="105.615234" xlink:href="#ArialMT-112"/>
      <use x="161.230469" xlink:href="#ArialMT-97"/>
      <use x="216.845703" xlink:href="#ArialMT-110"/>
      <use x="272.460938" xlink:href="#ArialMT-115"/>
      <use x="322.460938" xlink:href="#ArialMT-105"/>
      <use x="344.677734" xlink:href="#ArialMT-111"/>
      <use x="400.292969" xlink:href="#ArialMT-110"/>
      <use x="455.908203" xlink:href="#ArialMT-32"/>
      <use x="483.691406" xlink:href="#ArialMT-105"/>
      <use x="505.908203" xlink:href="#ArialMT-116"/>
      <use x="533.691406" xlink:href="#ArialMT-101"/>
      <use x="589.306641" xlink:href="#ArialMT-114"/>
      <use x="622.607422" xlink:href="#ArialMT-97"/>
      <use x="678.222656" xlink:href="#ArialMT-116"/>
      <use x="706.005859" xlink:href="#ArialMT-105"/>
      <use x="728.222656" xlink:href="#ArialMT-111"/>
      <use x="783.837891" xlink:href="#ArialMT-110"/>
     </g>
    </g>
   </g>
   <g id="matplotlib.axis_2">
    <g id="ytick_1">
     <g id="line2d_6">
      <defs>
       <path d="M 0 0 
L -3.5 0 
" id="m64c13a017b" style="stroke:#000000;stroke-width:0.8;"/>
      </defs>
      <g>
       <use style="stroke:#000000;stroke-width:0.8;" x="39.925" xlink:href="#m64c13a017b" y="161.01894"/>
      </g>
     </g>
     <g id="text_7">
      <!-- 0 -->
      <g transform="translate(27.364063 164.597846)scale(0.1 -0.1)">
       <use xlink:href="#ArialMT-48"/>
      </g>
     </g>
    </g>
    <g id="ytick_2">
     <g id="line2d_7">
      <g>
       <use style="stroke:#000000;stroke-width:0.8;" x="39.925" xlink:href="#m64c13a017b" y="130.731248"/>
      </g>
     </g>
     <g id="text_8">
      <!-- 500 -->
      <g transform="translate(16.242188 134.310155)scale(0.1 -0.1)">
       <use xlink:href="#ArialMT-53"/>
       <use x="55.615234" xlink:href="#ArialMT-48"/>
       <use x="111.230469" xlink:href="#ArialMT-48"/>
      </g>
     </g>
    </g>
    <g id="ytick_3">
     <g id="line2d_8">
      <g>
       <use style="stroke:#000000;stroke-width:0.8;" x="39.925" xlink:href="#m64c13a017b" y="100.443557"/>
      </g>
     </g>
     <g id="text_9">
      <!-- 1000 -->
      <g transform="translate(10.68125 104.022463)scale(0.1 -0.1)">
       <use xlink:href="#ArialMT-49"/>
       <use x="55.615234" xlink:href="#ArialMT-48"/>
       <use x="111.230469" xlink:href="#ArialMT-48"/>
       <use x="166.845703" xlink:href="#ArialMT-48"/>
      </g>
     </g>
    </g>
    <g id="ytick_4">
     <g id="line2d_9">
      <g>
       <use style="stroke:#000000;stroke-width:0.8;" x="39.925" xlink:href="#m64c13a017b" y="70.155865"/>
      </g>
     </g>
     <g id="text_10">
      <!-- 1500 -->
      <g transform="translate(10.68125 73.734771)scale(0.1 -0.1)">
       <use xlink:href="#ArialMT-49"/>
       <use x="55.615234" xlink:href="#ArialMT-53"/>
       <use x="111.230469" xlink:href="#ArialMT-48"/>
       <use x="166.845703" xlink:href="#ArialMT-48"/>
      </g>
     </g>
    </g>
    <g id="ytick_5">
     <g id="line2d_10">
      <g>
       <use style="stroke:#000000;stroke-width:0.8;" x="39.925" xlink:href="#m64c13a017b" y="39.868173"/>
      </g>
     </g>
     <g id="text_11">
      <!-- 2000 -->
      <g transform="translate(10.68125 43.44708)scale(0.1 -0.1)">
       <use xlink:href="#ArialMT-50"/>
       <use x="55.615234" xlink:href="#ArialMT-48"/>
       <use x="111.230469" xlink:href="#ArialMT-48"/>
       <use x="166.845703" xlink:href="#ArialMT-48"/>
      </g>
     </g>
    </g>
    <g id="text_12">
     <!-- mean Wiener index -->
     <g transform="translate(4.69375 143.073438)rotate(-90)scale(0.1 -0.1)">
      <defs>
       <path d="M 6.59375 0 
L 6.59375 51.859375 
L 14.453125 51.859375 
L 14.453125 44.578125 
Q 16.890625 48.390625 20.9375 50.703125 
Q 25 53.03125 30.171875 53.03125 
Q 35.9375 53.03125 39.625 50.640625 
Q 43.3125 48.25 44.828125 43.953125 
Q 50.984375 53.03125 60.84375 53.03125 
Q 68.5625 53.03125 72.703125 48.75 
Q 76.859375 44.484375 76.859375 35.59375 
L 76.859375 0 
L 68.109375 0 
L 68.109375 32.671875 
Q 68.109375 37.9375 67.25 40.25 
Q 66.40625 42.578125 64.15625 43.984375 
Q 61.921875 45.40625 58.890625 45.40625 
Q 53.421875 45.40625 49.796875 41.765625 
Q 46.1875 38.140625 46.1875 30.125 
L 46.1875 0 
L 37.40625 0 
L 37.40625 33.6875 
Q 37.40625 39.546875 35.25 42.46875 
Q 33.109375 45.40625 28.21875 45.40625 
Q 24.515625 45.40625 21.359375 43.453125 
Q 18.21875 41.5 16.796875 37.734375 
Q 15.375 33.984375 15.375 26.90625 
L 15.375 0 
z
" id="ArialMT-109"/>
       <path d="M 20.21875 0 
L 1.21875 71.578125 
L 10.9375 71.578125 
L 21.828125 24.65625 
Q 23.578125 17.28125 24.859375 10.015625 
Q 27.59375 21.484375 28.078125 23.25 
L 41.703125 71.578125 
L 53.125 71.578125 
L 63.375 35.359375 
Q 67.234375 21.875 68.953125 10.015625 
Q 70.3125 16.796875 72.515625 25.59375 
L 83.734375 71.578125 
L 93.265625 71.578125 
L 73.640625 0 
L 64.5 0 
L 49.421875 54.546875 
Q 47.515625 61.375 47.171875 62.9375 
Q 46.046875 58.015625 45.0625 54.546875 
L 29.890625 0 
z
" id="ArialMT-87"/>
       <path d="M 40.234375 0 
L 40.234375 6.546875 
Q 35.296875 -1.171875 25.734375 -1.171875 
Q 19.53125 -1.171875 14.328125 2.25 
Q 9.125 5.671875 6.265625 11.796875 
Q 3.421875 17.921875 3.421875 25.875 
Q 3.421875 33.640625 6 39.96875 
Q 8.59375 46.296875 13.765625 49.65625 
Q 18.953125 53.03125 25.34375 53.03125 
Q 30.03125 53.03125 33.6875 51.046875 
Q 37.359375 49.078125 39.65625 45.90625 
L 39.65625 71.578125 
L 48.390625 71.578125 
L 48.390625 0 
z
M 12.453125 25.875 
Q 12.453125 15.921875 16.640625 10.984375 
Q 20.84375 6.0625 26.5625 6.0625 
Q 32.328125 6.0625 36.34375 10.765625 
Q 40.375 15.484375 40.375 25.140625 
Q 40.375 35.796875 36.265625 40.765625 
Q 32.171875 45.75 26.171875 45.75 
Q 20.3125 45.75 16.375 40.96875 
Q 12.453125 36.1875 12.453125 25.875 
z
" id="ArialMT-100"/>
      </defs>
      <use xlink:href="#ArialMT-109"/>
      <use x="83.300781" xlink:href="#ArialMT-101"/>
      <use x="138.916016" xlink:href="#ArialMT-97"/>
      <use x="194.53125" xlink:href="#ArialMT-110"/>
      <use x="250.146484" xlink:href="#ArialMT-32"/>
      <use x="277.929688" xlink:href="#ArialMT-87"/>
      <use x="372.314453" xlink:href="#ArialMT-105"/>
      <use x="394.53125" xlink:href="#ArialMT-101"/>
      <use x="450.146484" xlink:href="#ArialMT-110"/>
      <use x="505.761719" xlink:href="#ArialMT-101"/>
      <use x="561.376953" xlink:href="#ArialMT-114"/>
      <use x="594.677734" xlink:href="#ArialMT-32"/>
      <use x="622.460938" xlink:href="#ArialMT-105"/>
      <use x="644.677734" xlink:href="#ArialMT-110"/>
      <use x="700.292969" xlink:href="#ArialMT-100"/>
      <use x="755.908203" xlink:href="#ArialMT-101"/>
      <use x="811.523438" xlink:href="#ArialMT-120"/>
     </g>
    </g>
   </g>
   <g id="line2d_11">
    <path clip-path="url(#pc408df18eb)" d="M 39.925 172.982834 
L 41.434981 171.924205 
L 42.944962 170.865577 
L 44.454942 169.806948 
L 45.964923 168.74832 
L 47.474904 167.689691 
L 48.984885 166.631063 
L 50.494865 165.572434 
L 52.004846 164.513806 
L 53.514827 163.455177 
L 55.024808 162.396549 
L 56.534788 161.33792 
L 58.044769 160.279292 
L 59.55475 159.220663 
L 61.064731 158.162035 
L 62.574711 157.103406 
L 64.084692 156.044778 
L 65.594673 154.986149 
L 67.104654 153.927521 
L 68.614634 152.868892 
L 70.124615 151.810264 
L 71.634596 150.751635 
L 73.144577 149.693007 
L 74.654557 148.634378 
L 76.164538 147.57575 
L 77.674519 146.517121 
L 79.1845 145.458493 
L 80.694481 144.399864 
L 82.204461 143.341236 
L 83.714442 142.282607 
L 85.224423 141.223979 
L 86.734404 140.16535 
L 88.244384 139.106722 
L 89.754365 138.048093 
L 91.264346 136.989465 
L 92.774327 135.930836 
L 94.284307 134.872208 
L 95.794288 133.81358 
L 97.304269 132.754951 
L 98.81425 131.696323 
L 100.32423 130.637694 
L 101.834211 129.579066 
L 103.344192 128.520437 
L 104.854173 127.461809 
L 106.364153 126.40318 
L 107.874134 125.344552 
L 109.384115 124.285923 
L 110.894096 123.227295 
L 112.404076 122.168666 
L 113.914057 121.110038 
L 115.424038 120.051409 
L 116.934019 118.992781 
L 118.444 117.934152 
L 119.95398 116.875524 
L 121.463961 115.816895 
L 122.973942 114.758267 
L 124.483923 113.699638 
L 125.993903 112.64101 
L 127.503884 111.582381 
L 129.013865 110.523753 
L 130.523846 109.465124 
L 132.033826 108.406496 
L 133.543807 107.347867 
L 135.053788 106.289239 
L 136.563769 105.23061 
L 138.073749 104.171982 
L 139.58373 103.113353 
L 141.093711 102.054725 
L 142.603692 100.996096 
L 144.113672 99.937468 
L 145.623653 98.878839 
L 147.133634 97.820211 
L 148.643615 96.761582 
L 150.153595 95.702954 
L 151.663576 94.644325 
L 153.173557 93.585697 
L 154.683538 92.527068 
L 156.193519 91.46844 
L 157.703499 90.409811 
L 159.21348 89.351183 
L 160.723461 88.292554 
L 162.233442 87.233926 
L 163.743422 86.175297 
L 165.253403 85.116669 
L 166.763384 84.05804 
L 168.273365 82.999412 
L 169.783345 81.940783 
L 171.293326 80.882155 
L 172.803307 79.823526 
L 174.313288 78.764898 
L 175.823268 77.706269 
L 177.333249 76.647641 
L 178.84323 75.589012 
L 180.353211 74.530384 
L 181.863191 73.471755 
L 183.373172 72.413127 
L 184.883153 71.354498 
L 186.393134 70.29587 
L 187.903114 69.237241 
L 189.413095 68.178613 
" style="fill:none;stroke:#e41a1c;stroke-linecap:square;stroke-width:2.25;"/>
   </g>
   <g id="patch_3">
    <path d="M 39.925 189.2 
L 39.925 10.8 
" style="fill:none;stroke:#000000;stroke-linecap:square;stroke-linejoin:miter;stroke-width:0.8;"/>
   </g>
   <g id="patch_4">
    <path d="M 39.925 189.2 
L 196.8875 189.2 
" style="fill:none;stroke:#000000;stroke-linecap:square;stroke-linejoin:miter;stroke-width:0.8;"/>
   </g>
   <g id="text_13">
    <!-- $r=0.74$  -->
    <g transform="translate(55.62125 44.7575)scale(0.1 -0.1)">
     <defs>
      <path d="M 44.578125 46.390625 
Q 43.21875 47.125 41.453125 47.515625 
Q 39.703125 47.90625 37.703125 47.90625 
Q 30.515625 47.90625 25.140625 42.453125 
Q 19.78125 37.015625 18.015625 27.875 
L 12.5 0 
L 3.515625 0 
L 14.203125 54.6875 
L 23.1875 54.6875 
L 21.484375 46.1875 
Q 25.046875 50.921875 30 53.453125 
Q 34.96875 56 40.578125 56 
Q 42.046875 56 43.453125 55.828125 
Q 44.875 55.671875 46.296875 55.28125 
z
" id="DejaVuSans-Oblique-114"/>
      <path d="M 10.59375 45.40625 
L 73.1875 45.40625 
L 73.1875 37.203125 
L 10.59375 37.203125 
z
M 10.59375 25.484375 
L 73.1875 25.484375 
L 73.1875 17.1875 
L 10.59375 17.1875 
z
" id="DejaVuSans-61"/>
      <path d="M 31.78125 66.40625 
Q 24.171875 66.40625 20.328125 58.90625 
Q 16.5 51.421875 16.5 36.375 
Q 16.5 21.390625 20.328125 13.890625 
Q 24.171875 6.390625 31.78125 6.390625 
Q 39.453125 6.390625 43.28125 13.890625 
Q 47.125 21.390625 47.125 36.375 
Q 47.125 51.421875 43.28125 58.90625 
Q 39.453125 66.40625 31.78125 66.40625 
z
M 31.78125 74.21875 
Q 44.046875 74.21875 50.515625 64.515625 
Q 56.984375 54.828125 56.984375 36.375 
Q 56.984375 17.96875 50.515625 8.265625 
Q 44.046875 -1.421875 31.78125 -1.421875 
Q 19.53125 -1.421875 13.0625 8.265625 
Q 6.59375 17.96875 6.59375 36.375 
Q 6.59375 54.828125 13.0625 64.515625 
Q 19.53125 74.21875 31.78125 74.21875 
z
" id="DejaVuSans-48"/>
      <path d="M 10.6875 12.40625 
L 21 12.40625 
L 21 0 
L 10.6875 0 
z
" id="DejaVuSans-46"/>
      <path d="M 8.203125 72.90625 
L 55.078125 72.90625 
L 55.078125 68.703125 
L 28.609375 0 
L 18.3125 0 
L 43.21875 64.59375 
L 8.203125 64.59375 
z
" id="DejaVuSans-55"/>
      <path d="M 37.796875 64.3125 
L 12.890625 25.390625 
L 37.796875 25.390625 
z
M 35.203125 72.90625 
L 47.609375 72.90625 
L 47.609375 25.390625 
L 58.015625 25.390625 
L 58.015625 17.1875 
L 47.609375 17.1875 
L 47.609375 0 
L 37.796875 0 
L 37.796875 17.1875 
L 4.890625 17.1875 
L 4.890625 26.703125 
z
" id="DejaVuSans-52"/>
     </defs>
     <use transform="translate(0 0.78125)" xlink:href="#DejaVuSans-Oblique-114"/>
     <use transform="translate(60.595703 0.78125)" xlink:href="#DejaVuSans-61"/>
     <use transform="translate(163.867188 0.78125)" xlink:href="#DejaVuSans-48"/>
     <use transform="translate(227.490234 0.78125)" xlink:href="#DejaVuSans-46"/>
     <use transform="translate(251.527344 0.78125)" xlink:href="#DejaVuSans-55"/>
     <use transform="translate(315.150391 0.78125)" xlink:href="#DejaVuSans-52"/>
     <use transform="translate(378.773438 0.78125)" xlink:href="#ArialMT-32"/>
    </g>
    <!-- $P&lt;10^{-17}$ -->
    <g transform="translate(55.62125 55.4)scale(0.1 -0.1)">
     <defs>
      <path d="M 16.890625 72.90625 
L 39.703125 72.90625 
Q 49.65625 72.90625 54.875 68.265625 
Q 60.109375 63.625 60.109375 54.6875 
Q 60.109375 42.671875 52.390625 35.984375 
Q 44.671875 29.296875 30.71875 29.296875 
L 18.3125 29.296875 
L 12.59375 0 
L 2.6875 0 
z
M 25.203125 64.796875 
L 19.921875 37.40625 
L 32.328125 37.40625 
Q 40.71875 37.40625 45.203125 41.703125 
Q 49.703125 46 49.703125 54 
Q 49.703125 59.125 46.65625 61.953125 
Q 43.609375 64.796875 38.09375 64.796875 
z
" id="DejaVuSans-Oblique-80"/>
      <path d="M 73.1875 49.21875 
L 22.796875 31.296875 
L 73.1875 13.484375 
L 73.1875 4.59375 
L 10.59375 27.296875 
L 10.59375 35.40625 
L 73.1875 58.109375 
z
" id="DejaVuSans-60"/>
      <path d="M 12.40625 8.296875 
L 28.515625 8.296875 
L 28.515625 63.921875 
L 10.984375 60.40625 
L 10.984375 69.390625 
L 28.421875 72.90625 
L 38.28125 72.90625 
L 38.28125 8.296875 
L 54.390625 8.296875 
L 54.390625 0 
L 12.40625 0 
z
" id="DejaVuSans-49"/>
      <path d="M 10.59375 35.5 
L 73.1875 35.5 
L 73.1875 27.203125 
L 10.59375 27.203125 
z
" id="DejaVuSans-8722"/>
     </defs>
     <use transform="translate(0 0.684375)" xlink:href="#DejaVuSans-Oblique-80"/>
     <use transform="translate(79.785156 0.684375)" xlink:href="#DejaVuSans-60"/>
     <use transform="translate(183.056641 0.684375)" xlink:href="#DejaVuSans-49"/>
     <use transform="translate(246.679688 0.684375)" xlink:href="#DejaVuSans-48"/>
     <use transform="translate(311.259766 38.965625)scale(0.7)" xlink:href="#DejaVuSans-8722"/>
     <use transform="translate(369.912109 38.965625)scale(0.7)" xlink:href="#DejaVuSans-49"/>
     <use transform="translate(414.448242 38.965625)scale(0.7)" xlink:href="#DejaVuSans-55"/>
    </g>
   </g>
  </g>
 </g>
 <defs>
  <clipPath id="pc408df18eb">
   <rect height="178.4" width="156.9625" x="39.925" y="10.8"/>
  </clipPath>
 </defs>
</svg>
