<?xml version="1.0" encoding="utf-8" standalone="no"?>
<!DOCTYPE svg PUBLIC "-//W3C//DTD SVG 1.1//EN"
  "http://www.w3.org/Graphics/SVG/1.1/DTD/svg11.dtd">
<!-- Created with matplotlib (https://matplotlib.org/) -->
<svg height="216pt" version="1.1" viewBox="0 0 216 216" width="216pt" xmlns="http://www.w3.org/2000/svg" xmlns:xlink="http://www.w3.org/1999/xlink">
 <metadata>
  <rdf:RDF xmlns:cc="http://creativecommons.org/ns#" xmlns:dc="http://purl.org/dc/elements/1.1/" xmlns:rdf="http://www.w3.org/1999/02/22-rdf-syntax-ns#">
   <cc:Work>
    <dc:type rdf:resource="http://purl.org/dc/dcmitype/StillImage"/>
    <dc:date>2023-05-14T13:29:37.679946</dc:date>
    <dc:format>image/svg+xml</dc:format>
    <dc:creator>
     <cc:Agent>
      <dc:title>Matplotlib v3.3.4, https://matplotlib.org/</dc:title>
     </cc:Agent>
    </dc:creator>
   </cc:Work>
  </rdf:RDF>
 </metadata>
 <defs>
  <style type="text/css">*{stroke-linecap:butt;stroke-linejoin:round;}</style>
 </defs>
 <g id="figure_1">
  <g id="patch_1">
   <path d="M 0 216 
L 216 216 
L 216 0 
L 0 0 
z
" style="fill:none;"/>
  </g>
  <g id="axes_1">
   <g id="patch_2">
    <path d="M 28.925 189.2 
L 196.8875 189.2 
L 196.8875 10.8 
L 28.925 10.8 
z
" style="fill:#ffffff;"/>
   </g>
   <g id="PathCollection_1">
    <defs>
     <path d="M 0 3 
C 0.795609 3 1.55874 2.683901 2.12132 2.12132 
C 2.683901 1.55874 3 0.795609 3 0 
C 3 -0.795609 2.683901 -1.55874 2.12132 -2.12132 
C 1.55874 -2.683901 0.795609 -3 0 -3 
C -0.795609 -3 -1.55874 -2.683901 -2.12132 -2.12132 
C -2.683901 -1.55874 -3 -0.795609 -3 0 
C -3 0.795609 -2.683901 1.55874 -2.12132 2.12132 
C -1.55874 2.683901 -0.795609 3 0 3 
z
" id="m613e85b395" style="stroke:#000000;stroke-opacity:0.8;"/>
    </defs>
    <g clip-path="url(#p5891c41f85)">
     <use style="fill-opacity:0.8;stroke:#000000;stroke-opacity:0.8;" x="28.925" xlink:href="#m613e85b395" y="178.481629"/>
     <use style="fill-opacity:0.8;stroke:#000000;stroke-opacity:0.8;" x="30.524643" xlink:href="#m613e85b395" y="168.106716"/>
     <use style="fill-opacity:0.8;stroke:#000000;stroke-opacity:0.8;" x="32.124286" xlink:href="#m613e85b395" y="166.083118"/>
     <use style="fill-opacity:0.8;stroke:#000000;stroke-opacity:0.8;" x="33.723929" xlink:href="#m613e85b395" y="168.251154"/>
     <use style="fill-opacity:0.8;stroke:#000000;stroke-opacity:0.8;" x="35.323571" xlink:href="#m613e85b395" y="154.681291"/>
     <use style="fill-opacity:0.8;stroke:#000000;stroke-opacity:0.8;" x="36.923214" xlink:href="#m613e85b395" y="156.505451"/>
     <use style="fill-opacity:0.8;stroke:#000000;stroke-opacity:0.8;" x="38.522857" xlink:href="#m613e85b395" y="153.269266"/>
     <use style="fill-opacity:0.8;stroke:#000000;stroke-opacity:0.8;" x="40.1225" xlink:href="#m613e85b395" y="152.280667"/>
     <use style="fill-opacity:0.8;stroke:#000000;stroke-opacity:0.8;" x="41.722143" xlink:href="#m613e85b395" y="142.503348"/>
     <use style="fill-opacity:0.8;stroke:#000000;stroke-opacity:0.8;" x="43.321786" xlink:href="#m613e85b395" y="153.798927"/>
     <use style="fill-opacity:0.8;stroke:#000000;stroke-opacity:0.8;" x="44.921429" xlink:href="#m613e85b395" y="150.252418"/>
     <use style="fill-opacity:0.8;stroke:#000000;stroke-opacity:0.8;" x="46.521071" xlink:href="#m613e85b395" y="152.87006"/>
     <use style="fill-opacity:0.8;stroke:#000000;stroke-opacity:0.8;" x="48.120714" xlink:href="#m613e85b395" y="150.394134"/>
     <use style="fill-opacity:0.8;stroke:#000000;stroke-opacity:0.8;" x="49.720357" xlink:href="#m613e85b395" y="144.925639"/>
     <use style="fill-opacity:0.8;stroke:#000000;stroke-opacity:0.8;" x="51.32" xlink:href="#m613e85b395" y="153.076066"/>
     <use style="fill-opacity:0.8;stroke:#000000;stroke-opacity:0.8;" x="52.919643" xlink:href="#m613e85b395" y="154.985795"/>
     <use style="fill-opacity:0.8;stroke:#000000;stroke-opacity:0.8;" x="54.519286" xlink:href="#m613e85b395" y="158.332802"/>
     <use style="fill-opacity:0.8;stroke:#000000;stroke-opacity:0.8;" x="56.118929" xlink:href="#m613e85b395" y="131.860399"/>
     <use style="fill-opacity:0.8;stroke:#000000;stroke-opacity:0.8;" x="57.718571" xlink:href="#m613e85b395" y="135.037807"/>
     <use style="fill-opacity:0.8;stroke:#000000;stroke-opacity:0.8;" x="59.318214" xlink:href="#m613e85b395" y="148.668393"/>
     <use style="fill-opacity:0.8;stroke:#000000;stroke-opacity:0.8;" x="60.917857" xlink:href="#m613e85b395" y="130.598032"/>
     <use style="fill-opacity:0.8;stroke:#000000;stroke-opacity:0.8;" x="62.5175" xlink:href="#m613e85b395" y="119.026585"/>
     <use style="fill-opacity:0.8;stroke:#000000;stroke-opacity:0.8;" x="64.117143" xlink:href="#m613e85b395" y="140.196241"/>
     <use style="fill-opacity:0.8;stroke:#000000;stroke-opacity:0.8;" x="65.716786" xlink:href="#m613e85b395" y="151.243177"/>
     <use style="fill-opacity:0.8;stroke:#000000;stroke-opacity:0.8;" x="67.316429" xlink:href="#m613e85b395" y="157.567302"/>
     <use style="fill-opacity:0.8;stroke:#000000;stroke-opacity:0.8;" x="68.916071" xlink:href="#m613e85b395" y="154.494429"/>
     <use style="fill-opacity:0.8;stroke:#000000;stroke-opacity:0.8;" x="70.515714" xlink:href="#m613e85b395" y="150.677532"/>
     <use style="fill-opacity:0.8;stroke:#000000;stroke-opacity:0.8;" x="72.115357" xlink:href="#m613e85b395" y="136.964846"/>
     <use style="fill-opacity:0.8;stroke:#000000;stroke-opacity:0.8;" x="73.715" xlink:href="#m613e85b395" y="143.125425"/>
     <use style="fill-opacity:0.8;stroke:#000000;stroke-opacity:0.8;" x="75.314643" xlink:href="#m613e85b395" y="142.698688"/>
     <use style="fill-opacity:0.8;stroke:#000000;stroke-opacity:0.8;" x="76.914286" xlink:href="#m613e85b395" y="153.815301"/>
     <use style="fill-opacity:0.8;stroke:#000000;stroke-opacity:0.8;" x="78.513929" xlink:href="#m613e85b395" y="157.444707"/>
     <use style="fill-opacity:0.8;stroke:#000000;stroke-opacity:0.8;" x="80.113571" xlink:href="#m613e85b395" y="156.690203"/>
     <use style="fill-opacity:0.8;stroke:#000000;stroke-opacity:0.8;" x="81.713214" xlink:href="#m613e85b395" y="157.674434"/>
     <use style="fill-opacity:0.8;stroke:#000000;stroke-opacity:0.8;" x="83.312857" xlink:href="#m613e85b395" y="147.509354"/>
     <use style="fill-opacity:0.8;stroke:#000000;stroke-opacity:0.8;" x="84.9125" xlink:href="#m613e85b395" y="143.947501"/>
     <use style="fill-opacity:0.8;stroke:#000000;stroke-opacity:0.8;" x="86.512143" xlink:href="#m613e85b395" y="150.476139"/>
     <use style="fill-opacity:0.8;stroke:#000000;stroke-opacity:0.8;" x="88.111786" xlink:href="#m613e85b395" y="156.166941"/>
     <use style="fill-opacity:0.8;stroke:#000000;stroke-opacity:0.8;" x="89.711429" xlink:href="#m613e85b395" y="155.654244"/>
     <use style="fill-opacity:0.8;stroke:#000000;stroke-opacity:0.8;" x="91.311071" xlink:href="#m613e85b395" y="147.417975"/>
     <use style="fill-opacity:0.8;stroke:#000000;stroke-opacity:0.8;" x="92.910714" xlink:href="#m613e85b395" y="126.606666"/>
     <use style="fill-opacity:0.8;stroke:#000000;stroke-opacity:0.8;" x="94.510357" xlink:href="#m613e85b395" y="121.38478"/>
     <use style="fill-opacity:0.8;stroke:#000000;stroke-opacity:0.8;" x="96.11" xlink:href="#m613e85b395" y="119.998423"/>
     <use style="fill-opacity:0.8;stroke:#000000;stroke-opacity:0.8;" x="97.709643" xlink:href="#m613e85b395" y="94.933592"/>
     <use style="fill-opacity:0.8;stroke:#000000;stroke-opacity:0.8;" x="99.309286" xlink:href="#m613e85b395" y="117.43717"/>
     <use style="fill-opacity:0.8;stroke:#000000;stroke-opacity:0.8;" x="100.908929" xlink:href="#m613e85b395" y="100.381411"/>
     <use style="fill-opacity:0.8;stroke:#000000;stroke-opacity:0.8;" x="102.508571" xlink:href="#m613e85b395" y="106.763276"/>
     <use style="fill-opacity:0.8;stroke:#000000;stroke-opacity:0.8;" x="104.108214" xlink:href="#m613e85b395" y="115.380882"/>
     <use style="fill-opacity:0.8;stroke:#000000;stroke-opacity:0.8;" x="105.707857" xlink:href="#m613e85b395" y="75.913931"/>
     <use style="fill-opacity:0.8;stroke:#000000;stroke-opacity:0.8;" x="107.3075" xlink:href="#m613e85b395" y="112.785954"/>
     <use style="fill-opacity:0.8;stroke:#000000;stroke-opacity:0.8;" x="108.907143" xlink:href="#m613e85b395" y="121.760896"/>
     <use style="fill-opacity:0.8;stroke:#000000;stroke-opacity:0.8;" x="110.506786" xlink:href="#m613e85b395" y="133.89119"/>
     <use style="fill-opacity:0.8;stroke:#000000;stroke-opacity:0.8;" x="112.106429" xlink:href="#m613e85b395" y="132.726863"/>
     <use style="fill-opacity:0.8;stroke:#000000;stroke-opacity:0.8;" x="113.706071" xlink:href="#m613e85b395" y="129.10093"/>
     <use style="fill-opacity:0.8;stroke:#000000;stroke-opacity:0.8;" x="115.305714" xlink:href="#m613e85b395" y="112.159807"/>
     <use style="fill-opacity:0.8;stroke:#000000;stroke-opacity:0.8;" x="116.905357" xlink:href="#m613e85b395" y="130.497197"/>
     <use style="fill-opacity:0.8;stroke:#000000;stroke-opacity:0.8;" x="118.505" xlink:href="#m613e85b395" y="133.406317"/>
     <use style="fill-opacity:0.8;stroke:#000000;stroke-opacity:0.8;" x="120.104643" xlink:href="#m613e85b395" y="142.366765"/>
     <use style="fill-opacity:0.8;stroke:#000000;stroke-opacity:0.8;" x="121.704286" xlink:href="#m613e85b395" y="139.339679"/>
     <use style="fill-opacity:0.8;stroke:#000000;stroke-opacity:0.8;" x="123.303929" xlink:href="#m613e85b395" y="124.372462"/>
     <use style="fill-opacity:0.8;stroke:#000000;stroke-opacity:0.8;" x="124.903571" xlink:href="#m613e85b395" y="110.589349"/>
     <use style="fill-opacity:0.8;stroke:#000000;stroke-opacity:0.8;" x="126.503214" xlink:href="#m613e85b395" y="78.45665"/>
     <use style="fill-opacity:0.8;stroke:#000000;stroke-opacity:0.8;" x="128.102857" xlink:href="#m613e85b395" y="83.330607"/>
     <use style="fill-opacity:0.8;stroke:#000000;stroke-opacity:0.8;" x="129.7025" xlink:href="#m613e85b395" y="83.758926"/>
     <use style="fill-opacity:0.8;stroke:#000000;stroke-opacity:0.8;" x="131.302143" xlink:href="#m613e85b395" y="86.952524"/>
     <use style="fill-opacity:0.8;stroke:#000000;stroke-opacity:0.8;" x="132.901786" xlink:href="#m613e85b395" y="142.683805"/>
     <use style="fill-opacity:0.8;stroke:#000000;stroke-opacity:0.8;" x="134.501429" xlink:href="#m613e85b395" y="129.280971"/>
     <use style="fill-opacity:0.8;stroke:#000000;stroke-opacity:0.8;" x="136.101071" xlink:href="#m613e85b395" y="119.901435"/>
     <use style="fill-opacity:0.8;stroke:#000000;stroke-opacity:0.8;" x="137.700714" xlink:href="#m613e85b395" y="116.232292"/>
     <use style="fill-opacity:0.8;stroke:#000000;stroke-opacity:0.8;" x="139.300357" xlink:href="#m613e85b395" y="104.642841"/>
     <use style="fill-opacity:0.8;stroke:#000000;stroke-opacity:0.8;" x="140.9" xlink:href="#m613e85b395" y="95.657827"/>
     <use style="fill-opacity:0.8;stroke:#000000;stroke-opacity:0.8;" x="142.499643" xlink:href="#m613e85b395" y="102.564404"/>
     <use style="fill-opacity:0.8;stroke:#000000;stroke-opacity:0.8;" x="144.099286" xlink:href="#m613e85b395" y="111.861341"/>
     <use style="fill-opacity:0.8;stroke:#000000;stroke-opacity:0.8;" x="145.698929" xlink:href="#m613e85b395" y="112.816391"/>
     <use style="fill-opacity:0.8;stroke:#000000;stroke-opacity:0.8;" x="147.298571" xlink:href="#m613e85b395" y="90.226244"/>
     <use style="fill-opacity:0.8;stroke:#000000;stroke-opacity:0.8;" x="148.898214" xlink:href="#m613e85b395" y="101.8534"/>
     <use style="fill-opacity:0.8;stroke:#000000;stroke-opacity:0.8;" x="150.497857" xlink:href="#m613e85b395" y="119.337068"/>
     <use style="fill-opacity:0.8;stroke:#000000;stroke-opacity:0.8;" x="152.0975" xlink:href="#m613e85b395" y="117.537273"/>
     <use style="fill-opacity:0.8;stroke:#000000;stroke-opacity:0.8;" x="153.697143" xlink:href="#m613e85b395" y="104.157193"/>
     <use style="fill-opacity:0.8;stroke:#000000;stroke-opacity:0.8;" x="155.296786" xlink:href="#m613e85b395" y="97.221017"/>
     <use style="fill-opacity:0.8;stroke:#000000;stroke-opacity:0.8;" x="156.896429" xlink:href="#m613e85b395" y="95.504118"/>
     <use style="fill-opacity:0.8;stroke:#000000;stroke-opacity:0.8;" x="158.496071" xlink:href="#m613e85b395" y="81.962248"/>
     <use style="fill-opacity:0.8;stroke:#000000;stroke-opacity:0.8;" x="160.095714" xlink:href="#m613e85b395" y="87.119639"/>
     <use style="fill-opacity:0.8;stroke:#000000;stroke-opacity:0.8;" x="161.695357" xlink:href="#m613e85b395" y="76.483592"/>
     <use style="fill-opacity:0.8;stroke:#000000;stroke-opacity:0.8;" x="163.295" xlink:href="#m613e85b395" y="91.143217"/>
     <use style="fill-opacity:0.8;stroke:#000000;stroke-opacity:0.8;" x="164.894643" xlink:href="#m613e85b395" y="147.753129"/>
     <use style="fill-opacity:0.8;stroke:#000000;stroke-opacity:0.8;" x="166.494286" xlink:href="#m613e85b395" y="149.252415"/>
     <use style="fill-opacity:0.8;stroke:#000000;stroke-opacity:0.8;" x="168.093929" xlink:href="#m613e85b395" y="20.973453"/>
     <use style="fill-opacity:0.8;stroke:#000000;stroke-opacity:0.8;" x="169.693571" xlink:href="#m613e85b395" y="20.973453"/>
     <use style="fill-opacity:0.8;stroke:#000000;stroke-opacity:0.8;" x="171.293214" xlink:href="#m613e85b395" y="18.909091"/>
     <use style="fill-opacity:0.8;stroke:#000000;stroke-opacity:0.8;" x="172.892857" xlink:href="#m613e85b395" y="18.909091"/>
     <use style="fill-opacity:0.8;stroke:#000000;stroke-opacity:0.8;" x="174.4925" xlink:href="#m613e85b395" y="26.214988"/>
     <use style="fill-opacity:0.8;stroke:#000000;stroke-opacity:0.8;" x="176.092143" xlink:href="#m613e85b395" y="26.214988"/>
     <use style="fill-opacity:0.8;stroke:#000000;stroke-opacity:0.8;" x="177.691786" xlink:href="#m613e85b395" y="24.150626"/>
     <use style="fill-opacity:0.8;stroke:#000000;stroke-opacity:0.8;" x="179.291429" xlink:href="#m613e85b395" y="24.150626"/>
     <use style="fill-opacity:0.8;stroke:#000000;stroke-opacity:0.8;" x="180.891071" xlink:href="#m613e85b395" y="31.456523"/>
     <use style="fill-opacity:0.8;stroke:#000000;stroke-opacity:0.8;" x="182.490714" xlink:href="#m613e85b395" y="31.456523"/>
     <use style="fill-opacity:0.8;stroke:#000000;stroke-opacity:0.8;" x="184.090357" xlink:href="#m613e85b395" y="29.392161"/>
     <use style="fill-opacity:0.8;stroke:#000000;stroke-opacity:0.8;" x="185.69" xlink:href="#m613e85b395" y="29.392161"/>
     <use style="fill-opacity:0.8;stroke:#000000;stroke-opacity:0.8;" x="187.289643" xlink:href="#m613e85b395" y="36.698059"/>
     <use style="fill-opacity:0.8;stroke:#000000;stroke-opacity:0.8;" x="188.889286" xlink:href="#m613e85b395" y="150.885127"/>
    </g>
   </g>
   <g id="PolyCollection_1">
    <path clip-path="url(#p5891c41f85)" d="M 28.925 165.222403 
L 28.925 181.090909 
L 30.540801 179.735069 
L 32.156602 178.406018 
L 33.772403 177.117913 
L 35.388203 175.829807 
L 37.004004 174.499383 
L 38.619805 173.159714 
L 40.235606 171.820046 
L 41.851407 170.519363 
L 43.467208 169.232349 
L 45.083009 167.944723 
L 46.69881 166.570954 
L 48.31461 165.195423 
L 49.930411 163.902535 
L 51.546212 162.622314 
L 53.162013 161.340798 
L 54.777814 159.981975 
L 56.393615 158.622832 
L 58.009416 157.34799 
L 59.625216 156.076078 
L 61.241017 154.806431 
L 62.856818 153.544158 
L 64.472619 152.263611 
L 66.08842 150.991765 
L 67.704221 149.698867 
L 69.320022 148.494797 
L 70.935823 147.256996 
L 72.551623 145.935925 
L 74.167424 144.670683 
L 75.783225 143.383345 
L 77.399026 142.157362 
L 79.014827 140.994665 
L 80.630628 139.80098 
L 82.246429 138.611924 
L 83.862229 137.425861 
L 85.47803 136.412578 
L 87.093831 135.253545 
L 88.709632 134.153654 
L 90.325433 133.149231 
L 91.941234 132.158839 
L 93.557035 131.193028 
L 95.172835 130.125011 
L 96.788636 129.036567 
L 98.404437 128.16959 
L 100.020238 127.043884 
L 101.636039 126.0243 
L 103.25184 124.991835 
L 104.867641 124.051678 
L 106.483442 123.064236 
L 108.099242 121.965848 
L 109.715043 120.892486 
L 111.330844 120.026557 
L 112.946645 119.199321 
L 114.562446 118.103571 
L 116.178247 116.989531 
L 117.794048 115.99999 
L 119.409848 115.114357 
L 121.025649 114.228301 
L 122.64145 113.342113 
L 124.257251 112.447409 
L 125.873052 111.453285 
L 127.488853 110.467626 
L 129.104654 109.481968 
L 130.720455 108.495974 
L 132.336255 107.541109 
L 133.952056 106.612835 
L 135.567857 105.685964 
L 137.183658 104.710071 
L 138.799459 103.728281 
L 140.41526 102.74804 
L 142.031061 101.799202 
L 143.646861 100.891655 
L 145.262662 99.966738 
L 146.878463 99.004155 
L 148.494264 98.041572 
L 150.110065 97.078989 
L 151.725866 96.158426 
L 153.341667 95.27175 
L 154.957468 94.384909 
L 156.573268 93.496861 
L 158.189069 92.608813 
L 159.80487 91.660114 
L 161.420671 90.701018 
L 163.036472 89.741438 
L 164.652273 88.791093 
L 166.268074 87.899496 
L 167.883874 87.007899 
L 169.499675 86.116302 
L 171.115476 85.224705 
L 172.731277 84.333108 
L 174.347078 83.441511 
L 175.962879 82.517303 
L 177.57868 81.590752 
L 179.194481 80.663242 
L 180.810281 79.721484 
L 182.426082 78.766207 
L 184.041883 77.81093 
L 185.657684 76.855653 
L 187.273485 75.900377 
L 188.889286 74.9451 
L 188.889286 46.064502 
L 188.889286 46.064502 
L 187.273485 47.376817 
L 185.657684 48.719745 
L 184.041883 50.074363 
L 182.426082 51.428981 
L 180.810281 52.783655 
L 179.194481 54.081364 
L 177.57868 55.355672 
L 175.962879 56.693797 
L 174.347078 58.048783 
L 172.731277 59.4039 
L 171.115476 60.759861 
L 169.499675 62.117127 
L 167.883874 63.474754 
L 166.268074 64.832923 
L 164.652273 66.191764 
L 163.036472 67.550606 
L 161.420671 68.907852 
L 159.80487 70.263213 
L 158.189069 71.598457 
L 156.573268 72.904244 
L 154.957468 74.229465 
L 153.341667 75.614336 
L 151.725866 76.977134 
L 150.110065 78.259751 
L 148.494264 79.56135 
L 146.878463 80.965738 
L 145.262662 82.370126 
L 143.646861 83.769365 
L 142.031061 85.041482 
L 140.41526 86.313598 
L 138.799459 87.586149 
L 137.183658 88.858833 
L 135.567857 90.131518 
L 133.952056 91.404202 
L 132.336255 92.676887 
L 130.720455 93.949571 
L 129.104654 95.223117 
L 127.488853 96.488745 
L 125.873052 97.83443 
L 124.257251 99.091792 
L 122.64145 100.313416 
L 121.025649 101.595678 
L 119.409848 102.895228 
L 117.794048 104.251427 
L 116.178247 105.577298 
L 114.562446 106.916232 
L 112.946645 108.179481 
L 111.330844 109.442731 
L 109.715043 110.71888 
L 108.099242 111.967621 
L 106.483442 113.229262 
L 104.867641 114.490902 
L 103.25184 115.752543 
L 101.636039 116.999819 
L 100.020238 118.290575 
L 98.404437 119.540485 
L 96.788636 120.804406 
L 95.172835 122.05805 
L 93.557035 123.337893 
L 91.941234 124.594374 
L 90.325433 125.823259 
L 88.709632 127.028104 
L 87.093831 128.288024 
L 85.47803 129.457732 
L 83.862229 130.617939 
L 82.246429 131.7872 
L 80.630628 132.918711 
L 79.014827 134.040191 
L 77.399026 135.179571 
L 75.783225 136.378529 
L 74.167424 137.533702 
L 72.551623 138.63156 
L 70.935823 139.797191 
L 69.320022 140.887186 
L 67.704221 142.050805 
L 66.08842 143.120647 
L 64.472619 144.116412 
L 62.856818 145.072567 
L 61.241017 146.063934 
L 59.625216 147.122081 
L 58.009416 148.11329 
L 56.393615 149.056435 
L 54.777814 150.024864 
L 53.162013 151.004315 
L 51.546212 152.024418 
L 49.930411 153.011302 
L 48.31461 153.985308 
L 46.69881 154.958655 
L 45.083009 155.927349 
L 43.467208 156.898467 
L 41.851407 157.863084 
L 40.235606 158.778564 
L 38.619805 159.734375 
L 37.004004 160.690988 
L 35.388203 161.597271 
L 33.772403 162.527716 
L 32.156602 163.429852 
L 30.540801 164.31612 
L 28.925 165.222403 
z
" style="fill:#e41a1c;fill-opacity:0.15;"/>
   </g>
   <g id="matplotlib.axis_1">
    <g id="xtick_1">
     <g id="line2d_1">
      <defs>
       <path d="M 0 0 
L 0 3.5 
" id="me85dbe501e" style="stroke:#000000;stroke-width:0.8;"/>
      </defs>
      <g>
       <use style="stroke:#000000;stroke-width:0.8;" x="28.925" xlink:href="#me85dbe501e" y="189.2"/>
      </g>
     </g>
     <g id="text_1">
      <!-- 0 -->
      <g transform="translate(26.144531 203.357812)scale(0.1 -0.1)">
       <defs>
        <path d="M 4.15625 35.296875 
Q 4.15625 48 6.765625 55.734375 
Q 9.375 63.484375 14.515625 67.671875 
Q 19.671875 71.875 27.484375 71.875 
Q 33.25 71.875 37.59375 69.546875 
Q 41.9375 67.234375 44.765625 62.859375 
Q 47.609375 58.5 49.21875 52.21875 
Q 50.828125 45.953125 50.828125 35.296875 
Q 50.828125 22.703125 48.234375 14.96875 
Q 45.65625 7.234375 40.5 3 
Q 35.359375 -1.21875 27.484375 -1.21875 
Q 17.140625 -1.21875 11.234375 6.203125 
Q 4.15625 15.140625 4.15625 35.296875 
z
M 13.1875 35.296875 
Q 13.1875 17.671875 17.3125 11.828125 
Q 21.4375 6 27.484375 6 
Q 33.546875 6 37.671875 11.859375 
Q 41.796875 17.71875 41.796875 35.296875 
Q 41.796875 52.984375 37.671875 58.78125 
Q 33.546875 64.59375 27.390625 64.59375 
Q 21.34375 64.59375 17.71875 59.46875 
Q 13.1875 52.9375 13.1875 35.296875 
z
" id="ArialMT-48"/>
       </defs>
       <use xlink:href="#ArialMT-48"/>
      </g>
     </g>
    </g>
    <g id="xtick_2">
     <g id="line2d_2">
      <g>
       <use style="stroke:#000000;stroke-width:0.8;" x="68.916071" xlink:href="#me85dbe501e" y="189.2"/>
      </g>
     </g>
     <g id="text_2">
      <!-- 25 -->
      <g transform="translate(63.355134 203.357812)scale(0.1 -0.1)">
       <defs>
        <path d="M 50.34375 8.453125 
L 50.34375 0 
L 3.03125 0 
Q 2.9375 3.171875 4.046875 6.109375 
Q 5.859375 10.9375 9.828125 15.625 
Q 13.8125 20.3125 21.34375 26.46875 
Q 33.015625 36.03125 37.109375 41.625 
Q 41.21875 47.21875 41.21875 52.203125 
Q 41.21875 57.421875 37.46875 61 
Q 33.734375 64.59375 27.734375 64.59375 
Q 21.390625 64.59375 17.578125 60.78125 
Q 13.765625 56.984375 13.71875 50.25 
L 4.6875 51.171875 
Q 5.609375 61.28125 11.65625 66.578125 
Q 17.71875 71.875 27.9375 71.875 
Q 38.234375 71.875 44.234375 66.15625 
Q 50.25 60.453125 50.25 52 
Q 50.25 47.703125 48.484375 43.546875 
Q 46.734375 39.40625 42.65625 34.8125 
Q 38.578125 30.21875 29.109375 22.21875 
Q 21.1875 15.578125 18.9375 13.203125 
Q 16.703125 10.84375 15.234375 8.453125 
z
" id="ArialMT-50"/>
        <path d="M 4.15625 18.75 
L 13.375 19.53125 
Q 14.40625 12.796875 18.140625 9.390625 
Q 21.875 6 27.15625 6 
Q 33.5 6 37.890625 10.78125 
Q 42.28125 15.578125 42.28125 23.484375 
Q 42.28125 31 38.0625 35.34375 
Q 33.84375 39.703125 27 39.703125 
Q 22.75 39.703125 19.328125 37.765625 
Q 15.921875 35.84375 13.96875 32.765625 
L 5.71875 33.84375 
L 12.640625 70.609375 
L 48.25 70.609375 
L 48.25 62.203125 
L 19.671875 62.203125 
L 15.828125 42.96875 
Q 22.265625 47.46875 29.34375 47.46875 
Q 38.71875 47.46875 45.15625 40.96875 
Q 51.609375 34.46875 51.609375 24.265625 
Q 51.609375 14.546875 45.953125 7.46875 
Q 39.0625 -1.21875 27.15625 -1.21875 
Q 17.390625 -1.21875 11.203125 4.25 
Q 5.03125 9.71875 4.15625 18.75 
z
" id="ArialMT-53"/>
       </defs>
       <use xlink:href="#ArialMT-50"/>
       <use x="55.615234" xlink:href="#ArialMT-53"/>
      </g>
     </g>
    </g>
    <g id="xtick_3">
     <g id="line2d_3">
      <g>
       <use style="stroke:#000000;stroke-width:0.8;" x="108.907143" xlink:href="#me85dbe501e" y="189.2"/>
      </g>
     </g>
     <g id="text_3">
      <!-- 50 -->
      <g transform="translate(103.346205 203.357812)scale(0.1 -0.1)">
       <use xlink:href="#ArialMT-53"/>
       <use x="55.615234" xlink:href="#ArialMT-48"/>
      </g>
     </g>
    </g>
    <g id="xtick_4">
     <g id="line2d_4">
      <g>
       <use style="stroke:#000000;stroke-width:0.8;" x="148.898214" xlink:href="#me85dbe501e" y="189.2"/>
      </g>
     </g>
     <g id="text_4">
      <!-- 75 -->
      <g transform="translate(143.337277 203.357812)scale(0.1 -0.1)">
       <defs>
        <path d="M 4.734375 62.203125 
L 4.734375 70.65625 
L 51.078125 70.65625 
L 51.078125 63.8125 
Q 44.234375 56.546875 37.515625 44.484375 
Q 30.8125 32.421875 27.15625 19.671875 
Q 24.515625 10.6875 23.78125 0 
L 14.75 0 
Q 14.890625 8.453125 18.0625 20.40625 
Q 21.234375 32.375 27.171875 43.484375 
Q 33.109375 54.59375 39.796875 62.203125 
z
" id="ArialMT-55"/>
       </defs>
       <use xlink:href="#ArialMT-55"/>
       <use x="55.615234" xlink:href="#ArialMT-53"/>
      </g>
     </g>
    </g>
    <g id="xtick_5">
     <g id="line2d_5">
      <g>
       <use style="stroke:#000000;stroke-width:0.8;" x="188.889286" xlink:href="#me85dbe501e" y="189.2"/>
      </g>
     </g>
     <g id="text_5">
      <!-- 100 -->
      <g transform="translate(180.547879 203.357812)scale(0.1 -0.1)">
       <defs>
        <path d="M 37.25 0 
L 28.46875 0 
L 28.46875 56 
Q 25.296875 52.984375 20.140625 49.953125 
Q 14.984375 46.921875 10.890625 45.40625 
L 10.890625 53.90625 
Q 18.265625 57.375 23.78125 62.296875 
Q 29.296875 67.234375 31.59375 71.875 
L 37.25 71.875 
z
" id="ArialMT-49"/>
       </defs>
       <use xlink:href="#ArialMT-49"/>
       <use x="55.615234" xlink:href="#ArialMT-48"/>
       <use x="111.230469" xlink:href="#ArialMT-48"/>
      </g>
     </g>
    </g>
    <g id="text_6">
     <!-- expansion iteration -->
     <g transform="translate(70.936719 216.503125)scale(0.1 -0.1)">
      <defs>
       <path d="M 42.09375 16.703125 
L 51.171875 15.578125 
Q 49.03125 7.625 43.21875 3.21875 
Q 37.40625 -1.171875 28.375 -1.171875 
Q 17 -1.171875 10.328125 5.828125 
Q 3.65625 12.84375 3.65625 25.484375 
Q 3.65625 38.578125 10.390625 45.796875 
Q 17.140625 53.03125 27.875 53.03125 
Q 38.28125 53.03125 44.875 45.953125 
Q 51.46875 38.875 51.46875 26.03125 
Q 51.46875 25.25 51.421875 23.6875 
L 12.75 23.6875 
Q 13.234375 15.140625 17.578125 10.59375 
Q 21.921875 6.0625 28.421875 6.0625 
Q 33.25 6.0625 36.671875 8.59375 
Q 40.09375 11.140625 42.09375 16.703125 
z
M 13.234375 30.90625 
L 42.1875 30.90625 
Q 41.609375 37.453125 38.875 40.71875 
Q 34.671875 45.796875 27.984375 45.796875 
Q 21.921875 45.796875 17.796875 41.75 
Q 13.671875 37.703125 13.234375 30.90625 
z
" id="ArialMT-101"/>
       <path d="M 0.734375 0 
L 19.671875 26.953125 
L 2.15625 51.859375 
L 13.140625 51.859375 
L 21.09375 39.703125 
Q 23.34375 36.234375 24.703125 33.890625 
Q 26.859375 37.109375 28.65625 39.59375 
L 37.40625 51.859375 
L 47.90625 51.859375 
L 29.984375 27.4375 
L 49.265625 0 
L 38.484375 0 
L 27.828125 16.109375 
L 25 20.453125 
L 11.375 0 
z
" id="ArialMT-120"/>
       <path d="M 6.59375 -19.875 
L 6.59375 51.859375 
L 14.59375 51.859375 
L 14.59375 45.125 
Q 17.4375 49.078125 21 51.046875 
Q 24.5625 53.03125 29.640625 53.03125 
Q 36.28125 53.03125 41.359375 49.609375 
Q 46.4375 46.1875 49.015625 39.953125 
Q 51.609375 33.734375 51.609375 26.3125 
Q 51.609375 18.359375 48.75 11.984375 
Q 45.90625 5.609375 40.453125 2.21875 
Q 35.015625 -1.171875 29 -1.171875 
Q 24.609375 -1.171875 21.109375 0.6875 
Q 17.625 2.546875 15.375 5.375 
L 15.375 -19.875 
z
M 14.546875 25.640625 
Q 14.546875 15.625 18.59375 10.84375 
Q 22.65625 6.0625 28.421875 6.0625 
Q 34.28125 6.0625 38.453125 11.015625 
Q 42.625 15.96875 42.625 26.375 
Q 42.625 36.28125 38.546875 41.203125 
Q 34.46875 46.140625 28.8125 46.140625 
Q 23.1875 46.140625 18.859375 40.890625 
Q 14.546875 35.640625 14.546875 25.640625 
z
" id="ArialMT-112"/>
       <path d="M 40.4375 6.390625 
Q 35.546875 2.25 31.03125 0.53125 
Q 26.515625 -1.171875 21.34375 -1.171875 
Q 12.796875 -1.171875 8.203125 3 
Q 3.609375 7.171875 3.609375 13.671875 
Q 3.609375 17.484375 5.34375 20.625 
Q 7.078125 23.78125 9.890625 25.6875 
Q 12.703125 27.59375 16.21875 28.5625 
Q 18.796875 29.25 24.03125 29.890625 
Q 34.671875 31.15625 39.703125 32.90625 
Q 39.75 34.71875 39.75 35.203125 
Q 39.75 40.578125 37.25 42.78125 
Q 33.890625 45.75 27.25 45.75 
Q 21.046875 45.75 18.09375 43.578125 
Q 15.140625 41.40625 13.71875 35.890625 
L 5.125 37.0625 
Q 6.296875 42.578125 8.984375 45.96875 
Q 11.671875 49.359375 16.75 51.1875 
Q 21.828125 53.03125 28.515625 53.03125 
Q 35.15625 53.03125 39.296875 51.46875 
Q 43.453125 49.90625 45.40625 47.53125 
Q 47.359375 45.171875 48.140625 41.546875 
Q 48.578125 39.3125 48.578125 33.453125 
L 48.578125 21.734375 
Q 48.578125 9.46875 49.140625 6.21875 
Q 49.703125 2.984375 51.375 0 
L 42.1875 0 
Q 40.828125 2.734375 40.4375 6.390625 
z
M 39.703125 26.03125 
Q 34.90625 24.078125 25.34375 22.703125 
Q 19.921875 21.921875 17.671875 20.9375 
Q 15.4375 19.96875 14.203125 18.09375 
Q 12.984375 16.21875 12.984375 13.921875 
Q 12.984375 10.40625 15.640625 8.0625 
Q 18.3125 5.71875 23.4375 5.71875 
Q 28.515625 5.71875 32.46875 7.9375 
Q 36.421875 10.15625 38.28125 14.015625 
Q 39.703125 17 39.703125 22.796875 
z
" id="ArialMT-97"/>
       <path d="M 6.59375 0 
L 6.59375 51.859375 
L 14.5 51.859375 
L 14.5 44.484375 
Q 20.21875 53.03125 31 53.03125 
Q 35.6875 53.03125 39.625 51.34375 
Q 43.5625 49.65625 45.515625 46.921875 
Q 47.46875 44.1875 48.25 40.4375 
Q 48.734375 37.984375 48.734375 31.890625 
L 48.734375 0 
L 39.9375 0 
L 39.9375 31.546875 
Q 39.9375 36.921875 38.90625 39.578125 
Q 37.890625 42.234375 35.28125 43.8125 
Q 32.671875 45.40625 29.15625 45.40625 
Q 23.53125 45.40625 19.453125 41.84375 
Q 15.375 38.28125 15.375 28.328125 
L 15.375 0 
z
" id="ArialMT-110"/>
       <path d="M 3.078125 15.484375 
L 11.765625 16.84375 
Q 12.5 11.625 15.84375 8.84375 
Q 19.1875 6.0625 25.203125 6.0625 
Q 31.25 6.0625 34.171875 8.515625 
Q 37.109375 10.984375 37.109375 14.3125 
Q 37.109375 17.28125 34.515625 19 
Q 32.71875 20.171875 25.53125 21.96875 
Q 15.875 24.421875 12.140625 26.203125 
Q 8.40625 27.984375 6.46875 31.125 
Q 4.546875 34.28125 4.546875 38.09375 
Q 4.546875 41.546875 6.125 44.5 
Q 7.71875 47.46875 10.453125 49.421875 
Q 12.5 50.921875 16.03125 51.96875 
Q 19.578125 53.03125 23.640625 53.03125 
Q 29.734375 53.03125 34.34375 51.265625 
Q 38.96875 49.515625 41.15625 46.5 
Q 43.359375 43.5 44.1875 38.484375 
L 35.59375 37.3125 
Q 35.015625 41.3125 32.203125 43.546875 
Q 29.390625 45.796875 24.265625 45.796875 
Q 18.21875 45.796875 15.625 43.796875 
Q 13.03125 41.796875 13.03125 39.109375 
Q 13.03125 37.40625 14.109375 36.03125 
Q 15.1875 34.625 17.484375 33.6875 
Q 18.796875 33.203125 25.25 31.453125 
Q 34.578125 28.953125 38.25 27.359375 
Q 41.9375 25.78125 44.03125 22.75 
Q 46.140625 19.734375 46.140625 15.234375 
Q 46.140625 10.84375 43.578125 6.953125 
Q 41.015625 3.078125 36.171875 0.953125 
Q 31.34375 -1.171875 25.25 -1.171875 
Q 15.140625 -1.171875 9.84375 3.03125 
Q 4.546875 7.234375 3.078125 15.484375 
z
" id="ArialMT-115"/>
       <path d="M 6.640625 61.46875 
L 6.640625 71.578125 
L 15.4375 71.578125 
L 15.4375 61.46875 
z
M 6.640625 0 
L 6.640625 51.859375 
L 15.4375 51.859375 
L 15.4375 0 
z
" id="ArialMT-105"/>
       <path d="M 3.328125 25.921875 
Q 3.328125 40.328125 11.328125 47.265625 
Q 18.015625 53.03125 27.640625 53.03125 
Q 38.328125 53.03125 45.109375 46.015625 
Q 51.90625 39.015625 51.90625 26.65625 
Q 51.90625 16.65625 48.90625 10.90625 
Q 45.90625 5.171875 40.15625 2 
Q 34.421875 -1.171875 27.640625 -1.171875 
Q 16.75 -1.171875 10.03125 5.8125 
Q 3.328125 12.796875 3.328125 25.921875 
z
M 12.359375 25.921875 
Q 12.359375 15.96875 16.703125 11.015625 
Q 21.046875 6.0625 27.640625 6.0625 
Q 34.1875 6.0625 38.53125 11.03125 
Q 42.875 16.015625 42.875 26.21875 
Q 42.875 35.84375 38.5 40.796875 
Q 34.125 45.75 27.640625 45.75 
Q 21.046875 45.75 16.703125 40.8125 
Q 12.359375 35.890625 12.359375 25.921875 
z
" id="ArialMT-111"/>
       <path id="ArialMT-32"/>
       <path d="M 25.78125 7.859375 
L 27.046875 0.09375 
Q 23.34375 -0.6875 20.40625 -0.6875 
Q 15.625 -0.6875 12.984375 0.828125 
Q 10.359375 2.34375 9.28125 4.8125 
Q 8.203125 7.28125 8.203125 15.1875 
L 8.203125 45.015625 
L 1.765625 45.015625 
L 1.765625 51.859375 
L 8.203125 51.859375 
L 8.203125 64.703125 
L 16.9375 69.96875 
L 16.9375 51.859375 
L 25.78125 51.859375 
L 25.78125 45.015625 
L 16.9375 45.015625 
L 16.9375 14.703125 
Q 16.9375 10.9375 17.40625 9.859375 
Q 17.875 8.796875 18.921875 8.15625 
Q 19.96875 7.515625 21.921875 7.515625 
Q 23.390625 7.515625 25.78125 7.859375 
z
" id="ArialMT-116"/>
       <path d="M 6.5 0 
L 6.5 51.859375 
L 14.40625 51.859375 
L 14.40625 44 
Q 17.4375 49.515625 20 51.265625 
Q 22.5625 53.03125 25.640625 53.03125 
Q 30.078125 53.03125 34.671875 50.203125 
L 31.640625 42.046875 
Q 28.421875 43.953125 25.203125 43.953125 
Q 22.3125 43.953125 20.015625 42.21875 
Q 17.71875 40.484375 16.75 37.40625 
Q 15.28125 32.71875 15.28125 27.15625 
L 15.28125 0 
z
" id="ArialMT-114"/>
      </defs>
      <use xlink:href="#ArialMT-101"/>
      <use x="55.615234" xlink:href="#ArialMT-120"/>
      <use x="105.615234" xlink:href="#ArialMT-112"/>
      <use x="161.230469" xlink:href="#ArialMT-97"/>
      <use x="216.845703" xlink:href="#ArialMT-110"/>
      <use x="272.460938" xlink:href="#ArialMT-115"/>
      <use x="322.460938" xlink:href="#ArialMT-105"/>
      <use x="344.677734" xlink:href="#ArialMT-111"/>
      <use x="400.292969" xlink:href="#ArialMT-110"/>
      <use x="455.908203" xlink:href="#ArialMT-32"/>
      <use x="483.691406" xlink:href="#ArialMT-105"/>
      <use x="505.908203" xlink:href="#ArialMT-116"/>
      <use x="533.691406" xlink:href="#ArialMT-101"/>
      <use x="589.306641" xlink:href="#ArialMT-114"/>
      <use x="622.607422" xlink:href="#ArialMT-97"/>
      <use x="678.222656" xlink:href="#ArialMT-116"/>
      <use x="706.005859" xlink:href="#ArialMT-105"/>
      <use x="728.222656" xlink:href="#ArialMT-111"/>
      <use x="783.837891" xlink:href="#ArialMT-110"/>
     </g>
    </g>
   </g>
   <g id="matplotlib.axis_2">
    <g id="ytick_1">
     <g id="line2d_6">
      <defs>
       <path d="M 0 0 
L -3.5 0 
" id="m4997b326c7" style="stroke:#000000;stroke-width:0.8;"/>
      </defs>
      <g>
       <use style="stroke:#000000;stroke-width:0.8;" x="28.925" xlink:href="#m4997b326c7" y="188.346724"/>
      </g>
     </g>
     <g id="text_7">
      <!-- 0 -->
      <g transform="translate(16.364063 191.92563)scale(0.1 -0.1)">
       <use xlink:href="#ArialMT-48"/>
      </g>
     </g>
    </g>
    <g id="ytick_2">
     <g id="line2d_7">
      <g>
       <use style="stroke:#000000;stroke-width:0.8;" x="28.925" xlink:href="#m4997b326c7" y="162.139048"/>
      </g>
     </g>
     <g id="text_8">
      <!-- 5 -->
      <g transform="translate(16.364063 165.717954)scale(0.1 -0.1)">
       <use xlink:href="#ArialMT-53"/>
      </g>
     </g>
    </g>
    <g id="ytick_3">
     <g id="line2d_8">
      <g>
       <use style="stroke:#000000;stroke-width:0.8;" x="28.925" xlink:href="#m4997b326c7" y="135.931371"/>
      </g>
     </g>
     <g id="text_9">
      <!-- 10 -->
      <g transform="translate(10.803125 139.510278)scale(0.1 -0.1)">
       <use xlink:href="#ArialMT-49"/>
       <use x="55.615234" xlink:href="#ArialMT-48"/>
      </g>
     </g>
    </g>
    <g id="ytick_4">
     <g id="line2d_9">
      <g>
       <use style="stroke:#000000;stroke-width:0.8;" x="28.925" xlink:href="#m4997b326c7" y="109.723695"/>
      </g>
     </g>
     <g id="text_10">
      <!-- 15 -->
      <g transform="translate(10.803125 113.302602)scale(0.1 -0.1)">
       <use xlink:href="#ArialMT-49"/>
       <use x="55.615234" xlink:href="#ArialMT-53"/>
      </g>
     </g>
    </g>
    <g id="ytick_5">
     <g id="line2d_10">
      <g>
       <use style="stroke:#000000;stroke-width:0.8;" x="28.925" xlink:href="#m4997b326c7" y="83.516019"/>
      </g>
     </g>
     <g id="text_11">
      <!-- 20 -->
      <g transform="translate(10.803125 87.094926)scale(0.1 -0.1)">
       <use xlink:href="#ArialMT-50"/>
       <use x="55.615234" xlink:href="#ArialMT-48"/>
      </g>
     </g>
    </g>
    <g id="ytick_6">
     <g id="line2d_11">
      <g>
       <use style="stroke:#000000;stroke-width:0.8;" x="28.925" xlink:href="#m4997b326c7" y="57.308343"/>
      </g>
     </g>
     <g id="text_12">
      <!-- 25 -->
      <g transform="translate(10.803125 60.88725)scale(0.1 -0.1)">
       <use xlink:href="#ArialMT-50"/>
       <use x="55.615234" xlink:href="#ArialMT-53"/>
      </g>
     </g>
    </g>
    <g id="ytick_7">
     <g id="line2d_12">
      <g>
       <use style="stroke:#000000;stroke-width:0.8;" x="28.925" xlink:href="#m4997b326c7" y="31.100667"/>
      </g>
     </g>
     <g id="text_13">
      <!-- 30 -->
      <g transform="translate(10.803125 34.679574)scale(0.1 -0.1)">
       <defs>
        <path d="M 4.203125 18.890625 
L 12.984375 20.0625 
Q 14.5 12.59375 18.140625 9.296875 
Q 21.78125 6 27 6 
Q 33.203125 6 37.46875 10.296875 
Q 41.75 14.59375 41.75 20.953125 
Q 41.75 27 37.796875 30.921875 
Q 33.84375 34.859375 27.734375 34.859375 
Q 25.25 34.859375 21.53125 33.890625 
L 22.515625 41.609375 
Q 23.390625 41.5 23.921875 41.5 
Q 29.546875 41.5 34.03125 44.421875 
Q 38.53125 47.359375 38.53125 53.46875 
Q 38.53125 58.296875 35.25 61.46875 
Q 31.984375 64.65625 26.8125 64.65625 
Q 21.6875 64.65625 18.265625 61.421875 
Q 14.84375 58.203125 13.875 51.765625 
L 5.078125 53.328125 
Q 6.6875 62.15625 12.390625 67.015625 
Q 18.109375 71.875 26.609375 71.875 
Q 32.46875 71.875 37.390625 69.359375 
Q 42.328125 66.84375 44.9375 62.5 
Q 47.5625 58.15625 47.5625 53.265625 
Q 47.5625 48.640625 45.0625 44.828125 
Q 42.578125 41.015625 37.703125 38.765625 
Q 44.046875 37.3125 47.5625 32.6875 
Q 51.078125 28.078125 51.078125 21.140625 
Q 51.078125 11.765625 44.234375 5.25 
Q 37.40625 -1.265625 26.953125 -1.265625 
Q 17.53125 -1.265625 11.296875 4.34375 
Q 5.078125 9.96875 4.203125 18.890625 
z
" id="ArialMT-51"/>
       </defs>
       <use xlink:href="#ArialMT-51"/>
       <use x="55.615234" xlink:href="#ArialMT-48"/>
      </g>
     </g>
    </g>
    <g id="text_14">
     <!-- mean Randic index -->
     <g transform="translate(4.815625 142.8)rotate(-90)scale(0.1 -0.1)">
      <defs>
       <path d="M 6.59375 0 
L 6.59375 51.859375 
L 14.453125 51.859375 
L 14.453125 44.578125 
Q 16.890625 48.390625 20.9375 50.703125 
Q 25 53.03125 30.171875 53.03125 
Q 35.9375 53.03125 39.625 50.640625 
Q 43.3125 48.25 44.828125 43.953125 
Q 50.984375 53.03125 60.84375 53.03125 
Q 68.5625 53.03125 72.703125 48.75 
Q 76.859375 44.484375 76.859375 35.59375 
L 76.859375 0 
L 68.109375 0 
L 68.109375 32.671875 
Q 68.109375 37.9375 67.25 40.25 
Q 66.40625 42.578125 64.15625 43.984375 
Q 61.921875 45.40625 58.890625 45.40625 
Q 53.421875 45.40625 49.796875 41.765625 
Q 46.1875 38.140625 46.1875 30.125 
L 46.1875 0 
L 37.40625 0 
L 37.40625 33.6875 
Q 37.40625 39.546875 35.25 42.46875 
Q 33.109375 45.40625 28.21875 45.40625 
Q 24.515625 45.40625 21.359375 43.453125 
Q 18.21875 41.5 16.796875 37.734375 
Q 15.375 33.984375 15.375 26.90625 
L 15.375 0 
z
" id="ArialMT-109"/>
       <path d="M 7.859375 0 
L 7.859375 71.578125 
L 39.59375 71.578125 
Q 49.171875 71.578125 54.140625 69.640625 
Q 59.125 67.71875 62.109375 62.828125 
Q 65.09375 57.953125 65.09375 52.046875 
Q 65.09375 44.4375 60.15625 39.203125 
Q 55.21875 33.984375 44.921875 32.5625 
Q 48.6875 30.765625 50.640625 29 
Q 54.78125 25.203125 58.5 19.484375 
L 70.953125 0 
L 59.03125 0 
L 49.5625 14.890625 
Q 45.40625 21.34375 42.71875 24.75 
Q 40.046875 28.171875 37.921875 29.53125 
Q 35.796875 30.90625 33.59375 31.453125 
Q 31.984375 31.78125 28.328125 31.78125 
L 17.328125 31.78125 
L 17.328125 0 
z
M 17.328125 39.984375 
L 37.703125 39.984375 
Q 44.1875 39.984375 47.84375 41.328125 
Q 51.515625 42.671875 53.421875 45.625 
Q 55.328125 48.578125 55.328125 52.046875 
Q 55.328125 57.125 51.640625 60.390625 
Q 47.953125 63.671875 39.984375 63.671875 
L 17.328125 63.671875 
z
" id="ArialMT-82"/>
       <path d="M 40.234375 0 
L 40.234375 6.546875 
Q 35.296875 -1.171875 25.734375 -1.171875 
Q 19.53125 -1.171875 14.328125 2.25 
Q 9.125 5.671875 6.265625 11.796875 
Q 3.421875 17.921875 3.421875 25.875 
Q 3.421875 33.640625 6 39.96875 
Q 8.59375 46.296875 13.765625 49.65625 
Q 18.953125 53.03125 25.34375 53.03125 
Q 30.03125 53.03125 33.6875 51.046875 
Q 37.359375 49.078125 39.65625 45.90625 
L 39.65625 71.578125 
L 48.390625 71.578125 
L 48.390625 0 
z
M 12.453125 25.875 
Q 12.453125 15.921875 16.640625 10.984375 
Q 20.84375 6.0625 26.5625 6.0625 
Q 32.328125 6.0625 36.34375 10.765625 
Q 40.375 15.484375 40.375 25.140625 
Q 40.375 35.796875 36.265625 40.765625 
Q 32.171875 45.75 26.171875 45.75 
Q 20.3125 45.75 16.375 40.96875 
Q 12.453125 36.1875 12.453125 25.875 
z
" id="ArialMT-100"/>
       <path d="M 40.4375 19 
L 49.078125 17.875 
Q 47.65625 8.9375 41.8125 3.875 
Q 35.984375 -1.171875 27.484375 -1.171875 
Q 16.84375 -1.171875 10.375 5.78125 
Q 3.90625 12.75 3.90625 25.734375 
Q 3.90625 34.125 6.6875 40.421875 
Q 9.46875 46.734375 15.15625 49.875 
Q 20.84375 53.03125 27.546875 53.03125 
Q 35.984375 53.03125 41.359375 48.75 
Q 46.734375 44.484375 48.25 36.625 
L 39.703125 35.296875 
Q 38.484375 40.53125 35.375 43.15625 
Q 32.28125 45.796875 27.875 45.796875 
Q 21.234375 45.796875 17.078125 41.03125 
Q 12.9375 36.28125 12.9375 25.984375 
Q 12.9375 15.53125 16.9375 10.796875 
Q 20.953125 6.0625 27.390625 6.0625 
Q 32.5625 6.0625 36.03125 9.234375 
Q 39.5 12.40625 40.4375 19 
z
" id="ArialMT-99"/>
      </defs>
      <use xlink:href="#ArialMT-109"/>
      <use x="83.300781" xlink:href="#ArialMT-101"/>
      <use x="138.916016" xlink:href="#ArialMT-97"/>
      <use x="194.53125" xlink:href="#ArialMT-110"/>
      <use x="250.146484" xlink:href="#ArialMT-32"/>
      <use x="277.929688" xlink:href="#ArialMT-82"/>
      <use x="350.146484" xlink:href="#ArialMT-97"/>
      <use x="405.761719" xlink:href="#ArialMT-110"/>
      <use x="461.376953" xlink:href="#ArialMT-100"/>
      <use x="516.992188" xlink:href="#ArialMT-105"/>
      <use x="539.208984" xlink:href="#ArialMT-99"/>
      <use x="589.208984" xlink:href="#ArialMT-32"/>
      <use x="616.992188" xlink:href="#ArialMT-105"/>
      <use x="639.208984" xlink:href="#ArialMT-110"/>
      <use x="694.824219" xlink:href="#ArialMT-100"/>
      <use x="750.439453" xlink:href="#ArialMT-101"/>
      <use x="806.054688" xlink:href="#ArialMT-120"/>
     </g>
    </g>
   </g>
   <g id="line2d_13">
    <path clip-path="url(#p5891c41f85)" d="M 28.925 173.122792 
L 30.540801 171.975 
L 32.156602 170.827209 
L 33.772403 169.679418 
L 35.388203 168.531626 
L 37.004004 167.383835 
L 38.619805 166.236044 
L 40.235606 165.088252 
L 41.851407 163.940461 
L 43.467208 162.79267 
L 45.083009 161.644878 
L 46.69881 160.497087 
L 48.31461 159.349296 
L 49.930411 158.201504 
L 51.546212 157.053713 
L 53.162013 155.905922 
L 54.777814 154.75813 
L 56.393615 153.610339 
L 58.009416 152.462547 
L 59.625216 151.314756 
L 61.241017 150.166965 
L 62.856818 149.019173 
L 64.472619 147.871382 
L 66.08842 146.723591 
L 67.704221 145.575799 
L 69.320022 144.428008 
L 70.935823 143.280217 
L 72.551623 142.132425 
L 74.167424 140.984634 
L 75.783225 139.836843 
L 77.399026 138.689051 
L 79.014827 137.54126 
L 80.630628 136.393469 
L 82.246429 135.245677 
L 83.862229 134.097886 
L 85.47803 132.950095 
L 87.093831 131.802303 
L 88.709632 130.654512 
L 90.325433 129.506721 
L 91.941234 128.358929 
L 93.557035 127.211138 
L 95.172835 126.063346 
L 96.788636 124.915555 
L 98.404437 123.767764 
L 100.020238 122.619972 
L 101.636039 121.472181 
L 103.25184 120.32439 
L 104.867641 119.176598 
L 106.483442 118.028807 
L 108.099242 116.881016 
L 109.715043 115.733224 
L 111.330844 114.585433 
L 112.946645 113.437642 
L 114.562446 112.28985 
L 116.178247 111.142059 
L 117.794048 109.994268 
L 119.409848 108.846476 
L 121.025649 107.698685 
L 122.64145 106.550894 
L 124.257251 105.403102 
L 125.873052 104.255311 
L 127.488853 103.107519 
L 129.104654 101.959728 
L 130.720455 100.811937 
L 132.336255 99.664145 
L 133.952056 98.516354 
L 135.567857 97.368563 
L 137.183658 96.220771 
L 138.799459 95.07298 
L 140.41526 93.925189 
L 142.031061 92.777397 
L 143.646861 91.629606 
L 145.262662 90.481815 
L 146.878463 89.334023 
L 148.494264 88.186232 
L 150.110065 87.038441 
L 151.725866 85.890649 
L 153.341667 84.742858 
L 154.957468 83.595067 
L 156.573268 82.447275 
L 158.189069 81.299484 
L 159.80487 80.151693 
L 161.420671 79.003901 
L 163.036472 77.85611 
L 164.652273 76.708318 
L 166.268074 75.560527 
L 167.883874 74.412736 
L 169.499675 73.264944 
L 171.115476 72.117153 
L 172.731277 70.969362 
L 174.347078 69.82157 
L 175.962879 68.673779 
L 177.57868 67.525988 
L 179.194481 66.378196 
L 180.810281 65.230405 
L 182.426082 64.082614 
L 184.041883 62.934822 
L 185.657684 61.787031 
L 187.273485 60.63924 
L 188.889286 59.491448 
" style="fill:none;stroke:#e41a1c;stroke-linecap:square;stroke-width:2.25;"/>
   </g>
   <g id="patch_3">
    <path d="M 28.925 189.2 
L 28.925 10.8 
" style="fill:none;stroke:#000000;stroke-linecap:square;stroke-linejoin:miter;stroke-width:0.8;"/>
   </g>
   <g id="patch_4">
    <path d="M 28.925 189.2 
L 196.8875 189.2 
" style="fill:none;stroke:#000000;stroke-linecap:square;stroke-linejoin:miter;stroke-width:0.8;"/>
   </g>
   <g id="text_15">
    <!-- $r=0.79$  -->
    <g transform="translate(45.72125 44.6375)scale(0.1 -0.1)">
     <defs>
      <path d="M 44.578125 46.390625 
Q 43.21875 47.125 41.453125 47.515625 
Q 39.703125 47.90625 37.703125 47.90625 
Q 30.515625 47.90625 25.140625 42.453125 
Q 19.78125 37.015625 18.015625 27.875 
L 12.5 0 
L 3.515625 0 
L 14.203125 54.6875 
L 23.1875 54.6875 
L 21.484375 46.1875 
Q 25.046875 50.921875 30 53.453125 
Q 34.96875 56 40.578125 56 
Q 42.046875 56 43.453125 55.828125 
Q 44.875 55.671875 46.296875 55.28125 
z
" id="DejaVuSans-Oblique-114"/>
      <path d="M 10.59375 45.40625 
L 73.1875 45.40625 
L 73.1875 37.203125 
L 10.59375 37.203125 
z
M 10.59375 25.484375 
L 73.1875 25.484375 
L 73.1875 17.1875 
L 10.59375 17.1875 
z
" id="DejaVuSans-61"/>
      <path d="M 31.78125 66.40625 
Q 24.171875 66.40625 20.328125 58.90625 
Q 16.5 51.421875 16.5 36.375 
Q 16.5 21.390625 20.328125 13.890625 
Q 24.171875 6.390625 31.78125 6.390625 
Q 39.453125 6.390625 43.28125 13.890625 
Q 47.125 21.390625 47.125 36.375 
Q 47.125 51.421875 43.28125 58.90625 
Q 39.453125 66.40625 31.78125 66.40625 
z
M 31.78125 74.21875 
Q 44.046875 74.21875 50.515625 64.515625 
Q 56.984375 54.828125 56.984375 36.375 
Q 56.984375 17.96875 50.515625 8.265625 
Q 44.046875 -1.421875 31.78125 -1.421875 
Q 19.53125 -1.421875 13.0625 8.265625 
Q 6.59375 17.96875 6.59375 36.375 
Q 6.59375 54.828125 13.0625 64.515625 
Q 19.53125 74.21875 31.78125 74.21875 
z
" id="DejaVuSans-48"/>
      <path d="M 10.6875 12.40625 
L 21 12.40625 
L 21 0 
L 10.6875 0 
z
" id="DejaVuSans-46"/>
      <path d="M 8.203125 72.90625 
L 55.078125 72.90625 
L 55.078125 68.703125 
L 28.609375 0 
L 18.3125 0 
L 43.21875 64.59375 
L 8.203125 64.59375 
z
" id="DejaVuSans-55"/>
      <path d="M 10.984375 1.515625 
L 10.984375 10.5 
Q 14.703125 8.734375 18.5 7.8125 
Q 22.3125 6.890625 25.984375 6.890625 
Q 35.75 6.890625 40.890625 13.453125 
Q 46.046875 20.015625 46.78125 33.40625 
Q 43.953125 29.203125 39.59375 26.953125 
Q 35.25 24.703125 29.984375 24.703125 
Q 19.046875 24.703125 12.671875 31.3125 
Q 6.296875 37.9375 6.296875 49.421875 
Q 6.296875 60.640625 12.9375 67.421875 
Q 19.578125 74.21875 30.609375 74.21875 
Q 43.265625 74.21875 49.921875 64.515625 
Q 56.59375 54.828125 56.59375 36.375 
Q 56.59375 19.140625 48.40625 8.859375 
Q 40.234375 -1.421875 26.421875 -1.421875 
Q 22.703125 -1.421875 18.890625 -0.6875 
Q 15.09375 0.046875 10.984375 1.515625 
z
M 30.609375 32.421875 
Q 37.25 32.421875 41.125 36.953125 
Q 45.015625 41.5 45.015625 49.421875 
Q 45.015625 57.28125 41.125 61.84375 
Q 37.25 66.40625 30.609375 66.40625 
Q 23.96875 66.40625 20.09375 61.84375 
Q 16.21875 57.28125 16.21875 49.421875 
Q 16.21875 41.5 20.09375 36.953125 
Q 23.96875 32.421875 30.609375 32.421875 
z
" id="DejaVuSans-57"/>
     </defs>
     <use transform="translate(0 0.78125)" xlink:href="#DejaVuSans-Oblique-114"/>
     <use transform="translate(60.595703 0.78125)" xlink:href="#DejaVuSans-61"/>
     <use transform="translate(163.867188 0.78125)" xlink:href="#DejaVuSans-48"/>
     <use transform="translate(227.490234 0.78125)" xlink:href="#DejaVuSans-46"/>
     <use transform="translate(251.527344 0.78125)" xlink:href="#DejaVuSans-55"/>
     <use transform="translate(315.150391 0.78125)" xlink:href="#DejaVuSans-57"/>
     <use transform="translate(378.773438 0.78125)" xlink:href="#ArialMT-32"/>
    </g>
    <!-- $P&lt;10^{-21}$ -->
    <g transform="translate(45.72125 55.4)scale(0.1 -0.1)">
     <defs>
      <path d="M 16.890625 72.90625 
L 39.703125 72.90625 
Q 49.65625 72.90625 54.875 68.265625 
Q 60.109375 63.625 60.109375 54.6875 
Q 60.109375 42.671875 52.390625 35.984375 
Q 44.671875 29.296875 30.71875 29.296875 
L 18.3125 29.296875 
L 12.59375 0 
L 2.6875 0 
z
M 25.203125 64.796875 
L 19.921875 37.40625 
L 32.328125 37.40625 
Q 40.71875 37.40625 45.203125 41.703125 
Q 49.703125 46 49.703125 54 
Q 49.703125 59.125 46.65625 61.953125 
Q 43.609375 64.796875 38.09375 64.796875 
z
" id="DejaVuSans-Oblique-80"/>
      <path d="M 73.1875 49.21875 
L 22.796875 31.296875 
L 73.1875 13.484375 
L 73.1875 4.59375 
L 10.59375 27.296875 
L 10.59375 35.40625 
L 73.1875 58.109375 
z
" id="DejaVuSans-60"/>
      <path d="M 12.40625 8.296875 
L 28.515625 8.296875 
L 28.515625 63.921875 
L 10.984375 60.40625 
L 10.984375 69.390625 
L 28.421875 72.90625 
L 38.28125 72.90625 
L 38.28125 8.296875 
L 54.390625 8.296875 
L 54.390625 0 
L 12.40625 0 
z
" id="DejaVuSans-49"/>
      <path d="M 10.59375 35.5 
L 73.1875 35.5 
L 73.1875 27.203125 
L 10.59375 27.203125 
z
" id="DejaVuSans-8722"/>
      <path d="M 19.1875 8.296875 
L 53.609375 8.296875 
L 53.609375 0 
L 7.328125 0 
L 7.328125 8.296875 
Q 12.9375 14.109375 22.625 23.890625 
Q 32.328125 33.6875 34.8125 36.53125 
Q 39.546875 41.84375 41.421875 45.53125 
Q 43.3125 49.21875 43.3125 52.78125 
Q 43.3125 58.59375 39.234375 62.25 
Q 35.15625 65.921875 28.609375 65.921875 
Q 23.96875 65.921875 18.8125 64.3125 
Q 13.671875 62.703125 7.8125 59.421875 
L 7.8125 69.390625 
Q 13.765625 71.78125 18.9375 73 
Q 24.125 74.21875 28.421875 74.21875 
Q 39.75 74.21875 46.484375 68.546875 
Q 53.21875 62.890625 53.21875 53.421875 
Q 53.21875 48.921875 51.53125 44.890625 
Q 49.859375 40.875 45.40625 35.40625 
Q 44.1875 33.984375 37.640625 27.21875 
Q 31.109375 20.453125 19.1875 8.296875 
z
" id="DejaVuSans-50"/>
     </defs>
     <use transform="translate(0 0.765625)" xlink:href="#DejaVuSans-Oblique-80"/>
     <use transform="translate(79.785156 0.765625)" xlink:href="#DejaVuSans-60"/>
     <use transform="translate(183.056641 0.765625)" xlink:href="#DejaVuSans-49"/>
     <use transform="translate(246.679688 0.765625)" xlink:href="#DejaVuSans-48"/>
     <use transform="translate(311.259766 39.046875)scale(0.7)" xlink:href="#DejaVuSans-8722"/>
     <use transform="translate(369.912109 39.046875)scale(0.7)" xlink:href="#DejaVuSans-50"/>
     <use transform="translate(414.448242 39.046875)scale(0.7)" xlink:href="#DejaVuSans-49"/>
    </g>
   </g>
  </g>
 </g>
 <defs>
  <clipPath id="p5891c41f85">
   <rect height="178.4" width="167.9625" x="28.925" y="10.8"/>
  </clipPath>
 </defs>
</svg>
