<?xml version="1.0" encoding="utf-8" standalone="no"?>
<!DOCTYPE svg PUBLIC "-//W3C//DTD SVG 1.1//EN"
  "http://www.w3.org/Graphics/SVG/1.1/DTD/svg11.dtd">
<!-- Created with matplotlib (https://matplotlib.org/) -->
<svg height="216pt" version="1.1" viewBox="0 0 216 216" width="216pt" xmlns="http://www.w3.org/2000/svg" xmlns:xlink="http://www.w3.org/1999/xlink">
 <metadata>
  <rdf:RDF xmlns:cc="http://creativecommons.org/ns#" xmlns:dc="http://purl.org/dc/elements/1.1/" xmlns:rdf="http://www.w3.org/1999/02/22-rdf-syntax-ns#">
   <cc:Work>
    <dc:type rdf:resource="http://purl.org/dc/dcmitype/StillImage"/>
    <dc:date>2023-05-14T13:24:34.428876</dc:date>
    <dc:format>image/svg+xml</dc:format>
    <dc:creator>
     <cc:Agent>
      <dc:title>Matplotlib v3.3.4, https://matplotlib.org/</dc:title>
     </cc:Agent>
    </dc:creator>
   </cc:Work>
  </rdf:RDF>
 </metadata>
 <defs>
  <style type="text/css">*{stroke-linecap:butt;stroke-linejoin:round;}</style>
 </defs>
 <g id="figure_1">
  <g id="patch_1">
   <path d="M 0 216 
L 216 216 
L 216 0 
L 0 0 
z
" style="fill:none;"/>
  </g>
  <g id="axes_1">
   <g id="patch_2">
    <path d="M 27 189 
L 194.4 189 
L 194.4 25.92 
L 27 25.92 
z
" style="fill:#ffffff;"/>
   </g>
   <g id="PolyCollection_1">
    <defs>
     <path d="M 48.016011 -35.731727 
L 47.833989 -35.731727 
L 47.782181 -36.507087 
L 47.708826 -37.282448 
L 47.609377 -38.057808 
L 47.480457 -38.833168 
L 47.320939 -39.608528 
L 47.133003 -40.383889 
L 46.92289 -41.159249 
L 46.701082 -41.934609 
L 46.481677 -42.70997 
L 46.28093 -43.48533 
L 46.115125 -44.26069 
L 45.998158 -45.03605 
L 45.939363 -45.811411 
L 45.942074 -46.586771 
L 46.003264 -47.362131 
L 46.114343 -48.137491 
L 46.262866 -48.912852 
L 46.43472 -49.688212 
L 46.616247 -50.463572 
L 46.795861 -51.238932 
L 46.96491 -52.014293 
L 47.11779 -52.789653 
L 47.251507 -53.565013 
L 47.364974 -54.340374 
L 47.458332 -55.115734 
L 47.532464 -55.891094 
L 47.588739 -56.666454 
L 47.628912 -57.441815 
L 47.655059 -58.217175 
L 47.669403 -58.992535 
L 47.673971 -59.767895 
L 47.67006 -60.543256 
L 47.657565 -61.318616 
L 47.634203 -62.093976 
L 47.594732 -62.869337 
L 47.530179 -63.644697 
L 47.427158 -64.420057 
L 47.267379 -65.195417 
L 47.027546 -65.970778 
L 46.679928 -66.746138 
L 46.193974 -67.521498 
L 45.539261 -68.296858 
L 44.689897 -69.072219 
L 43.630124 -69.847579 
L 42.360412 -70.622939 
L 40.902948 -71.398299 
L 39.305101 -72.17366 
L 37.639595 -72.94902 
L 36.000504 -73.72438 
L 34.495006 -74.499741 
L 33.23176 -75.275101 
L 32.307657 -76.050461 
L 31.795232 -76.825821 
L 31.733052 -77.601182 
L 32.120887 -78.376542 
L 32.920512 -79.151902 
L 34.061838 -79.927262 
L 35.453041 -80.702623 
L 36.992687 -81.477983 
L 38.581661 -82.253343 
L 40.133027 -83.028704 
L 41.578638 -83.804064 
L 42.87208 -84.579424 
L 43.988288 -85.354784 
L 44.92068 -86.130145 
L 45.676852 -86.905505 
L 46.273838 -87.680865 
L 46.733739 -88.456225 
L 47.080186 -89.231586 
L 47.335834 -90.006946 
L 47.520849 -90.782306 
L 47.652219 -91.557666 
L 47.743634 -92.333027 
L 47.805725 -93.108387 
L 47.846481 -93.883747 
L 47.871708 -94.659108 
L 47.885475 -95.434468 
L 47.890529 -96.209828 
L 47.888661 -96.985188 
L 47.881052 -97.760549 
L 47.868588 -98.535909 
L 47.852133 -99.311269 
L 47.83275 -100.086629 
L 47.811817 -100.86199 
L 47.79104 -101.63735 
L 47.772328 -102.41271 
L 47.757578 -103.18807 
L 47.748392 -103.963431 
L 47.745814 -104.738791 
L 47.750147 -105.514151 
L 47.760899 -106.289512 
L 47.776881 -107.064872 
L 47.79642 -107.840232 
L 47.817652 -108.615592 
L 47.838805 -109.390953 
L 47.858438 -110.166313 
L 47.875565 -110.941673 
L 47.889689 -111.717033 
L 47.900743 -112.492394 
L 47.949257 -112.492394 
L 47.949257 -112.492394 
L 47.960311 -111.717033 
L 47.974435 -110.941673 
L 47.991562 -110.166313 
L 48.011195 -109.390953 
L 48.032348 -108.615592 
L 48.05358 -107.840232 
L 48.073119 -107.064872 
L 48.089101 -106.289512 
L 48.099853 -105.514151 
L 48.104186 -104.738791 
L 48.101608 -103.963431 
L 48.092422 -103.18807 
L 48.077672 -102.41271 
L 48.05896 -101.63735 
L 48.038183 -100.86199 
L 48.01725 -100.086629 
L 47.997867 -99.311269 
L 47.981412 -98.535909 
L 47.968948 -97.760549 
L 47.961339 -96.985188 
L 47.959471 -96.209828 
L 47.964525 -95.434468 
L 47.978292 -94.659108 
L 48.003519 -93.883747 
L 48.044275 -93.108387 
L 48.106366 -92.333027 
L 48.197781 -91.557666 
L 48.329151 -90.782306 
L 48.514166 -90.006946 
L 48.769814 -89.231586 
L 49.116261 -88.456225 
L 49.576162 -87.680865 
L 50.173148 -86.905505 
L 50.92932 -86.130145 
L 51.861712 -85.354784 
L 52.97792 -84.579424 
L 54.271362 -83.804064 
L 55.716973 -83.028704 
L 57.268339 -82.253343 
L 58.857313 -81.477983 
L 60.396959 -80.702623 
L 61.788162 -79.927262 
L 62.929488 -79.151902 
L 63.729113 -78.376542 
L 64.116948 -77.601182 
L 64.054768 -76.825821 
L 63.542343 -76.050461 
L 62.61824 -75.275101 
L 61.354994 -74.499741 
L 59.849496 -73.72438 
L 58.210405 -72.94902 
L 56.544899 -72.17366 
L 54.947052 -71.398299 
L 53.489588 -70.622939 
L 52.219876 -69.847579 
L 51.160103 -69.072219 
L 50.310739 -68.296858 
L 49.656026 -67.521498 
L 49.170072 -66.746138 
L 48.822454 -65.970778 
L 48.582621 -65.195417 
L 48.422842 -64.420057 
L 48.319821 -63.644697 
L 48.255268 -62.869337 
L 48.215797 -62.093976 
L 48.192435 -61.318616 
L 48.17994 -60.543256 
L 48.176029 -59.767895 
L 48.180597 -58.992535 
L 48.194941 -58.217175 
L 48.221088 -57.441815 
L 48.261261 -56.666454 
L 48.317536 -55.891094 
L 48.391668 -55.115734 
L 48.485026 -54.340374 
L 48.598493 -53.565013 
L 48.73221 -52.789653 
L 48.88509 -52.014293 
L 49.054139 -51.238932 
L 49.233753 -50.463572 
L 49.41528 -49.688212 
L 49.587134 -48.912852 
L 49.735657 -48.137491 
L 49.846736 -47.362131 
L 49.907926 -46.586771 
L 49.910637 -45.811411 
L 49.851842 -45.03605 
L 49.734875 -44.26069 
L 49.56907 -43.48533 
L 49.368323 -42.70997 
L 49.148918 -41.934609 
L 48.92711 -41.159249 
L 48.716997 -40.383889 
L 48.529061 -39.608528 
L 48.369543 -38.833168 
L 48.240623 -38.057808 
L 48.141174 -37.282448 
L 48.067819 -36.507087 
L 48.016011 -35.731727 
z
" id="m9621fc51aa" style="stroke:#6a6a6a;stroke-width:1.5;"/>
    </defs>
    <g clip-path="url(#pc0fdfe8d80)">
     <use style="fill:#96cac1;stroke:#6a6a6a;stroke-width:1.5;" x="0" xlink:href="#m9621fc51aa" y="216"/>
    </g>
   </g>
   <g id="PolyCollection_2">
    <defs>
     <path d="M 89.900166 -34.421581 
L 89.649834 -34.421581 
L 89.59764 -35.080899 
L 89.528183 -35.740217 
L 89.437556 -36.399534 
L 89.321588 -37.058852 
L 89.176013 -37.71817 
L 88.996707 -38.377488 
L 88.779964 -39.036805 
L 88.522805 -39.696123 
L 88.223311 -40.355441 
L 87.880939 -41.014759 
L 87.496816 -41.674076 
L 87.073969 -42.333394 
L 86.61746 -42.992712 
L 86.1344 -43.65203 
L 85.633821 -44.311347 
L 85.126378 -44.970665 
L 84.623896 -45.629983 
L 84.138763 -46.289301 
L 83.683225 -46.948618 
L 83.268633 -47.607936 
L 82.904718 -48.267254 
L 82.59898 -48.926571 
L 82.356256 -49.585889 
L 82.178531 -50.245207 
L 82.065 -50.904525 
L 82.012383 -51.563842 
L 82.015428 -52.22316 
L 82.06755 -52.882478 
L 82.161495 -53.541796 
L 82.289965 -54.201113 
L 82.446129 -54.860431 
L 82.623981 -55.519749 
L 82.818527 -56.179067 
L 83.025828 -56.838384 
L 83.242923 -57.497702 
L 83.467671 -58.15702 
L 83.698558 -58.816338 
L 83.934494 -59.475655 
L 84.17462 -60.134973 
L 84.41813 -60.794291 
L 84.66411 -61.453609 
L 84.911386 -62.112926 
L 85.158393 -62.772244 
L 85.403062 -63.431562 
L 85.642743 -64.09088 
L 85.874185 -64.750197 
L 86.093585 -65.409515 
L 86.296725 -66.068833 
L 86.479201 -66.728151 
L 86.636731 -67.387468 
L 86.765513 -68.046786 
L 86.862616 -68.706104 
L 86.926332 -69.365422 
L 86.956466 -70.024739 
L 86.954509 -70.684057 
L 86.923663 -71.343375 
L 86.868718 -72.002692 
L 86.795762 -72.66201 
L 86.711785 -73.321328 
L 86.624191 -73.980646 
L 86.540285 -74.639963 
L 86.466792 -75.299281 
L 86.409454 -75.958599 
L 86.372737 -76.617917 
L 86.359676 -77.277234 
L 86.371853 -77.936552 
L 86.409483 -78.59587 
L 86.471596 -79.255188 
L 86.556265 -79.914505 
L 86.660864 -80.573823 
L 86.78231 -81.233141 
L 86.917299 -81.892459 
L 87.062495 -82.551776 
L 87.214696 -83.211094 
L 87.370968 -83.870412 
L 87.528736 -84.52973 
L 87.685858 -85.189047 
L 87.840651 -85.848365 
L 87.991893 -86.507683 
L 88.138776 -87.167001 
L 88.280838 -87.826318 
L 88.417858 -88.485636 
L 88.549748 -89.144954 
L 88.676436 -89.804272 
L 88.797781 -90.463589 
L 88.913507 -91.122907 
L 89.02319 -91.782225 
L 89.126275 -92.441543 
L 89.222133 -93.10086 
L 89.310137 -93.760178 
L 89.389752 -94.419496 
L 89.460606 -95.078814 
L 89.522551 -95.738131 
L 89.575694 -96.397449 
L 89.620388 -97.056767 
L 89.657213 -97.716084 
L 89.686921 -98.375402 
L 89.710377 -99.03472 
L 89.728496 -99.694038 
L 89.821504 -99.694038 
L 89.821504 -99.694038 
L 89.839623 -99.03472 
L 89.863079 -98.375402 
L 89.892787 -97.716084 
L 89.929612 -97.056767 
L 89.974306 -96.397449 
L 90.027449 -95.738131 
L 90.089394 -95.078814 
L 90.160248 -94.419496 
L 90.239863 -93.760178 
L 90.327867 -93.10086 
L 90.423725 -92.441543 
L 90.52681 -91.782225 
L 90.636493 -91.122907 
L 90.752219 -90.463589 
L 90.873564 -89.804272 
L 91.000252 -89.144954 
L 91.132142 -88.485636 
L 91.269162 -87.826318 
L 91.411224 -87.167001 
L 91.558107 -86.507683 
L 91.709349 -85.848365 
L 91.864142 -85.189047 
L 92.021264 -84.52973 
L 92.179032 -83.870412 
L 92.335304 -83.211094 
L 92.487505 -82.551776 
L 92.632701 -81.892459 
L 92.76769 -81.233141 
L 92.889136 -80.573823 
L 92.993735 -79.914505 
L 93.078404 -79.255188 
L 93.140517 -78.59587 
L 93.178147 -77.936552 
L 93.190324 -77.277234 
L 93.177263 -76.617917 
L 93.140546 -75.958599 
L 93.083208 -75.299281 
L 93.009715 -74.639963 
L 92.925809 -73.980646 
L 92.838215 -73.321328 
L 92.754238 -72.66201 
L 92.681282 -72.002692 
L 92.626337 -71.343375 
L 92.595491 -70.684057 
L 92.593534 -70.024739 
L 92.623668 -69.365422 
L 92.687384 -68.706104 
L 92.784487 -68.046786 
L 92.913269 -67.387468 
L 93.070799 -66.728151 
L 93.253275 -66.068833 
L 93.456415 -65.409515 
L 93.675815 -64.750197 
L 93.907257 -64.09088 
L 94.146938 -63.431562 
L 94.391607 -62.772244 
L 94.638614 -62.112926 
L 94.88589 -61.453609 
L 95.13187 -60.794291 
L 95.37538 -60.134973 
L 95.615506 -59.475655 
L 95.851442 -58.816338 
L 96.082329 -58.15702 
L 96.307077 -57.497702 
L 96.524172 -56.838384 
L 96.731473 -56.179067 
L 96.926019 -55.519749 
L 97.103871 -54.860431 
L 97.260035 -54.201113 
L 97.388505 -53.541796 
L 97.48245 -52.882478 
L 97.534572 -52.22316 
L 97.537617 -51.563842 
L 97.485 -50.904525 
L 97.371469 -50.245207 
L 97.193744 -49.585889 
L 96.95102 -48.926571 
L 96.645282 -48.267254 
L 96.281367 -47.607936 
L 95.866775 -46.948618 
L 95.411237 -46.289301 
L 94.926104 -45.629983 
L 94.423622 -44.970665 
L 93.916179 -44.311347 
L 93.4156 -43.65203 
L 92.93254 -42.992712 
L 92.476031 -42.333394 
L 92.053184 -41.674076 
L 91.669061 -41.014759 
L 91.326689 -40.355441 
L 91.027195 -39.696123 
L 90.770036 -39.036805 
L 90.553293 -38.377488 
L 90.373987 -37.71817 
L 90.228412 -37.058852 
L 90.112444 -36.399534 
L 90.021817 -35.740217 
L 89.95236 -35.080899 
L 89.900166 -34.421581 
z
" id="m1d12f7470c" style="stroke:#6a6a6a;stroke-width:1.5;"/>
    </defs>
    <g clip-path="url(#pc0fdfe8d80)">
     <use style="fill:#f6f6bc;stroke:#6a6a6a;stroke-width:1.5;" x="0" xlink:href="#m1d12f7470c" y="216"/>
    </g>
   </g>
   <g id="PolyCollection_3">
    <defs>
     <path d="M 131.897023 -39.103706 
L 131.352977 -39.103706 
L 130.406234 -40.553843 
L 127.868846 -42.00398 
L 123.376781 -43.454117 
L 118.224453 -44.904254 
L 114.889576 -46.354391 
L 114.885 -47.804528 
L 117.497475 -49.254665 
L 120.762241 -50.704802 
L 123.201442 -52.154939 
L 124.562675 -53.605076 
L 125.377088 -55.055213 
L 126.201528 -56.50535 
L 127.1852 -57.955487 
L 128.054483 -59.405624 
L 128.437442 -60.855761 
L 128.363065 -62.305898 
L 128.340665 -63.756035 
L 128.74641 -65.206173 
L 129.411755 -66.65631 
L 129.990758 -68.106447 
L 130.354904 -69.556584 
L 130.555715 -71.006721 
L 130.674325 -72.456858 
L 130.747092 -73.906995 
L 130.767372 -75.357132 
L 130.746896 -76.807269 
L 130.736237 -78.257406 
L 130.758637 -79.707543 
L 130.792209 -81.15768 
L 130.848579 -82.607817 
L 130.966298 -84.057954 
L 131.114981 -85.508091 
L 131.230167 -86.958228 
L 131.308903 -88.408365 
L 131.380747 -89.858502 
L 131.450106 -91.308639 
L 131.508384 -92.758776 
L 131.550798 -94.208913 
L 131.57324 -95.65905 
L 131.578028 -97.109187 
L 131.572966 -98.559324 
L 131.564805 -100.009461 
L 131.562484 -101.459599 
L 131.570684 -102.909736 
L 131.581195 -104.359873 
L 131.585257 -105.81001 
L 131.584731 -107.260147 
L 131.586246 -108.710284 
L 131.593899 -110.160421 
L 131.603861 -111.610558 
L 131.606164 -113.060695 
L 131.599029 -114.510832 
L 131.592861 -115.960969 
L 131.595611 -117.411106 
L 131.604755 -118.861243 
L 131.613757 -120.31138 
L 131.617437 -121.761517 
L 131.615121 -123.211654 
L 131.611876 -124.661791 
L 131.612217 -126.111928 
L 131.613508 -127.562065 
L 131.612298 -129.012202 
L 131.611932 -130.462339 
L 131.615764 -131.912476 
L 131.620895 -133.362613 
L 131.623872 -134.81275 
L 131.624809 -136.262887 
L 131.62498 -137.713024 
L 131.624999 -139.163162 
L 131.625 -140.613299 
L 131.625 -142.063436 
L 131.625 -143.513573 
L 131.625 -144.96371 
L 131.625 -146.413847 
L 131.625 -147.863984 
L 131.625 -149.314121 
L 131.625 -150.764258 
L 131.625 -152.214395 
L 131.625 -153.664532 
L 131.625 -155.114669 
L 131.625 -156.564806 
L 131.625 -158.014943 
L 131.625 -159.46508 
L 131.625 -160.915217 
L 131.625 -162.365354 
L 131.625 -163.815491 
L 131.625 -165.265628 
L 131.625 -166.715765 
L 131.625 -168.165902 
L 131.624999 -169.616039 
L 131.624978 -171.066176 
L 131.624794 -172.516313 
L 131.623804 -173.96645 
L 131.620731 -175.416588 
L 131.615614 -176.866725 
L 131.612287 -178.316862 
L 131.614391 -179.766999 
L 131.619546 -181.217136 
L 131.623273 -182.667273 
L 131.626727 -182.667273 
L 131.626727 -182.667273 
L 131.630454 -181.217136 
L 131.635609 -179.766999 
L 131.637713 -178.316862 
L 131.634386 -176.866725 
L 131.629269 -175.416588 
L 131.626196 -173.96645 
L 131.625206 -172.516313 
L 131.625022 -171.066176 
L 131.625001 -169.616039 
L 131.625 -168.165902 
L 131.625 -166.715765 
L 131.625 -165.265628 
L 131.625 -163.815491 
L 131.625 -162.365354 
L 131.625 -160.915217 
L 131.625 -159.46508 
L 131.625 -158.014943 
L 131.625 -156.564806 
L 131.625 -155.114669 
L 131.625 -153.664532 
L 131.625 -152.214395 
L 131.625 -150.764258 
L 131.625 -149.314121 
L 131.625 -147.863984 
L 131.625 -146.413847 
L 131.625 -144.96371 
L 131.625 -143.513573 
L 131.625 -142.063436 
L 131.625 -140.613299 
L 131.625001 -139.163162 
L 131.62502 -137.713024 
L 131.625191 -136.262887 
L 131.626128 -134.81275 
L 131.629105 -133.362613 
L 131.634236 -131.912476 
L 131.638068 -130.462339 
L 131.637702 -129.012202 
L 131.636492 -127.562065 
L 131.637783 -126.111928 
L 131.638124 -124.661791 
L 131.634879 -123.211654 
L 131.632563 -121.761517 
L 131.636243 -120.31138 
L 131.645245 -118.861243 
L 131.654389 -117.411106 
L 131.657139 -115.960969 
L 131.650971 -114.510832 
L 131.643836 -113.060695 
L 131.646139 -111.610558 
L 131.656101 -110.160421 
L 131.663754 -108.710284 
L 131.665269 -107.260147 
L 131.664743 -105.81001 
L 131.668805 -104.359873 
L 131.679316 -102.909736 
L 131.687516 -101.459599 
L 131.685195 -100.009461 
L 131.677034 -98.559324 
L 131.671972 -97.109187 
L 131.67676 -95.65905 
L 131.699202 -94.208913 
L 131.741616 -92.758776 
L 131.799894 -91.308639 
L 131.869253 -89.858502 
L 131.941097 -88.408365 
L 132.019833 -86.958228 
L 132.135019 -85.508091 
L 132.283702 -84.057954 
L 132.401421 -82.607817 
L 132.457791 -81.15768 
L 132.491363 -79.707543 
L 132.513763 -78.257406 
L 132.503104 -76.807269 
L 132.482628 -75.357132 
L 132.502908 -73.906995 
L 132.575675 -72.456858 
L 132.694285 -71.006721 
L 132.895096 -69.556584 
L 133.259242 -68.106447 
L 133.838245 -66.65631 
L 134.50359 -65.206173 
L 134.909335 -63.756035 
L 134.886935 -62.305898 
L 134.812558 -60.855761 
L 135.195517 -59.405624 
L 136.0648 -57.955487 
L 137.048472 -56.50535 
L 137.872912 -55.055213 
L 138.687325 -53.605076 
L 140.048558 -52.154939 
L 142.487759 -50.704802 
L 145.752525 -49.254665 
L 148.365 -47.804528 
L 148.360424 -46.354391 
L 145.025547 -44.904254 
L 139.873219 -43.454117 
L 135.381154 -42.00398 
L 132.843766 -40.553843 
L 131.897023 -39.103706 
z
" id="m99fdbd74e8" style="stroke:#6a6a6a;stroke-width:1.5;"/>
    </defs>
    <g clip-path="url(#pc0fdfe8d80)">
     <use style="fill:#c1bed6;stroke:#6a6a6a;stroke-width:1.5;" x="0" xlink:href="#m99fdbd74e8" y="216"/>
    </g>
   </g>
   <g id="PolyCollection_4">
    <defs>
     <path d="M 174.339812 -34.412727 
L 172.610188 -34.412727 
L 172.435626 -35.117232 
L 172.235298 -35.821737 
L 172.007547 -36.526242 
L 171.751077 -37.230747 
L 171.465056 -37.935252 
L 171.149218 -38.639757 
L 170.803967 -39.344262 
L 170.430458 -40.048767 
L 170.030674 -40.753272 
L 169.607468 -41.457777 
L 169.164583 -42.162282 
L 168.70664 -42.866787 
L 168.239087 -43.571292 
L 167.768114 -44.275797 
L 167.300531 -44.980302 
L 166.843609 -45.684807 
L 166.404896 -46.389312 
L 165.992006 -47.093817 
L 165.612401 -47.798321 
L 165.273153 -48.502826 
L 164.980726 -49.207331 
L 164.740765 -49.911836 
L 164.557907 -50.616341 
L 164.435633 -51.320846 
L 164.376154 -52.025351 
L 164.380347 -52.729856 
L 164.447734 -53.434361 
L 164.576514 -54.138866 
L 164.76364 -54.843371 
L 165.004936 -55.547876 
L 165.295254 -56.252381 
L 165.628649 -56.956886 
L 165.998583 -57.661391 
L 166.398133 -58.365896 
L 166.820196 -59.070401 
L 167.257693 -59.774906 
L 167.703745 -60.479411 
L 168.15184 -61.183916 
L 168.595962 -61.888421 
L 169.030697 -62.592926 
L 169.451305 -63.297431 
L 169.853763 -64.001936 
L 170.234777 -64.70644 
L 170.591776 -65.410945 
L 170.922875 -66.11545 
L 171.226828 -66.819955 
L 171.502962 -67.52446 
L 171.751112 -68.228965 
L 171.971539 -68.93347 
L 172.164863 -69.637975 
L 172.331987 -70.34248 
L 172.474032 -71.046985 
L 172.59228 -71.75149 
L 172.688125 -72.455995 
L 172.763036 -73.1605 
L 172.818524 -73.865005 
L 172.856125 -74.56951 
L 172.877386 -75.274015 
L 172.88386 -75.97852 
L 172.877108 -76.683025 
L 172.858697 -77.38753 
L 172.830209 -78.092035 
L 172.793243 -78.79654 
L 172.749418 -79.501045 
L 172.700368 -80.20555 
L 172.64774 -80.910055 
L 172.593181 -81.614559 
L 172.538319 -82.319064 
L 172.484747 -83.023569 
L 172.433994 -83.728074 
L 172.387495 -84.432579 
L 172.346565 -85.137084 
L 172.312363 -85.841589 
L 172.285869 -86.546094 
L 172.267856 -87.250599 
L 172.258872 -87.955104 
L 172.259228 -88.659609 
L 172.268988 -89.364114 
L 172.287981 -90.068619 
L 172.315804 -90.773124 
L 172.351846 -91.477629 
L 172.395311 -92.182134 
L 172.445257 -92.886639 
L 172.500623 -93.591144 
L 172.560275 -94.295649 
L 172.623043 -95.000154 
L 172.687761 -95.704659 
L 172.753299 -96.409164 
L 172.818601 -97.113669 
L 172.882704 -97.818174 
L 172.944765 -98.522678 
L 173.004068 -99.227183 
L 173.060039 -99.931688 
L 173.112243 -100.636193 
L 173.160383 -101.340698 
L 173.204287 -102.045203 
L 173.243904 -102.749708 
L 173.279279 -103.454213 
L 173.310548 -104.158718 
L 173.639452 -104.158718 
L 173.639452 -104.158718 
L 173.670721 -103.454213 
L 173.706096 -102.749708 
L 173.745713 -102.045203 
L 173.789617 -101.340698 
L 173.837757 -100.636193 
L 173.889961 -99.931688 
L 173.945932 -99.227183 
L 174.005235 -98.522678 
L 174.067296 -97.818174 
L 174.131399 -97.113669 
L 174.196701 -96.409164 
L 174.262239 -95.704659 
L 174.326957 -95.000154 
L 174.389725 -94.295649 
L 174.449377 -93.591144 
L 174.504743 -92.886639 
L 174.554689 -92.182134 
L 174.598154 -91.477629 
L 174.634196 -90.773124 
L 174.662019 -90.068619 
L 174.681012 -89.364114 
L 174.690772 -88.659609 
L 174.691128 -87.955104 
L 174.682144 -87.250599 
L 174.664131 -86.546094 
L 174.637637 -85.841589 
L 174.603435 -85.137084 
L 174.562505 -84.432579 
L 174.516006 -83.728074 
L 174.465253 -83.023569 
L 174.411681 -82.319064 
L 174.356819 -81.614559 
L 174.30226 -80.910055 
L 174.249632 -80.20555 
L 174.200582 -79.501045 
L 174.156757 -78.79654 
L 174.119791 -78.092035 
L 174.091303 -77.38753 
L 174.072892 -76.683025 
L 174.06614 -75.97852 
L 174.072614 -75.274015 
L 174.093875 -74.56951 
L 174.131476 -73.865005 
L 174.186964 -73.1605 
L 174.261875 -72.455995 
L 174.35772 -71.75149 
L 174.475968 -71.046985 
L 174.618013 -70.34248 
L 174.785137 -69.637975 
L 174.978461 -68.93347 
L 175.198888 -68.228965 
L 175.447038 -67.52446 
L 175.723172 -66.819955 
L 176.027125 -66.11545 
L 176.358224 -65.410945 
L 176.715223 -64.70644 
L 177.096237 -64.001936 
L 177.498695 -63.297431 
L 177.919303 -62.592926 
L 178.354038 -61.888421 
L 178.79816 -61.183916 
L 179.246255 -60.479411 
L 179.692307 -59.774906 
L 180.129804 -59.070401 
L 180.551867 -58.365896 
L 180.951417 -57.661391 
L 181.321351 -56.956886 
L 181.654746 -56.252381 
L 181.945064 -55.547876 
L 182.18636 -54.843371 
L 182.373486 -54.138866 
L 182.502266 -53.434361 
L 182.569653 -52.729856 
L 182.573846 -52.025351 
L 182.514367 -51.320846 
L 182.392093 -50.616341 
L 182.209235 -49.911836 
L 181.969274 -49.207331 
L 181.676847 -48.502826 
L 181.337599 -47.798321 
L 180.957994 -47.093817 
L 180.545104 -46.389312 
L 180.106391 -45.684807 
L 179.649469 -44.980302 
L 179.181886 -44.275797 
L 178.710913 -43.571292 
L 178.24336 -42.866787 
L 177.785417 -42.162282 
L 177.342532 -41.457777 
L 176.919326 -40.753272 
L 176.519542 -40.048767 
L 176.146033 -39.344262 
L 175.800782 -38.639757 
L 175.484944 -37.935252 
L 175.198923 -37.230747 
L 174.942453 -36.526242 
L 174.714702 -35.821737 
L 174.514374 -35.117232 
L 174.339812 -34.412727 
z
" id="m8c3ca602d5" style="stroke:#6a6a6a;stroke-width:1.5;"/>
    </defs>
    <g clip-path="url(#pc0fdfe8d80)">
     <use style="fill:#ea8e83;stroke:#6a6a6a;stroke-width:1.5;" x="0" xlink:href="#m8c3ca602d5" y="216"/>
    </g>
   </g>
   <g id="matplotlib.axis_1">
    <g id="xtick_1">
     <g id="line2d_1">
      <defs>
       <path d="M 0 0 
L 0 3.5 
" id="m465da359bc" style="stroke:#000000;stroke-width:0.8;"/>
      </defs>
      <g>
       <use style="stroke:#000000;stroke-width:0.8;" x="47.925" xlink:href="#m465da359bc" y="189"/>
      </g>
     </g>
     <g id="text_1">
      <!-- 4 -->
      <g transform="translate(45.144531 203.157813)scale(0.1 -0.1)">
       <defs>
        <path d="M 32.328125 0 
L 32.328125 17.140625 
L 1.265625 17.140625 
L 1.265625 25.203125 
L 33.9375 71.578125 
L 41.109375 71.578125 
L 41.109375 25.203125 
L 50.78125 25.203125 
L 50.78125 17.140625 
L 41.109375 17.140625 
L 41.109375 0 
z
M 32.328125 25.203125 
L 32.328125 57.46875 
L 9.90625 25.203125 
z
" id="ArialMT-52"/>
       </defs>
       <use xlink:href="#ArialMT-52"/>
      </g>
     </g>
    </g>
    <g id="xtick_2">
     <g id="line2d_2">
      <g>
       <use style="stroke:#000000;stroke-width:0.8;" x="89.775" xlink:href="#m465da359bc" y="189"/>
      </g>
     </g>
     <g id="text_2">
      <!-- 5 -->
      <g transform="translate(86.994531 203.157813)scale(0.1 -0.1)">
       <defs>
        <path d="M 4.15625 18.75 
L 13.375 19.53125 
Q 14.40625 12.796875 18.140625 9.390625 
Q 21.875 6 27.15625 6 
Q 33.5 6 37.890625 10.78125 
Q 42.28125 15.578125 42.28125 23.484375 
Q 42.28125 31 38.0625 35.34375 
Q 33.84375 39.703125 27 39.703125 
Q 22.75 39.703125 19.328125 37.765625 
Q 15.921875 35.84375 13.96875 32.765625 
L 5.71875 33.84375 
L 12.640625 70.609375 
L 48.25 70.609375 
L 48.25 62.203125 
L 19.671875 62.203125 
L 15.828125 42.96875 
Q 22.265625 47.46875 29.34375 47.46875 
Q 38.71875 47.46875 45.15625 40.96875 
Q 51.609375 34.46875 51.609375 24.265625 
Q 51.609375 14.546875 45.953125 7.46875 
Q 39.0625 -1.21875 27.15625 -1.21875 
Q 17.390625 -1.21875 11.203125 4.25 
Q 5.03125 9.71875 4.15625 18.75 
z
" id="ArialMT-53"/>
       </defs>
       <use xlink:href="#ArialMT-53"/>
      </g>
     </g>
    </g>
    <g id="xtick_3">
     <g id="line2d_3">
      <g>
       <use style="stroke:#000000;stroke-width:0.8;" x="131.625" xlink:href="#m465da359bc" y="189"/>
      </g>
     </g>
     <g id="text_3">
      <!-- 6 -->
      <g transform="translate(128.844531 203.157813)scale(0.1 -0.1)">
       <defs>
        <path d="M 49.75 54.046875 
L 41.015625 53.375 
Q 39.84375 58.546875 37.703125 60.890625 
Q 34.125 64.65625 28.90625 64.65625 
Q 24.703125 64.65625 21.53125 62.3125 
Q 17.390625 59.28125 14.984375 53.46875 
Q 12.59375 47.65625 12.5 36.921875 
Q 15.671875 41.75 20.265625 44.09375 
Q 24.859375 46.4375 29.890625 46.4375 
Q 38.671875 46.4375 44.84375 39.96875 
Q 51.03125 33.5 51.03125 23.25 
Q 51.03125 16.5 48.125 10.71875 
Q 45.21875 4.9375 40.140625 1.859375 
Q 35.0625 -1.21875 28.609375 -1.21875 
Q 17.625 -1.21875 10.6875 6.859375 
Q 3.765625 14.9375 3.765625 33.5 
Q 3.765625 54.25 11.421875 63.671875 
Q 18.109375 71.875 29.4375 71.875 
Q 37.890625 71.875 43.28125 67.140625 
Q 48.6875 62.40625 49.75 54.046875 
z
M 13.875 23.1875 
Q 13.875 18.65625 15.796875 14.5 
Q 17.71875 10.359375 21.1875 8.171875 
Q 24.65625 6 28.46875 6 
Q 34.03125 6 38.03125 10.484375 
Q 42.046875 14.984375 42.046875 22.703125 
Q 42.046875 30.125 38.078125 34.390625 
Q 34.125 38.671875 28.125 38.671875 
Q 22.171875 38.671875 18.015625 34.390625 
Q 13.875 30.125 13.875 23.1875 
z
" id="ArialMT-54"/>
       </defs>
       <use xlink:href="#ArialMT-54"/>
      </g>
     </g>
    </g>
    <g id="xtick_4">
     <g id="line2d_4">
      <g>
       <use style="stroke:#000000;stroke-width:0.8;" x="173.475" xlink:href="#m465da359bc" y="189"/>
      </g>
     </g>
     <g id="text_4">
      <!-- 7 -->
      <g transform="translate(170.694531 203.157813)scale(0.1 -0.1)">
       <defs>
        <path d="M 4.734375 62.203125 
L 4.734375 70.65625 
L 51.078125 70.65625 
L 51.078125 63.8125 
Q 44.234375 56.546875 37.515625 44.484375 
Q 30.8125 32.421875 27.15625 19.671875 
Q 24.515625 10.6875 23.78125 0 
L 14.75 0 
Q 14.890625 8.453125 18.0625 20.40625 
Q 21.234375 32.375 27.171875 43.484375 
Q 33.109375 54.59375 39.796875 62.203125 
z
" id="ArialMT-55"/>
       </defs>
       <use xlink:href="#ArialMT-55"/>
      </g>
     </g>
    </g>
    <g id="text_5">
     <!-- # of peaks -->
     <g transform="translate(87.630469 216.425)scale(0.1 -0.1)">
      <defs>
       <path d="M 5.03125 -1.21875 
L 9.28125 19.578125 
L 1.03125 19.578125 
L 1.03125 26.859375 
L 10.75 26.859375 
L 14.359375 44.578125 
L 1.03125 44.578125 
L 1.03125 51.859375 
L 15.828125 51.859375 
L 20.0625 72.796875 
L 27.390625 72.796875 
L 23.140625 51.859375 
L 38.53125 51.859375 
L 42.78125 72.796875 
L 50.140625 72.796875 
L 45.90625 51.859375 
L 54.34375 51.859375 
L 54.34375 44.578125 
L 44.4375 44.578125 
L 40.765625 26.859375 
L 54.34375 26.859375 
L 54.34375 19.578125 
L 39.3125 19.578125 
L 35.0625 -1.21875 
L 27.734375 -1.21875 
L 31.9375 19.578125 
L 16.609375 19.578125 
L 12.359375 -1.21875 
z
M 18.0625 26.859375 
L 33.40625 26.859375 
L 37.0625 44.578125 
L 21.6875 44.578125 
z
" id="ArialMT-35"/>
       <path id="ArialMT-32"/>
       <path d="M 3.328125 25.921875 
Q 3.328125 40.328125 11.328125 47.265625 
Q 18.015625 53.03125 27.640625 53.03125 
Q 38.328125 53.03125 45.109375 46.015625 
Q 51.90625 39.015625 51.90625 26.65625 
Q 51.90625 16.65625 48.90625 10.90625 
Q 45.90625 5.171875 40.15625 2 
Q 34.421875 -1.171875 27.640625 -1.171875 
Q 16.75 -1.171875 10.03125 5.8125 
Q 3.328125 12.796875 3.328125 25.921875 
z
M 12.359375 25.921875 
Q 12.359375 15.96875 16.703125 11.015625 
Q 21.046875 6.0625 27.640625 6.0625 
Q 34.1875 6.0625 38.53125 11.03125 
Q 42.875 16.015625 42.875 26.21875 
Q 42.875 35.84375 38.5 40.796875 
Q 34.125 45.75 27.640625 45.75 
Q 21.046875 45.75 16.703125 40.8125 
Q 12.359375 35.890625 12.359375 25.921875 
z
" id="ArialMT-111"/>
       <path d="M 8.6875 0 
L 8.6875 45.015625 
L 0.921875 45.015625 
L 0.921875 51.859375 
L 8.6875 51.859375 
L 8.6875 57.375 
Q 8.6875 62.59375 9.625 65.140625 
Q 10.890625 68.5625 14.078125 70.671875 
Q 17.28125 72.796875 23.046875 72.796875 
Q 26.765625 72.796875 31.25 71.921875 
L 29.9375 64.265625 
Q 27.203125 64.75 24.75 64.75 
Q 20.75 64.75 19.09375 63.03125 
Q 17.4375 61.328125 17.4375 56.640625 
L 17.4375 51.859375 
L 27.546875 51.859375 
L 27.546875 45.015625 
L 17.4375 45.015625 
L 17.4375 0 
z
" id="ArialMT-102"/>
       <path d="M 6.59375 -19.875 
L 6.59375 51.859375 
L 14.59375 51.859375 
L 14.59375 45.125 
Q 17.4375 49.078125 21 51.046875 
Q 24.5625 53.03125 29.640625 53.03125 
Q 36.28125 53.03125 41.359375 49.609375 
Q 46.4375 46.1875 49.015625 39.953125 
Q 51.609375 33.734375 51.609375 26.3125 
Q 51.609375 18.359375 48.75 11.984375 
Q 45.90625 5.609375 40.453125 2.21875 
Q 35.015625 -1.171875 29 -1.171875 
Q 24.609375 -1.171875 21.109375 0.6875 
Q 17.625 2.546875 15.375 5.375 
L 15.375 -19.875 
z
M 14.546875 25.640625 
Q 14.546875 15.625 18.59375 10.84375 
Q 22.65625 6.0625 28.421875 6.0625 
Q 34.28125 6.0625 38.453125 11.015625 
Q 42.625 15.96875 42.625 26.375 
Q 42.625 36.28125 38.546875 41.203125 
Q 34.46875 46.140625 28.8125 46.140625 
Q 23.1875 46.140625 18.859375 40.890625 
Q 14.546875 35.640625 14.546875 25.640625 
z
" id="ArialMT-112"/>
       <path d="M 42.09375 16.703125 
L 51.171875 15.578125 
Q 49.03125 7.625 43.21875 3.21875 
Q 37.40625 -1.171875 28.375 -1.171875 
Q 17 -1.171875 10.328125 5.828125 
Q 3.65625 12.84375 3.65625 25.484375 
Q 3.65625 38.578125 10.390625 45.796875 
Q 17.140625 53.03125 27.875 53.03125 
Q 38.28125 53.03125 44.875 45.953125 
Q 51.46875 38.875 51.46875 26.03125 
Q 51.46875 25.25 51.421875 23.6875 
L 12.75 23.6875 
Q 13.234375 15.140625 17.578125 10.59375 
Q 21.921875 6.0625 28.421875 6.0625 
Q 33.25 6.0625 36.671875 8.59375 
Q 40.09375 11.140625 42.09375 16.703125 
z
M 13.234375 30.90625 
L 42.1875 30.90625 
Q 41.609375 37.453125 38.875 40.71875 
Q 34.671875 45.796875 27.984375 45.796875 
Q 21.921875 45.796875 17.796875 41.75 
Q 13.671875 37.703125 13.234375 30.90625 
z
" id="ArialMT-101"/>
       <path d="M 40.4375 6.390625 
Q 35.546875 2.25 31.03125 0.53125 
Q 26.515625 -1.171875 21.34375 -1.171875 
Q 12.796875 -1.171875 8.203125 3 
Q 3.609375 7.171875 3.609375 13.671875 
Q 3.609375 17.484375 5.34375 20.625 
Q 7.078125 23.78125 9.890625 25.6875 
Q 12.703125 27.59375 16.21875 28.5625 
Q 18.796875 29.25 24.03125 29.890625 
Q 34.671875 31.15625 39.703125 32.90625 
Q 39.75 34.71875 39.75 35.203125 
Q 39.75 40.578125 37.25 42.78125 
Q 33.890625 45.75 27.25 45.75 
Q 21.046875 45.75 18.09375 43.578125 
Q 15.140625 41.40625 13.71875 35.890625 
L 5.125 37.0625 
Q 6.296875 42.578125 8.984375 45.96875 
Q 11.671875 49.359375 16.75 51.1875 
Q 21.828125 53.03125 28.515625 53.03125 
Q 35.15625 53.03125 39.296875 51.46875 
Q 43.453125 49.90625 45.40625 47.53125 
Q 47.359375 45.171875 48.140625 41.546875 
Q 48.578125 39.3125 48.578125 33.453125 
L 48.578125 21.734375 
Q 48.578125 9.46875 49.140625 6.21875 
Q 49.703125 2.984375 51.375 0 
L 42.1875 0 
Q 40.828125 2.734375 40.4375 6.390625 
z
M 39.703125 26.03125 
Q 34.90625 24.078125 25.34375 22.703125 
Q 19.921875 21.921875 17.671875 20.9375 
Q 15.4375 19.96875 14.203125 18.09375 
Q 12.984375 16.21875 12.984375 13.921875 
Q 12.984375 10.40625 15.640625 8.0625 
Q 18.3125 5.71875 23.4375 5.71875 
Q 28.515625 5.71875 32.46875 7.9375 
Q 36.421875 10.15625 38.28125 14.015625 
Q 39.703125 17 39.703125 22.796875 
z
" id="ArialMT-97"/>
       <path d="M 6.640625 0 
L 6.640625 71.578125 
L 15.4375 71.578125 
L 15.4375 30.765625 
L 36.234375 51.859375 
L 47.609375 51.859375 
L 27.78125 32.625 
L 49.609375 0 
L 38.765625 0 
L 21.625 26.515625 
L 15.4375 20.5625 
L 15.4375 0 
z
" id="ArialMT-107"/>
       <path d="M 3.078125 15.484375 
L 11.765625 16.84375 
Q 12.5 11.625 15.84375 8.84375 
Q 19.1875 6.0625 25.203125 6.0625 
Q 31.25 6.0625 34.171875 8.515625 
Q 37.109375 10.984375 37.109375 14.3125 
Q 37.109375 17.28125 34.515625 19 
Q 32.71875 20.171875 25.53125 21.96875 
Q 15.875 24.421875 12.140625 26.203125 
Q 8.40625 27.984375 6.46875 31.125 
Q 4.546875 34.28125 4.546875 38.09375 
Q 4.546875 41.546875 6.125 44.5 
Q 7.71875 47.46875 10.453125 49.421875 
Q 12.5 50.921875 16.03125 51.96875 
Q 19.578125 53.03125 23.640625 53.03125 
Q 29.734375 53.03125 34.34375 51.265625 
Q 38.96875 49.515625 41.15625 46.5 
Q 43.359375 43.5 44.1875 38.484375 
L 35.59375 37.3125 
Q 35.015625 41.3125 32.203125 43.546875 
Q 29.390625 45.796875 24.265625 45.796875 
Q 18.21875 45.796875 15.625 43.796875 
Q 13.03125 41.796875 13.03125 39.109375 
Q 13.03125 37.40625 14.109375 36.03125 
Q 15.1875 34.625 17.484375 33.6875 
Q 18.796875 33.203125 25.25 31.453125 
Q 34.578125 28.953125 38.25 27.359375 
Q 41.9375 25.78125 44.03125 22.75 
Q 46.140625 19.734375 46.140625 15.234375 
Q 46.140625 10.84375 43.578125 6.953125 
Q 41.015625 3.078125 36.171875 0.953125 
Q 31.34375 -1.171875 25.25 -1.171875 
Q 15.140625 -1.171875 9.84375 3.03125 
Q 4.546875 7.234375 3.078125 15.484375 
z
" id="ArialMT-115"/>
      </defs>
      <use xlink:href="#ArialMT-35"/>
      <use x="55.615234" xlink:href="#ArialMT-32"/>
      <use x="83.398438" xlink:href="#ArialMT-111"/>
      <use x="139.013672" xlink:href="#ArialMT-102"/>
      <use x="166.796875" xlink:href="#ArialMT-32"/>
      <use x="194.580078" xlink:href="#ArialMT-112"/>
      <use x="250.195312" xlink:href="#ArialMT-101"/>
      <use x="305.810547" xlink:href="#ArialMT-97"/>
      <use x="361.425781" xlink:href="#ArialMT-107"/>
      <use x="411.425781" xlink:href="#ArialMT-115"/>
     </g>
    </g>
   </g>
   <g id="matplotlib.axis_2">
    <g id="ytick_1">
     <g id="line2d_5">
      <defs>
       <path d="M 0 0 
L -3.5 0 
" id="m0cc7d3e3bf" style="stroke:#000000;stroke-width:0.8;"/>
      </defs>
      <g>
       <use style="stroke:#000000;stroke-width:0.8;" x="27" xlink:href="#m0cc7d3e3bf" y="172.729203"/>
      </g>
     </g>
     <g id="text_6">
      <!-- 0 -->
      <g transform="translate(14.439062 176.308109)scale(0.1 -0.1)">
       <defs>
        <path d="M 4.15625 35.296875 
Q 4.15625 48 6.765625 55.734375 
Q 9.375 63.484375 14.515625 67.671875 
Q 19.671875 71.875 27.484375 71.875 
Q 33.25 71.875 37.59375 69.546875 
Q 41.9375 67.234375 44.765625 62.859375 
Q 47.609375 58.5 49.21875 52.21875 
Q 50.828125 45.953125 50.828125 35.296875 
Q 50.828125 22.703125 48.234375 14.96875 
Q 45.65625 7.234375 40.5 3 
Q 35.359375 -1.21875 27.484375 -1.21875 
Q 17.140625 -1.21875 11.234375 6.203125 
Q 4.15625 15.140625 4.15625 35.296875 
z
M 13.1875 35.296875 
Q 13.1875 17.671875 17.3125 11.828125 
Q 21.4375 6 27.484375 6 
Q 33.546875 6 37.671875 11.859375 
Q 41.796875 17.71875 41.796875 35.296875 
Q 41.796875 52.984375 37.671875 58.78125 
Q 33.546875 64.59375 27.390625 64.59375 
Q 21.34375 64.59375 17.71875 59.46875 
Q 13.1875 52.9375 13.1875 35.296875 
z
" id="ArialMT-48"/>
       </defs>
       <use xlink:href="#ArialMT-48"/>
      </g>
     </g>
    </g>
    <g id="ytick_2">
     <g id="line2d_6">
      <g>
       <use style="stroke:#000000;stroke-width:0.8;" x="27" xlink:href="#m0cc7d3e3bf" y="137.174566"/>
      </g>
     </g>
     <g id="text_7">
      <!-- 2000 -->
      <g transform="translate(-2.24375 140.753472)scale(0.1 -0.1)">
       <defs>
        <path d="M 50.34375 8.453125 
L 50.34375 0 
L 3.03125 0 
Q 2.9375 3.171875 4.046875 6.109375 
Q 5.859375 10.9375 9.828125 15.625 
Q 13.8125 20.3125 21.34375 26.46875 
Q 33.015625 36.03125 37.109375 41.625 
Q 41.21875 47.21875 41.21875 52.203125 
Q 41.21875 57.421875 37.46875 61 
Q 33.734375 64.59375 27.734375 64.59375 
Q 21.390625 64.59375 17.578125 60.78125 
Q 13.765625 56.984375 13.71875 50.25 
L 4.6875 51.171875 
Q 5.609375 61.28125 11.65625 66.578125 
Q 17.71875 71.875 27.9375 71.875 
Q 38.234375 71.875 44.234375 66.15625 
Q 50.25 60.453125 50.25 52 
Q 50.25 47.703125 48.484375 43.546875 
Q 46.734375 39.40625 42.65625 34.8125 
Q 38.578125 30.21875 29.109375 22.21875 
Q 21.1875 15.578125 18.9375 13.203125 
Q 16.703125 10.84375 15.234375 8.453125 
z
" id="ArialMT-50"/>
       </defs>
       <use xlink:href="#ArialMT-50"/>
       <use x="55.615234" xlink:href="#ArialMT-48"/>
       <use x="111.230469" xlink:href="#ArialMT-48"/>
       <use x="166.845703" xlink:href="#ArialMT-48"/>
      </g>
     </g>
    </g>
    <g id="ytick_3">
     <g id="line2d_7">
      <g>
       <use style="stroke:#000000;stroke-width:0.8;" x="27" xlink:href="#m0cc7d3e3bf" y="101.619929"/>
      </g>
     </g>
     <g id="text_8">
      <!-- 4000 -->
      <g transform="translate(-2.24375 105.198836)scale(0.1 -0.1)">
       <use xlink:href="#ArialMT-52"/>
       <use x="55.615234" xlink:href="#ArialMT-48"/>
       <use x="111.230469" xlink:href="#ArialMT-48"/>
       <use x="166.845703" xlink:href="#ArialMT-48"/>
      </g>
     </g>
    </g>
    <g id="ytick_4">
     <g id="line2d_8">
      <g>
       <use style="stroke:#000000;stroke-width:0.8;" x="27" xlink:href="#m0cc7d3e3bf" y="66.065293"/>
      </g>
     </g>
     <g id="text_9">
      <!-- 6000 -->
      <g transform="translate(-2.24375 69.644199)scale(0.1 -0.1)">
       <use xlink:href="#ArialMT-54"/>
       <use x="55.615234" xlink:href="#ArialMT-48"/>
       <use x="111.230469" xlink:href="#ArialMT-48"/>
       <use x="166.845703" xlink:href="#ArialMT-48"/>
      </g>
     </g>
    </g>
    <g id="ytick_5">
     <g id="line2d_9">
      <g>
       <use style="stroke:#000000;stroke-width:0.8;" x="27" xlink:href="#m0cc7d3e3bf" y="30.510656"/>
      </g>
     </g>
     <g id="text_10">
      <!-- 8000 -->
      <g transform="translate(-2.24375 34.089563)scale(0.1 -0.1)">
       <defs>
        <path d="M 17.671875 38.8125 
Q 12.203125 40.828125 9.5625 44.53125 
Q 6.9375 48.25 6.9375 53.421875 
Q 6.9375 61.234375 12.546875 66.546875 
Q 18.171875 71.875 27.484375 71.875 
Q 36.859375 71.875 42.578125 66.421875 
Q 48.296875 60.984375 48.296875 53.171875 
Q 48.296875 48.1875 45.671875 44.5 
Q 43.0625 40.828125 37.75 38.8125 
Q 44.34375 36.671875 47.78125 31.875 
Q 51.21875 27.09375 51.21875 20.453125 
Q 51.21875 11.28125 44.71875 5.03125 
Q 38.234375 -1.21875 27.640625 -1.21875 
Q 17.046875 -1.21875 10.546875 5.046875 
Q 4.046875 11.328125 4.046875 20.703125 
Q 4.046875 27.6875 7.59375 32.390625 
Q 11.140625 37.109375 17.671875 38.8125 
z
M 15.921875 53.71875 
Q 15.921875 48.640625 19.1875 45.40625 
Q 22.46875 42.1875 27.6875 42.1875 
Q 32.765625 42.1875 36.015625 45.375 
Q 39.265625 48.578125 39.265625 53.21875 
Q 39.265625 58.0625 35.90625 61.359375 
Q 32.5625 64.65625 27.59375 64.65625 
Q 22.5625 64.65625 19.234375 61.421875 
Q 15.921875 58.203125 15.921875 53.71875 
z
M 13.09375 20.65625 
Q 13.09375 16.890625 14.875 13.375 
Q 16.65625 9.859375 20.171875 7.921875 
Q 23.6875 6 27.734375 6 
Q 34.03125 6 38.125 10.046875 
Q 42.234375 14.109375 42.234375 20.359375 
Q 42.234375 26.703125 38.015625 30.859375 
Q 33.796875 35.015625 27.4375 35.015625 
Q 21.234375 35.015625 17.15625 30.90625 
Q 13.09375 26.8125 13.09375 20.65625 
z
" id="ArialMT-56"/>
       </defs>
       <use xlink:href="#ArialMT-56"/>
       <use x="55.615234" xlink:href="#ArialMT-48"/>
       <use x="111.230469" xlink:href="#ArialMT-48"/>
       <use x="166.845703" xlink:href="#ArialMT-48"/>
      </g>
     </g>
    </g>
    <g id="text_11">
     <!-- Bertz complexity of  -->
     <g transform="translate(-18.925313 151.083438)rotate(-90)scale(0.1 -0.1)">
      <defs>
       <path d="M 7.328125 0 
L 7.328125 71.578125 
L 34.1875 71.578125 
Q 42.390625 71.578125 47.34375 69.40625 
Q 52.296875 67.234375 55.09375 62.71875 
Q 57.90625 58.203125 57.90625 53.265625 
Q 57.90625 48.6875 55.421875 44.625 
Q 52.9375 40.578125 47.90625 38.09375 
Q 54.390625 36.1875 57.875 31.59375 
Q 61.375 27 61.375 20.75 
Q 61.375 15.71875 59.25 11.390625 
Q 57.125 7.078125 54 4.734375 
Q 50.875 2.390625 46.15625 1.1875 
Q 41.453125 0 34.625 0 
z
M 16.796875 41.5 
L 32.28125 41.5 
Q 38.578125 41.5 41.3125 42.328125 
Q 44.921875 43.40625 46.75 45.890625 
Q 48.578125 48.390625 48.578125 52.15625 
Q 48.578125 55.71875 46.875 58.421875 
Q 45.171875 61.140625 41.984375 62.140625 
Q 38.8125 63.140625 31.109375 63.140625 
L 16.796875 63.140625 
z
M 16.796875 8.453125 
L 34.625 8.453125 
Q 39.203125 8.453125 41.0625 8.796875 
Q 44.34375 9.375 46.53125 10.734375 
Q 48.734375 12.109375 50.140625 14.71875 
Q 51.5625 17.328125 51.5625 20.75 
Q 51.5625 24.75 49.515625 27.703125 
Q 47.46875 30.671875 43.828125 31.859375 
Q 40.1875 33.0625 33.34375 33.0625 
L 16.796875 33.0625 
z
" id="ArialMT-66"/>
       <path d="M 6.5 0 
L 6.5 51.859375 
L 14.40625 51.859375 
L 14.40625 44 
Q 17.4375 49.515625 20 51.265625 
Q 22.5625 53.03125 25.640625 53.03125 
Q 30.078125 53.03125 34.671875 50.203125 
L 31.640625 42.046875 
Q 28.421875 43.953125 25.203125 43.953125 
Q 22.3125 43.953125 20.015625 42.21875 
Q 17.71875 40.484375 16.75 37.40625 
Q 15.28125 32.71875 15.28125 27.15625 
L 15.28125 0 
z
" id="ArialMT-114"/>
       <path d="M 25.78125 7.859375 
L 27.046875 0.09375 
Q 23.34375 -0.6875 20.40625 -0.6875 
Q 15.625 -0.6875 12.984375 0.828125 
Q 10.359375 2.34375 9.28125 4.8125 
Q 8.203125 7.28125 8.203125 15.1875 
L 8.203125 45.015625 
L 1.765625 45.015625 
L 1.765625 51.859375 
L 8.203125 51.859375 
L 8.203125 64.703125 
L 16.9375 69.96875 
L 16.9375 51.859375 
L 25.78125 51.859375 
L 25.78125 45.015625 
L 16.9375 45.015625 
L 16.9375 14.703125 
Q 16.9375 10.9375 17.40625 9.859375 
Q 17.875 8.796875 18.921875 8.15625 
Q 19.96875 7.515625 21.921875 7.515625 
Q 23.390625 7.515625 25.78125 7.859375 
z
" id="ArialMT-116"/>
       <path d="M 1.953125 0 
L 1.953125 7.125 
L 34.96875 45.015625 
Q 29.34375 44.734375 25.046875 44.734375 
L 3.90625 44.734375 
L 3.90625 51.859375 
L 46.296875 51.859375 
L 46.296875 46.046875 
L 18.21875 13.140625 
L 12.796875 7.125 
Q 18.703125 7.5625 23.875 7.5625 
L 47.859375 7.5625 
L 47.859375 0 
z
" id="ArialMT-122"/>
       <path d="M 40.4375 19 
L 49.078125 17.875 
Q 47.65625 8.9375 41.8125 3.875 
Q 35.984375 -1.171875 27.484375 -1.171875 
Q 16.84375 -1.171875 10.375 5.78125 
Q 3.90625 12.75 3.90625 25.734375 
Q 3.90625 34.125 6.6875 40.421875 
Q 9.46875 46.734375 15.15625 49.875 
Q 20.84375 53.03125 27.546875 53.03125 
Q 35.984375 53.03125 41.359375 48.75 
Q 46.734375 44.484375 48.25 36.625 
L 39.703125 35.296875 
Q 38.484375 40.53125 35.375 43.15625 
Q 32.28125 45.796875 27.875 45.796875 
Q 21.234375 45.796875 17.078125 41.03125 
Q 12.9375 36.28125 12.9375 25.984375 
Q 12.9375 15.53125 16.9375 10.796875 
Q 20.953125 6.0625 27.390625 6.0625 
Q 32.5625 6.0625 36.03125 9.234375 
Q 39.5 12.40625 40.4375 19 
z
" id="ArialMT-99"/>
       <path d="M 6.59375 0 
L 6.59375 51.859375 
L 14.453125 51.859375 
L 14.453125 44.578125 
Q 16.890625 48.390625 20.9375 50.703125 
Q 25 53.03125 30.171875 53.03125 
Q 35.9375 53.03125 39.625 50.640625 
Q 43.3125 48.25 44.828125 43.953125 
Q 50.984375 53.03125 60.84375 53.03125 
Q 68.5625 53.03125 72.703125 48.75 
Q 76.859375 44.484375 76.859375 35.59375 
L 76.859375 0 
L 68.109375 0 
L 68.109375 32.671875 
Q 68.109375 37.9375 67.25 40.25 
Q 66.40625 42.578125 64.15625 43.984375 
Q 61.921875 45.40625 58.890625 45.40625 
Q 53.421875 45.40625 49.796875 41.765625 
Q 46.1875 38.140625 46.1875 30.125 
L 46.1875 0 
L 37.40625 0 
L 37.40625 33.6875 
Q 37.40625 39.546875 35.25 42.46875 
Q 33.109375 45.40625 28.21875 45.40625 
Q 24.515625 45.40625 21.359375 43.453125 
Q 18.21875 41.5 16.796875 37.734375 
Q 15.375 33.984375 15.375 26.90625 
L 15.375 0 
z
" id="ArialMT-109"/>
       <path d="M 6.390625 0 
L 6.390625 71.578125 
L 15.1875 71.578125 
L 15.1875 0 
z
" id="ArialMT-108"/>
       <path d="M 0.734375 0 
L 19.671875 26.953125 
L 2.15625 51.859375 
L 13.140625 51.859375 
L 21.09375 39.703125 
Q 23.34375 36.234375 24.703125 33.890625 
Q 26.859375 37.109375 28.65625 39.59375 
L 37.40625 51.859375 
L 47.90625 51.859375 
L 29.984375 27.4375 
L 49.265625 0 
L 38.484375 0 
L 27.828125 16.109375 
L 25 20.453125 
L 11.375 0 
z
" id="ArialMT-120"/>
       <path d="M 6.640625 61.46875 
L 6.640625 71.578125 
L 15.4375 71.578125 
L 15.4375 61.46875 
z
M 6.640625 0 
L 6.640625 51.859375 
L 15.4375 51.859375 
L 15.4375 0 
z
" id="ArialMT-105"/>
       <path d="M 6.203125 -19.96875 
L 5.21875 -11.71875 
Q 8.109375 -12.5 10.25 -12.5 
Q 13.1875 -12.5 14.9375 -11.515625 
Q 16.703125 -10.546875 17.828125 -8.796875 
Q 18.65625 -7.46875 20.515625 -2.25 
Q 20.75 -1.515625 21.296875 -0.09375 
L 1.609375 51.859375 
L 11.078125 51.859375 
L 21.875 21.828125 
Q 23.96875 16.109375 25.640625 9.8125 
Q 27.15625 15.875 29.25 21.625 
L 40.328125 51.859375 
L 49.125 51.859375 
L 29.390625 -0.875 
Q 26.21875 -9.421875 24.46875 -12.640625 
Q 22.125 -17 19.09375 -19.015625 
Q 16.0625 -21.046875 11.859375 -21.046875 
Q 9.328125 -21.046875 6.203125 -19.96875 
z
" id="ArialMT-121"/>
      </defs>
      <use xlink:href="#ArialMT-66"/>
      <use x="66.699219" xlink:href="#ArialMT-101"/>
      <use x="122.314453" xlink:href="#ArialMT-114"/>
      <use x="155.615234" xlink:href="#ArialMT-116"/>
      <use x="183.398438" xlink:href="#ArialMT-122"/>
      <use x="233.398438" xlink:href="#ArialMT-32"/>
      <use x="261.181641" xlink:href="#ArialMT-99"/>
      <use x="311.181641" xlink:href="#ArialMT-111"/>
      <use x="366.796875" xlink:href="#ArialMT-109"/>
      <use x="450.097656" xlink:href="#ArialMT-112"/>
      <use x="505.712891" xlink:href="#ArialMT-108"/>
      <use x="527.929688" xlink:href="#ArialMT-101"/>
      <use x="583.544922" xlink:href="#ArialMT-120"/>
      <use x="633.544922" xlink:href="#ArialMT-105"/>
      <use x="655.761719" xlink:href="#ArialMT-116"/>
      <use x="683.544922" xlink:href="#ArialMT-121"/>
      <use x="733.544922" xlink:href="#ArialMT-32"/>
      <use x="761.328125" xlink:href="#ArialMT-111"/>
      <use x="816.943359" xlink:href="#ArialMT-102"/>
      <use x="844.726562" xlink:href="#ArialMT-32"/>
     </g>
     <!--  additional seed molecule -->
     <g transform="translate(-8.23125 163.881875)rotate(-90)scale(0.1 -0.1)">
      <defs>
       <path d="M 40.234375 0 
L 40.234375 6.546875 
Q 35.296875 -1.171875 25.734375 -1.171875 
Q 19.53125 -1.171875 14.328125 2.25 
Q 9.125 5.671875 6.265625 11.796875 
Q 3.421875 17.921875 3.421875 25.875 
Q 3.421875 33.640625 6 39.96875 
Q 8.59375 46.296875 13.765625 49.65625 
Q 18.953125 53.03125 25.34375 53.03125 
Q 30.03125 53.03125 33.6875 51.046875 
Q 37.359375 49.078125 39.65625 45.90625 
L 39.65625 71.578125 
L 48.390625 71.578125 
L 48.390625 0 
z
M 12.453125 25.875 
Q 12.453125 15.921875 16.640625 10.984375 
Q 20.84375 6.0625 26.5625 6.0625 
Q 32.328125 6.0625 36.34375 10.765625 
Q 40.375 15.484375 40.375 25.140625 
Q 40.375 35.796875 36.265625 40.765625 
Q 32.171875 45.75 26.171875 45.75 
Q 20.3125 45.75 16.375 40.96875 
Q 12.453125 36.1875 12.453125 25.875 
z
" id="ArialMT-100"/>
       <path d="M 6.59375 0 
L 6.59375 51.859375 
L 14.5 51.859375 
L 14.5 44.484375 
Q 20.21875 53.03125 31 53.03125 
Q 35.6875 53.03125 39.625 51.34375 
Q 43.5625 49.65625 45.515625 46.921875 
Q 47.46875 44.1875 48.25 40.4375 
Q 48.734375 37.984375 48.734375 31.890625 
L 48.734375 0 
L 39.9375 0 
L 39.9375 31.546875 
Q 39.9375 36.921875 38.90625 39.578125 
Q 37.890625 42.234375 35.28125 43.8125 
Q 32.671875 45.40625 29.15625 45.40625 
Q 23.53125 45.40625 19.453125 41.84375 
Q 15.375 38.28125 15.375 28.328125 
L 15.375 0 
z
" id="ArialMT-110"/>
       <path d="M 40.578125 0 
L 40.578125 7.625 
Q 34.515625 -1.171875 24.125 -1.171875 
Q 19.53125 -1.171875 15.546875 0.578125 
Q 11.578125 2.34375 9.640625 5 
Q 7.71875 7.671875 6.9375 11.53125 
Q 6.390625 14.109375 6.390625 19.734375 
L 6.390625 51.859375 
L 15.1875 51.859375 
L 15.1875 23.09375 
Q 15.1875 16.21875 15.71875 13.8125 
Q 16.546875 10.359375 19.234375 8.375 
Q 21.921875 6.390625 25.875 6.390625 
Q 29.828125 6.390625 33.296875 8.421875 
Q 36.765625 10.453125 38.203125 13.9375 
Q 39.65625 17.4375 39.65625 24.078125 
L 39.65625 51.859375 
L 48.4375 51.859375 
L 48.4375 0 
z
" id="ArialMT-117"/>
      </defs>
      <use xlink:href="#ArialMT-32"/>
      <use x="27.783203" xlink:href="#ArialMT-97"/>
      <use x="83.398438" xlink:href="#ArialMT-100"/>
      <use x="139.013672" xlink:href="#ArialMT-100"/>
      <use x="194.628906" xlink:href="#ArialMT-105"/>
      <use x="216.845703" xlink:href="#ArialMT-116"/>
      <use x="244.628906" xlink:href="#ArialMT-105"/>
      <use x="266.845703" xlink:href="#ArialMT-111"/>
      <use x="322.460938" xlink:href="#ArialMT-110"/>
      <use x="378.076172" xlink:href="#ArialMT-97"/>
      <use x="433.691406" xlink:href="#ArialMT-108"/>
      <use x="455.908203" xlink:href="#ArialMT-32"/>
      <use x="483.691406" xlink:href="#ArialMT-115"/>
      <use x="533.691406" xlink:href="#ArialMT-101"/>
      <use x="589.306641" xlink:href="#ArialMT-101"/>
      <use x="644.921875" xlink:href="#ArialMT-100"/>
      <use x="700.537109" xlink:href="#ArialMT-32"/>
      <use x="728.320312" xlink:href="#ArialMT-109"/>
      <use x="811.621094" xlink:href="#ArialMT-111"/>
      <use x="867.236328" xlink:href="#ArialMT-108"/>
      <use x="889.453125" xlink:href="#ArialMT-101"/>
      <use x="945.068359" xlink:href="#ArialMT-99"/>
      <use x="995.068359" xlink:href="#ArialMT-117"/>
      <use x="1050.683594" xlink:href="#ArialMT-108"/>
      <use x="1072.900391" xlink:href="#ArialMT-101"/>
     </g>
    </g>
   </g>
   <g id="line2d_10">
    <path clip-path="url(#pc0fdfe8d80)" d="M 47.925 144.40154 
L 47.925 131.613783 
" style="fill:none;stroke:#6a6a6a;stroke-linecap:square;stroke-width:1.5;"/>
   </g>
   <g id="line2d_11">
    <path clip-path="url(#pc0fdfe8d80)" d="M 47.925 141.091532 
L 47.925 137.165844 
" style="fill:none;stroke:#6a6a6a;stroke-linecap:square;stroke-width:4.5;"/>
   </g>
   <g id="line2d_12">
    <path clip-path="url(#pc0fdfe8d80)" d="M 89.775 172.729203 
L 89.775 125.155179 
" style="fill:none;stroke:#6a6a6a;stroke-linecap:square;stroke-width:1.5;"/>
   </g>
   <g id="line2d_13">
    <path clip-path="url(#pc0fdfe8d80)" d="M 89.775 165.725128 
L 89.775 143.846437 
" style="fill:none;stroke:#6a6a6a;stroke-linecap:square;stroke-width:4.5;"/>
   </g>
   <g id="line2d_14">
    <path clip-path="url(#pc0fdfe8d80)" d="M 131.625 172.729203 
L 131.625 143.802456 
" style="fill:none;stroke:#6a6a6a;stroke-linecap:square;stroke-width:1.5;"/>
   </g>
   <g id="line2d_15">
    <path clip-path="url(#pc0fdfe8d80)" d="M 131.625 169.446459 
L 131.625 159.161776 
" style="fill:none;stroke:#6a6a6a;stroke-linecap:square;stroke-width:4.5;"/>
   </g>
   <g id="line2d_16">
    <path clip-path="url(#pc0fdfe8d80)" d="M 173.475 165.758477 
L 173.475 162.55397 
" style="fill:none;stroke:#6a6a6a;stroke-linecap:square;stroke-width:1.5;"/>
   </g>
   <g id="line2d_17">
    <path clip-path="url(#pc0fdfe8d80)" d="M 173.475 165.689143 
L 173.475 162.55397 
" style="fill:none;stroke:#6a6a6a;stroke-linecap:square;stroke-width:4.5;"/>
   </g>
   <g id="patch_3">
    <path d="M 27 189 
L 27 25.92 
" style="fill:none;stroke:#000000;stroke-linecap:square;stroke-linejoin:miter;stroke-width:0.8;"/>
   </g>
   <g id="patch_4">
    <path d="M 194.4 189 
L 194.4 25.92 
" style="fill:none;stroke:#000000;stroke-linecap:square;stroke-linejoin:miter;stroke-width:0.8;"/>
   </g>
   <g id="patch_5">
    <path d="M 27 189 
L 194.4 189 
" style="fill:none;stroke:#000000;stroke-linecap:square;stroke-linejoin:miter;stroke-width:0.8;"/>
   </g>
   <g id="patch_6">
    <path d="M 27 25.92 
L 194.4 25.92 
" style="fill:none;stroke:#000000;stroke-linecap:square;stroke-linejoin:miter;stroke-width:0.8;"/>
   </g>
   <g id="PathCollection_1">
    <defs>
     <path d="M 0 1.5 
C 0.397805 1.5 0.77937 1.341951 1.06066 1.06066 
C 1.341951 0.77937 1.5 0.397805 1.5 0 
C 1.5 -0.397805 1.341951 -0.77937 1.06066 -1.06066 
C 0.77937 -1.341951 0.397805 -1.5 0 -1.5 
C -0.397805 -1.5 -0.77937 -1.341951 -1.06066 -1.06066 
C -1.341951 -0.77937 -1.5 -0.397805 -1.5 0 
C -1.5 0.397805 -1.341951 0.77937 -1.06066 1.06066 
C -0.77937 1.341951 -0.397805 1.5 0 1.5 
z
" id="mce97629286" style="stroke:#6a6a6a;"/>
    </defs>
    <g clip-path="url(#pc0fdfe8d80)">
     <use style="fill:#ffffff;stroke:#6a6a6a;" x="47.925" xlink:href="#mce97629286" y="138.946584"/>
    </g>
   </g>
   <g id="PathCollection_2">
    <g clip-path="url(#pc0fdfe8d80)">
     <use style="fill:#ffffff;stroke:#6a6a6a;" x="89.775" xlink:href="#mce97629286" y="158.715819"/>
    </g>
   </g>
   <g id="PathCollection_3">
    <g clip-path="url(#pc0fdfe8d80)">
     <use style="fill:#ffffff;stroke:#6a6a6a;" x="131.625" xlink:href="#mce97629286" y="166.521001"/>
    </g>
   </g>
   <g id="PathCollection_4">
    <g clip-path="url(#pc0fdfe8d80)">
     <use style="fill:#ffffff;stroke:#6a6a6a;" x="173.475" xlink:href="#mce97629286" y="162.625079"/>
    </g>
   </g>
  </g>
 </g>
 <defs>
  <clipPath id="pc0fdfe8d80">
   <rect height="163.08" width="167.4" x="27" y="25.92"/>
  </clipPath>
 </defs>
</svg>
