<?xml version="1.0" encoding="utf-8" standalone="no"?>
<!DOCTYPE svg PUBLIC "-//W3C//DTD SVG 1.1//EN"
  "http://www.w3.org/Graphics/SVG/1.1/DTD/svg11.dtd">
<!-- Created with matplotlib (https://matplotlib.org/) -->
<svg height="216pt" version="1.1" viewBox="0 0 216 216" width="216pt" xmlns="http://www.w3.org/2000/svg" xmlns:xlink="http://www.w3.org/1999/xlink">
 <metadata>
  <rdf:RDF xmlns:cc="http://creativecommons.org/ns#" xmlns:dc="http://purl.org/dc/elements/1.1/" xmlns:rdf="http://www.w3.org/1999/02/22-rdf-syntax-ns#">
   <cc:Work>
    <dc:type rdf:resource="http://purl.org/dc/dcmitype/StillImage"/>
    <dc:date>2023-05-14T18:36:35.922190</dc:date>
    <dc:format>image/svg+xml</dc:format>
    <dc:creator>
     <cc:Agent>
      <dc:title>Matplotlib v3.3.4, https://matplotlib.org/</dc:title>
     </cc:Agent>
    </dc:creator>
   </cc:Work>
  </rdf:RDF>
 </metadata>
 <defs>
  <style type="text/css">*{stroke-linecap:butt;stroke-linejoin:round;}</style>
 </defs>
 <g id="figure_1">
  <g id="patch_1">
   <path d="M 0 216 
L 216 216 
L 216 0 
L 0 0 
z
" style="fill:none;"/>
  </g>
  <g id="axes_1">
   <g id="patch_2">
    <path d="M 39.925 189.2 
L 196.8875 189.2 
L 196.8875 10.8 
L 39.925 10.8 
z
" style="fill:#ffffff;"/>
   </g>
   <g id="PathCollection_1">
    <defs>
     <path d="M 0 3 
C 0.795609 3 1.55874 2.683901 2.12132 2.12132 
C 2.683901 1.55874 3 0.795609 3 0 
C 3 -0.795609 2.683901 -1.55874 2.12132 -2.12132 
C 1.55874 -2.683901 0.795609 -3 0 -3 
C -0.795609 -3 -1.55874 -2.683901 -2.12132 -2.12132 
C -2.683901 -1.55874 -3 -0.795609 -3 0 
C -3 0.795609 -2.683901 1.55874 -2.12132 2.12132 
C -1.55874 2.683901 -0.795609 3 0 3 
z
" id="m5f388add83" style="stroke:#000000;stroke-opacity:0.8;"/>
    </defs>
    <g clip-path="url(#p594fe57a62)">
     <use style="fill-opacity:0.8;stroke:#000000;stroke-opacity:0.8;" x="39.925" xlink:href="#m5f388add83" y="173.397734"/>
     <use style="fill-opacity:0.8;stroke:#000000;stroke-opacity:0.8;" x="41.419881" xlink:href="#m5f388add83" y="167.946967"/>
     <use style="fill-opacity:0.8;stroke:#000000;stroke-opacity:0.8;" x="42.914762" xlink:href="#m5f388add83" y="166.290065"/>
     <use style="fill-opacity:0.8;stroke:#000000;stroke-opacity:0.8;" x="44.409643" xlink:href="#m5f388add83" y="168.29144"/>
     <use style="fill-opacity:0.8;stroke:#000000;stroke-opacity:0.8;" x="45.904524" xlink:href="#m5f388add83" y="159.098339"/>
     <use style="fill-opacity:0.8;stroke:#000000;stroke-opacity:0.8;" x="47.399405" xlink:href="#m5f388add83" y="160.861159"/>
     <use style="fill-opacity:0.8;stroke:#000000;stroke-opacity:0.8;" x="48.894286" xlink:href="#m5f388add83" y="158.270962"/>
     <use style="fill-opacity:0.8;stroke:#000000;stroke-opacity:0.8;" x="50.389167" xlink:href="#m5f388add83" y="157.727393"/>
     <use style="fill-opacity:0.8;stroke:#000000;stroke-opacity:0.8;" x="51.884048" xlink:href="#m5f388add83" y="153.034431"/>
     <use style="fill-opacity:0.8;stroke:#000000;stroke-opacity:0.8;" x="53.378929" xlink:href="#m5f388add83" y="160.946506"/>
     <use style="fill-opacity:0.8;stroke:#000000;stroke-opacity:0.8;" x="54.87381" xlink:href="#m5f388add83" y="158.738427"/>
     <use style="fill-opacity:0.8;stroke:#000000;stroke-opacity:0.8;" x="56.36869" xlink:href="#m5f388add83" y="159.647943"/>
     <use style="fill-opacity:0.8;stroke:#000000;stroke-opacity:0.8;" x="57.863571" xlink:href="#m5f388add83" y="157.774826"/>
     <use style="fill-opacity:0.8;stroke:#000000;stroke-opacity:0.8;" x="59.358452" xlink:href="#m5f388add83" y="152.881248"/>
     <use style="fill-opacity:0.8;stroke:#000000;stroke-opacity:0.8;" x="60.853333" xlink:href="#m5f388add83" y="155.122888"/>
     <use style="fill-opacity:0.8;stroke:#000000;stroke-opacity:0.8;" x="62.348214" xlink:href="#m5f388add83" y="154.644481"/>
     <use style="fill-opacity:0.8;stroke:#000000;stroke-opacity:0.8;" x="63.843095" xlink:href="#m5f388add83" y="158.124302"/>
     <use style="fill-opacity:0.8;stroke:#000000;stroke-opacity:0.8;" x="65.337976" xlink:href="#m5f388add83" y="120.93682"/>
     <use style="fill-opacity:0.8;stroke:#000000;stroke-opacity:0.8;" x="66.832857" xlink:href="#m5f388add83" y="121.997136"/>
     <use style="fill-opacity:0.8;stroke:#000000;stroke-opacity:0.8;" x="68.327738" xlink:href="#m5f388add83" y="141.057134"/>
     <use style="fill-opacity:0.8;stroke:#000000;stroke-opacity:0.8;" x="69.822619" xlink:href="#m5f388add83" y="126.476614"/>
     <use style="fill-opacity:0.8;stroke:#000000;stroke-opacity:0.8;" x="71.3175" xlink:href="#m5f388add83" y="112.427946"/>
     <use style="fill-opacity:0.8;stroke:#000000;stroke-opacity:0.8;" x="72.812381" xlink:href="#m5f388add83" y="139.415741"/>
     <use style="fill-opacity:0.8;stroke:#000000;stroke-opacity:0.8;" x="74.307262" xlink:href="#m5f388add83" y="150.258416"/>
     <use style="fill-opacity:0.8;stroke:#000000;stroke-opacity:0.8;" x="75.802143" xlink:href="#m5f388add83" y="159.327238"/>
     <use style="fill-opacity:0.8;stroke:#000000;stroke-opacity:0.8;" x="77.297024" xlink:href="#m5f388add83" y="156.294188"/>
     <use style="fill-opacity:0.8;stroke:#000000;stroke-opacity:0.8;" x="78.791905" xlink:href="#m5f388add83" y="153.79016"/>
     <use style="fill-opacity:0.8;stroke:#000000;stroke-opacity:0.8;" x="80.286786" xlink:href="#m5f388add83" y="139.328763"/>
     <use style="fill-opacity:0.8;stroke:#000000;stroke-opacity:0.8;" x="81.781667" xlink:href="#m5f388add83" y="149.820586"/>
     <use style="fill-opacity:0.8;stroke:#000000;stroke-opacity:0.8;" x="83.276548" xlink:href="#m5f388add83" y="145.996904"/>
     <use style="fill-opacity:0.8;stroke:#000000;stroke-opacity:0.8;" x="84.771429" xlink:href="#m5f388add83" y="158.552543"/>
     <use style="fill-opacity:0.8;stroke:#000000;stroke-opacity:0.8;" x="86.26631" xlink:href="#m5f388add83" y="159.442098"/>
     <use style="fill-opacity:0.8;stroke:#000000;stroke-opacity:0.8;" x="87.76119" xlink:href="#m5f388add83" y="156.655796"/>
     <use style="fill-opacity:0.8;stroke:#000000;stroke-opacity:0.8;" x="89.256071" xlink:href="#m5f388add83" y="158.590472"/>
     <use style="fill-opacity:0.8;stroke:#000000;stroke-opacity:0.8;" x="90.750952" xlink:href="#m5f388add83" y="147.271285"/>
     <use style="fill-opacity:0.8;stroke:#000000;stroke-opacity:0.8;" x="92.245833" xlink:href="#m5f388add83" y="141.874444"/>
     <use style="fill-opacity:0.8;stroke:#000000;stroke-opacity:0.8;" x="93.740714" xlink:href="#m5f388add83" y="149.232508"/>
     <use style="fill-opacity:0.8;stroke:#000000;stroke-opacity:0.8;" x="95.235595" xlink:href="#m5f388add83" y="155.494461"/>
     <use style="fill-opacity:0.8;stroke:#000000;stroke-opacity:0.8;" x="96.730476" xlink:href="#m5f388add83" y="155.759786"/>
     <use style="fill-opacity:0.8;stroke:#000000;stroke-opacity:0.8;" x="98.225357" xlink:href="#m5f388add83" y="147.028054"/>
     <use style="fill-opacity:0.8;stroke:#000000;stroke-opacity:0.8;" x="99.720238" xlink:href="#m5f388add83" y="127.79057"/>
     <use style="fill-opacity:0.8;stroke:#000000;stroke-opacity:0.8;" x="101.215119" xlink:href="#m5f388add83" y="122.329387"/>
     <use style="fill-opacity:0.8;stroke:#000000;stroke-opacity:0.8;" x="102.71" xlink:href="#m5f388add83" y="123.068078"/>
     <use style="fill-opacity:0.8;stroke:#000000;stroke-opacity:0.8;" x="104.204881" xlink:href="#m5f388add83" y="96.376813"/>
     <use style="fill-opacity:0.8;stroke:#000000;stroke-opacity:0.8;" x="105.699762" xlink:href="#m5f388add83" y="114.199464"/>
     <use style="fill-opacity:0.8;stroke:#000000;stroke-opacity:0.8;" x="107.194643" xlink:href="#m5f388add83" y="100.128621"/>
     <use style="fill-opacity:0.8;stroke:#000000;stroke-opacity:0.8;" x="108.689524" xlink:href="#m5f388add83" y="107.632877"/>
     <use style="fill-opacity:0.8;stroke:#000000;stroke-opacity:0.8;" x="110.184405" xlink:href="#m5f388add83" y="111.19073"/>
     <use style="fill-opacity:0.8;stroke:#000000;stroke-opacity:0.8;" x="111.679286" xlink:href="#m5f388add83" y="68.084039"/>
     <use style="fill-opacity:0.8;stroke:#000000;stroke-opacity:0.8;" x="113.174167" xlink:href="#m5f388add83" y="109.910084"/>
     <use style="fill-opacity:0.8;stroke:#000000;stroke-opacity:0.8;" x="114.669048" xlink:href="#m5f388add83" y="121.157159"/>
     <use style="fill-opacity:0.8;stroke:#000000;stroke-opacity:0.8;" x="116.163929" xlink:href="#m5f388add83" y="133.223071"/>
     <use style="fill-opacity:0.8;stroke:#000000;stroke-opacity:0.8;" x="117.65881" xlink:href="#m5f388add83" y="131.836526"/>
     <use style="fill-opacity:0.8;stroke:#000000;stroke-opacity:0.8;" x="119.15369" xlink:href="#m5f388add83" y="126.288592"/>
     <use style="fill-opacity:0.8;stroke:#000000;stroke-opacity:0.8;" x="120.648571" xlink:href="#m5f388add83" y="109.531526"/>
     <use style="fill-opacity:0.8;stroke:#000000;stroke-opacity:0.8;" x="122.143452" xlink:href="#m5f388add83" y="130.492347"/>
     <use style="fill-opacity:0.8;stroke:#000000;stroke-opacity:0.8;" x="123.638333" xlink:href="#m5f388add83" y="132.424712"/>
     <use style="fill-opacity:0.8;stroke:#000000;stroke-opacity:0.8;" x="125.133214" xlink:href="#m5f388add83" y="143.67133"/>
     <use style="fill-opacity:0.8;stroke:#000000;stroke-opacity:0.8;" x="126.628095" xlink:href="#m5f388add83" y="143.705507"/>
     <use style="fill-opacity:0.8;stroke:#000000;stroke-opacity:0.8;" x="128.122976" xlink:href="#m5f388add83" y="131.602288"/>
     <use style="fill-opacity:0.8;stroke:#000000;stroke-opacity:0.8;" x="129.617857" xlink:href="#m5f388add83" y="118.66089"/>
     <use style="fill-opacity:0.8;stroke:#000000;stroke-opacity:0.8;" x="131.112738" xlink:href="#m5f388add83" y="83.791971"/>
     <use style="fill-opacity:0.8;stroke:#000000;stroke-opacity:0.8;" x="132.607619" xlink:href="#m5f388add83" y="84.851918"/>
     <use style="fill-opacity:0.8;stroke:#000000;stroke-opacity:0.8;" x="134.1025" xlink:href="#m5f388add83" y="85.448228"/>
     <use style="fill-opacity:0.8;stroke:#000000;stroke-opacity:0.8;" x="135.597381" xlink:href="#m5f388add83" y="78.509427"/>
     <use style="fill-opacity:0.8;stroke:#000000;stroke-opacity:0.8;" x="137.092262" xlink:href="#m5f388add83" y="142.054262"/>
     <use style="fill-opacity:0.8;stroke:#000000;stroke-opacity:0.8;" x="138.587143" xlink:href="#m5f388add83" y="131.036608"/>
     <use style="fill-opacity:0.8;stroke:#000000;stroke-opacity:0.8;" x="140.082024" xlink:href="#m5f388add83" y="120.884423"/>
     <use style="fill-opacity:0.8;stroke:#000000;stroke-opacity:0.8;" x="141.576905" xlink:href="#m5f388add83" y="117.782577"/>
     <use style="fill-opacity:0.8;stroke:#000000;stroke-opacity:0.8;" x="143.071786" xlink:href="#m5f388add83" y="106.539504"/>
     <use style="fill-opacity:0.8;stroke:#000000;stroke-opacity:0.8;" x="144.566667" xlink:href="#m5f388add83" y="97.711804"/>
     <use style="fill-opacity:0.8;stroke:#000000;stroke-opacity:0.8;" x="146.061548" xlink:href="#m5f388add83" y="104.715131"/>
     <use style="fill-opacity:0.8;stroke:#000000;stroke-opacity:0.8;" x="147.556429" xlink:href="#m5f388add83" y="113.865216"/>
     <use style="fill-opacity:0.8;stroke:#000000;stroke-opacity:0.8;" x="149.05131" xlink:href="#m5f388add83" y="118.671587"/>
     <use style="fill-opacity:0.8;stroke:#000000;stroke-opacity:0.8;" x="150.54619" xlink:href="#m5f388add83" y="76.907337"/>
     <use style="fill-opacity:0.8;stroke:#000000;stroke-opacity:0.8;" x="152.041071" xlink:href="#m5f388add83" y="102.08975"/>
     <use style="fill-opacity:0.8;stroke:#000000;stroke-opacity:0.8;" x="153.535952" xlink:href="#m5f388add83" y="132.382584"/>
     <use style="fill-opacity:0.8;stroke:#000000;stroke-opacity:0.8;" x="155.030833" xlink:href="#m5f388add83" y="134.291799"/>
     <use style="fill-opacity:0.8;stroke:#000000;stroke-opacity:0.8;" x="156.525714" xlink:href="#m5f388add83" y="130.689788"/>
     <use style="fill-opacity:0.8;stroke:#000000;stroke-opacity:0.8;" x="158.020595" xlink:href="#m5f388add83" y="124.441288"/>
     <use style="fill-opacity:0.8;stroke:#000000;stroke-opacity:0.8;" x="159.515476" xlink:href="#m5f388add83" y="126.16595"/>
     <use style="fill-opacity:0.8;stroke:#000000;stroke-opacity:0.8;" x="161.010357" xlink:href="#m5f388add83" y="113.377048"/>
     <use style="fill-opacity:0.8;stroke:#000000;stroke-opacity:0.8;" x="162.505238" xlink:href="#m5f388add83" y="119.544457"/>
     <use style="fill-opacity:0.8;stroke:#000000;stroke-opacity:0.8;" x="164.000119" xlink:href="#m5f388add83" y="113.126765"/>
     <use style="fill-opacity:0.8;stroke:#000000;stroke-opacity:0.8;" x="165.495" xlink:href="#m5f388add83" y="118.42875"/>
     <use style="fill-opacity:0.8;stroke:#000000;stroke-opacity:0.8;" x="166.989881" xlink:href="#m5f388add83" y="160.045896"/>
     <use style="fill-opacity:0.8;stroke:#000000;stroke-opacity:0.8;" x="168.484762" xlink:href="#m5f388add83" y="161.496762"/>
     <use style="fill-opacity:0.8;stroke:#000000;stroke-opacity:0.8;" x="169.979643" xlink:href="#m5f388add83" y="24.810206"/>
     <use style="fill-opacity:0.8;stroke:#000000;stroke-opacity:0.8;" x="171.474524" xlink:href="#m5f388add83" y="21.46359"/>
     <use style="fill-opacity:0.8;stroke:#000000;stroke-opacity:0.8;" x="172.969405" xlink:href="#m5f388add83" y="22.263603"/>
     <use style="fill-opacity:0.8;stroke:#000000;stroke-opacity:0.8;" x="174.464286" xlink:href="#m5f388add83" y="18.909091"/>
     <use style="fill-opacity:0.8;stroke:#000000;stroke-opacity:0.8;" x="175.959167" xlink:href="#m5f388add83" y="27.333915"/>
     <use style="fill-opacity:0.8;stroke:#000000;stroke-opacity:0.8;" x="177.454048" xlink:href="#m5f388add83" y="23.995301"/>
     <use style="fill-opacity:0.8;stroke:#000000;stroke-opacity:0.8;" x="178.948929" xlink:href="#m5f388add83" y="24.795638"/>
     <use style="fill-opacity:0.8;stroke:#000000;stroke-opacity:0.8;" x="180.44381" xlink:href="#m5f388add83" y="21.449022"/>
     <use style="fill-opacity:0.8;stroke:#000000;stroke-opacity:0.8;" x="181.93869" xlink:href="#m5f388add83" y="29.856972"/>
     <use style="fill-opacity:0.8;stroke:#000000;stroke-opacity:0.8;" x="183.433571" xlink:href="#m5f388add83" y="26.526467"/>
     <use style="fill-opacity:0.8;stroke:#000000;stroke-opacity:0.8;" x="184.928452" xlink:href="#m5f388add83" y="27.327183"/>
     <use style="fill-opacity:0.8;stroke:#000000;stroke-opacity:0.8;" x="186.423333" xlink:href="#m5f388add83" y="23.988569"/>
     <use style="fill-opacity:0.8;stroke:#000000;stroke-opacity:0.8;" x="187.918214" xlink:href="#m5f388add83" y="32.379731"/>
     <use style="fill-opacity:0.8;stroke:#000000;stroke-opacity:0.8;" x="189.413095" xlink:href="#m5f388add83" y="158.948184"/>
    </g>
   </g>
   <g id="PolyCollection_1">
    <path clip-path="url(#p594fe57a62)" d="M 39.925 164.147153 
L 39.925 181.090909 
L 41.434981 179.746246 
L 42.944962 178.550889 
L 44.454942 177.27825 
L 45.964923 175.951614 
L 47.474904 174.647812 
L 48.984885 173.463323 
L 50.494865 172.195328 
L 52.004846 170.872377 
L 53.514827 169.564925 
L 55.024808 168.440242 
L 56.534788 167.314841 
L 58.044769 166.169286 
L 59.55475 164.900955 
L 61.064731 163.631282 
L 62.574711 162.361608 
L 64.084692 161.129571 
L 65.594673 159.912468 
L 67.104654 158.641969 
L 68.614634 157.364065 
L 70.124615 156.114199 
L 71.634596 154.849402 
L 73.144577 153.684312 
L 74.654557 152.439829 
L 76.164538 151.288298 
L 77.674519 150.077942 
L 79.1845 148.86048 
L 80.694481 147.728849 
L 82.204461 146.58934 
L 83.714442 145.368387 
L 85.224423 144.283368 
L 86.734404 143.237038 
L 88.244384 142.086519 
L 89.754365 140.892805 
L 91.264346 139.787386 
L 92.774327 138.707356 
L 94.284307 137.602089 
L 95.794288 136.604168 
L 97.304269 135.66932 
L 98.81425 134.711995 
L 100.32423 133.77785 
L 101.834211 132.786818 
L 103.344192 131.857741 
L 104.854173 130.896605 
L 106.364153 129.969571 
L 107.874134 129.006795 
L 109.384115 128.101382 
L 110.894096 127.248491 
L 112.404076 126.330087 
L 113.914057 125.525974 
L 115.424038 124.570023 
L 116.934019 123.688527 
L 118.444 122.824841 
L 119.95398 121.906262 
L 121.463961 121.046922 
L 122.973942 120.167381 
L 124.483923 119.33409 
L 125.993903 118.43338 
L 127.503884 117.589003 
L 129.013865 116.792213 
L 130.523846 115.914328 
L 132.033826 115.063909 
L 133.543807 114.23752 
L 135.053788 113.411045 
L 136.563769 112.531138 
L 138.073749 111.693602 
L 139.58373 110.849297 
L 141.093711 109.967088 
L 142.603692 109.08488 
L 144.113672 108.202671 
L 145.623653 107.320462 
L 147.133634 106.438254 
L 148.643615 105.556045 
L 150.153595 104.673837 
L 151.663576 103.827401 
L 153.173557 103.031875 
L 154.683538 102.241554 
L 156.193519 101.451233 
L 157.703499 100.660913 
L 159.21348 99.870592 
L 160.723461 99.080271 
L 162.233442 98.28995 
L 163.743422 97.455481 
L 165.253403 96.556131 
L 166.763384 95.705642 
L 168.273365 94.893466 
L 169.783345 94.080307 
L 171.293326 93.223289 
L 172.803307 92.364622 
L 174.313288 91.520189 
L 175.823268 90.667785 
L 177.333249 89.815286 
L 178.84323 88.961903 
L 180.353211 88.10852 
L 181.863191 87.255138 
L 183.373172 86.401755 
L 184.883153 85.568367 
L 186.393134 84.744813 
L 187.903114 83.92126 
L 189.413095 83.086993 
L 189.413095 50.727164 
L 189.413095 50.727164 
L 187.903114 52.015245 
L 186.393134 53.303326 
L 184.883153 54.591408 
L 183.373172 55.879489 
L 181.863191 57.16757 
L 180.353211 58.455652 
L 178.84323 59.745449 
L 177.333249 61.036635 
L 175.823268 62.32782 
L 174.313288 63.648595 
L 172.803307 65.007045 
L 171.293326 66.253045 
L 169.783345 67.499045 
L 168.273365 68.773605 
L 166.763384 70.062834 
L 165.253403 71.306178 
L 163.743422 72.605086 
L 162.233442 73.927804 
L 160.723461 75.217769 
L 159.21348 76.507734 
L 157.703499 77.802104 
L 156.193519 79.126094 
L 154.683538 80.385297 
L 153.173557 81.664202 
L 151.663576 82.96655 
L 150.153595 84.287079 
L 148.643615 85.551091 
L 147.133634 86.86454 
L 145.623653 88.114251 
L 144.113672 89.398309 
L 142.603692 90.686253 
L 141.093711 91.974198 
L 139.58373 93.262142 
L 138.073749 94.550086 
L 136.563769 95.839781 
L 135.053788 97.13005 
L 133.543807 98.356127 
L 132.033826 99.664727 
L 130.523846 100.875535 
L 129.013865 102.086344 
L 127.503884 103.299263 
L 125.993903 104.513304 
L 124.483923 105.727345 
L 122.973942 106.945948 
L 121.463961 108.233423 
L 119.95398 109.514745 
L 118.444 110.811529 
L 116.934019 112.081931 
L 115.424038 113.288544 
L 113.914057 114.48735 
L 112.404076 115.642435 
L 110.894096 116.941602 
L 109.384115 118.245605 
L 107.874134 119.541466 
L 106.364153 120.731389 
L 104.854173 121.999827 
L 103.344192 123.171211 
L 101.834211 124.299459 
L 100.32423 125.497414 
L 98.81425 126.74046 
L 97.304269 127.915191 
L 95.794288 129.085576 
L 94.284307 130.303358 
L 92.774327 131.463395 
L 91.264346 132.605259 
L 89.754365 133.734784 
L 88.244384 134.833695 
L 86.734404 135.918163 
L 85.224423 136.979895 
L 83.714442 137.990648 
L 82.204461 138.993895 
L 80.694481 140.133012 
L 79.1845 141.092978 
L 77.674519 142.010205 
L 76.164538 142.962694 
L 74.654557 143.952577 
L 73.144577 144.852318 
L 71.634596 145.75709 
L 70.124615 146.688873 
L 68.614634 147.575918 
L 67.104654 148.488913 
L 65.594673 149.376696 
L 64.084692 150.254889 
L 62.574711 151.170517 
L 61.064731 152.080812 
L 59.55475 152.932288 
L 58.044769 153.828685 
L 56.534788 154.725082 
L 55.024808 155.623316 
L 53.514827 156.487756 
L 52.004846 157.333578 
L 50.494865 158.159348 
L 48.984885 159.010845 
L 47.474904 159.925465 
L 45.964923 160.780006 
L 44.454942 161.621793 
L 42.944962 162.46358 
L 41.434981 163.305366 
L 39.925 164.147153 
z
" style="fill:#e41a1c;fill-opacity:0.15;"/>
   </g>
   <g id="matplotlib.axis_1">
    <g id="xtick_1">
     <g id="line2d_1">
      <defs>
       <path d="M 0 0 
L 0 3.5 
" id="me420a743e6" style="stroke:#000000;stroke-width:0.8;"/>
      </defs>
      <g>
       <use style="stroke:#000000;stroke-width:0.8;" x="39.925" xlink:href="#me420a743e6" y="189.2"/>
      </g>
     </g>
     <g id="text_1">
      <!-- 0 -->
      <g transform="translate(37.144531 203.357812)scale(0.1 -0.1)">
       <defs>
        <path d="M 4.15625 35.296875 
Q 4.15625 48 6.765625 55.734375 
Q 9.375 63.484375 14.515625 67.671875 
Q 19.671875 71.875 27.484375 71.875 
Q 33.25 71.875 37.59375 69.546875 
Q 41.9375 67.234375 44.765625 62.859375 
Q 47.609375 58.5 49.21875 52.21875 
Q 50.828125 45.953125 50.828125 35.296875 
Q 50.828125 22.703125 48.234375 14.96875 
Q 45.65625 7.234375 40.5 3 
Q 35.359375 -1.21875 27.484375 -1.21875 
Q 17.140625 -1.21875 11.234375 6.203125 
Q 4.15625 15.140625 4.15625 35.296875 
z
M 13.1875 35.296875 
Q 13.1875 17.671875 17.3125 11.828125 
Q 21.4375 6 27.484375 6 
Q 33.546875 6 37.671875 11.859375 
Q 41.796875 17.71875 41.796875 35.296875 
Q 41.796875 52.984375 37.671875 58.78125 
Q 33.546875 64.59375 27.390625 64.59375 
Q 21.34375 64.59375 17.71875 59.46875 
Q 13.1875 52.9375 13.1875 35.296875 
z
" id="ArialMT-48"/>
       </defs>
       <use xlink:href="#ArialMT-48"/>
      </g>
     </g>
    </g>
    <g id="xtick_2">
     <g id="line2d_2">
      <g>
       <use style="stroke:#000000;stroke-width:0.8;" x="77.297024" xlink:href="#me420a743e6" y="189.2"/>
      </g>
     </g>
     <g id="text_2">
      <!-- 25 -->
      <g transform="translate(71.736086 203.357812)scale(0.1 -0.1)">
       <defs>
        <path d="M 50.34375 8.453125 
L 50.34375 0 
L 3.03125 0 
Q 2.9375 3.171875 4.046875 6.109375 
Q 5.859375 10.9375 9.828125 15.625 
Q 13.8125 20.3125 21.34375 26.46875 
Q 33.015625 36.03125 37.109375 41.625 
Q 41.21875 47.21875 41.21875 52.203125 
Q 41.21875 57.421875 37.46875 61 
Q 33.734375 64.59375 27.734375 64.59375 
Q 21.390625 64.59375 17.578125 60.78125 
Q 13.765625 56.984375 13.71875 50.25 
L 4.6875 51.171875 
Q 5.609375 61.28125 11.65625 66.578125 
Q 17.71875 71.875 27.9375 71.875 
Q 38.234375 71.875 44.234375 66.15625 
Q 50.25 60.453125 50.25 52 
Q 50.25 47.703125 48.484375 43.546875 
Q 46.734375 39.40625 42.65625 34.8125 
Q 38.578125 30.21875 29.109375 22.21875 
Q 21.1875 15.578125 18.9375 13.203125 
Q 16.703125 10.84375 15.234375 8.453125 
z
" id="ArialMT-50"/>
        <path d="M 4.15625 18.75 
L 13.375 19.53125 
Q 14.40625 12.796875 18.140625 9.390625 
Q 21.875 6 27.15625 6 
Q 33.5 6 37.890625 10.78125 
Q 42.28125 15.578125 42.28125 23.484375 
Q 42.28125 31 38.0625 35.34375 
Q 33.84375 39.703125 27 39.703125 
Q 22.75 39.703125 19.328125 37.765625 
Q 15.921875 35.84375 13.96875 32.765625 
L 5.71875 33.84375 
L 12.640625 70.609375 
L 48.25 70.609375 
L 48.25 62.203125 
L 19.671875 62.203125 
L 15.828125 42.96875 
Q 22.265625 47.46875 29.34375 47.46875 
Q 38.71875 47.46875 45.15625 40.96875 
Q 51.609375 34.46875 51.609375 24.265625 
Q 51.609375 14.546875 45.953125 7.46875 
Q 39.0625 -1.21875 27.15625 -1.21875 
Q 17.390625 -1.21875 11.203125 4.25 
Q 5.03125 9.71875 4.15625 18.75 
z
" id="ArialMT-53"/>
       </defs>
       <use xlink:href="#ArialMT-50"/>
       <use x="55.615234" xlink:href="#ArialMT-53"/>
      </g>
     </g>
    </g>
    <g id="xtick_3">
     <g id="line2d_3">
      <g>
       <use style="stroke:#000000;stroke-width:0.8;" x="114.669048" xlink:href="#me420a743e6" y="189.2"/>
      </g>
     </g>
     <g id="text_3">
      <!-- 50 -->
      <g transform="translate(109.10811 203.357812)scale(0.1 -0.1)">
       <use xlink:href="#ArialMT-53"/>
       <use x="55.615234" xlink:href="#ArialMT-48"/>
      </g>
     </g>
    </g>
    <g id="xtick_4">
     <g id="line2d_4">
      <g>
       <use style="stroke:#000000;stroke-width:0.8;" x="152.041071" xlink:href="#me420a743e6" y="189.2"/>
      </g>
     </g>
     <g id="text_4">
      <!-- 75 -->
      <g transform="translate(146.480134 203.357812)scale(0.1 -0.1)">
       <defs>
        <path d="M 4.734375 62.203125 
L 4.734375 70.65625 
L 51.078125 70.65625 
L 51.078125 63.8125 
Q 44.234375 56.546875 37.515625 44.484375 
Q 30.8125 32.421875 27.15625 19.671875 
Q 24.515625 10.6875 23.78125 0 
L 14.75 0 
Q 14.890625 8.453125 18.0625 20.40625 
Q 21.234375 32.375 27.171875 43.484375 
Q 33.109375 54.59375 39.796875 62.203125 
z
" id="ArialMT-55"/>
       </defs>
       <use xlink:href="#ArialMT-55"/>
       <use x="55.615234" xlink:href="#ArialMT-53"/>
      </g>
     </g>
    </g>
    <g id="xtick_5">
     <g id="line2d_5">
      <g>
       <use style="stroke:#000000;stroke-width:0.8;" x="189.413095" xlink:href="#me420a743e6" y="189.2"/>
      </g>
     </g>
     <g id="text_5">
      <!-- 100 -->
      <g transform="translate(181.071689 203.357812)scale(0.1 -0.1)">
       <defs>
        <path d="M 37.25 0 
L 28.46875 0 
L 28.46875 56 
Q 25.296875 52.984375 20.140625 49.953125 
Q 14.984375 46.921875 10.890625 45.40625 
L 10.890625 53.90625 
Q 18.265625 57.375 23.78125 62.296875 
Q 29.296875 67.234375 31.59375 71.875 
L 37.25 71.875 
z
" id="ArialMT-49"/>
       </defs>
       <use xlink:href="#ArialMT-49"/>
       <use x="55.615234" xlink:href="#ArialMT-48"/>
       <use x="111.230469" xlink:href="#ArialMT-48"/>
      </g>
     </g>
    </g>
    <g id="text_6">
     <!-- expansion iteration -->
     <g transform="translate(76.436719 216.503125)scale(0.1 -0.1)">
      <defs>
       <path d="M 42.09375 16.703125 
L 51.171875 15.578125 
Q 49.03125 7.625 43.21875 3.21875 
Q 37.40625 -1.171875 28.375 -1.171875 
Q 17 -1.171875 10.328125 5.828125 
Q 3.65625 12.84375 3.65625 25.484375 
Q 3.65625 38.578125 10.390625 45.796875 
Q 17.140625 53.03125 27.875 53.03125 
Q 38.28125 53.03125 44.875 45.953125 
Q 51.46875 38.875 51.46875 26.03125 
Q 51.46875 25.25 51.421875 23.6875 
L 12.75 23.6875 
Q 13.234375 15.140625 17.578125 10.59375 
Q 21.921875 6.0625 28.421875 6.0625 
Q 33.25 6.0625 36.671875 8.59375 
Q 40.09375 11.140625 42.09375 16.703125 
z
M 13.234375 30.90625 
L 42.1875 30.90625 
Q 41.609375 37.453125 38.875 40.71875 
Q 34.671875 45.796875 27.984375 45.796875 
Q 21.921875 45.796875 17.796875 41.75 
Q 13.671875 37.703125 13.234375 30.90625 
z
" id="ArialMT-101"/>
       <path d="M 0.734375 0 
L 19.671875 26.953125 
L 2.15625 51.859375 
L 13.140625 51.859375 
L 21.09375 39.703125 
Q 23.34375 36.234375 24.703125 33.890625 
Q 26.859375 37.109375 28.65625 39.59375 
L 37.40625 51.859375 
L 47.90625 51.859375 
L 29.984375 27.4375 
L 49.265625 0 
L 38.484375 0 
L 27.828125 16.109375 
L 25 20.453125 
L 11.375 0 
z
" id="ArialMT-120"/>
       <path d="M 6.59375 -19.875 
L 6.59375 51.859375 
L 14.59375 51.859375 
L 14.59375 45.125 
Q 17.4375 49.078125 21 51.046875 
Q 24.5625 53.03125 29.640625 53.03125 
Q 36.28125 53.03125 41.359375 49.609375 
Q 46.4375 46.1875 49.015625 39.953125 
Q 51.609375 33.734375 51.609375 26.3125 
Q 51.609375 18.359375 48.75 11.984375 
Q 45.90625 5.609375 40.453125 2.21875 
Q 35.015625 -1.171875 29 -1.171875 
Q 24.609375 -1.171875 21.109375 0.6875 
Q 17.625 2.546875 15.375 5.375 
L 15.375 -19.875 
z
M 14.546875 25.640625 
Q 14.546875 15.625 18.59375 10.84375 
Q 22.65625 6.0625 28.421875 6.0625 
Q 34.28125 6.0625 38.453125 11.015625 
Q 42.625 15.96875 42.625 26.375 
Q 42.625 36.28125 38.546875 41.203125 
Q 34.46875 46.140625 28.8125 46.140625 
Q 23.1875 46.140625 18.859375 40.890625 
Q 14.546875 35.640625 14.546875 25.640625 
z
" id="ArialMT-112"/>
       <path d="M 40.4375 6.390625 
Q 35.546875 2.25 31.03125 0.53125 
Q 26.515625 -1.171875 21.34375 -1.171875 
Q 12.796875 -1.171875 8.203125 3 
Q 3.609375 7.171875 3.609375 13.671875 
Q 3.609375 17.484375 5.34375 20.625 
Q 7.078125 23.78125 9.890625 25.6875 
Q 12.703125 27.59375 16.21875 28.5625 
Q 18.796875 29.25 24.03125 29.890625 
Q 34.671875 31.15625 39.703125 32.90625 
Q 39.75 34.71875 39.75 35.203125 
Q 39.75 40.578125 37.25 42.78125 
Q 33.890625 45.75 27.25 45.75 
Q 21.046875 45.75 18.09375 43.578125 
Q 15.140625 41.40625 13.71875 35.890625 
L 5.125 37.0625 
Q 6.296875 42.578125 8.984375 45.96875 
Q 11.671875 49.359375 16.75 51.1875 
Q 21.828125 53.03125 28.515625 53.03125 
Q 35.15625 53.03125 39.296875 51.46875 
Q 43.453125 49.90625 45.40625 47.53125 
Q 47.359375 45.171875 48.140625 41.546875 
Q 48.578125 39.3125 48.578125 33.453125 
L 48.578125 21.734375 
Q 48.578125 9.46875 49.140625 6.21875 
Q 49.703125 2.984375 51.375 0 
L 42.1875 0 
Q 40.828125 2.734375 40.4375 6.390625 
z
M 39.703125 26.03125 
Q 34.90625 24.078125 25.34375 22.703125 
Q 19.921875 21.921875 17.671875 20.9375 
Q 15.4375 19.96875 14.203125 18.09375 
Q 12.984375 16.21875 12.984375 13.921875 
Q 12.984375 10.40625 15.640625 8.0625 
Q 18.3125 5.71875 23.4375 5.71875 
Q 28.515625 5.71875 32.46875 7.9375 
Q 36.421875 10.15625 38.28125 14.015625 
Q 39.703125 17 39.703125 22.796875 
z
" id="ArialMT-97"/>
       <path d="M 6.59375 0 
L 6.59375 51.859375 
L 14.5 51.859375 
L 14.5 44.484375 
Q 20.21875 53.03125 31 53.03125 
Q 35.6875 53.03125 39.625 51.34375 
Q 43.5625 49.65625 45.515625 46.921875 
Q 47.46875 44.1875 48.25 40.4375 
Q 48.734375 37.984375 48.734375 31.890625 
L 48.734375 0 
L 39.9375 0 
L 39.9375 31.546875 
Q 39.9375 36.921875 38.90625 39.578125 
Q 37.890625 42.234375 35.28125 43.8125 
Q 32.671875 45.40625 29.15625 45.40625 
Q 23.53125 45.40625 19.453125 41.84375 
Q 15.375 38.28125 15.375 28.328125 
L 15.375 0 
z
" id="ArialMT-110"/>
       <path d="M 3.078125 15.484375 
L 11.765625 16.84375 
Q 12.5 11.625 15.84375 8.84375 
Q 19.1875 6.0625 25.203125 6.0625 
Q 31.25 6.0625 34.171875 8.515625 
Q 37.109375 10.984375 37.109375 14.3125 
Q 37.109375 17.28125 34.515625 19 
Q 32.71875 20.171875 25.53125 21.96875 
Q 15.875 24.421875 12.140625 26.203125 
Q 8.40625 27.984375 6.46875 31.125 
Q 4.546875 34.28125 4.546875 38.09375 
Q 4.546875 41.546875 6.125 44.5 
Q 7.71875 47.46875 10.453125 49.421875 
Q 12.5 50.921875 16.03125 51.96875 
Q 19.578125 53.03125 23.640625 53.03125 
Q 29.734375 53.03125 34.34375 51.265625 
Q 38.96875 49.515625 41.15625 46.5 
Q 43.359375 43.5 44.1875 38.484375 
L 35.59375 37.3125 
Q 35.015625 41.3125 32.203125 43.546875 
Q 29.390625 45.796875 24.265625 45.796875 
Q 18.21875 45.796875 15.625 43.796875 
Q 13.03125 41.796875 13.03125 39.109375 
Q 13.03125 37.40625 14.109375 36.03125 
Q 15.1875 34.625 17.484375 33.6875 
Q 18.796875 33.203125 25.25 31.453125 
Q 34.578125 28.953125 38.25 27.359375 
Q 41.9375 25.78125 44.03125 22.75 
Q 46.140625 19.734375 46.140625 15.234375 
Q 46.140625 10.84375 43.578125 6.953125 
Q 41.015625 3.078125 36.171875 0.953125 
Q 31.34375 -1.171875 25.25 -1.171875 
Q 15.140625 -1.171875 9.84375 3.03125 
Q 4.546875 7.234375 3.078125 15.484375 
z
" id="ArialMT-115"/>
       <path d="M 6.640625 61.46875 
L 6.640625 71.578125 
L 15.4375 71.578125 
L 15.4375 61.46875 
z
M 6.640625 0 
L 6.640625 51.859375 
L 15.4375 51.859375 
L 15.4375 0 
z
" id="ArialMT-105"/>
       <path d="M 3.328125 25.921875 
Q 3.328125 40.328125 11.328125 47.265625 
Q 18.015625 53.03125 27.640625 53.03125 
Q 38.328125 53.03125 45.109375 46.015625 
Q 51.90625 39.015625 51.90625 26.65625 
Q 51.90625 16.65625 48.90625 10.90625 
Q 45.90625 5.171875 40.15625 2 
Q 34.421875 -1.171875 27.640625 -1.171875 
Q 16.75 -1.171875 10.03125 5.8125 
Q 3.328125 12.796875 3.328125 25.921875 
z
M 12.359375 25.921875 
Q 12.359375 15.96875 16.703125 11.015625 
Q 21.046875 6.0625 27.640625 6.0625 
Q 34.1875 6.0625 38.53125 11.03125 
Q 42.875 16.015625 42.875 26.21875 
Q 42.875 35.84375 38.5 40.796875 
Q 34.125 45.75 27.640625 45.75 
Q 21.046875 45.75 16.703125 40.8125 
Q 12.359375 35.890625 12.359375 25.921875 
z
" id="ArialMT-111"/>
       <path id="ArialMT-32"/>
       <path d="M 25.78125 7.859375 
L 27.046875 0.09375 
Q 23.34375 -0.6875 20.40625 -0.6875 
Q 15.625 -0.6875 12.984375 0.828125 
Q 10.359375 2.34375 9.28125 4.8125 
Q 8.203125 7.28125 8.203125 15.1875 
L 8.203125 45.015625 
L 1.765625 45.015625 
L 1.765625 51.859375 
L 8.203125 51.859375 
L 8.203125 64.703125 
L 16.9375 69.96875 
L 16.9375 51.859375 
L 25.78125 51.859375 
L 25.78125 45.015625 
L 16.9375 45.015625 
L 16.9375 14.703125 
Q 16.9375 10.9375 17.40625 9.859375 
Q 17.875 8.796875 18.921875 8.15625 
Q 19.96875 7.515625 21.921875 7.515625 
Q 23.390625 7.515625 25.78125 7.859375 
z
" id="ArialMT-116"/>
       <path d="M 6.5 0 
L 6.5 51.859375 
L 14.40625 51.859375 
L 14.40625 44 
Q 17.4375 49.515625 20 51.265625 
Q 22.5625 53.03125 25.640625 53.03125 
Q 30.078125 53.03125 34.671875 50.203125 
L 31.640625 42.046875 
Q 28.421875 43.953125 25.203125 43.953125 
Q 22.3125 43.953125 20.015625 42.21875 
Q 17.71875 40.484375 16.75 37.40625 
Q 15.28125 32.71875 15.28125 27.15625 
L 15.28125 0 
z
" id="ArialMT-114"/>
      </defs>
      <use xlink:href="#ArialMT-101"/>
      <use x="55.615234" xlink:href="#ArialMT-120"/>
      <use x="105.615234" xlink:href="#ArialMT-112"/>
      <use x="161.230469" xlink:href="#ArialMT-97"/>
      <use x="216.845703" xlink:href="#ArialMT-110"/>
      <use x="272.460938" xlink:href="#ArialMT-115"/>
      <use x="322.460938" xlink:href="#ArialMT-105"/>
      <use x="344.677734" xlink:href="#ArialMT-111"/>
      <use x="400.292969" xlink:href="#ArialMT-110"/>
      <use x="455.908203" xlink:href="#ArialMT-32"/>
      <use x="483.691406" xlink:href="#ArialMT-105"/>
      <use x="505.908203" xlink:href="#ArialMT-116"/>
      <use x="533.691406" xlink:href="#ArialMT-101"/>
      <use x="589.306641" xlink:href="#ArialMT-114"/>
      <use x="622.607422" xlink:href="#ArialMT-97"/>
      <use x="678.222656" xlink:href="#ArialMT-116"/>
      <use x="706.005859" xlink:href="#ArialMT-105"/>
      <use x="728.222656" xlink:href="#ArialMT-111"/>
      <use x="783.837891" xlink:href="#ArialMT-110"/>
     </g>
    </g>
   </g>
   <g id="matplotlib.axis_2">
    <g id="ytick_1">
     <g id="line2d_6">
      <defs>
       <path d="M 0 0 
L -3.5 0 
" id="me47f007457" style="stroke:#000000;stroke-width:0.8;"/>
      </defs>
      <g>
       <use style="stroke:#000000;stroke-width:0.8;" x="39.925" xlink:href="#me47f007457" y="177.591605"/>
      </g>
     </g>
     <g id="text_7">
      <!-- 0 -->
      <g transform="translate(27.364063 181.170511)scale(0.1 -0.1)">
       <use xlink:href="#ArialMT-48"/>
      </g>
     </g>
    </g>
    <g id="ytick_2">
     <g id="line2d_7">
      <g>
       <use style="stroke:#000000;stroke-width:0.8;" x="39.925" xlink:href="#me47f007457" y="142.814397"/>
      </g>
     </g>
     <g id="text_8">
      <!-- 500 -->
      <g transform="translate(16.242188 146.393304)scale(0.1 -0.1)">
       <use xlink:href="#ArialMT-53"/>
       <use x="55.615234" xlink:href="#ArialMT-48"/>
       <use x="111.230469" xlink:href="#ArialMT-48"/>
      </g>
     </g>
    </g>
    <g id="ytick_3">
     <g id="line2d_8">
      <g>
       <use style="stroke:#000000;stroke-width:0.8;" x="39.925" xlink:href="#me47f007457" y="108.037189"/>
      </g>
     </g>
     <g id="text_9">
      <!-- 1000 -->
      <g transform="translate(10.68125 111.616096)scale(0.1 -0.1)">
       <use xlink:href="#ArialMT-49"/>
       <use x="55.615234" xlink:href="#ArialMT-48"/>
       <use x="111.230469" xlink:href="#ArialMT-48"/>
       <use x="166.845703" xlink:href="#ArialMT-48"/>
      </g>
     </g>
    </g>
    <g id="ytick_4">
     <g id="line2d_9">
      <g>
       <use style="stroke:#000000;stroke-width:0.8;" x="39.925" xlink:href="#me47f007457" y="73.259981"/>
      </g>
     </g>
     <g id="text_10">
      <!-- 1500 -->
      <g transform="translate(10.68125 76.838888)scale(0.1 -0.1)">
       <use xlink:href="#ArialMT-49"/>
       <use x="55.615234" xlink:href="#ArialMT-53"/>
       <use x="111.230469" xlink:href="#ArialMT-48"/>
       <use x="166.845703" xlink:href="#ArialMT-48"/>
      </g>
     </g>
    </g>
    <g id="ytick_5">
     <g id="line2d_10">
      <g>
       <use style="stroke:#000000;stroke-width:0.8;" x="39.925" xlink:href="#me47f007457" y="38.482773"/>
      </g>
     </g>
     <g id="text_11">
      <!-- 2000 -->
      <g transform="translate(10.68125 42.06168)scale(0.1 -0.1)">
       <use xlink:href="#ArialMT-50"/>
       <use x="55.615234" xlink:href="#ArialMT-48"/>
       <use x="111.230469" xlink:href="#ArialMT-48"/>
       <use x="166.845703" xlink:href="#ArialMT-48"/>
      </g>
     </g>
    </g>
    <g id="text_12">
     <!-- mean molecular complexity -->
     <g transform="translate(4.576562 160.575)rotate(-90)scale(0.1 -0.1)">
      <defs>
       <path d="M 6.59375 0 
L 6.59375 51.859375 
L 14.453125 51.859375 
L 14.453125 44.578125 
Q 16.890625 48.390625 20.9375 50.703125 
Q 25 53.03125 30.171875 53.03125 
Q 35.9375 53.03125 39.625 50.640625 
Q 43.3125 48.25 44.828125 43.953125 
Q 50.984375 53.03125 60.84375 53.03125 
Q 68.5625 53.03125 72.703125 48.75 
Q 76.859375 44.484375 76.859375 35.59375 
L 76.859375 0 
L 68.109375 0 
L 68.109375 32.671875 
Q 68.109375 37.9375 67.25 40.25 
Q 66.40625 42.578125 64.15625 43.984375 
Q 61.921875 45.40625 58.890625 45.40625 
Q 53.421875 45.40625 49.796875 41.765625 
Q 46.1875 38.140625 46.1875 30.125 
L 46.1875 0 
L 37.40625 0 
L 37.40625 33.6875 
Q 37.40625 39.546875 35.25 42.46875 
Q 33.109375 45.40625 28.21875 45.40625 
Q 24.515625 45.40625 21.359375 43.453125 
Q 18.21875 41.5 16.796875 37.734375 
Q 15.375 33.984375 15.375 26.90625 
L 15.375 0 
z
" id="ArialMT-109"/>
       <path d="M 6.390625 0 
L 6.390625 71.578125 
L 15.1875 71.578125 
L 15.1875 0 
z
" id="ArialMT-108"/>
       <path d="M 40.4375 19 
L 49.078125 17.875 
Q 47.65625 8.9375 41.8125 3.875 
Q 35.984375 -1.171875 27.484375 -1.171875 
Q 16.84375 -1.171875 10.375 5.78125 
Q 3.90625 12.75 3.90625 25.734375 
Q 3.90625 34.125 6.6875 40.421875 
Q 9.46875 46.734375 15.15625 49.875 
Q 20.84375 53.03125 27.546875 53.03125 
Q 35.984375 53.03125 41.359375 48.75 
Q 46.734375 44.484375 48.25 36.625 
L 39.703125 35.296875 
Q 38.484375 40.53125 35.375 43.15625 
Q 32.28125 45.796875 27.875 45.796875 
Q 21.234375 45.796875 17.078125 41.03125 
Q 12.9375 36.28125 12.9375 25.984375 
Q 12.9375 15.53125 16.9375 10.796875 
Q 20.953125 6.0625 27.390625 6.0625 
Q 32.5625 6.0625 36.03125 9.234375 
Q 39.5 12.40625 40.4375 19 
z
" id="ArialMT-99"/>
       <path d="M 40.578125 0 
L 40.578125 7.625 
Q 34.515625 -1.171875 24.125 -1.171875 
Q 19.53125 -1.171875 15.546875 0.578125 
Q 11.578125 2.34375 9.640625 5 
Q 7.71875 7.671875 6.9375 11.53125 
Q 6.390625 14.109375 6.390625 19.734375 
L 6.390625 51.859375 
L 15.1875 51.859375 
L 15.1875 23.09375 
Q 15.1875 16.21875 15.71875 13.8125 
Q 16.546875 10.359375 19.234375 8.375 
Q 21.921875 6.390625 25.875 6.390625 
Q 29.828125 6.390625 33.296875 8.421875 
Q 36.765625 10.453125 38.203125 13.9375 
Q 39.65625 17.4375 39.65625 24.078125 
L 39.65625 51.859375 
L 48.4375 51.859375 
L 48.4375 0 
z
" id="ArialMT-117"/>
       <path d="M 6.203125 -19.96875 
L 5.21875 -11.71875 
Q 8.109375 -12.5 10.25 -12.5 
Q 13.1875 -12.5 14.9375 -11.515625 
Q 16.703125 -10.546875 17.828125 -8.796875 
Q 18.65625 -7.46875 20.515625 -2.25 
Q 20.75 -1.515625 21.296875 -0.09375 
L 1.609375 51.859375 
L 11.078125 51.859375 
L 21.875 21.828125 
Q 23.96875 16.109375 25.640625 9.8125 
Q 27.15625 15.875 29.25 21.625 
L 40.328125 51.859375 
L 49.125 51.859375 
L 29.390625 -0.875 
Q 26.21875 -9.421875 24.46875 -12.640625 
Q 22.125 -17 19.09375 -19.015625 
Q 16.0625 -21.046875 11.859375 -21.046875 
Q 9.328125 -21.046875 6.203125 -19.96875 
z
" id="ArialMT-121"/>
      </defs>
      <use xlink:href="#ArialMT-109"/>
      <use x="83.300781" xlink:href="#ArialMT-101"/>
      <use x="138.916016" xlink:href="#ArialMT-97"/>
      <use x="194.53125" xlink:href="#ArialMT-110"/>
      <use x="250.146484" xlink:href="#ArialMT-32"/>
      <use x="277.929688" xlink:href="#ArialMT-109"/>
      <use x="361.230469" xlink:href="#ArialMT-111"/>
      <use x="416.845703" xlink:href="#ArialMT-108"/>
      <use x="439.0625" xlink:href="#ArialMT-101"/>
      <use x="494.677734" xlink:href="#ArialMT-99"/>
      <use x="544.677734" xlink:href="#ArialMT-117"/>
      <use x="600.292969" xlink:href="#ArialMT-108"/>
      <use x="622.509766" xlink:href="#ArialMT-97"/>
      <use x="678.125" xlink:href="#ArialMT-114"/>
      <use x="711.425781" xlink:href="#ArialMT-32"/>
      <use x="739.208984" xlink:href="#ArialMT-99"/>
      <use x="789.208984" xlink:href="#ArialMT-111"/>
      <use x="844.824219" xlink:href="#ArialMT-109"/>
      <use x="928.125" xlink:href="#ArialMT-112"/>
      <use x="983.740234" xlink:href="#ArialMT-108"/>
      <use x="1005.957031" xlink:href="#ArialMT-101"/>
      <use x="1061.572266" xlink:href="#ArialMT-120"/>
      <use x="1111.572266" xlink:href="#ArialMT-105"/>
      <use x="1133.789062" xlink:href="#ArialMT-116"/>
      <use x="1161.572266" xlink:href="#ArialMT-121"/>
     </g>
    </g>
   </g>
   <g id="line2d_11">
    <path clip-path="url(#p594fe57a62)" d="M 39.925 172.440399 
L 41.434981 171.368202 
L 42.944962 170.296005 
L 44.454942 169.223808 
L 45.964923 168.151611 
L 47.474904 167.079414 
L 48.984885 166.007217 
L 50.494865 164.93502 
L 52.004846 163.862823 
L 53.514827 162.790626 
L 55.024808 161.718429 
L 56.534788 160.646232 
L 58.044769 159.574035 
L 59.55475 158.501838 
L 61.064731 157.429641 
L 62.574711 156.357443 
L 64.084692 155.285246 
L 65.594673 154.213049 
L 67.104654 153.140852 
L 68.614634 152.068655 
L 70.124615 150.996458 
L 71.634596 149.924261 
L 73.144577 148.852064 
L 74.654557 147.779867 
L 76.164538 146.70767 
L 77.674519 145.635473 
L 79.1845 144.563276 
L 80.694481 143.491079 
L 82.204461 142.418882 
L 83.714442 141.346685 
L 85.224423 140.274487 
L 86.734404 139.20229 
L 88.244384 138.130093 
L 89.754365 137.057896 
L 91.264346 135.985699 
L 92.774327 134.913502 
L 94.284307 133.841305 
L 95.794288 132.769108 
L 97.304269 131.696911 
L 98.81425 130.624714 
L 100.32423 129.552517 
L 101.834211 128.48032 
L 103.344192 127.408123 
L 104.854173 126.335926 
L 106.364153 125.263729 
L 107.874134 124.191532 
L 109.384115 123.119334 
L 110.894096 122.047137 
L 112.404076 120.97494 
L 113.914057 119.902743 
L 115.424038 118.830546 
L 116.934019 117.758349 
L 118.444 116.686152 
L 119.95398 115.613955 
L 121.463961 114.541758 
L 122.973942 113.469561 
L 124.483923 112.397364 
L 125.993903 111.325167 
L 127.503884 110.25297 
L 129.013865 109.180773 
L 130.523846 108.108576 
L 132.033826 107.036378 
L 133.543807 105.964181 
L 135.053788 104.891984 
L 136.563769 103.819787 
L 138.073749 102.74759 
L 139.58373 101.675393 
L 141.093711 100.603196 
L 142.603692 99.530999 
L 144.113672 98.458802 
L 145.623653 97.386605 
L 147.133634 96.314408 
L 148.643615 95.242211 
L 150.153595 94.170014 
L 151.663576 93.097817 
L 153.173557 92.02562 
L 154.683538 90.953422 
L 156.193519 89.881225 
L 157.703499 88.809028 
L 159.21348 87.736831 
L 160.723461 86.664634 
L 162.233442 85.592437 
L 163.743422 84.52024 
L 165.253403 83.448043 
L 166.763384 82.375846 
L 168.273365 81.303649 
L 169.783345 80.231452 
L 171.293326 79.159255 
L 172.803307 78.087058 
L 174.313288 77.014861 
L 175.823268 75.942664 
L 177.333249 74.870466 
L 178.84323 73.798269 
L 180.353211 72.726072 
L 181.863191 71.653875 
L 183.373172 70.581678 
L 184.883153 69.509481 
L 186.393134 68.437284 
L 187.903114 67.365087 
L 189.413095 66.29289 
" style="fill:none;stroke:#e41a1c;stroke-linecap:square;stroke-width:2.25;"/>
   </g>
   <g id="patch_3">
    <path d="M 39.925 189.2 
L 39.925 10.8 
" style="fill:none;stroke:#000000;stroke-linecap:square;stroke-linejoin:miter;stroke-width:0.8;"/>
   </g>
   <g id="patch_4">
    <path d="M 39.925 189.2 
L 196.8875 189.2 
" style="fill:none;stroke:#000000;stroke-linecap:square;stroke-linejoin:miter;stroke-width:0.8;"/>
   </g>
   <g id="text_13">
    <!-- $r=0.72$  -->
    <g transform="translate(55.62125 44.6375)scale(0.1 -0.1)">
     <defs>
      <path d="M 44.578125 46.390625 
Q 43.21875 47.125 41.453125 47.515625 
Q 39.703125 47.90625 37.703125 47.90625 
Q 30.515625 47.90625 25.140625 42.453125 
Q 19.78125 37.015625 18.015625 27.875 
L 12.5 0 
L 3.515625 0 
L 14.203125 54.6875 
L 23.1875 54.6875 
L 21.484375 46.1875 
Q 25.046875 50.921875 30 53.453125 
Q 34.96875 56 40.578125 56 
Q 42.046875 56 43.453125 55.828125 
Q 44.875 55.671875 46.296875 55.28125 
z
" id="DejaVuSans-Oblique-114"/>
      <path d="M 10.59375 45.40625 
L 73.1875 45.40625 
L 73.1875 37.203125 
L 10.59375 37.203125 
z
M 10.59375 25.484375 
L 73.1875 25.484375 
L 73.1875 17.1875 
L 10.59375 17.1875 
z
" id="DejaVuSans-61"/>
      <path d="M 31.78125 66.40625 
Q 24.171875 66.40625 20.328125 58.90625 
Q 16.5 51.421875 16.5 36.375 
Q 16.5 21.390625 20.328125 13.890625 
Q 24.171875 6.390625 31.78125 6.390625 
Q 39.453125 6.390625 43.28125 13.890625 
Q 47.125 21.390625 47.125 36.375 
Q 47.125 51.421875 43.28125 58.90625 
Q 39.453125 66.40625 31.78125 66.40625 
z
M 31.78125 74.21875 
Q 44.046875 74.21875 50.515625 64.515625 
Q 56.984375 54.828125 56.984375 36.375 
Q 56.984375 17.96875 50.515625 8.265625 
Q 44.046875 -1.421875 31.78125 -1.421875 
Q 19.53125 -1.421875 13.0625 8.265625 
Q 6.59375 17.96875 6.59375 36.375 
Q 6.59375 54.828125 13.0625 64.515625 
Q 19.53125 74.21875 31.78125 74.21875 
z
" id="DejaVuSans-48"/>
      <path d="M 10.6875 12.40625 
L 21 12.40625 
L 21 0 
L 10.6875 0 
z
" id="DejaVuSans-46"/>
      <path d="M 8.203125 72.90625 
L 55.078125 72.90625 
L 55.078125 68.703125 
L 28.609375 0 
L 18.3125 0 
L 43.21875 64.59375 
L 8.203125 64.59375 
z
" id="DejaVuSans-55"/>
      <path d="M 19.1875 8.296875 
L 53.609375 8.296875 
L 53.609375 0 
L 7.328125 0 
L 7.328125 8.296875 
Q 12.9375 14.109375 22.625 23.890625 
Q 32.328125 33.6875 34.8125 36.53125 
Q 39.546875 41.84375 41.421875 45.53125 
Q 43.3125 49.21875 43.3125 52.78125 
Q 43.3125 58.59375 39.234375 62.25 
Q 35.15625 65.921875 28.609375 65.921875 
Q 23.96875 65.921875 18.8125 64.3125 
Q 13.671875 62.703125 7.8125 59.421875 
L 7.8125 69.390625 
Q 13.765625 71.78125 18.9375 73 
Q 24.125 74.21875 28.421875 74.21875 
Q 39.75 74.21875 46.484375 68.546875 
Q 53.21875 62.890625 53.21875 53.421875 
Q 53.21875 48.921875 51.53125 44.890625 
Q 49.859375 40.875 45.40625 35.40625 
Q 44.1875 33.984375 37.640625 27.21875 
Q 31.109375 20.453125 19.1875 8.296875 
z
" id="DejaVuSans-50"/>
     </defs>
     <use transform="translate(0 0.78125)" xlink:href="#DejaVuSans-Oblique-114"/>
     <use transform="translate(60.595703 0.78125)" xlink:href="#DejaVuSans-61"/>
     <use transform="translate(163.867188 0.78125)" xlink:href="#DejaVuSans-48"/>
     <use transform="translate(227.490234 0.78125)" xlink:href="#DejaVuSans-46"/>
     <use transform="translate(251.527344 0.78125)" xlink:href="#DejaVuSans-55"/>
     <use transform="translate(315.150391 0.78125)" xlink:href="#DejaVuSans-50"/>
     <use transform="translate(378.773438 0.78125)" xlink:href="#ArialMT-32"/>
    </g>
    <!-- $P&lt;10^{-16}$ -->
    <g transform="translate(55.62125 55.4)scale(0.1 -0.1)">
     <defs>
      <path d="M 16.890625 72.90625 
L 39.703125 72.90625 
Q 49.65625 72.90625 54.875 68.265625 
Q 60.109375 63.625 60.109375 54.6875 
Q 60.109375 42.671875 52.390625 35.984375 
Q 44.671875 29.296875 30.71875 29.296875 
L 18.3125 29.296875 
L 12.59375 0 
L 2.6875 0 
z
M 25.203125 64.796875 
L 19.921875 37.40625 
L 32.328125 37.40625 
Q 40.71875 37.40625 45.203125 41.703125 
Q 49.703125 46 49.703125 54 
Q 49.703125 59.125 46.65625 61.953125 
Q 43.609375 64.796875 38.09375 64.796875 
z
" id="DejaVuSans-Oblique-80"/>
      <path d="M 73.1875 49.21875 
L 22.796875 31.296875 
L 73.1875 13.484375 
L 73.1875 4.59375 
L 10.59375 27.296875 
L 10.59375 35.40625 
L 73.1875 58.109375 
z
" id="DejaVuSans-60"/>
      <path d="M 12.40625 8.296875 
L 28.515625 8.296875 
L 28.515625 63.921875 
L 10.984375 60.40625 
L 10.984375 69.390625 
L 28.421875 72.90625 
L 38.28125 72.90625 
L 38.28125 8.296875 
L 54.390625 8.296875 
L 54.390625 0 
L 12.40625 0 
z
" id="DejaVuSans-49"/>
      <path d="M 10.59375 35.5 
L 73.1875 35.5 
L 73.1875 27.203125 
L 10.59375 27.203125 
z
" id="DejaVuSans-8722"/>
      <path d="M 33.015625 40.375 
Q 26.375 40.375 22.484375 35.828125 
Q 18.609375 31.296875 18.609375 23.390625 
Q 18.609375 15.53125 22.484375 10.953125 
Q 26.375 6.390625 33.015625 6.390625 
Q 39.65625 6.390625 43.53125 10.953125 
Q 47.40625 15.53125 47.40625 23.390625 
Q 47.40625 31.296875 43.53125 35.828125 
Q 39.65625 40.375 33.015625 40.375 
z
M 52.59375 71.296875 
L 52.59375 62.3125 
Q 48.875 64.0625 45.09375 64.984375 
Q 41.3125 65.921875 37.59375 65.921875 
Q 27.828125 65.921875 22.671875 59.328125 
Q 17.53125 52.734375 16.796875 39.40625 
Q 19.671875 43.65625 24.015625 45.921875 
Q 28.375 48.1875 33.59375 48.1875 
Q 44.578125 48.1875 50.953125 41.515625 
Q 57.328125 34.859375 57.328125 23.390625 
Q 57.328125 12.15625 50.6875 5.359375 
Q 44.046875 -1.421875 33.015625 -1.421875 
Q 20.359375 -1.421875 13.671875 8.265625 
Q 6.984375 17.96875 6.984375 36.375 
Q 6.984375 53.65625 15.1875 63.9375 
Q 23.390625 74.21875 37.203125 74.21875 
Q 40.921875 74.21875 44.703125 73.484375 
Q 48.484375 72.75 52.59375 71.296875 
z
" id="DejaVuSans-54"/>
     </defs>
     <use transform="translate(0 0.765625)" xlink:href="#DejaVuSans-Oblique-80"/>
     <use transform="translate(79.785156 0.765625)" xlink:href="#DejaVuSans-60"/>
     <use transform="translate(183.056641 0.765625)" xlink:href="#DejaVuSans-49"/>
     <use transform="translate(246.679688 0.765625)" xlink:href="#DejaVuSans-48"/>
     <use transform="translate(311.259766 39.046875)scale(0.7)" xlink:href="#DejaVuSans-8722"/>
     <use transform="translate(369.912109 39.046875)scale(0.7)" xlink:href="#DejaVuSans-49"/>
     <use transform="translate(414.448242 39.046875)scale(0.7)" xlink:href="#DejaVuSans-54"/>
    </g>
   </g>
  </g>
 </g>
 <defs>
  <clipPath id="p594fe57a62">
   <rect height="178.4" width="156.9625" x="39.925" y="10.8"/>
  </clipPath>
 </defs>
</svg>
