<?xml version="1.0" encoding="utf-8" standalone="no"?>
<!DOCTYPE svg PUBLIC "-//W3C//DTD SVG 1.1//EN"
  "http://www.w3.org/Graphics/SVG/1.1/DTD/svg11.dtd">
<!-- Created with matplotlib (https://matplotlib.org/) -->
<svg height="216pt" version="1.1" viewBox="0 0 216 216" width="216pt" xmlns="http://www.w3.org/2000/svg" xmlns:xlink="http://www.w3.org/1999/xlink">
 <metadata>
  <rdf:RDF xmlns:cc="http://creativecommons.org/ns#" xmlns:dc="http://purl.org/dc/elements/1.1/" xmlns:rdf="http://www.w3.org/1999/02/22-rdf-syntax-ns#">
   <cc:Work>
    <dc:type rdf:resource="http://purl.org/dc/dcmitype/StillImage"/>
    <dc:date>2023-05-02T13:26:00.139458</dc:date>
    <dc:format>image/svg+xml</dc:format>
    <dc:creator>
     <cc:Agent>
      <dc:title>Matplotlib v3.3.4, https://matplotlib.org/</dc:title>
     </cc:Agent>
    </dc:creator>
   </cc:Work>
  </rdf:RDF>
 </metadata>
 <defs>
  <style type="text/css">*{stroke-linecap:butt;stroke-linejoin:round;}</style>
 </defs>
 <g id="figure_1">
  <g id="patch_1">
   <path d="M 0 216 
L 216 216 
L 216 0 
L 0 0 
z
" style="fill:none;"/>
  </g>
  <g id="axes_1">
   <g id="patch_2">
    <path d="M 37.175 189.2 
L 196.8875 189.2 
L 196.8875 10.8 
L 37.175 10.8 
z
" style="fill:#ffffff;"/>
   </g>
   <g id="PathCollection_1">
    <defs>
     <path d="M 0 3 
C 0.795609 3 1.55874 2.683901 2.12132 2.12132 
C 2.683901 1.55874 3 0.795609 3 0 
C 3 -0.795609 2.683901 -1.55874 2.12132 -2.12132 
C 1.55874 -2.683901 0.795609 -3 0 -3 
C -0.795609 -3 -1.55874 -2.683901 -2.12132 -2.12132 
C -2.683901 -1.55874 -3 -0.795609 -3 0 
C -3 0.795609 -2.683901 1.55874 -2.12132 2.12132 
C -1.55874 2.683901 -0.795609 3 0 3 
z
" id="md8d429d9d8" style="stroke:#000000;stroke-opacity:0.8;"/>
    </defs>
    <g clip-path="url(#pb3c7c9af53)">
     <use style="fill-opacity:0.8;stroke:#000000;stroke-opacity:0.8;" x="38.696071" xlink:href="#md8d429d9d8" y="74.070178"/>
     <use style="fill-opacity:0.8;stroke:#000000;stroke-opacity:0.8;" x="40.217143" xlink:href="#md8d429d9d8" y="71.860706"/>
     <use style="fill-opacity:0.8;stroke:#000000;stroke-opacity:0.8;" x="41.738214" xlink:href="#md8d429d9d8" y="40.283257"/>
     <use style="fill-opacity:0.8;stroke:#000000;stroke-opacity:0.8;" x="43.259286" xlink:href="#md8d429d9d8" y="64.992113"/>
     <use style="fill-opacity:0.8;stroke:#000000;stroke-opacity:0.8;" x="44.780357" xlink:href="#md8d429d9d8" y="27.727497"/>
     <use style="fill-opacity:0.8;stroke:#000000;stroke-opacity:0.8;" x="46.301429" xlink:href="#md8d429d9d8" y="18.909091"/>
     <use style="fill-opacity:0.8;stroke:#000000;stroke-opacity:0.8;" x="47.8225" xlink:href="#md8d429d9d8" y="35.618398"/>
     <use style="fill-opacity:0.8;stroke:#000000;stroke-opacity:0.8;" x="49.343571" xlink:href="#md8d429d9d8" y="57.74583"/>
     <use style="fill-opacity:0.8;stroke:#000000;stroke-opacity:0.8;" x="50.864643" xlink:href="#md8d429d9d8" y="64.771882"/>
     <use style="fill-opacity:0.8;stroke:#000000;stroke-opacity:0.8;" x="52.385714" xlink:href="#md8d429d9d8" y="62.898762"/>
     <use style="fill-opacity:0.8;stroke:#000000;stroke-opacity:0.8;" x="53.906786" xlink:href="#md8d429d9d8" y="53.638536"/>
     <use style="fill-opacity:0.8;stroke:#000000;stroke-opacity:0.8;" x="55.427857" xlink:href="#md8d429d9d8" y="55.784136"/>
     <use style="fill-opacity:0.8;stroke:#000000;stroke-opacity:0.8;" x="56.948929" xlink:href="#md8d429d9d8" y="54.885478"/>
     <use style="fill-opacity:0.8;stroke:#000000;stroke-opacity:0.8;" x="58.47" xlink:href="#md8d429d9d8" y="42.780076"/>
     <use style="fill-opacity:0.8;stroke:#000000;stroke-opacity:0.8;" x="59.991071" xlink:href="#md8d429d9d8" y="45.049776"/>
     <use style="fill-opacity:0.8;stroke:#000000;stroke-opacity:0.8;" x="61.512143" xlink:href="#md8d429d9d8" y="38.777771"/>
     <use style="fill-opacity:0.8;stroke:#000000;stroke-opacity:0.8;" x="63.033214" xlink:href="#md8d429d9d8" y="107.201168"/>
     <use style="fill-opacity:0.8;stroke:#000000;stroke-opacity:0.8;" x="64.554286" xlink:href="#md8d429d9d8" y="110.9562"/>
     <use style="fill-opacity:0.8;stroke:#000000;stroke-opacity:0.8;" x="66.075357" xlink:href="#md8d429d9d8" y="105.652133"/>
     <use style="fill-opacity:0.8;stroke:#000000;stroke-opacity:0.8;" x="67.596429" xlink:href="#md8d429d9d8" y="89.939619"/>
     <use style="fill-opacity:0.8;stroke:#000000;stroke-opacity:0.8;" x="69.1175" xlink:href="#md8d429d9d8" y="76.324816"/>
     <use style="fill-opacity:0.8;stroke:#000000;stroke-opacity:0.8;" x="70.638571" xlink:href="#md8d429d9d8" y="101.259343"/>
     <use style="fill-opacity:0.8;stroke:#000000;stroke-opacity:0.8;" x="72.159643" xlink:href="#md8d429d9d8" y="89.657863"/>
     <use style="fill-opacity:0.8;stroke:#000000;stroke-opacity:0.8;" x="73.680714" xlink:href="#md8d429d9d8" y="74.438157"/>
     <use style="fill-opacity:0.8;stroke:#000000;stroke-opacity:0.8;" x="75.201786" xlink:href="#md8d429d9d8" y="71.588274"/>
     <use style="fill-opacity:0.8;stroke:#000000;stroke-opacity:0.8;" x="76.722857" xlink:href="#md8d429d9d8" y="78.783495"/>
     <use style="fill-opacity:0.8;stroke:#000000;stroke-opacity:0.8;" x="78.243929" xlink:href="#md8d429d9d8" y="84.369204"/>
     <use style="fill-opacity:0.8;stroke:#000000;stroke-opacity:0.8;" x="79.765" xlink:href="#md8d429d9d8" y="88.702633"/>
     <use style="fill-opacity:0.8;stroke:#000000;stroke-opacity:0.8;" x="81.286071" xlink:href="#md8d429d9d8" y="82.687508"/>
     <use style="fill-opacity:0.8;stroke:#000000;stroke-opacity:0.8;" x="82.807143" xlink:href="#md8d429d9d8" y="76.992284"/>
     <use style="fill-opacity:0.8;stroke:#000000;stroke-opacity:0.8;" x="84.328214" xlink:href="#md8d429d9d8" y="49.302717"/>
     <use style="fill-opacity:0.8;stroke:#000000;stroke-opacity:0.8;" x="85.849286" xlink:href="#md8d429d9d8" y="48.576589"/>
     <use style="fill-opacity:0.8;stroke:#000000;stroke-opacity:0.8;" x="87.370357" xlink:href="#md8d429d9d8" y="70.258585"/>
     <use style="fill-opacity:0.8;stroke:#000000;stroke-opacity:0.8;" x="88.891429" xlink:href="#md8d429d9d8" y="70.917969"/>
     <use style="fill-opacity:0.8;stroke:#000000;stroke-opacity:0.8;" x="90.4125" xlink:href="#md8d429d9d8" y="69.66931"/>
     <use style="fill-opacity:0.8;stroke:#000000;stroke-opacity:0.8;" x="91.933571" xlink:href="#md8d429d9d8" y="68.186654"/>
     <use style="fill-opacity:0.8;stroke:#000000;stroke-opacity:0.8;" x="93.454643" xlink:href="#md8d429d9d8" y="42.799208"/>
     <use style="fill-opacity:0.8;stroke:#000000;stroke-opacity:0.8;" x="94.975714" xlink:href="#md8d429d9d8" y="67.61273"/>
     <use style="fill-opacity:0.8;stroke:#000000;stroke-opacity:0.8;" x="96.496786" xlink:href="#md8d429d9d8" y="86.111278"/>
     <use style="fill-opacity:0.8;stroke:#000000;stroke-opacity:0.8;" x="98.017857" xlink:href="#md8d429d9d8" y="89.59042"/>
     <use style="fill-opacity:0.8;stroke:#000000;stroke-opacity:0.8;" x="99.538929" xlink:href="#md8d429d9d8" y="94.02321"/>
     <use style="fill-opacity:0.8;stroke:#000000;stroke-opacity:0.8;" x="101.06" xlink:href="#md8d429d9d8" y="90.081484"/>
     <use style="fill-opacity:0.8;stroke:#000000;stroke-opacity:0.8;" x="102.581071" xlink:href="#md8d429d9d8" y="99.076255"/>
     <use style="fill-opacity:0.8;stroke:#000000;stroke-opacity:0.8;" x="104.102143" xlink:href="#md8d429d9d8" y="96.795145"/>
     <use style="fill-opacity:0.8;stroke:#000000;stroke-opacity:0.8;" x="105.623214" xlink:href="#md8d429d9d8" y="66.926445"/>
     <use style="fill-opacity:0.8;stroke:#000000;stroke-opacity:0.8;" x="107.144286" xlink:href="#md8d429d9d8" y="64.197415"/>
     <use style="fill-opacity:0.8;stroke:#000000;stroke-opacity:0.8;" x="108.665357" xlink:href="#md8d429d9d8" y="87.091089"/>
     <use style="fill-opacity:0.8;stroke:#000000;stroke-opacity:0.8;" x="110.186429" xlink:href="#md8d429d9d8" y="99.831237"/>
     <use style="fill-opacity:0.8;stroke:#000000;stroke-opacity:0.8;" x="111.7075" xlink:href="#md8d429d9d8" y="118.103438"/>
     <use style="fill-opacity:0.8;stroke:#000000;stroke-opacity:0.8;" x="113.228571" xlink:href="#md8d429d9d8" y="113.407111"/>
     <use style="fill-opacity:0.8;stroke:#000000;stroke-opacity:0.8;" x="114.749643" xlink:href="#md8d429d9d8" y="99.228552"/>
     <use style="fill-opacity:0.8;stroke:#000000;stroke-opacity:0.8;" x="116.270714" xlink:href="#md8d429d9d8" y="92.15942"/>
     <use style="fill-opacity:0.8;stroke:#000000;stroke-opacity:0.8;" x="117.791786" xlink:href="#md8d429d9d8" y="97.404467"/>
     <use style="fill-opacity:0.8;stroke:#000000;stroke-opacity:0.8;" x="119.312857" xlink:href="#md8d429d9d8" y="107.050004"/>
     <use style="fill-opacity:0.8;stroke:#000000;stroke-opacity:0.8;" x="120.833929" xlink:href="#md8d429d9d8" y="93.043591"/>
     <use style="fill-opacity:0.8;stroke:#000000;stroke-opacity:0.8;" x="122.355" xlink:href="#md8d429d9d8" y="75.633319"/>
     <use style="fill-opacity:0.8;stroke:#000000;stroke-opacity:0.8;" x="123.876071" xlink:href="#md8d429d9d8" y="93.740419"/>
     <use style="fill-opacity:0.8;stroke:#000000;stroke-opacity:0.8;" x="125.397143" xlink:href="#md8d429d9d8" y="94.579481"/>
     <use style="fill-opacity:0.8;stroke:#000000;stroke-opacity:0.8;" x="126.918214" xlink:href="#md8d429d9d8" y="95.260021"/>
     <use style="fill-opacity:0.8;stroke:#000000;stroke-opacity:0.8;" x="128.439286" xlink:href="#md8d429d9d8" y="89.538489"/>
     <use style="fill-opacity:0.8;stroke:#000000;stroke-opacity:0.8;" x="129.960357" xlink:href="#md8d429d9d8" y="104.693078"/>
     <use style="fill-opacity:0.8;stroke:#000000;stroke-opacity:0.8;" x="131.481429" xlink:href="#md8d429d9d8" y="83.951756"/>
     <use style="fill-opacity:0.8;stroke:#000000;stroke-opacity:0.8;" x="133.0025" xlink:href="#md8d429d9d8" y="105.475821"/>
     <use style="fill-opacity:0.8;stroke:#000000;stroke-opacity:0.8;" x="134.523571" xlink:href="#md8d429d9d8" y="103.950278"/>
     <use style="fill-opacity:0.8;stroke:#000000;stroke-opacity:0.8;" x="136.044643" xlink:href="#md8d429d9d8" y="86.504987"/>
     <use style="fill-opacity:0.8;stroke:#000000;stroke-opacity:0.8;" x="137.565714" xlink:href="#md8d429d9d8" y="76.626795"/>
     <use style="fill-opacity:0.8;stroke:#000000;stroke-opacity:0.8;" x="139.086786" xlink:href="#md8d429d9d8" y="88.107903"/>
     <use style="fill-opacity:0.8;stroke:#000000;stroke-opacity:0.8;" x="140.607857" xlink:href="#md8d429d9d8" y="79.166426"/>
     <use style="fill-opacity:0.8;stroke:#000000;stroke-opacity:0.8;" x="142.128929" xlink:href="#md8d429d9d8" y="89.708797"/>
     <use style="fill-opacity:0.8;stroke:#000000;stroke-opacity:0.8;" x="143.65" xlink:href="#md8d429d9d8" y="93.056262"/>
     <use style="fill-opacity:0.8;stroke:#000000;stroke-opacity:0.8;" x="145.171071" xlink:href="#md8d429d9d8" y="76.122532"/>
     <use style="fill-opacity:0.8;stroke:#000000;stroke-opacity:0.8;" x="146.692143" xlink:href="#md8d429d9d8" y="84.865912"/>
     <use style="fill-opacity:0.8;stroke:#000000;stroke-opacity:0.8;" x="148.213214" xlink:href="#md8d429d9d8" y="115.568071"/>
     <use style="fill-opacity:0.8;stroke:#000000;stroke-opacity:0.8;" x="149.734286" xlink:href="#md8d429d9d8" y="104.769821"/>
     <use style="fill-opacity:0.8;stroke:#000000;stroke-opacity:0.8;" x="151.255357" xlink:href="#md8d429d9d8" y="102.140203"/>
     <use style="fill-opacity:0.8;stroke:#000000;stroke-opacity:0.8;" x="152.776429" xlink:href="#md8d429d9d8" y="71.232149"/>
     <use style="fill-opacity:0.8;stroke:#000000;stroke-opacity:0.8;" x="154.2975" xlink:href="#md8d429d9d8" y="53.605578"/>
     <use style="fill-opacity:0.8;stroke:#000000;stroke-opacity:0.8;" x="155.818571" xlink:href="#md8d429d9d8" y="69.539104"/>
     <use style="fill-opacity:0.8;stroke:#000000;stroke-opacity:0.8;" x="157.339643" xlink:href="#md8d429d9d8" y="105.021835"/>
     <use style="fill-opacity:0.8;stroke:#000000;stroke-opacity:0.8;" x="158.860714" xlink:href="#md8d429d9d8" y="93.8125"/>
     <use style="fill-opacity:0.8;stroke:#000000;stroke-opacity:0.8;" x="160.381786" xlink:href="#md8d429d9d8" y="103.750643"/>
     <use style="fill-opacity:0.8;stroke:#000000;stroke-opacity:0.8;" x="161.902857" xlink:href="#md8d429d9d8" y="109.911454"/>
     <use style="fill-opacity:0.8;stroke:#000000;stroke-opacity:0.8;" x="163.423929" xlink:href="#md8d429d9d8" y="110.980091"/>
     <use style="fill-opacity:0.8;stroke:#000000;stroke-opacity:0.8;" x="164.945" xlink:href="#md8d429d9d8" y="143.809738"/>
     <use style="fill-opacity:0.8;stroke:#000000;stroke-opacity:0.8;" x="166.466071" xlink:href="#md8d429d9d8" y="127.191337"/>
     <use style="fill-opacity:0.8;stroke:#000000;stroke-opacity:0.8;" x="167.987143" xlink:href="#md8d429d9d8" y="83.055225"/>
     <use style="fill-opacity:0.8;stroke:#000000;stroke-opacity:0.8;" x="169.508214" xlink:href="#md8d429d9d8" y="70.509348"/>
     <use style="fill-opacity:0.8;stroke:#000000;stroke-opacity:0.8;" x="171.029286" xlink:href="#md8d429d9d8" y="106.440273"/>
     <use style="fill-opacity:0.8;stroke:#000000;stroke-opacity:0.8;" x="172.550357" xlink:href="#md8d429d9d8" y="112.678587"/>
     <use style="fill-opacity:0.8;stroke:#000000;stroke-opacity:0.8;" x="174.071429" xlink:href="#md8d429d9d8" y="118.916901"/>
     <use style="fill-opacity:0.8;stroke:#000000;stroke-opacity:0.8;" x="175.5925" xlink:href="#md8d429d9d8" y="150.003905"/>
     <use style="fill-opacity:0.8;stroke:#000000;stroke-opacity:0.8;" x="177.113571" xlink:href="#md8d429d9d8" y="143.765591"/>
     <use style="fill-opacity:0.8;stroke:#000000;stroke-opacity:0.8;" x="178.634643" xlink:href="#md8d429d9d8" y="112.678587"/>
     <use style="fill-opacity:0.8;stroke:#000000;stroke-opacity:0.8;" x="180.155714" xlink:href="#md8d429d9d8" y="118.916901"/>
     <use style="fill-opacity:0.8;stroke:#000000;stroke-opacity:0.8;" x="181.676786" xlink:href="#md8d429d9d8" y="150.003905"/>
     <use style="fill-opacity:0.8;stroke:#000000;stroke-opacity:0.8;" x="183.197857" xlink:href="#md8d429d9d8" y="143.765591"/>
     <use style="fill-opacity:0.8;stroke:#000000;stroke-opacity:0.8;" x="184.718929" xlink:href="#md8d429d9d8" y="112.678587"/>
     <use style="fill-opacity:0.8;stroke:#000000;stroke-opacity:0.8;" x="186.24" xlink:href="#md8d429d9d8" y="118.916901"/>
     <use style="fill-opacity:0.8;stroke:#000000;stroke-opacity:0.8;" x="187.761071" xlink:href="#md8d429d9d8" y="150.003905"/>
     <use style="fill-opacity:0.8;stroke:#000000;stroke-opacity:0.8;" x="189.282143" xlink:href="#md8d429d9d8" y="181.090909"/>
    </g>
   </g>
   <g id="PolyCollection_1">
    <path clip-path="url(#pb3c7c9af53)" d="M 38.696071 45.395157 
L 38.696071 61.866833 
L 40.217143 62.431842 
L 41.738214 62.954417 
L 43.259286 63.491927 
L 44.780357 64.029437 
L 46.301429 64.601083 
L 47.8225 65.197805 
L 49.343571 65.794527 
L 50.864643 66.387191 
L 52.385714 66.896619 
L 53.906786 67.507246 
L 55.427857 68.127469 
L 56.948929 68.751309 
L 58.47 69.374336 
L 59.991071 69.955123 
L 61.512143 70.500492 
L 63.033214 71.020378 
L 64.554286 71.598625 
L 66.075357 72.215117 
L 67.596429 72.83161 
L 69.1175 73.446515 
L 70.638571 74.030783 
L 72.159643 74.563015 
L 73.680714 75.094856 
L 75.201786 75.689625 
L 76.722857 76.253537 
L 78.243929 76.819205 
L 79.765 77.449614 
L 81.286071 78.081448 
L 82.807143 78.625433 
L 84.328214 79.157763 
L 85.849286 79.778795 
L 87.370357 80.430806 
L 88.891429 81.058014 
L 90.4125 81.766735 
L 91.933571 82.433594 
L 93.454643 83.029548 
L 94.975714 83.68856 
L 96.496786 84.319606 
L 98.017857 84.974385 
L 99.538929 85.633598 
L 101.06 86.27342 
L 102.581071 86.929894 
L 104.102143 87.561917 
L 105.623214 88.195098 
L 107.144286 88.90328 
L 108.665357 89.626308 
L 110.186429 90.305578 
L 111.7075 91.046485 
L 113.228571 91.756099 
L 114.749643 92.437253 
L 116.270714 93.085334 
L 117.791786 93.790531 
L 119.312857 94.597722 
L 120.833929 95.331409 
L 122.355 96.073627 
L 123.876071 96.904118 
L 125.397143 97.687552 
L 126.918214 98.446842 
L 128.439286 99.194008 
L 129.960357 99.921389 
L 131.481429 100.761025 
L 133.0025 101.534475 
L 134.523571 102.29116 
L 136.044643 103.120097 
L 137.565714 103.953536 
L 139.086786 104.750065 
L 140.607857 105.503933 
L 142.128929 106.256315 
L 143.65 107.008698 
L 145.171071 107.784591 
L 146.692143 108.576484 
L 148.213214 109.447716 
L 149.734286 110.264953 
L 151.255357 111.078116 
L 152.776429 111.864757 
L 154.2975 112.604299 
L 155.818571 113.455636 
L 157.339643 114.337092 
L 158.860714 115.154029 
L 160.381786 115.970966 
L 161.902857 116.801323 
L 163.423929 117.668798 
L 164.945 118.538919 
L 166.466071 119.393503 
L 167.987143 120.159824 
L 169.508214 120.924847 
L 171.029286 121.698959 
L 172.550357 122.612028 
L 174.071429 123.4796 
L 175.5925 124.28226 
L 177.113571 125.142712 
L 178.634643 125.951778 
L 180.155714 126.760843 
L 181.676786 127.569908 
L 183.197857 128.423428 
L 184.718929 129.288738 
L 186.24 130.154048 
L 187.761071 131.020215 
L 189.282143 131.84411 
L 189.282143 113.59061 
L 189.282143 113.59061 
L 187.761071 112.988976 
L 186.24 112.511494 
L 184.718929 112.009454 
L 183.197857 111.52449 
L 181.676786 110.961861 
L 180.155714 110.38404 
L 178.634643 109.765176 
L 177.113571 109.15587 
L 175.5925 108.632116 
L 174.071429 108.053084 
L 172.550357 107.4582 
L 171.029286 106.848096 
L 169.508214 106.302859 
L 167.987143 105.702271 
L 166.466071 105.200269 
L 164.945 104.717511 
L 163.423929 104.065816 
L 161.902857 103.409391 
L 160.381786 102.775498 
L 158.860714 102.217184 
L 157.339643 101.662212 
L 155.818571 101.107239 
L 154.2975 100.558189 
L 152.776429 99.994372 
L 151.255357 99.422186 
L 149.734286 98.763354 
L 148.213214 98.125134 
L 146.692143 97.417022 
L 145.171071 96.741792 
L 143.65 96.077849 
L 142.128929 95.50974 
L 140.607857 94.971571 
L 139.086786 94.373737 
L 137.565714 93.804464 
L 136.044643 93.255522 
L 134.523571 92.712135 
L 133.0025 92.17698 
L 131.481429 91.643245 
L 129.960357 91.045543 
L 128.439286 90.38862 
L 126.918214 89.702161 
L 125.397143 89.084485 
L 123.876071 88.464357 
L 122.355 87.774623 
L 120.833929 87.19653 
L 119.312857 86.495716 
L 117.791786 85.850201 
L 116.270714 85.155386 
L 114.749643 84.538108 
L 113.228571 83.812857 
L 111.7075 83.226109 
L 110.186429 82.574134 
L 108.665357 81.802751 
L 107.144286 81.115072 
L 105.623214 80.482585 
L 104.102143 79.831037 
L 102.581071 79.082546 
L 101.06 78.361872 
L 99.538929 77.586211 
L 98.017857 76.802353 
L 96.496786 76.006515 
L 94.975714 75.264072 
L 93.454643 74.542974 
L 91.933571 73.757858 
L 90.4125 72.980227 
L 88.891429 72.177285 
L 87.370357 71.371465 
L 85.849286 70.534127 
L 84.328214 69.803853 
L 82.807143 69.017388 
L 81.286071 68.228493 
L 79.765 67.467067 
L 78.243929 66.647598 
L 76.722857 65.858411 
L 75.201786 65.117197 
L 73.680714 64.309235 
L 72.159643 63.488546 
L 70.638571 62.697738 
L 69.1175 61.871959 
L 67.596429 61.084278 
L 66.075357 60.255103 
L 64.554286 59.352514 
L 63.033214 58.51298 
L 61.512143 57.706077 
L 59.991071 56.910778 
L 58.47 56.114715 
L 56.948929 55.316411 
L 55.427857 54.519911 
L 53.906786 53.636448 
L 52.385714 52.764199 
L 50.864643 51.976173 
L 49.343571 51.18874 
L 47.8225 50.401306 
L 46.301429 49.600463 
L 44.780357 48.760212 
L 43.259286 47.91996 
L 41.738214 47.078836 
L 40.217143 46.236996 
L 38.696071 45.395157 
z
" style="fill:#e41a1c;fill-opacity:0.15;"/>
   </g>
   <g id="matplotlib.axis_1">
    <g id="xtick_1">
     <g id="line2d_1">
      <defs>
       <path d="M 0 0 
L 0 3.5 
" id="me6ef1e256d" style="stroke:#000000;stroke-width:0.8;"/>
      </defs>
      <g>
       <use style="stroke:#000000;stroke-width:0.8;" x="37.175" xlink:href="#me6ef1e256d" y="189.2"/>
      </g>
     </g>
     <g id="text_1">
      <!-- 0 -->
      <g transform="translate(34.394531 203.357812)scale(0.1 -0.1)">
       <defs>
        <path d="M 4.15625 35.296875 
Q 4.15625 48 6.765625 55.734375 
Q 9.375 63.484375 14.515625 67.671875 
Q 19.671875 71.875 27.484375 71.875 
Q 33.25 71.875 37.59375 69.546875 
Q 41.9375 67.234375 44.765625 62.859375 
Q 47.609375 58.5 49.21875 52.21875 
Q 50.828125 45.953125 50.828125 35.296875 
Q 50.828125 22.703125 48.234375 14.96875 
Q 45.65625 7.234375 40.5 3 
Q 35.359375 -1.21875 27.484375 -1.21875 
Q 17.140625 -1.21875 11.234375 6.203125 
Q 4.15625 15.140625 4.15625 35.296875 
z
M 13.1875 35.296875 
Q 13.1875 17.671875 17.3125 11.828125 
Q 21.4375 6 27.484375 6 
Q 33.546875 6 37.671875 11.859375 
Q 41.796875 17.71875 41.796875 35.296875 
Q 41.796875 52.984375 37.671875 58.78125 
Q 33.546875 64.59375 27.390625 64.59375 
Q 21.34375 64.59375 17.71875 59.46875 
Q 13.1875 52.9375 13.1875 35.296875 
z
" id="ArialMT-48"/>
       </defs>
       <use xlink:href="#ArialMT-48"/>
      </g>
     </g>
    </g>
    <g id="xtick_2">
     <g id="line2d_2">
      <g>
       <use style="stroke:#000000;stroke-width:0.8;" x="75.201786" xlink:href="#me6ef1e256d" y="189.2"/>
      </g>
     </g>
     <g id="text_2">
      <!-- 25 -->
      <g transform="translate(69.640848 203.357812)scale(0.1 -0.1)">
       <defs>
        <path d="M 50.34375 8.453125 
L 50.34375 0 
L 3.03125 0 
Q 2.9375 3.171875 4.046875 6.109375 
Q 5.859375 10.9375 9.828125 15.625 
Q 13.8125 20.3125 21.34375 26.46875 
Q 33.015625 36.03125 37.109375 41.625 
Q 41.21875 47.21875 41.21875 52.203125 
Q 41.21875 57.421875 37.46875 61 
Q 33.734375 64.59375 27.734375 64.59375 
Q 21.390625 64.59375 17.578125 60.78125 
Q 13.765625 56.984375 13.71875 50.25 
L 4.6875 51.171875 
Q 5.609375 61.28125 11.65625 66.578125 
Q 17.71875 71.875 27.9375 71.875 
Q 38.234375 71.875 44.234375 66.15625 
Q 50.25 60.453125 50.25 52 
Q 50.25 47.703125 48.484375 43.546875 
Q 46.734375 39.40625 42.65625 34.8125 
Q 38.578125 30.21875 29.109375 22.21875 
Q 21.1875 15.578125 18.9375 13.203125 
Q 16.703125 10.84375 15.234375 8.453125 
z
" id="ArialMT-50"/>
        <path d="M 4.15625 18.75 
L 13.375 19.53125 
Q 14.40625 12.796875 18.140625 9.390625 
Q 21.875 6 27.15625 6 
Q 33.5 6 37.890625 10.78125 
Q 42.28125 15.578125 42.28125 23.484375 
Q 42.28125 31 38.0625 35.34375 
Q 33.84375 39.703125 27 39.703125 
Q 22.75 39.703125 19.328125 37.765625 
Q 15.921875 35.84375 13.96875 32.765625 
L 5.71875 33.84375 
L 12.640625 70.609375 
L 48.25 70.609375 
L 48.25 62.203125 
L 19.671875 62.203125 
L 15.828125 42.96875 
Q 22.265625 47.46875 29.34375 47.46875 
Q 38.71875 47.46875 45.15625 40.96875 
Q 51.609375 34.46875 51.609375 24.265625 
Q 51.609375 14.546875 45.953125 7.46875 
Q 39.0625 -1.21875 27.15625 -1.21875 
Q 17.390625 -1.21875 11.203125 4.25 
Q 5.03125 9.71875 4.15625 18.75 
z
" id="ArialMT-53"/>
       </defs>
       <use xlink:href="#ArialMT-50"/>
       <use x="55.615234" xlink:href="#ArialMT-53"/>
      </g>
     </g>
    </g>
    <g id="xtick_3">
     <g id="line2d_3">
      <g>
       <use style="stroke:#000000;stroke-width:0.8;" x="113.228571" xlink:href="#me6ef1e256d" y="189.2"/>
      </g>
     </g>
     <g id="text_3">
      <!-- 50 -->
      <g transform="translate(107.667634 203.357812)scale(0.1 -0.1)">
       <use xlink:href="#ArialMT-53"/>
       <use x="55.615234" xlink:href="#ArialMT-48"/>
      </g>
     </g>
    </g>
    <g id="xtick_4">
     <g id="line2d_4">
      <g>
       <use style="stroke:#000000;stroke-width:0.8;" x="151.255357" xlink:href="#me6ef1e256d" y="189.2"/>
      </g>
     </g>
     <g id="text_4">
      <!-- 75 -->
      <g transform="translate(145.69442 203.357812)scale(0.1 -0.1)">
       <defs>
        <path d="M 4.734375 62.203125 
L 4.734375 70.65625 
L 51.078125 70.65625 
L 51.078125 63.8125 
Q 44.234375 56.546875 37.515625 44.484375 
Q 30.8125 32.421875 27.15625 19.671875 
Q 24.515625 10.6875 23.78125 0 
L 14.75 0 
Q 14.890625 8.453125 18.0625 20.40625 
Q 21.234375 32.375 27.171875 43.484375 
Q 33.109375 54.59375 39.796875 62.203125 
z
" id="ArialMT-55"/>
       </defs>
       <use xlink:href="#ArialMT-55"/>
       <use x="55.615234" xlink:href="#ArialMT-53"/>
      </g>
     </g>
    </g>
    <g id="xtick_5">
     <g id="line2d_5">
      <g>
       <use style="stroke:#000000;stroke-width:0.8;" x="189.282143" xlink:href="#me6ef1e256d" y="189.2"/>
      </g>
     </g>
     <g id="text_5">
      <!-- 100 -->
      <g transform="translate(180.940737 203.357812)scale(0.1 -0.1)">
       <defs>
        <path d="M 37.25 0 
L 28.46875 0 
L 28.46875 56 
Q 25.296875 52.984375 20.140625 49.953125 
Q 14.984375 46.921875 10.890625 45.40625 
L 10.890625 53.90625 
Q 18.265625 57.375 23.78125 62.296875 
Q 29.296875 67.234375 31.59375 71.875 
L 37.25 71.875 
z
" id="ArialMT-49"/>
       </defs>
       <use xlink:href="#ArialMT-49"/>
       <use x="55.615234" xlink:href="#ArialMT-48"/>
       <use x="111.230469" xlink:href="#ArialMT-48"/>
      </g>
     </g>
    </g>
    <g id="text_6">
     <!-- expansion iteration -->
     <g transform="translate(75.061719 216.503125)scale(0.1 -0.1)">
      <defs>
       <path d="M 42.09375 16.703125 
L 51.171875 15.578125 
Q 49.03125 7.625 43.21875 3.21875 
Q 37.40625 -1.171875 28.375 -1.171875 
Q 17 -1.171875 10.328125 5.828125 
Q 3.65625 12.84375 3.65625 25.484375 
Q 3.65625 38.578125 10.390625 45.796875 
Q 17.140625 53.03125 27.875 53.03125 
Q 38.28125 53.03125 44.875 45.953125 
Q 51.46875 38.875 51.46875 26.03125 
Q 51.46875 25.25 51.421875 23.6875 
L 12.75 23.6875 
Q 13.234375 15.140625 17.578125 10.59375 
Q 21.921875 6.0625 28.421875 6.0625 
Q 33.25 6.0625 36.671875 8.59375 
Q 40.09375 11.140625 42.09375 16.703125 
z
M 13.234375 30.90625 
L 42.1875 30.90625 
Q 41.609375 37.453125 38.875 40.71875 
Q 34.671875 45.796875 27.984375 45.796875 
Q 21.921875 45.796875 17.796875 41.75 
Q 13.671875 37.703125 13.234375 30.90625 
z
" id="ArialMT-101"/>
       <path d="M 0.734375 0 
L 19.671875 26.953125 
L 2.15625 51.859375 
L 13.140625 51.859375 
L 21.09375 39.703125 
Q 23.34375 36.234375 24.703125 33.890625 
Q 26.859375 37.109375 28.65625 39.59375 
L 37.40625 51.859375 
L 47.90625 51.859375 
L 29.984375 27.4375 
L 49.265625 0 
L 38.484375 0 
L 27.828125 16.109375 
L 25 20.453125 
L 11.375 0 
z
" id="ArialMT-120"/>
       <path d="M 6.59375 -19.875 
L 6.59375 51.859375 
L 14.59375 51.859375 
L 14.59375 45.125 
Q 17.4375 49.078125 21 51.046875 
Q 24.5625 53.03125 29.640625 53.03125 
Q 36.28125 53.03125 41.359375 49.609375 
Q 46.4375 46.1875 49.015625 39.953125 
Q 51.609375 33.734375 51.609375 26.3125 
Q 51.609375 18.359375 48.75 11.984375 
Q 45.90625 5.609375 40.453125 2.21875 
Q 35.015625 -1.171875 29 -1.171875 
Q 24.609375 -1.171875 21.109375 0.6875 
Q 17.625 2.546875 15.375 5.375 
L 15.375 -19.875 
z
M 14.546875 25.640625 
Q 14.546875 15.625 18.59375 10.84375 
Q 22.65625 6.0625 28.421875 6.0625 
Q 34.28125 6.0625 38.453125 11.015625 
Q 42.625 15.96875 42.625 26.375 
Q 42.625 36.28125 38.546875 41.203125 
Q 34.46875 46.140625 28.8125 46.140625 
Q 23.1875 46.140625 18.859375 40.890625 
Q 14.546875 35.640625 14.546875 25.640625 
z
" id="ArialMT-112"/>
       <path d="M 40.4375 6.390625 
Q 35.546875 2.25 31.03125 0.53125 
Q 26.515625 -1.171875 21.34375 -1.171875 
Q 12.796875 -1.171875 8.203125 3 
Q 3.609375 7.171875 3.609375 13.671875 
Q 3.609375 17.484375 5.34375 20.625 
Q 7.078125 23.78125 9.890625 25.6875 
Q 12.703125 27.59375 16.21875 28.5625 
Q 18.796875 29.25 24.03125 29.890625 
Q 34.671875 31.15625 39.703125 32.90625 
Q 39.75 34.71875 39.75 35.203125 
Q 39.75 40.578125 37.25 42.78125 
Q 33.890625 45.75 27.25 45.75 
Q 21.046875 45.75 18.09375 43.578125 
Q 15.140625 41.40625 13.71875 35.890625 
L 5.125 37.0625 
Q 6.296875 42.578125 8.984375 45.96875 
Q 11.671875 49.359375 16.75 51.1875 
Q 21.828125 53.03125 28.515625 53.03125 
Q 35.15625 53.03125 39.296875 51.46875 
Q 43.453125 49.90625 45.40625 47.53125 
Q 47.359375 45.171875 48.140625 41.546875 
Q 48.578125 39.3125 48.578125 33.453125 
L 48.578125 21.734375 
Q 48.578125 9.46875 49.140625 6.21875 
Q 49.703125 2.984375 51.375 0 
L 42.1875 0 
Q 40.828125 2.734375 40.4375 6.390625 
z
M 39.703125 26.03125 
Q 34.90625 24.078125 25.34375 22.703125 
Q 19.921875 21.921875 17.671875 20.9375 
Q 15.4375 19.96875 14.203125 18.09375 
Q 12.984375 16.21875 12.984375 13.921875 
Q 12.984375 10.40625 15.640625 8.0625 
Q 18.3125 5.71875 23.4375 5.71875 
Q 28.515625 5.71875 32.46875 7.9375 
Q 36.421875 10.15625 38.28125 14.015625 
Q 39.703125 17 39.703125 22.796875 
z
" id="ArialMT-97"/>
       <path d="M 6.59375 0 
L 6.59375 51.859375 
L 14.5 51.859375 
L 14.5 44.484375 
Q 20.21875 53.03125 31 53.03125 
Q 35.6875 53.03125 39.625 51.34375 
Q 43.5625 49.65625 45.515625 46.921875 
Q 47.46875 44.1875 48.25 40.4375 
Q 48.734375 37.984375 48.734375 31.890625 
L 48.734375 0 
L 39.9375 0 
L 39.9375 31.546875 
Q 39.9375 36.921875 38.90625 39.578125 
Q 37.890625 42.234375 35.28125 43.8125 
Q 32.671875 45.40625 29.15625 45.40625 
Q 23.53125 45.40625 19.453125 41.84375 
Q 15.375 38.28125 15.375 28.328125 
L 15.375 0 
z
" id="ArialMT-110"/>
       <path d="M 3.078125 15.484375 
L 11.765625 16.84375 
Q 12.5 11.625 15.84375 8.84375 
Q 19.1875 6.0625 25.203125 6.0625 
Q 31.25 6.0625 34.171875 8.515625 
Q 37.109375 10.984375 37.109375 14.3125 
Q 37.109375 17.28125 34.515625 19 
Q 32.71875 20.171875 25.53125 21.96875 
Q 15.875 24.421875 12.140625 26.203125 
Q 8.40625 27.984375 6.46875 31.125 
Q 4.546875 34.28125 4.546875 38.09375 
Q 4.546875 41.546875 6.125 44.5 
Q 7.71875 47.46875 10.453125 49.421875 
Q 12.5 50.921875 16.03125 51.96875 
Q 19.578125 53.03125 23.640625 53.03125 
Q 29.734375 53.03125 34.34375 51.265625 
Q 38.96875 49.515625 41.15625 46.5 
Q 43.359375 43.5 44.1875 38.484375 
L 35.59375 37.3125 
Q 35.015625 41.3125 32.203125 43.546875 
Q 29.390625 45.796875 24.265625 45.796875 
Q 18.21875 45.796875 15.625 43.796875 
Q 13.03125 41.796875 13.03125 39.109375 
Q 13.03125 37.40625 14.109375 36.03125 
Q 15.1875 34.625 17.484375 33.6875 
Q 18.796875 33.203125 25.25 31.453125 
Q 34.578125 28.953125 38.25 27.359375 
Q 41.9375 25.78125 44.03125 22.75 
Q 46.140625 19.734375 46.140625 15.234375 
Q 46.140625 10.84375 43.578125 6.953125 
Q 41.015625 3.078125 36.171875 0.953125 
Q 31.34375 -1.171875 25.25 -1.171875 
Q 15.140625 -1.171875 9.84375 3.03125 
Q 4.546875 7.234375 3.078125 15.484375 
z
" id="ArialMT-115"/>
       <path d="M 6.640625 61.46875 
L 6.640625 71.578125 
L 15.4375 71.578125 
L 15.4375 61.46875 
z
M 6.640625 0 
L 6.640625 51.859375 
L 15.4375 51.859375 
L 15.4375 0 
z
" id="ArialMT-105"/>
       <path d="M 3.328125 25.921875 
Q 3.328125 40.328125 11.328125 47.265625 
Q 18.015625 53.03125 27.640625 53.03125 
Q 38.328125 53.03125 45.109375 46.015625 
Q 51.90625 39.015625 51.90625 26.65625 
Q 51.90625 16.65625 48.90625 10.90625 
Q 45.90625 5.171875 40.15625 2 
Q 34.421875 -1.171875 27.640625 -1.171875 
Q 16.75 -1.171875 10.03125 5.8125 
Q 3.328125 12.796875 3.328125 25.921875 
z
M 12.359375 25.921875 
Q 12.359375 15.96875 16.703125 11.015625 
Q 21.046875 6.0625 27.640625 6.0625 
Q 34.1875 6.0625 38.53125 11.03125 
Q 42.875 16.015625 42.875 26.21875 
Q 42.875 35.84375 38.5 40.796875 
Q 34.125 45.75 27.640625 45.75 
Q 21.046875 45.75 16.703125 40.8125 
Q 12.359375 35.890625 12.359375 25.921875 
z
" id="ArialMT-111"/>
       <path id="ArialMT-32"/>
       <path d="M 25.78125 7.859375 
L 27.046875 0.09375 
Q 23.34375 -0.6875 20.40625 -0.6875 
Q 15.625 -0.6875 12.984375 0.828125 
Q 10.359375 2.34375 9.28125 4.8125 
Q 8.203125 7.28125 8.203125 15.1875 
L 8.203125 45.015625 
L 1.765625 45.015625 
L 1.765625 51.859375 
L 8.203125 51.859375 
L 8.203125 64.703125 
L 16.9375 69.96875 
L 16.9375 51.859375 
L 25.78125 51.859375 
L 25.78125 45.015625 
L 16.9375 45.015625 
L 16.9375 14.703125 
Q 16.9375 10.9375 17.40625 9.859375 
Q 17.875 8.796875 18.921875 8.15625 
Q 19.96875 7.515625 21.921875 7.515625 
Q 23.390625 7.515625 25.78125 7.859375 
z
" id="ArialMT-116"/>
       <path d="M 6.5 0 
L 6.5 51.859375 
L 14.40625 51.859375 
L 14.40625 44 
Q 17.4375 49.515625 20 51.265625 
Q 22.5625 53.03125 25.640625 53.03125 
Q 30.078125 53.03125 34.671875 50.203125 
L 31.640625 42.046875 
Q 28.421875 43.953125 25.203125 43.953125 
Q 22.3125 43.953125 20.015625 42.21875 
Q 17.71875 40.484375 16.75 37.40625 
Q 15.28125 32.71875 15.28125 27.15625 
L 15.28125 0 
z
" id="ArialMT-114"/>
      </defs>
      <use xlink:href="#ArialMT-101"/>
      <use x="55.615234" xlink:href="#ArialMT-120"/>
      <use x="105.615234" xlink:href="#ArialMT-112"/>
      <use x="161.230469" xlink:href="#ArialMT-97"/>
      <use x="216.845703" xlink:href="#ArialMT-110"/>
      <use x="272.460938" xlink:href="#ArialMT-115"/>
      <use x="322.460938" xlink:href="#ArialMT-105"/>
      <use x="344.677734" xlink:href="#ArialMT-111"/>
      <use x="400.292969" xlink:href="#ArialMT-110"/>
      <use x="455.908203" xlink:href="#ArialMT-32"/>
      <use x="483.691406" xlink:href="#ArialMT-105"/>
      <use x="505.908203" xlink:href="#ArialMT-116"/>
      <use x="533.691406" xlink:href="#ArialMT-101"/>
      <use x="589.306641" xlink:href="#ArialMT-114"/>
      <use x="622.607422" xlink:href="#ArialMT-97"/>
      <use x="678.222656" xlink:href="#ArialMT-116"/>
      <use x="706.005859" xlink:href="#ArialMT-105"/>
      <use x="728.222656" xlink:href="#ArialMT-111"/>
      <use x="783.837891" xlink:href="#ArialMT-110"/>
     </g>
    </g>
   </g>
   <g id="matplotlib.axis_2">
    <g id="ytick_1">
     <g id="line2d_6">
      <defs>
       <path d="M 0 0 
L -3.5 0 
" id="m4ba83e0978" style="stroke:#000000;stroke-width:0.8;"/>
      </defs>
      <g>
       <use style="stroke:#000000;stroke-width:0.8;" x="37.175" xlink:href="#m4ba83e0978" y="181.090909"/>
      </g>
     </g>
     <g id="text_7">
      <!-- 0.00 -->
      <g transform="translate(10.714063 184.669815)scale(0.1 -0.1)">
       <defs>
        <path d="M 9.078125 0 
L 9.078125 10.015625 
L 19.09375 10.015625 
L 19.09375 0 
z
" id="ArialMT-46"/>
       </defs>
       <use xlink:href="#ArialMT-48"/>
       <use x="55.615234" xlink:href="#ArialMT-46"/>
       <use x="83.398438" xlink:href="#ArialMT-48"/>
       <use x="139.013672" xlink:href="#ArialMT-48"/>
      </g>
     </g>
    </g>
    <g id="ytick_2">
     <g id="line2d_7">
      <g>
       <use style="stroke:#000000;stroke-width:0.8;" x="37.175" xlink:href="#m4ba83e0978" y="158.159617"/>
      </g>
     </g>
     <g id="text_8">
      <!-- 0.05 -->
      <g transform="translate(10.714063 161.738523)scale(0.1 -0.1)">
       <use xlink:href="#ArialMT-48"/>
       <use x="55.615234" xlink:href="#ArialMT-46"/>
       <use x="83.398438" xlink:href="#ArialMT-48"/>
       <use x="139.013672" xlink:href="#ArialMT-53"/>
      </g>
     </g>
    </g>
    <g id="ytick_3">
     <g id="line2d_8">
      <g>
       <use style="stroke:#000000;stroke-width:0.8;" x="37.175" xlink:href="#m4ba83e0978" y="135.228325"/>
      </g>
     </g>
     <g id="text_9">
      <!-- 0.10 -->
      <g transform="translate(10.714063 138.807232)scale(0.1 -0.1)">
       <use xlink:href="#ArialMT-48"/>
       <use x="55.615234" xlink:href="#ArialMT-46"/>
       <use x="83.398438" xlink:href="#ArialMT-49"/>
       <use x="139.013672" xlink:href="#ArialMT-48"/>
      </g>
     </g>
    </g>
    <g id="ytick_4">
     <g id="line2d_9">
      <g>
       <use style="stroke:#000000;stroke-width:0.8;" x="37.175" xlink:href="#m4ba83e0978" y="112.297033"/>
      </g>
     </g>
     <g id="text_10">
      <!-- 0.15 -->
      <g transform="translate(10.714063 115.87594)scale(0.1 -0.1)">
       <use xlink:href="#ArialMT-48"/>
       <use x="55.615234" xlink:href="#ArialMT-46"/>
       <use x="83.398438" xlink:href="#ArialMT-49"/>
       <use x="139.013672" xlink:href="#ArialMT-53"/>
      </g>
     </g>
    </g>
    <g id="ytick_5">
     <g id="line2d_10">
      <g>
       <use style="stroke:#000000;stroke-width:0.8;" x="37.175" xlink:href="#m4ba83e0978" y="89.365742"/>
      </g>
     </g>
     <g id="text_11">
      <!-- 0.20 -->
      <g transform="translate(10.714063 92.944648)scale(0.1 -0.1)">
       <use xlink:href="#ArialMT-48"/>
       <use x="55.615234" xlink:href="#ArialMT-46"/>
       <use x="83.398438" xlink:href="#ArialMT-50"/>
       <use x="139.013672" xlink:href="#ArialMT-48"/>
      </g>
     </g>
    </g>
    <g id="ytick_6">
     <g id="line2d_11">
      <g>
       <use style="stroke:#000000;stroke-width:0.8;" x="37.175" xlink:href="#m4ba83e0978" y="66.43445"/>
      </g>
     </g>
     <g id="text_12">
      <!-- 0.25 -->
      <g transform="translate(10.714063 70.013356)scale(0.1 -0.1)">
       <use xlink:href="#ArialMT-48"/>
       <use x="55.615234" xlink:href="#ArialMT-46"/>
       <use x="83.398438" xlink:href="#ArialMT-50"/>
       <use x="139.013672" xlink:href="#ArialMT-53"/>
      </g>
     </g>
    </g>
    <g id="ytick_7">
     <g id="line2d_12">
      <g>
       <use style="stroke:#000000;stroke-width:0.8;" x="37.175" xlink:href="#m4ba83e0978" y="43.503158"/>
      </g>
     </g>
     <g id="text_13">
      <!-- 0.30 -->
      <g transform="translate(10.714063 47.082064)scale(0.1 -0.1)">
       <defs>
        <path d="M 4.203125 18.890625 
L 12.984375 20.0625 
Q 14.5 12.59375 18.140625 9.296875 
Q 21.78125 6 27 6 
Q 33.203125 6 37.46875 10.296875 
Q 41.75 14.59375 41.75 20.953125 
Q 41.75 27 37.796875 30.921875 
Q 33.84375 34.859375 27.734375 34.859375 
Q 25.25 34.859375 21.53125 33.890625 
L 22.515625 41.609375 
Q 23.390625 41.5 23.921875 41.5 
Q 29.546875 41.5 34.03125 44.421875 
Q 38.53125 47.359375 38.53125 53.46875 
Q 38.53125 58.296875 35.25 61.46875 
Q 31.984375 64.65625 26.8125 64.65625 
Q 21.6875 64.65625 18.265625 61.421875 
Q 14.84375 58.203125 13.875 51.765625 
L 5.078125 53.328125 
Q 6.6875 62.15625 12.390625 67.015625 
Q 18.109375 71.875 26.609375 71.875 
Q 32.46875 71.875 37.390625 69.359375 
Q 42.328125 66.84375 44.9375 62.5 
Q 47.5625 58.15625 47.5625 53.265625 
Q 47.5625 48.640625 45.0625 44.828125 
Q 42.578125 41.015625 37.703125 38.765625 
Q 44.046875 37.3125 47.5625 32.6875 
Q 51.078125 28.078125 51.078125 21.140625 
Q 51.078125 11.765625 44.234375 5.25 
Q 37.40625 -1.265625 26.953125 -1.265625 
Q 17.53125 -1.265625 11.296875 4.34375 
Q 5.078125 9.96875 4.203125 18.890625 
z
" id="ArialMT-51"/>
       </defs>
       <use xlink:href="#ArialMT-48"/>
       <use x="55.615234" xlink:href="#ArialMT-46"/>
       <use x="83.398438" xlink:href="#ArialMT-51"/>
       <use x="139.013672" xlink:href="#ArialMT-48"/>
      </g>
     </g>
    </g>
    <g id="ytick_8">
     <g id="line2d_13">
      <g>
       <use style="stroke:#000000;stroke-width:0.8;" x="37.175" xlink:href="#m4ba83e0978" y="20.571866"/>
      </g>
     </g>
     <g id="text_14">
      <!-- 0.35 -->
      <g transform="translate(10.714063 24.150772)scale(0.1 -0.1)">
       <use xlink:href="#ArialMT-48"/>
       <use x="55.615234" xlink:href="#ArialMT-46"/>
       <use x="83.398438" xlink:href="#ArialMT-51"/>
       <use x="139.013672" xlink:href="#ArialMT-53"/>
      </g>
     </g>
    </g>
    <g id="text_15">
     <!-- mean fold repetitiveness -->
     <g transform="translate(4.726563 154.192969)rotate(-90)scale(0.1 -0.1)">
      <defs>
       <path d="M 6.59375 0 
L 6.59375 51.859375 
L 14.453125 51.859375 
L 14.453125 44.578125 
Q 16.890625 48.390625 20.9375 50.703125 
Q 25 53.03125 30.171875 53.03125 
Q 35.9375 53.03125 39.625 50.640625 
Q 43.3125 48.25 44.828125 43.953125 
Q 50.984375 53.03125 60.84375 53.03125 
Q 68.5625 53.03125 72.703125 48.75 
Q 76.859375 44.484375 76.859375 35.59375 
L 76.859375 0 
L 68.109375 0 
L 68.109375 32.671875 
Q 68.109375 37.9375 67.25 40.25 
Q 66.40625 42.578125 64.15625 43.984375 
Q 61.921875 45.40625 58.890625 45.40625 
Q 53.421875 45.40625 49.796875 41.765625 
Q 46.1875 38.140625 46.1875 30.125 
L 46.1875 0 
L 37.40625 0 
L 37.40625 33.6875 
Q 37.40625 39.546875 35.25 42.46875 
Q 33.109375 45.40625 28.21875 45.40625 
Q 24.515625 45.40625 21.359375 43.453125 
Q 18.21875 41.5 16.796875 37.734375 
Q 15.375 33.984375 15.375 26.90625 
L 15.375 0 
z
" id="ArialMT-109"/>
       <path d="M 8.6875 0 
L 8.6875 45.015625 
L 0.921875 45.015625 
L 0.921875 51.859375 
L 8.6875 51.859375 
L 8.6875 57.375 
Q 8.6875 62.59375 9.625 65.140625 
Q 10.890625 68.5625 14.078125 70.671875 
Q 17.28125 72.796875 23.046875 72.796875 
Q 26.765625 72.796875 31.25 71.921875 
L 29.9375 64.265625 
Q 27.203125 64.75 24.75 64.75 
Q 20.75 64.75 19.09375 63.03125 
Q 17.4375 61.328125 17.4375 56.640625 
L 17.4375 51.859375 
L 27.546875 51.859375 
L 27.546875 45.015625 
L 17.4375 45.015625 
L 17.4375 0 
z
" id="ArialMT-102"/>
       <path d="M 6.390625 0 
L 6.390625 71.578125 
L 15.1875 71.578125 
L 15.1875 0 
z
" id="ArialMT-108"/>
       <path d="M 40.234375 0 
L 40.234375 6.546875 
Q 35.296875 -1.171875 25.734375 -1.171875 
Q 19.53125 -1.171875 14.328125 2.25 
Q 9.125 5.671875 6.265625 11.796875 
Q 3.421875 17.921875 3.421875 25.875 
Q 3.421875 33.640625 6 39.96875 
Q 8.59375 46.296875 13.765625 49.65625 
Q 18.953125 53.03125 25.34375 53.03125 
Q 30.03125 53.03125 33.6875 51.046875 
Q 37.359375 49.078125 39.65625 45.90625 
L 39.65625 71.578125 
L 48.390625 71.578125 
L 48.390625 0 
z
M 12.453125 25.875 
Q 12.453125 15.921875 16.640625 10.984375 
Q 20.84375 6.0625 26.5625 6.0625 
Q 32.328125 6.0625 36.34375 10.765625 
Q 40.375 15.484375 40.375 25.140625 
Q 40.375 35.796875 36.265625 40.765625 
Q 32.171875 45.75 26.171875 45.75 
Q 20.3125 45.75 16.375 40.96875 
Q 12.453125 36.1875 12.453125 25.875 
z
" id="ArialMT-100"/>
       <path d="M 21 0 
L 1.265625 51.859375 
L 10.546875 51.859375 
L 21.6875 20.796875 
Q 23.484375 15.765625 25 10.359375 
Q 26.171875 14.453125 28.265625 20.21875 
L 39.796875 51.859375 
L 48.828125 51.859375 
L 29.203125 0 
z
" id="ArialMT-118"/>
      </defs>
      <use xlink:href="#ArialMT-109"/>
      <use x="83.300781" xlink:href="#ArialMT-101"/>
      <use x="138.916016" xlink:href="#ArialMT-97"/>
      <use x="194.53125" xlink:href="#ArialMT-110"/>
      <use x="250.146484" xlink:href="#ArialMT-32"/>
      <use x="277.929688" xlink:href="#ArialMT-102"/>
      <use x="305.712891" xlink:href="#ArialMT-111"/>
      <use x="361.328125" xlink:href="#ArialMT-108"/>
      <use x="383.544922" xlink:href="#ArialMT-100"/>
      <use x="439.160156" xlink:href="#ArialMT-32"/>
      <use x="466.943359" xlink:href="#ArialMT-114"/>
      <use x="500.244141" xlink:href="#ArialMT-101"/>
      <use x="555.859375" xlink:href="#ArialMT-112"/>
      <use x="611.474609" xlink:href="#ArialMT-101"/>
      <use x="667.089844" xlink:href="#ArialMT-116"/>
      <use x="694.873047" xlink:href="#ArialMT-105"/>
      <use x="717.089844" xlink:href="#ArialMT-116"/>
      <use x="744.873047" xlink:href="#ArialMT-105"/>
      <use x="767.089844" xlink:href="#ArialMT-118"/>
      <use x="817.089844" xlink:href="#ArialMT-101"/>
      <use x="872.705078" xlink:href="#ArialMT-110"/>
      <use x="928.320312" xlink:href="#ArialMT-101"/>
      <use x="983.935547" xlink:href="#ArialMT-115"/>
      <use x="1033.935547" xlink:href="#ArialMT-115"/>
     </g>
    </g>
   </g>
   <g id="line2d_14">
    <path clip-path="url(#pb3c7c9af53)" d="M 38.696071 53.893448 
L 40.217143 54.589647 
L 41.738214 55.285846 
L 43.259286 55.982045 
L 44.780357 56.678244 
L 46.301429 57.374444 
L 47.8225 58.070643 
L 49.343571 58.766842 
L 50.864643 59.463041 
L 52.385714 60.15924 
L 53.906786 60.855439 
L 55.427857 61.551638 
L 56.948929 62.247837 
L 58.47 62.944036 
L 59.991071 63.640236 
L 61.512143 64.336435 
L 63.033214 65.032634 
L 64.554286 65.728833 
L 66.075357 66.425032 
L 67.596429 67.121231 
L 69.1175 67.81743 
L 70.638571 68.513629 
L 72.159643 69.209829 
L 73.680714 69.906028 
L 75.201786 70.602227 
L 76.722857 71.298426 
L 78.243929 71.994625 
L 79.765 72.690824 
L 81.286071 73.387023 
L 82.807143 74.083222 
L 84.328214 74.779421 
L 85.849286 75.475621 
L 87.370357 76.17182 
L 88.891429 76.868019 
L 90.4125 77.564218 
L 91.933571 78.260417 
L 93.454643 78.956616 
L 94.975714 79.652815 
L 96.496786 80.349014 
L 98.017857 81.045214 
L 99.538929 81.741413 
L 101.06 82.437612 
L 102.581071 83.133811 
L 104.102143 83.83001 
L 105.623214 84.526209 
L 107.144286 85.222408 
L 108.665357 85.918607 
L 110.186429 86.614806 
L 111.7075 87.311006 
L 113.228571 88.007205 
L 114.749643 88.703404 
L 116.270714 89.399603 
L 117.791786 90.095802 
L 119.312857 90.792001 
L 120.833929 91.4882 
L 122.355 92.184399 
L 123.876071 92.880598 
L 125.397143 93.576798 
L 126.918214 94.272997 
L 128.439286 94.969196 
L 129.960357 95.665395 
L 131.481429 96.361594 
L 133.0025 97.057793 
L 134.523571 97.753992 
L 136.044643 98.450191 
L 137.565714 99.146391 
L 139.086786 99.84259 
L 140.607857 100.538789 
L 142.128929 101.234988 
L 143.65 101.931187 
L 145.171071 102.627386 
L 146.692143 103.323585 
L 148.213214 104.019784 
L 149.734286 104.715983 
L 151.255357 105.412183 
L 152.776429 106.108382 
L 154.2975 106.804581 
L 155.818571 107.50078 
L 157.339643 108.196979 
L 158.860714 108.893178 
L 160.381786 109.589377 
L 161.902857 110.285576 
L 163.423929 110.981776 
L 164.945 111.677975 
L 166.466071 112.374174 
L 167.987143 113.070373 
L 169.508214 113.766572 
L 171.029286 114.462771 
L 172.550357 115.15897 
L 174.071429 115.855169 
L 175.5925 116.551368 
L 177.113571 117.247568 
L 178.634643 117.943767 
L 180.155714 118.639966 
L 181.676786 119.336165 
L 183.197857 120.032364 
L 184.718929 120.728563 
L 186.24 121.424762 
L 187.761071 122.120961 
L 189.282143 122.81716 
" style="fill:none;stroke:#e41a1c;stroke-linecap:square;stroke-width:2.25;"/>
   </g>
   <g id="patch_3">
    <path d="M 37.175 189.2 
L 37.175 10.8 
" style="fill:none;stroke:#000000;stroke-linecap:square;stroke-linejoin:miter;stroke-width:0.8;"/>
   </g>
   <g id="patch_4">
    <path d="M 37.175 189.2 
L 196.8875 189.2 
" style="fill:none;stroke:#000000;stroke-linecap:square;stroke-linejoin:miter;stroke-width:0.8;"/>
   </g>
   <g id="text_16">
    <!-- $r=-0.7$  -->
    <g transform="translate(53.14625 160.7175)scale(0.1 -0.1)">
     <defs>
      <path d="M 44.578125 46.390625 
Q 43.21875 47.125 41.453125 47.515625 
Q 39.703125 47.90625 37.703125 47.90625 
Q 30.515625 47.90625 25.140625 42.453125 
Q 19.78125 37.015625 18.015625 27.875 
L 12.5 0 
L 3.515625 0 
L 14.203125 54.6875 
L 23.1875 54.6875 
L 21.484375 46.1875 
Q 25.046875 50.921875 30 53.453125 
Q 34.96875 56 40.578125 56 
Q 42.046875 56 43.453125 55.828125 
Q 44.875 55.671875 46.296875 55.28125 
z
" id="DejaVuSans-Oblique-114"/>
      <path d="M 10.59375 45.40625 
L 73.1875 45.40625 
L 73.1875 37.203125 
L 10.59375 37.203125 
z
M 10.59375 25.484375 
L 73.1875 25.484375 
L 73.1875 17.1875 
L 10.59375 17.1875 
z
" id="DejaVuSans-61"/>
      <path d="M 10.59375 35.5 
L 73.1875 35.5 
L 73.1875 27.203125 
L 10.59375 27.203125 
z
" id="DejaVuSans-8722"/>
      <path d="M 31.78125 66.40625 
Q 24.171875 66.40625 20.328125 58.90625 
Q 16.5 51.421875 16.5 36.375 
Q 16.5 21.390625 20.328125 13.890625 
Q 24.171875 6.390625 31.78125 6.390625 
Q 39.453125 6.390625 43.28125 13.890625 
Q 47.125 21.390625 47.125 36.375 
Q 47.125 51.421875 43.28125 58.90625 
Q 39.453125 66.40625 31.78125 66.40625 
z
M 31.78125 74.21875 
Q 44.046875 74.21875 50.515625 64.515625 
Q 56.984375 54.828125 56.984375 36.375 
Q 56.984375 17.96875 50.515625 8.265625 
Q 44.046875 -1.421875 31.78125 -1.421875 
Q 19.53125 -1.421875 13.0625 8.265625 
Q 6.59375 17.96875 6.59375 36.375 
Q 6.59375 54.828125 13.0625 64.515625 
Q 19.53125 74.21875 31.78125 74.21875 
z
" id="DejaVuSans-48"/>
      <path d="M 10.6875 12.40625 
L 21 12.40625 
L 21 0 
L 10.6875 0 
z
" id="DejaVuSans-46"/>
      <path d="M 8.203125 72.90625 
L 55.078125 72.90625 
L 55.078125 68.703125 
L 28.609375 0 
L 18.3125 0 
L 43.21875 64.59375 
L 8.203125 64.59375 
z
" id="DejaVuSans-55"/>
     </defs>
     <use transform="translate(0 0.78125)" xlink:href="#DejaVuSans-Oblique-114"/>
     <use transform="translate(60.595703 0.78125)" xlink:href="#DejaVuSans-61"/>
     <use transform="translate(183.349609 0.78125)" xlink:href="#DejaVuSans-8722"/>
     <use transform="translate(286.621094 0.78125)" xlink:href="#DejaVuSans-48"/>
     <use transform="translate(350.244141 0.78125)" xlink:href="#DejaVuSans-46"/>
     <use transform="translate(374.28125 0.78125)" xlink:href="#DejaVuSans-55"/>
     <use transform="translate(437.904297 0.78125)" xlink:href="#ArialMT-32"/>
    </g>
    <!-- $P&lt;10^{-15}$ -->
    <g transform="translate(53.14625 171.36)scale(0.1 -0.1)">
     <defs>
      <path d="M 16.890625 72.90625 
L 39.703125 72.90625 
Q 49.65625 72.90625 54.875 68.265625 
Q 60.109375 63.625 60.109375 54.6875 
Q 60.109375 42.671875 52.390625 35.984375 
Q 44.671875 29.296875 30.71875 29.296875 
L 18.3125 29.296875 
L 12.59375 0 
L 2.6875 0 
z
M 25.203125 64.796875 
L 19.921875 37.40625 
L 32.328125 37.40625 
Q 40.71875 37.40625 45.203125 41.703125 
Q 49.703125 46 49.703125 54 
Q 49.703125 59.125 46.65625 61.953125 
Q 43.609375 64.796875 38.09375 64.796875 
z
" id="DejaVuSans-Oblique-80"/>
      <path d="M 73.1875 49.21875 
L 22.796875 31.296875 
L 73.1875 13.484375 
L 73.1875 4.59375 
L 10.59375 27.296875 
L 10.59375 35.40625 
L 73.1875 58.109375 
z
" id="DejaVuSans-60"/>
      <path d="M 12.40625 8.296875 
L 28.515625 8.296875 
L 28.515625 63.921875 
L 10.984375 60.40625 
L 10.984375 69.390625 
L 28.421875 72.90625 
L 38.28125 72.90625 
L 38.28125 8.296875 
L 54.390625 8.296875 
L 54.390625 0 
L 12.40625 0 
z
" id="DejaVuSans-49"/>
      <path d="M 10.796875 72.90625 
L 49.515625 72.90625 
L 49.515625 64.59375 
L 19.828125 64.59375 
L 19.828125 46.734375 
Q 21.96875 47.46875 24.109375 47.828125 
Q 26.265625 48.1875 28.421875 48.1875 
Q 40.625 48.1875 47.75 41.5 
Q 54.890625 34.8125 54.890625 23.390625 
Q 54.890625 11.625 47.5625 5.09375 
Q 40.234375 -1.421875 26.90625 -1.421875 
Q 22.3125 -1.421875 17.546875 -0.640625 
Q 12.796875 0.140625 7.71875 1.703125 
L 7.71875 11.625 
Q 12.109375 9.234375 16.796875 8.0625 
Q 21.484375 6.890625 26.703125 6.890625 
Q 35.15625 6.890625 40.078125 11.328125 
Q 45.015625 15.765625 45.015625 23.390625 
Q 45.015625 31 40.078125 35.4375 
Q 35.15625 39.890625 26.703125 39.890625 
Q 22.75 39.890625 18.8125 39.015625 
Q 14.890625 38.140625 10.796875 36.28125 
z
" id="DejaVuSans-53"/>
     </defs>
     <use transform="translate(0 0.684375)" xlink:href="#DejaVuSans-Oblique-80"/>
     <use transform="translate(79.785156 0.684375)" xlink:href="#DejaVuSans-60"/>
     <use transform="translate(183.056641 0.684375)" xlink:href="#DejaVuSans-49"/>
     <use transform="translate(246.679688 0.684375)" xlink:href="#DejaVuSans-48"/>
     <use transform="translate(311.259766 38.965625)scale(0.7)" xlink:href="#DejaVuSans-8722"/>
     <use transform="translate(369.912109 38.965625)scale(0.7)" xlink:href="#DejaVuSans-49"/>
     <use transform="translate(414.448242 38.965625)scale(0.7)" xlink:href="#DejaVuSans-53"/>
    </g>
   </g>
  </g>
 </g>
 <defs>
  <clipPath id="pb3c7c9af53">
   <rect height="178.4" width="159.7125" x="37.175" y="10.8"/>
  </clipPath>
 </defs>
</svg>
