<?xml version="1.0" encoding="utf-8" standalone="no"?>
<!DOCTYPE svg PUBLIC "-//W3C//DTD SVG 1.1//EN"
  "http://www.w3.org/Graphics/SVG/1.1/DTD/svg11.dtd">
<!-- Created with matplotlib (https://matplotlib.org/) -->
<svg height="216pt" version="1.1" viewBox="0 0 216 216" width="216pt" xmlns="http://www.w3.org/2000/svg" xmlns:xlink="http://www.w3.org/1999/xlink">
 <metadata>
  <rdf:RDF xmlns:cc="http://creativecommons.org/ns#" xmlns:dc="http://purl.org/dc/elements/1.1/" xmlns:rdf="http://www.w3.org/1999/02/22-rdf-syntax-ns#">
   <cc:Work>
    <dc:type rdf:resource="http://purl.org/dc/dcmitype/StillImage"/>
    <dc:date>2023-05-02T13:25:46.836683</dc:date>
    <dc:format>image/svg+xml</dc:format>
    <dc:creator>
     <cc:Agent>
      <dc:title>Matplotlib v3.3.4, https://matplotlib.org/</dc:title>
     </cc:Agent>
    </dc:creator>
   </cc:Work>
  </rdf:RDF>
 </metadata>
 <defs>
  <style type="text/css">*{stroke-linecap:butt;stroke-linejoin:round;}</style>
 </defs>
 <g id="figure_1">
  <g id="patch_1">
   <path d="M 0 216 
L 216 216 
L 216 0 
L 0 0 
z
" style="fill:none;"/>
  </g>
  <g id="axes_1">
   <g id="patch_2">
    <path d="M 31.675 189.2 
L 198.553375 189.2 
L 198.553375 10.8 
L 31.675 10.8 
z
" style="fill:#ffffff;"/>
   </g>
   <g id="PathCollection_1">
    <defs>
     <path d="M 0 3 
C 0.795609 3 1.55874 2.683901 2.12132 2.12132 
C 2.683901 1.55874 3 0.795609 3 0 
C 3 -0.795609 2.683901 -1.55874 2.12132 -2.12132 
C 1.55874 -2.683901 0.795609 -3 0 -3 
C -0.795609 -3 -1.55874 -2.683901 -2.12132 -2.12132 
C -2.683901 -1.55874 -3 -0.795609 -3 0 
C -3 0.795609 -2.683901 1.55874 -2.12132 2.12132 
C -1.55874 2.683901 -0.795609 3 0 3 
z
" id="m6edb5e5a37" style="stroke:#000000;stroke-opacity:0.8;"/>
    </defs>
    <g clip-path="url(#p695f22015d)">
     <use style="fill-opacity:0.8;stroke:#000000;stroke-opacity:0.8;" x="33.264318" xlink:href="#m6edb5e5a37" y="46.548713"/>
     <use style="fill-opacity:0.8;stroke:#000000;stroke-opacity:0.8;" x="34.853636" xlink:href="#m6edb5e5a37" y="86.913496"/>
     <use style="fill-opacity:0.8;stroke:#000000;stroke-opacity:0.8;" x="36.442954" xlink:href="#m6edb5e5a37" y="97.758874"/>
     <use style="fill-opacity:0.8;stroke:#000000;stroke-opacity:0.8;" x="38.032271" xlink:href="#m6edb5e5a37" y="95.568602"/>
     <use style="fill-opacity:0.8;stroke:#000000;stroke-opacity:0.8;" x="39.621589" xlink:href="#m6edb5e5a37" y="26.575042"/>
     <use style="fill-opacity:0.8;stroke:#000000;stroke-opacity:0.8;" x="41.210907" xlink:href="#m6edb5e5a37" y="50.714633"/>
     <use style="fill-opacity:0.8;stroke:#000000;stroke-opacity:0.8;" x="42.800225" xlink:href="#m6edb5e5a37" y="59.069522"/>
     <use style="fill-opacity:0.8;stroke:#000000;stroke-opacity:0.8;" x="44.389543" xlink:href="#m6edb5e5a37" y="62.296794"/>
     <use style="fill-opacity:0.8;stroke:#000000;stroke-opacity:0.8;" x="45.978861" xlink:href="#m6edb5e5a37" y="74.761021"/>
     <use style="fill-opacity:0.8;stroke:#000000;stroke-opacity:0.8;" x="47.568179" xlink:href="#m6edb5e5a37" y="103.947665"/>
     <use style="fill-opacity:0.8;stroke:#000000;stroke-opacity:0.8;" x="49.157496" xlink:href="#m6edb5e5a37" y="114.757288"/>
     <use style="fill-opacity:0.8;stroke:#000000;stroke-opacity:0.8;" x="50.746814" xlink:href="#m6edb5e5a37" y="108.908565"/>
     <use style="fill-opacity:0.8;stroke:#000000;stroke-opacity:0.8;" x="52.336132" xlink:href="#m6edb5e5a37" y="108.465438"/>
     <use style="fill-opacity:0.8;stroke:#000000;stroke-opacity:0.8;" x="53.92545" xlink:href="#m6edb5e5a37" y="118.566456"/>
     <use style="fill-opacity:0.8;stroke:#000000;stroke-opacity:0.8;" x="55.514768" xlink:href="#m6edb5e5a37" y="101.044282"/>
     <use style="fill-opacity:0.8;stroke:#000000;stroke-opacity:0.8;" x="57.104086" xlink:href="#m6edb5e5a37" y="118.566456"/>
     <use style="fill-opacity:0.8;stroke:#000000;stroke-opacity:0.8;" x="58.693404" xlink:href="#m6edb5e5a37" y="127.327543"/>
     <use style="fill-opacity:0.8;stroke:#000000;stroke-opacity:0.8;" x="60.282721" xlink:href="#m6edb5e5a37" y="18.909091"/>
     <use style="fill-opacity:0.8;stroke:#000000;stroke-opacity:0.8;" x="61.872039" xlink:href="#m6edb5e5a37" y="31.907878"/>
     <use style="fill-opacity:0.8;stroke:#000000;stroke-opacity:0.8;" x="63.461357" xlink:href="#m6edb5e5a37" y="26.575042"/>
     <use style="fill-opacity:0.8;stroke:#000000;stroke-opacity:0.8;" x="65.050675" xlink:href="#m6edb5e5a37" y="25.479906"/>
     <use style="fill-opacity:0.8;stroke:#000000;stroke-opacity:0.8;" x="66.639993" xlink:href="#m6edb5e5a37" y="55.188379"/>
     <use style="fill-opacity:0.8;stroke:#000000;stroke-opacity:0.8;" x="68.229311" xlink:href="#m6edb5e5a37" y="88.968189"/>
     <use style="fill-opacity:0.8;stroke:#000000;stroke-opacity:0.8;" x="69.818629" xlink:href="#m6edb5e5a37" y="116.735781"/>
     <use style="fill-opacity:0.8;stroke:#000000;stroke-opacity:0.8;" x="71.407946" xlink:href="#m6edb5e5a37" y="114.582296"/>
     <use style="fill-opacity:0.8;stroke:#000000;stroke-opacity:0.8;" x="72.997264" xlink:href="#m6edb5e5a37" y="95.229401"/>
     <use style="fill-opacity:0.8;stroke:#000000;stroke-opacity:0.8;" x="74.586582" xlink:href="#m6edb5e5a37" y="92.426819"/>
     <use style="fill-opacity:0.8;stroke:#000000;stroke-opacity:0.8;" x="76.1759" xlink:href="#m6edb5e5a37" y="111.656303"/>
     <use style="fill-opacity:0.8;stroke:#000000;stroke-opacity:0.8;" x="77.765218" xlink:href="#m6edb5e5a37" y="130.086559"/>
     <use style="fill-opacity:0.8;stroke:#000000;stroke-opacity:0.8;" x="79.354536" xlink:href="#m6edb5e5a37" y="126.01338"/>
     <use style="fill-opacity:0.8;stroke:#000000;stroke-opacity:0.8;" x="80.943854" xlink:href="#m6edb5e5a37" y="140.302824"/>
     <use style="fill-opacity:0.8;stroke:#000000;stroke-opacity:0.8;" x="82.533171" xlink:href="#m6edb5e5a37" y="117.013858"/>
     <use style="fill-opacity:0.8;stroke:#000000;stroke-opacity:0.8;" x="84.122489" xlink:href="#m6edb5e5a37" y="106.588407"/>
     <use style="fill-opacity:0.8;stroke:#000000;stroke-opacity:0.8;" x="85.711807" xlink:href="#m6edb5e5a37" y="81.967721"/>
     <use style="fill-opacity:0.8;stroke:#000000;stroke-opacity:0.8;" x="87.301125" xlink:href="#m6edb5e5a37" y="89.317904"/>
     <use style="fill-opacity:0.8;stroke:#000000;stroke-opacity:0.8;" x="88.890443" xlink:href="#m6edb5e5a37" y="111.557586"/>
     <use style="fill-opacity:0.8;stroke:#000000;stroke-opacity:0.8;" x="90.479761" xlink:href="#m6edb5e5a37" y="85.858398"/>
     <use style="fill-opacity:0.8;stroke:#000000;stroke-opacity:0.8;" x="92.069079" xlink:href="#m6edb5e5a37" y="104.070839"/>
     <use style="fill-opacity:0.8;stroke:#000000;stroke-opacity:0.8;" x="93.658396" xlink:href="#m6edb5e5a37" y="98.233238"/>
     <use style="fill-opacity:0.8;stroke:#000000;stroke-opacity:0.8;" x="95.247714" xlink:href="#m6edb5e5a37" y="97.786026"/>
     <use style="fill-opacity:0.8;stroke:#000000;stroke-opacity:0.8;" x="96.837032" xlink:href="#m6edb5e5a37" y="114.13847"/>
     <use style="fill-opacity:0.8;stroke:#000000;stroke-opacity:0.8;" x="98.42635" xlink:href="#m6edb5e5a37" y="115.054302"/>
     <use style="fill-opacity:0.8;stroke:#000000;stroke-opacity:0.8;" x="100.015668" xlink:href="#m6edb5e5a37" y="129.839913"/>
     <use style="fill-opacity:0.8;stroke:#000000;stroke-opacity:0.8;" x="101.604986" xlink:href="#m6edb5e5a37" y="127.327543"/>
     <use style="fill-opacity:0.8;stroke:#000000;stroke-opacity:0.8;" x="103.194304" xlink:href="#m6edb5e5a37" y="121.794225"/>
     <use style="fill-opacity:0.8;stroke:#000000;stroke-opacity:0.8;" x="104.783621" xlink:href="#m6edb5e5a37" y="123.283964"/>
     <use style="fill-opacity:0.8;stroke:#000000;stroke-opacity:0.8;" x="106.372939" xlink:href="#m6edb5e5a37" y="152.123072"/>
     <use style="fill-opacity:0.8;stroke:#000000;stroke-opacity:0.8;" x="107.962257" xlink:href="#m6edb5e5a37" y="139.125143"/>
     <use style="fill-opacity:0.8;stroke:#000000;stroke-opacity:0.8;" x="109.551575" xlink:href="#m6edb5e5a37" y="149.758947"/>
     <use style="fill-opacity:0.8;stroke:#000000;stroke-opacity:0.8;" x="111.140893" xlink:href="#m6edb5e5a37" y="148.640572"/>
     <use style="fill-opacity:0.8;stroke:#000000;stroke-opacity:0.8;" x="112.730211" xlink:href="#m6edb5e5a37" y="134.628449"/>
     <use style="fill-opacity:0.8;stroke:#000000;stroke-opacity:0.8;" x="114.319529" xlink:href="#m6edb5e5a37" y="142.153998"/>
     <use style="fill-opacity:0.8;stroke:#000000;stroke-opacity:0.8;" x="115.908846" xlink:href="#m6edb5e5a37" y="148.779322"/>
     <use style="fill-opacity:0.8;stroke:#000000;stroke-opacity:0.8;" x="117.498164" xlink:href="#m6edb5e5a37" y="129.71693"/>
     <use style="fill-opacity:0.8;stroke:#000000;stroke-opacity:0.8;" x="119.087482" xlink:href="#m6edb5e5a37" y="107.978953"/>
     <use style="fill-opacity:0.8;stroke:#000000;stroke-opacity:0.8;" x="120.6768" xlink:href="#m6edb5e5a37" y="122.829873"/>
     <use style="fill-opacity:0.8;stroke:#000000;stroke-opacity:0.8;" x="122.266118" xlink:href="#m6edb5e5a37" y="87.902651"/>
     <use style="fill-opacity:0.8;stroke:#000000;stroke-opacity:0.8;" x="123.855436" xlink:href="#m6edb5e5a37" y="89.928894"/>
     <use style="fill-opacity:0.8;stroke:#000000;stroke-opacity:0.8;" x="125.444754" xlink:href="#m6edb5e5a37" y="90.69027"/>
     <use style="fill-opacity:0.8;stroke:#000000;stroke-opacity:0.8;" x="127.034071" xlink:href="#m6edb5e5a37" y="95.294818"/>
     <use style="fill-opacity:0.8;stroke:#000000;stroke-opacity:0.8;" x="128.623389" xlink:href="#m6edb5e5a37" y="131.294828"/>
     <use style="fill-opacity:0.8;stroke:#000000;stroke-opacity:0.8;" x="130.212707" xlink:href="#m6edb5e5a37" y="146.986567"/>
     <use style="fill-opacity:0.8;stroke:#000000;stroke-opacity:0.8;" x="131.802025" xlink:href="#m6edb5e5a37" y="156.572298"/>
     <use style="fill-opacity:0.8;stroke:#000000;stroke-opacity:0.8;" x="133.391343" xlink:href="#m6edb5e5a37" y="150.844145"/>
     <use style="fill-opacity:0.8;stroke:#000000;stroke-opacity:0.8;" x="134.980661" xlink:href="#m6edb5e5a37" y="98.123919"/>
     <use style="fill-opacity:0.8;stroke:#000000;stroke-opacity:0.8;" x="136.569979" xlink:href="#m6edb5e5a37" y="142.06582"/>
     <use style="fill-opacity:0.8;stroke:#000000;stroke-opacity:0.8;" x="138.159296" xlink:href="#m6edb5e5a37" y="139.795244"/>
     <use style="fill-opacity:0.8;stroke:#000000;stroke-opacity:0.8;" x="139.748614" xlink:href="#m6edb5e5a37" y="134.244191"/>
     <use style="fill-opacity:0.8;stroke:#000000;stroke-opacity:0.8;" x="141.337932" xlink:href="#m6edb5e5a37" y="152.593387"/>
     <use style="fill-opacity:0.8;stroke:#000000;stroke-opacity:0.8;" x="142.92725" xlink:href="#m6edb5e5a37" y="147.616376"/>
     <use style="fill-opacity:0.8;stroke:#000000;stroke-opacity:0.8;" x="144.516568" xlink:href="#m6edb5e5a37" y="139.330922"/>
     <use style="fill-opacity:0.8;stroke:#000000;stroke-opacity:0.8;" x="146.105886" xlink:href="#m6edb5e5a37" y="138.497929"/>
     <use style="fill-opacity:0.8;stroke:#000000;stroke-opacity:0.8;" x="147.695204" xlink:href="#m6edb5e5a37" y="164.562163"/>
     <use style="fill-opacity:0.8;stroke:#000000;stroke-opacity:0.8;" x="149.284521" xlink:href="#m6edb5e5a37" y="150.059012"/>
     <use style="fill-opacity:0.8;stroke:#000000;stroke-opacity:0.8;" x="150.873839" xlink:href="#m6edb5e5a37" y="141.828652"/>
     <use style="fill-opacity:0.8;stroke:#000000;stroke-opacity:0.8;" x="152.463157" xlink:href="#m6edb5e5a37" y="150.952946"/>
     <use style="fill-opacity:0.8;stroke:#000000;stroke-opacity:0.8;" x="154.052475" xlink:href="#m6edb5e5a37" y="129.71693"/>
     <use style="fill-opacity:0.8;stroke:#000000;stroke-opacity:0.8;" x="155.641793" xlink:href="#m6edb5e5a37" y="96.265507"/>
     <use style="fill-opacity:0.8;stroke:#000000;stroke-opacity:0.8;" x="157.231111" xlink:href="#m6edb5e5a37" y="130.360227"/>
     <use style="fill-opacity:0.8;stroke:#000000;stroke-opacity:0.8;" x="158.820429" xlink:href="#m6edb5e5a37" y="90.870116"/>
     <use style="fill-opacity:0.8;stroke:#000000;stroke-opacity:0.8;" x="160.409746" xlink:href="#m6edb5e5a37" y="128.378873"/>
     <use style="fill-opacity:0.8;stroke:#000000;stroke-opacity:0.8;" x="161.999064" xlink:href="#m6edb5e5a37" y="93.013285"/>
     <use style="fill-opacity:0.8;stroke:#000000;stroke-opacity:0.8;" x="163.588382" xlink:href="#m6edb5e5a37" y="104.938098"/>
     <use style="fill-opacity:0.8;stroke:#000000;stroke-opacity:0.8;" x="165.1777" xlink:href="#m6edb5e5a37" y="167.628543"/>
     <use style="fill-opacity:0.8;stroke:#000000;stroke-opacity:0.8;" x="166.767018" xlink:href="#m6edb5e5a37" y="149.23026"/>
     <use style="fill-opacity:0.8;stroke:#000000;stroke-opacity:0.8;" x="168.356336" xlink:href="#m6edb5e5a37" y="127.327543"/>
     <use style="fill-opacity:0.8;stroke:#000000;stroke-opacity:0.8;" x="169.945654" xlink:href="#m6edb5e5a37" y="179.894065"/>
     <use style="fill-opacity:0.8;stroke:#000000;stroke-opacity:0.8;" x="171.534971" xlink:href="#m6edb5e5a37" y="179.894065"/>
     <use style="fill-opacity:0.8;stroke:#000000;stroke-opacity:0.8;" x="173.124289" xlink:href="#m6edb5e5a37" y="179.894065"/>
     <use style="fill-opacity:0.8;stroke:#000000;stroke-opacity:0.8;" x="174.713607" xlink:href="#m6edb5e5a37" y="179.894065"/>
     <use style="fill-opacity:0.8;stroke:#000000;stroke-opacity:0.8;" x="176.302925" xlink:href="#m6edb5e5a37" y="179.894065"/>
     <use style="fill-opacity:0.8;stroke:#000000;stroke-opacity:0.8;" x="177.892243" xlink:href="#m6edb5e5a37" y="179.894065"/>
     <use style="fill-opacity:0.8;stroke:#000000;stroke-opacity:0.8;" x="179.481561" xlink:href="#m6edb5e5a37" y="179.894065"/>
     <use style="fill-opacity:0.8;stroke:#000000;stroke-opacity:0.8;" x="181.070879" xlink:href="#m6edb5e5a37" y="179.894065"/>
     <use style="fill-opacity:0.8;stroke:#000000;stroke-opacity:0.8;" x="182.660196" xlink:href="#m6edb5e5a37" y="179.894065"/>
     <use style="fill-opacity:0.8;stroke:#000000;stroke-opacity:0.8;" x="184.249514" xlink:href="#m6edb5e5a37" y="179.894065"/>
     <use style="fill-opacity:0.8;stroke:#000000;stroke-opacity:0.8;" x="185.838832" xlink:href="#m6edb5e5a37" y="179.894065"/>
     <use style="fill-opacity:0.8;stroke:#000000;stroke-opacity:0.8;" x="187.42815" xlink:href="#m6edb5e5a37" y="179.894065"/>
     <use style="fill-opacity:0.8;stroke:#000000;stroke-opacity:0.8;" x="189.017468" xlink:href="#m6edb5e5a37" y="179.894065"/>
     <use style="fill-opacity:0.8;stroke:#000000;stroke-opacity:0.8;" x="190.606786" xlink:href="#m6edb5e5a37" y="179.894065"/>
     <use style="fill-opacity:0.8;stroke:#000000;stroke-opacity:0.8;" x="192.196104" xlink:href="#m6edb5e5a37" y="179.894065"/>
    </g>
   </g>
   <g id="PolyCollection_1">
    <path clip-path="url(#p695f22015d)" d="M 33.264318 57.72108 
L 33.264318 80.778173 
L 34.869689 81.644389 
L 36.475061 82.509689 
L 38.080433 83.37499 
L 39.685804 84.24029 
L 41.291176 85.096146 
L 42.896547 85.917313 
L 44.501919 86.839537 
L 46.10729 87.707246 
L 47.712662 88.591017 
L 49.318034 89.482777 
L 50.923405 90.375982 
L 52.528777 91.258573 
L 54.134148 92.091076 
L 55.73952 92.996431 
L 57.344891 93.901288 
L 58.950263 94.788975 
L 60.555635 95.653249 
L 62.161006 96.518104 
L 63.766378 97.384219 
L 65.371749 98.262853 
L 66.977121 99.201029 
L 68.582492 100.102684 
L 70.187864 101.045093 
L 71.793236 101.976035 
L 73.398607 102.869641 
L 75.003979 103.763083 
L 76.60935 104.691674 
L 78.214722 105.667887 
L 79.820093 106.570387 
L 81.425465 107.439713 
L 83.030837 108.30904 
L 84.636208 109.199989 
L 86.24158 110.140913 
L 87.846951 111.080536 
L 89.452323 112.00188 
L 91.057694 112.921208 
L 92.663066 113.818721 
L 94.268438 114.744931 
L 95.873809 115.722591 
L 97.479181 116.671212 
L 99.084552 117.607579 
L 100.689924 118.546481 
L 102.295295 119.468438 
L 103.900667 120.447768 
L 105.506039 121.394498 
L 107.11141 122.373366 
L 108.716782 123.316486 
L 110.322153 124.293483 
L 111.927525 125.300948 
L 113.532897 126.320337 
L 115.138268 127.355449 
L 116.74364 128.359439 
L 118.349011 129.300932 
L 119.954383 130.258891 
L 121.559754 131.306823 
L 123.165126 132.395354 
L 124.770498 133.518722 
L 126.375869 134.648503 
L 127.981241 135.731547 
L 129.586612 136.776654 
L 131.191984 137.788639 
L 132.797355 138.814509 
L 134.402727 139.892495 
L 136.008099 140.892995 
L 137.61347 142.000119 
L 139.218842 143.148402 
L 140.824213 144.232803 
L 142.429585 145.448885 
L 144.034956 146.532475 
L 145.640328 147.69674 
L 147.2457 148.734951 
L 148.851071 149.920443 
L 150.456443 151.045531 
L 152.061814 152.236215 
L 153.667186 153.395915 
L 155.272557 154.566645 
L 156.877929 155.648759 
L 158.483301 156.713659 
L 160.088672 157.851455 
L 161.694044 158.989323 
L 163.299415 160.180021 
L 164.904787 161.342328 
L 166.510158 162.505861 
L 168.11553 163.669415 
L 169.720902 164.833872 
L 171.326273 165.99833 
L 172.931645 167.162666 
L 174.537016 168.325818 
L 176.142388 169.48897 
L 177.747759 170.681813 
L 179.353131 171.815274 
L 180.958503 172.988299 
L 182.563874 174.192289 
L 184.169246 175.344085 
L 185.774617 176.492562 
L 187.379989 177.641321 
L 188.98536 178.790718 
L 190.590732 179.908409 
L 192.196104 181.090909 
L 192.196104 162.175419 
L 192.196104 162.175419 
L 190.590732 161.34852 
L 188.98536 160.43828 
L 187.379989 159.566474 
L 185.774617 158.702784 
L 184.169246 157.852408 
L 182.563874 157.003414 
L 180.958503 156.155148 
L 179.353131 155.306883 
L 177.747759 154.458617 
L 176.142388 153.603397 
L 174.537016 152.679083 
L 172.931645 151.748429 
L 171.326273 150.90064 
L 169.720902 150.055492 
L 168.11553 149.165603 
L 166.510158 148.359288 
L 164.904787 147.471615 
L 163.299415 146.58108 
L 161.694044 145.745985 
L 160.088672 144.799657 
L 158.483301 143.934621 
L 156.877929 143.113075 
L 155.272557 142.199078 
L 153.667186 141.235165 
L 152.061814 140.308258 
L 150.456443 139.449258 
L 148.851071 138.510974 
L 147.2457 137.6343 
L 145.640328 136.757626 
L 144.034956 135.800368 
L 142.429585 134.771428 
L 140.824213 133.794206 
L 139.218842 132.851952 
L 137.61347 131.918436 
L 136.008099 130.998331 
L 134.402727 130.025314 
L 132.797355 128.96823 
L 131.191984 127.860443 
L 129.586612 126.832281 
L 127.981241 125.95068 
L 126.375869 124.908272 
L 124.770498 123.945832 
L 123.165126 122.978897 
L 121.559754 121.945105 
L 119.954383 120.95892 
L 118.349011 119.966454 
L 116.74364 118.963943 
L 115.138268 117.837228 
L 113.532897 116.711266 
L 111.927525 115.583432 
L 110.322153 114.494524 
L 108.716782 113.332012 
L 107.11141 112.204394 
L 105.506039 111.078588 
L 103.900667 109.954007 
L 102.295295 108.824197 
L 100.689924 107.696879 
L 99.084552 106.572797 
L 97.479181 105.434832 
L 95.873809 104.148443 
L 94.268438 103.00121 
L 92.663066 101.859232 
L 91.057694 100.771338 
L 89.452323 99.699675 
L 87.846951 98.531714 
L 86.24158 97.330865 
L 84.636208 96.145412 
L 83.030837 94.953997 
L 81.425465 93.736043 
L 79.820093 92.574482 
L 78.214722 91.33748 
L 76.60935 90.13669 
L 75.003979 88.936893 
L 73.398607 87.84298 
L 71.793236 86.825433 
L 70.187864 85.615132 
L 68.582492 84.404832 
L 66.977121 83.238641 
L 65.371749 81.995258 
L 63.766378 80.751076 
L 62.161006 79.526324 
L 60.555635 78.33916 
L 58.950263 77.125614 
L 57.344891 75.912069 
L 55.73952 74.698904 
L 54.134148 73.486477 
L 52.528777 72.27405 
L 50.923405 71.061623 
L 49.318034 69.849196 
L 47.712662 68.636769 
L 46.10729 67.424342 
L 44.501919 66.211915 
L 42.896547 64.999488 
L 41.291176 63.785457 
L 39.685804 62.551709 
L 38.080433 61.35135 
L 36.475061 60.147824 
L 34.869689 58.934452 
L 33.264318 57.72108 
z
" style="fill:#e41a1c;fill-opacity:0.15;"/>
   </g>
   <g id="matplotlib.axis_1">
    <g id="xtick_1">
     <g id="line2d_1">
      <defs>
       <path d="M 0 0 
L 0 3.5 
" id="mfd3918d883" style="stroke:#000000;stroke-width:0.8;"/>
      </defs>
      <g>
       <use style="stroke:#000000;stroke-width:0.8;" x="31.675" xlink:href="#mfd3918d883" y="189.2"/>
      </g>
     </g>
     <g id="text_1">
      <!-- 0 -->
      <g transform="translate(28.894531 203.357812)scale(0.1 -0.1)">
       <defs>
        <path d="M 4.15625 35.296875 
Q 4.15625 48 6.765625 55.734375 
Q 9.375 63.484375 14.515625 67.671875 
Q 19.671875 71.875 27.484375 71.875 
Q 33.25 71.875 37.59375 69.546875 
Q 41.9375 67.234375 44.765625 62.859375 
Q 47.609375 58.5 49.21875 52.21875 
Q 50.828125 45.953125 50.828125 35.296875 
Q 50.828125 22.703125 48.234375 14.96875 
Q 45.65625 7.234375 40.5 3 
Q 35.359375 -1.21875 27.484375 -1.21875 
Q 17.140625 -1.21875 11.234375 6.203125 
Q 4.15625 15.140625 4.15625 35.296875 
z
M 13.1875 35.296875 
Q 13.1875 17.671875 17.3125 11.828125 
Q 21.4375 6 27.484375 6 
Q 33.546875 6 37.671875 11.859375 
Q 41.796875 17.71875 41.796875 35.296875 
Q 41.796875 52.984375 37.671875 58.78125 
Q 33.546875 64.59375 27.390625 64.59375 
Q 21.34375 64.59375 17.71875 59.46875 
Q 13.1875 52.9375 13.1875 35.296875 
z
" id="ArialMT-48"/>
       </defs>
       <use xlink:href="#ArialMT-48"/>
      </g>
     </g>
    </g>
    <g id="xtick_2">
     <g id="line2d_2">
      <g>
       <use style="stroke:#000000;stroke-width:0.8;" x="71.407946" xlink:href="#mfd3918d883" y="189.2"/>
      </g>
     </g>
     <g id="text_2">
      <!-- 25 -->
      <g transform="translate(65.847009 203.357812)scale(0.1 -0.1)">
       <defs>
        <path d="M 50.34375 8.453125 
L 50.34375 0 
L 3.03125 0 
Q 2.9375 3.171875 4.046875 6.109375 
Q 5.859375 10.9375 9.828125 15.625 
Q 13.8125 20.3125 21.34375 26.46875 
Q 33.015625 36.03125 37.109375 41.625 
Q 41.21875 47.21875 41.21875 52.203125 
Q 41.21875 57.421875 37.46875 61 
Q 33.734375 64.59375 27.734375 64.59375 
Q 21.390625 64.59375 17.578125 60.78125 
Q 13.765625 56.984375 13.71875 50.25 
L 4.6875 51.171875 
Q 5.609375 61.28125 11.65625 66.578125 
Q 17.71875 71.875 27.9375 71.875 
Q 38.234375 71.875 44.234375 66.15625 
Q 50.25 60.453125 50.25 52 
Q 50.25 47.703125 48.484375 43.546875 
Q 46.734375 39.40625 42.65625 34.8125 
Q 38.578125 30.21875 29.109375 22.21875 
Q 21.1875 15.578125 18.9375 13.203125 
Q 16.703125 10.84375 15.234375 8.453125 
z
" id="ArialMT-50"/>
        <path d="M 4.15625 18.75 
L 13.375 19.53125 
Q 14.40625 12.796875 18.140625 9.390625 
Q 21.875 6 27.15625 6 
Q 33.5 6 37.890625 10.78125 
Q 42.28125 15.578125 42.28125 23.484375 
Q 42.28125 31 38.0625 35.34375 
Q 33.84375 39.703125 27 39.703125 
Q 22.75 39.703125 19.328125 37.765625 
Q 15.921875 35.84375 13.96875 32.765625 
L 5.71875 33.84375 
L 12.640625 70.609375 
L 48.25 70.609375 
L 48.25 62.203125 
L 19.671875 62.203125 
L 15.828125 42.96875 
Q 22.265625 47.46875 29.34375 47.46875 
Q 38.71875 47.46875 45.15625 40.96875 
Q 51.609375 34.46875 51.609375 24.265625 
Q 51.609375 14.546875 45.953125 7.46875 
Q 39.0625 -1.21875 27.15625 -1.21875 
Q 17.390625 -1.21875 11.203125 4.25 
Q 5.03125 9.71875 4.15625 18.75 
z
" id="ArialMT-53"/>
       </defs>
       <use xlink:href="#ArialMT-50"/>
       <use x="55.615234" xlink:href="#ArialMT-53"/>
      </g>
     </g>
    </g>
    <g id="xtick_3">
     <g id="line2d_3">
      <g>
       <use style="stroke:#000000;stroke-width:0.8;" x="111.140893" xlink:href="#mfd3918d883" y="189.2"/>
      </g>
     </g>
     <g id="text_3">
      <!-- 50 -->
      <g transform="translate(105.579955 203.357812)scale(0.1 -0.1)">
       <use xlink:href="#ArialMT-53"/>
       <use x="55.615234" xlink:href="#ArialMT-48"/>
      </g>
     </g>
    </g>
    <g id="xtick_4">
     <g id="line2d_4">
      <g>
       <use style="stroke:#000000;stroke-width:0.8;" x="150.873839" xlink:href="#mfd3918d883" y="189.2"/>
      </g>
     </g>
     <g id="text_4">
      <!-- 75 -->
      <g transform="translate(145.312902 203.357812)scale(0.1 -0.1)">
       <defs>
        <path d="M 4.734375 62.203125 
L 4.734375 70.65625 
L 51.078125 70.65625 
L 51.078125 63.8125 
Q 44.234375 56.546875 37.515625 44.484375 
Q 30.8125 32.421875 27.15625 19.671875 
Q 24.515625 10.6875 23.78125 0 
L 14.75 0 
Q 14.890625 8.453125 18.0625 20.40625 
Q 21.234375 32.375 27.171875 43.484375 
Q 33.109375 54.59375 39.796875 62.203125 
z
" id="ArialMT-55"/>
       </defs>
       <use xlink:href="#ArialMT-55"/>
       <use x="55.615234" xlink:href="#ArialMT-53"/>
      </g>
     </g>
    </g>
    <g id="xtick_5">
     <g id="line2d_5">
      <g>
       <use style="stroke:#000000;stroke-width:0.8;" x="190.606786" xlink:href="#mfd3918d883" y="189.2"/>
      </g>
     </g>
     <g id="text_5">
      <!-- 100 -->
      <g transform="translate(182.265379 203.357812)scale(0.1 -0.1)">
       <defs>
        <path d="M 37.25 0 
L 28.46875 0 
L 28.46875 56 
Q 25.296875 52.984375 20.140625 49.953125 
Q 14.984375 46.921875 10.890625 45.40625 
L 10.890625 53.90625 
Q 18.265625 57.375 23.78125 62.296875 
Q 29.296875 67.234375 31.59375 71.875 
L 37.25 71.875 
z
" id="ArialMT-49"/>
       </defs>
       <use xlink:href="#ArialMT-49"/>
       <use x="55.615234" xlink:href="#ArialMT-48"/>
       <use x="111.230469" xlink:href="#ArialMT-48"/>
      </g>
     </g>
    </g>
    <g id="text_6">
     <!-- expansion iteration -->
     <g transform="translate(73.144656 216.503125)scale(0.1 -0.1)">
      <defs>
       <path d="M 42.09375 16.703125 
L 51.171875 15.578125 
Q 49.03125 7.625 43.21875 3.21875 
Q 37.40625 -1.171875 28.375 -1.171875 
Q 17 -1.171875 10.328125 5.828125 
Q 3.65625 12.84375 3.65625 25.484375 
Q 3.65625 38.578125 10.390625 45.796875 
Q 17.140625 53.03125 27.875 53.03125 
Q 38.28125 53.03125 44.875 45.953125 
Q 51.46875 38.875 51.46875 26.03125 
Q 51.46875 25.25 51.421875 23.6875 
L 12.75 23.6875 
Q 13.234375 15.140625 17.578125 10.59375 
Q 21.921875 6.0625 28.421875 6.0625 
Q 33.25 6.0625 36.671875 8.59375 
Q 40.09375 11.140625 42.09375 16.703125 
z
M 13.234375 30.90625 
L 42.1875 30.90625 
Q 41.609375 37.453125 38.875 40.71875 
Q 34.671875 45.796875 27.984375 45.796875 
Q 21.921875 45.796875 17.796875 41.75 
Q 13.671875 37.703125 13.234375 30.90625 
z
" id="ArialMT-101"/>
       <path d="M 0.734375 0 
L 19.671875 26.953125 
L 2.15625 51.859375 
L 13.140625 51.859375 
L 21.09375 39.703125 
Q 23.34375 36.234375 24.703125 33.890625 
Q 26.859375 37.109375 28.65625 39.59375 
L 37.40625 51.859375 
L 47.90625 51.859375 
L 29.984375 27.4375 
L 49.265625 0 
L 38.484375 0 
L 27.828125 16.109375 
L 25 20.453125 
L 11.375 0 
z
" id="ArialMT-120"/>
       <path d="M 6.59375 -19.875 
L 6.59375 51.859375 
L 14.59375 51.859375 
L 14.59375 45.125 
Q 17.4375 49.078125 21 51.046875 
Q 24.5625 53.03125 29.640625 53.03125 
Q 36.28125 53.03125 41.359375 49.609375 
Q 46.4375 46.1875 49.015625 39.953125 
Q 51.609375 33.734375 51.609375 26.3125 
Q 51.609375 18.359375 48.75 11.984375 
Q 45.90625 5.609375 40.453125 2.21875 
Q 35.015625 -1.171875 29 -1.171875 
Q 24.609375 -1.171875 21.109375 0.6875 
Q 17.625 2.546875 15.375 5.375 
L 15.375 -19.875 
z
M 14.546875 25.640625 
Q 14.546875 15.625 18.59375 10.84375 
Q 22.65625 6.0625 28.421875 6.0625 
Q 34.28125 6.0625 38.453125 11.015625 
Q 42.625 15.96875 42.625 26.375 
Q 42.625 36.28125 38.546875 41.203125 
Q 34.46875 46.140625 28.8125 46.140625 
Q 23.1875 46.140625 18.859375 40.890625 
Q 14.546875 35.640625 14.546875 25.640625 
z
" id="ArialMT-112"/>
       <path d="M 40.4375 6.390625 
Q 35.546875 2.25 31.03125 0.53125 
Q 26.515625 -1.171875 21.34375 -1.171875 
Q 12.796875 -1.171875 8.203125 3 
Q 3.609375 7.171875 3.609375 13.671875 
Q 3.609375 17.484375 5.34375 20.625 
Q 7.078125 23.78125 9.890625 25.6875 
Q 12.703125 27.59375 16.21875 28.5625 
Q 18.796875 29.25 24.03125 29.890625 
Q 34.671875 31.15625 39.703125 32.90625 
Q 39.75 34.71875 39.75 35.203125 
Q 39.75 40.578125 37.25 42.78125 
Q 33.890625 45.75 27.25 45.75 
Q 21.046875 45.75 18.09375 43.578125 
Q 15.140625 41.40625 13.71875 35.890625 
L 5.125 37.0625 
Q 6.296875 42.578125 8.984375 45.96875 
Q 11.671875 49.359375 16.75 51.1875 
Q 21.828125 53.03125 28.515625 53.03125 
Q 35.15625 53.03125 39.296875 51.46875 
Q 43.453125 49.90625 45.40625 47.53125 
Q 47.359375 45.171875 48.140625 41.546875 
Q 48.578125 39.3125 48.578125 33.453125 
L 48.578125 21.734375 
Q 48.578125 9.46875 49.140625 6.21875 
Q 49.703125 2.984375 51.375 0 
L 42.1875 0 
Q 40.828125 2.734375 40.4375 6.390625 
z
M 39.703125 26.03125 
Q 34.90625 24.078125 25.34375 22.703125 
Q 19.921875 21.921875 17.671875 20.9375 
Q 15.4375 19.96875 14.203125 18.09375 
Q 12.984375 16.21875 12.984375 13.921875 
Q 12.984375 10.40625 15.640625 8.0625 
Q 18.3125 5.71875 23.4375 5.71875 
Q 28.515625 5.71875 32.46875 7.9375 
Q 36.421875 10.15625 38.28125 14.015625 
Q 39.703125 17 39.703125 22.796875 
z
" id="ArialMT-97"/>
       <path d="M 6.59375 0 
L 6.59375 51.859375 
L 14.5 51.859375 
L 14.5 44.484375 
Q 20.21875 53.03125 31 53.03125 
Q 35.6875 53.03125 39.625 51.34375 
Q 43.5625 49.65625 45.515625 46.921875 
Q 47.46875 44.1875 48.25 40.4375 
Q 48.734375 37.984375 48.734375 31.890625 
L 48.734375 0 
L 39.9375 0 
L 39.9375 31.546875 
Q 39.9375 36.921875 38.90625 39.578125 
Q 37.890625 42.234375 35.28125 43.8125 
Q 32.671875 45.40625 29.15625 45.40625 
Q 23.53125 45.40625 19.453125 41.84375 
Q 15.375 38.28125 15.375 28.328125 
L 15.375 0 
z
" id="ArialMT-110"/>
       <path d="M 3.078125 15.484375 
L 11.765625 16.84375 
Q 12.5 11.625 15.84375 8.84375 
Q 19.1875 6.0625 25.203125 6.0625 
Q 31.25 6.0625 34.171875 8.515625 
Q 37.109375 10.984375 37.109375 14.3125 
Q 37.109375 17.28125 34.515625 19 
Q 32.71875 20.171875 25.53125 21.96875 
Q 15.875 24.421875 12.140625 26.203125 
Q 8.40625 27.984375 6.46875 31.125 
Q 4.546875 34.28125 4.546875 38.09375 
Q 4.546875 41.546875 6.125 44.5 
Q 7.71875 47.46875 10.453125 49.421875 
Q 12.5 50.921875 16.03125 51.96875 
Q 19.578125 53.03125 23.640625 53.03125 
Q 29.734375 53.03125 34.34375 51.265625 
Q 38.96875 49.515625 41.15625 46.5 
Q 43.359375 43.5 44.1875 38.484375 
L 35.59375 37.3125 
Q 35.015625 41.3125 32.203125 43.546875 
Q 29.390625 45.796875 24.265625 45.796875 
Q 18.21875 45.796875 15.625 43.796875 
Q 13.03125 41.796875 13.03125 39.109375 
Q 13.03125 37.40625 14.109375 36.03125 
Q 15.1875 34.625 17.484375 33.6875 
Q 18.796875 33.203125 25.25 31.453125 
Q 34.578125 28.953125 38.25 27.359375 
Q 41.9375 25.78125 44.03125 22.75 
Q 46.140625 19.734375 46.140625 15.234375 
Q 46.140625 10.84375 43.578125 6.953125 
Q 41.015625 3.078125 36.171875 0.953125 
Q 31.34375 -1.171875 25.25 -1.171875 
Q 15.140625 -1.171875 9.84375 3.03125 
Q 4.546875 7.234375 3.078125 15.484375 
z
" id="ArialMT-115"/>
       <path d="M 6.640625 61.46875 
L 6.640625 71.578125 
L 15.4375 71.578125 
L 15.4375 61.46875 
z
M 6.640625 0 
L 6.640625 51.859375 
L 15.4375 51.859375 
L 15.4375 0 
z
" id="ArialMT-105"/>
       <path d="M 3.328125 25.921875 
Q 3.328125 40.328125 11.328125 47.265625 
Q 18.015625 53.03125 27.640625 53.03125 
Q 38.328125 53.03125 45.109375 46.015625 
Q 51.90625 39.015625 51.90625 26.65625 
Q 51.90625 16.65625 48.90625 10.90625 
Q 45.90625 5.171875 40.15625 2 
Q 34.421875 -1.171875 27.640625 -1.171875 
Q 16.75 -1.171875 10.03125 5.8125 
Q 3.328125 12.796875 3.328125 25.921875 
z
M 12.359375 25.921875 
Q 12.359375 15.96875 16.703125 11.015625 
Q 21.046875 6.0625 27.640625 6.0625 
Q 34.1875 6.0625 38.53125 11.03125 
Q 42.875 16.015625 42.875 26.21875 
Q 42.875 35.84375 38.5 40.796875 
Q 34.125 45.75 27.640625 45.75 
Q 21.046875 45.75 16.703125 40.8125 
Q 12.359375 35.890625 12.359375 25.921875 
z
" id="ArialMT-111"/>
       <path id="ArialMT-32"/>
       <path d="M 25.78125 7.859375 
L 27.046875 0.09375 
Q 23.34375 -0.6875 20.40625 -0.6875 
Q 15.625 -0.6875 12.984375 0.828125 
Q 10.359375 2.34375 9.28125 4.8125 
Q 8.203125 7.28125 8.203125 15.1875 
L 8.203125 45.015625 
L 1.765625 45.015625 
L 1.765625 51.859375 
L 8.203125 51.859375 
L 8.203125 64.703125 
L 16.9375 69.96875 
L 16.9375 51.859375 
L 25.78125 51.859375 
L 25.78125 45.015625 
L 16.9375 45.015625 
L 16.9375 14.703125 
Q 16.9375 10.9375 17.40625 9.859375 
Q 17.875 8.796875 18.921875 8.15625 
Q 19.96875 7.515625 21.921875 7.515625 
Q 23.390625 7.515625 25.78125 7.859375 
z
" id="ArialMT-116"/>
       <path d="M 6.5 0 
L 6.5 51.859375 
L 14.40625 51.859375 
L 14.40625 44 
Q 17.4375 49.515625 20 51.265625 
Q 22.5625 53.03125 25.640625 53.03125 
Q 30.078125 53.03125 34.671875 50.203125 
L 31.640625 42.046875 
Q 28.421875 43.953125 25.203125 43.953125 
Q 22.3125 43.953125 20.015625 42.21875 
Q 17.71875 40.484375 16.75 37.40625 
Q 15.28125 32.71875 15.28125 27.15625 
L 15.28125 0 
z
" id="ArialMT-114"/>
      </defs>
      <use xlink:href="#ArialMT-101"/>
      <use x="55.615234" xlink:href="#ArialMT-120"/>
      <use x="105.615234" xlink:href="#ArialMT-112"/>
      <use x="161.230469" xlink:href="#ArialMT-97"/>
      <use x="216.845703" xlink:href="#ArialMT-110"/>
      <use x="272.460938" xlink:href="#ArialMT-115"/>
      <use x="322.460938" xlink:href="#ArialMT-105"/>
      <use x="344.677734" xlink:href="#ArialMT-111"/>
      <use x="400.292969" xlink:href="#ArialMT-110"/>
      <use x="455.908203" xlink:href="#ArialMT-32"/>
      <use x="483.691406" xlink:href="#ArialMT-105"/>
      <use x="505.908203" xlink:href="#ArialMT-116"/>
      <use x="533.691406" xlink:href="#ArialMT-101"/>
      <use x="589.306641" xlink:href="#ArialMT-114"/>
      <use x="622.607422" xlink:href="#ArialMT-97"/>
      <use x="678.222656" xlink:href="#ArialMT-116"/>
      <use x="706.005859" xlink:href="#ArialMT-105"/>
      <use x="728.222656" xlink:href="#ArialMT-111"/>
      <use x="783.837891" xlink:href="#ArialMT-110"/>
     </g>
    </g>
   </g>
   <g id="matplotlib.axis_2">
    <g id="ytick_1">
     <g id="line2d_6">
      <defs>
       <path d="M 0 0 
L -3.5 0 
" id="m910e5924c4" style="stroke:#000000;stroke-width:0.8;"/>
      </defs>
      <g>
       <use style="stroke:#000000;stroke-width:0.8;" x="31.675" xlink:href="#m910e5924c4" y="179.894065"/>
      </g>
     </g>
     <g id="text_7">
      <!-- 0.0 -->
      <g transform="translate(10.775 183.472971)scale(0.1 -0.1)">
       <defs>
        <path d="M 9.078125 0 
L 9.078125 10.015625 
L 19.09375 10.015625 
L 19.09375 0 
z
" id="ArialMT-46"/>
       </defs>
       <use xlink:href="#ArialMT-48"/>
       <use x="55.615234" xlink:href="#ArialMT-46"/>
       <use x="83.398438" xlink:href="#ArialMT-48"/>
      </g>
     </g>
    </g>
    <g id="ytick_2">
     <g id="line2d_7">
      <g>
       <use style="stroke:#000000;stroke-width:0.8;" x="31.675" xlink:href="#m910e5924c4" y="143.0975"/>
      </g>
     </g>
     <g id="text_8">
      <!-- 0.2 -->
      <g transform="translate(10.775 146.676406)scale(0.1 -0.1)">
       <use xlink:href="#ArialMT-48"/>
       <use x="55.615234" xlink:href="#ArialMT-46"/>
       <use x="83.398438" xlink:href="#ArialMT-50"/>
      </g>
     </g>
    </g>
    <g id="ytick_3">
     <g id="line2d_8">
      <g>
       <use style="stroke:#000000;stroke-width:0.8;" x="31.675" xlink:href="#m910e5924c4" y="106.300934"/>
      </g>
     </g>
     <g id="text_9">
      <!-- 0.4 -->
      <g transform="translate(10.775 109.87984)scale(0.1 -0.1)">
       <defs>
        <path d="M 32.328125 0 
L 32.328125 17.140625 
L 1.265625 17.140625 
L 1.265625 25.203125 
L 33.9375 71.578125 
L 41.109375 71.578125 
L 41.109375 25.203125 
L 50.78125 25.203125 
L 50.78125 17.140625 
L 41.109375 17.140625 
L 41.109375 0 
z
M 32.328125 25.203125 
L 32.328125 57.46875 
L 9.90625 25.203125 
z
" id="ArialMT-52"/>
       </defs>
       <use xlink:href="#ArialMT-48"/>
       <use x="55.615234" xlink:href="#ArialMT-46"/>
       <use x="83.398438" xlink:href="#ArialMT-52"/>
      </g>
     </g>
    </g>
    <g id="ytick_4">
     <g id="line2d_9">
      <g>
       <use style="stroke:#000000;stroke-width:0.8;" x="31.675" xlink:href="#m910e5924c4" y="69.504368"/>
      </g>
     </g>
     <g id="text_10">
      <!-- 0.6 -->
      <g transform="translate(10.775 73.083275)scale(0.1 -0.1)">
       <defs>
        <path d="M 49.75 54.046875 
L 41.015625 53.375 
Q 39.84375 58.546875 37.703125 60.890625 
Q 34.125 64.65625 28.90625 64.65625 
Q 24.703125 64.65625 21.53125 62.3125 
Q 17.390625 59.28125 14.984375 53.46875 
Q 12.59375 47.65625 12.5 36.921875 
Q 15.671875 41.75 20.265625 44.09375 
Q 24.859375 46.4375 29.890625 46.4375 
Q 38.671875 46.4375 44.84375 39.96875 
Q 51.03125 33.5 51.03125 23.25 
Q 51.03125 16.5 48.125 10.71875 
Q 45.21875 4.9375 40.140625 1.859375 
Q 35.0625 -1.21875 28.609375 -1.21875 
Q 17.625 -1.21875 10.6875 6.859375 
Q 3.765625 14.9375 3.765625 33.5 
Q 3.765625 54.25 11.421875 63.671875 
Q 18.109375 71.875 29.4375 71.875 
Q 37.890625 71.875 43.28125 67.140625 
Q 48.6875 62.40625 49.75 54.046875 
z
M 13.875 23.1875 
Q 13.875 18.65625 15.796875 14.5 
Q 17.71875 10.359375 21.1875 8.171875 
Q 24.65625 6 28.46875 6 
Q 34.03125 6 38.03125 10.484375 
Q 42.046875 14.984375 42.046875 22.703125 
Q 42.046875 30.125 38.078125 34.390625 
Q 34.125 38.671875 28.125 38.671875 
Q 22.171875 38.671875 18.015625 34.390625 
Q 13.875 30.125 13.875 23.1875 
z
" id="ArialMT-54"/>
       </defs>
       <use xlink:href="#ArialMT-48"/>
       <use x="55.615234" xlink:href="#ArialMT-46"/>
       <use x="83.398438" xlink:href="#ArialMT-54"/>
      </g>
     </g>
    </g>
    <g id="ytick_5">
     <g id="line2d_10">
      <g>
       <use style="stroke:#000000;stroke-width:0.8;" x="31.675" xlink:href="#m910e5924c4" y="32.707803"/>
      </g>
     </g>
     <g id="text_11">
      <!-- 0.8 -->
      <g transform="translate(10.775 36.286709)scale(0.1 -0.1)">
       <defs>
        <path d="M 17.671875 38.8125 
Q 12.203125 40.828125 9.5625 44.53125 
Q 6.9375 48.25 6.9375 53.421875 
Q 6.9375 61.234375 12.546875 66.546875 
Q 18.171875 71.875 27.484375 71.875 
Q 36.859375 71.875 42.578125 66.421875 
Q 48.296875 60.984375 48.296875 53.171875 
Q 48.296875 48.1875 45.671875 44.5 
Q 43.0625 40.828125 37.75 38.8125 
Q 44.34375 36.671875 47.78125 31.875 
Q 51.21875 27.09375 51.21875 20.453125 
Q 51.21875 11.28125 44.71875 5.03125 
Q 38.234375 -1.21875 27.640625 -1.21875 
Q 17.046875 -1.21875 10.546875 5.046875 
Q 4.046875 11.328125 4.046875 20.703125 
Q 4.046875 27.6875 7.59375 32.390625 
Q 11.140625 37.109375 17.671875 38.8125 
z
M 15.921875 53.71875 
Q 15.921875 48.640625 19.1875 45.40625 
Q 22.46875 42.1875 27.6875 42.1875 
Q 32.765625 42.1875 36.015625 45.375 
Q 39.265625 48.578125 39.265625 53.21875 
Q 39.265625 58.0625 35.90625 61.359375 
Q 32.5625 64.65625 27.59375 64.65625 
Q 22.5625 64.65625 19.234375 61.421875 
Q 15.921875 58.203125 15.921875 53.71875 
z
M 13.09375 20.65625 
Q 13.09375 16.890625 14.875 13.375 
Q 16.65625 9.859375 20.171875 7.921875 
Q 23.6875 6 27.734375 6 
Q 34.03125 6 38.125 10.046875 
Q 42.234375 14.109375 42.234375 20.359375 
Q 42.234375 26.703125 38.015625 30.859375 
Q 33.796875 35.015625 27.4375 35.015625 
Q 21.234375 35.015625 17.15625 30.90625 
Q 13.09375 26.8125 13.09375 20.65625 
z
" id="ArialMT-56"/>
       </defs>
       <use xlink:href="#ArialMT-48"/>
       <use x="55.615234" xlink:href="#ArialMT-46"/>
       <use x="83.398438" xlink:href="#ArialMT-56"/>
      </g>
     </g>
    </g>
    <g id="text_12">
     <!-- proportion of reactions  -->
     <g transform="translate(-5.789375 151.135938)rotate(-90)scale(0.1 -0.1)">
      <defs>
       <path d="M 8.6875 0 
L 8.6875 45.015625 
L 0.921875 45.015625 
L 0.921875 51.859375 
L 8.6875 51.859375 
L 8.6875 57.375 
Q 8.6875 62.59375 9.625 65.140625 
Q 10.890625 68.5625 14.078125 70.671875 
Q 17.28125 72.796875 23.046875 72.796875 
Q 26.765625 72.796875 31.25 71.921875 
L 29.9375 64.265625 
Q 27.203125 64.75 24.75 64.75 
Q 20.75 64.75 19.09375 63.03125 
Q 17.4375 61.328125 17.4375 56.640625 
L 17.4375 51.859375 
L 27.546875 51.859375 
L 27.546875 45.015625 
L 17.4375 45.015625 
L 17.4375 0 
z
" id="ArialMT-102"/>
       <path d="M 40.4375 19 
L 49.078125 17.875 
Q 47.65625 8.9375 41.8125 3.875 
Q 35.984375 -1.171875 27.484375 -1.171875 
Q 16.84375 -1.171875 10.375 5.78125 
Q 3.90625 12.75 3.90625 25.734375 
Q 3.90625 34.125 6.6875 40.421875 
Q 9.46875 46.734375 15.15625 49.875 
Q 20.84375 53.03125 27.546875 53.03125 
Q 35.984375 53.03125 41.359375 48.75 
Q 46.734375 44.484375 48.25 36.625 
L 39.703125 35.296875 
Q 38.484375 40.53125 35.375 43.15625 
Q 32.28125 45.796875 27.875 45.796875 
Q 21.234375 45.796875 17.078125 41.03125 
Q 12.9375 36.28125 12.9375 25.984375 
Q 12.9375 15.53125 16.9375 10.796875 
Q 20.953125 6.0625 27.390625 6.0625 
Q 32.5625 6.0625 36.03125 9.234375 
Q 39.5 12.40625 40.4375 19 
z
" id="ArialMT-99"/>
      </defs>
      <use xlink:href="#ArialMT-112"/>
      <use x="55.615234" xlink:href="#ArialMT-114"/>
      <use x="88.916016" xlink:href="#ArialMT-111"/>
      <use x="144.53125" xlink:href="#ArialMT-112"/>
      <use x="200.146484" xlink:href="#ArialMT-111"/>
      <use x="255.761719" xlink:href="#ArialMT-114"/>
      <use x="289.0625" xlink:href="#ArialMT-116"/>
      <use x="316.845703" xlink:href="#ArialMT-105"/>
      <use x="339.0625" xlink:href="#ArialMT-111"/>
      <use x="394.677734" xlink:href="#ArialMT-110"/>
      <use x="450.292969" xlink:href="#ArialMT-32"/>
      <use x="478.076172" xlink:href="#ArialMT-111"/>
      <use x="533.691406" xlink:href="#ArialMT-102"/>
      <use x="561.474609" xlink:href="#ArialMT-32"/>
      <use x="589.257812" xlink:href="#ArialMT-114"/>
      <use x="622.558594" xlink:href="#ArialMT-101"/>
      <use x="678.173828" xlink:href="#ArialMT-97"/>
      <use x="733.789062" xlink:href="#ArialMT-99"/>
      <use x="783.789062" xlink:href="#ArialMT-116"/>
      <use x="811.572266" xlink:href="#ArialMT-105"/>
      <use x="833.789062" xlink:href="#ArialMT-111"/>
      <use x="889.404297" xlink:href="#ArialMT-110"/>
      <use x="945.019531" xlink:href="#ArialMT-115"/>
      <use x="995.019531" xlink:href="#ArialMT-32"/>
     </g>
     <!--  that use a metal -->
     <g transform="translate(4.7875 136.9625)rotate(-90)scale(0.1 -0.1)">
      <defs>
       <path d="M 6.59375 0 
L 6.59375 71.578125 
L 15.375 71.578125 
L 15.375 45.90625 
Q 21.53125 53.03125 30.90625 53.03125 
Q 36.671875 53.03125 40.921875 50.75 
Q 45.171875 48.484375 47 44.484375 
Q 48.828125 40.484375 48.828125 32.859375 
L 48.828125 0 
L 40.046875 0 
L 40.046875 32.859375 
Q 40.046875 39.453125 37.1875 42.453125 
Q 34.328125 45.453125 29.109375 45.453125 
Q 25.203125 45.453125 21.75 43.421875 
Q 18.3125 41.40625 16.84375 37.9375 
Q 15.375 34.46875 15.375 28.375 
L 15.375 0 
z
" id="ArialMT-104"/>
       <path d="M 40.578125 0 
L 40.578125 7.625 
Q 34.515625 -1.171875 24.125 -1.171875 
Q 19.53125 -1.171875 15.546875 0.578125 
Q 11.578125 2.34375 9.640625 5 
Q 7.71875 7.671875 6.9375 11.53125 
Q 6.390625 14.109375 6.390625 19.734375 
L 6.390625 51.859375 
L 15.1875 51.859375 
L 15.1875 23.09375 
Q 15.1875 16.21875 15.71875 13.8125 
Q 16.546875 10.359375 19.234375 8.375 
Q 21.921875 6.390625 25.875 6.390625 
Q 29.828125 6.390625 33.296875 8.421875 
Q 36.765625 10.453125 38.203125 13.9375 
Q 39.65625 17.4375 39.65625 24.078125 
L 39.65625 51.859375 
L 48.4375 51.859375 
L 48.4375 0 
z
" id="ArialMT-117"/>
       <path d="M 6.59375 0 
L 6.59375 51.859375 
L 14.453125 51.859375 
L 14.453125 44.578125 
Q 16.890625 48.390625 20.9375 50.703125 
Q 25 53.03125 30.171875 53.03125 
Q 35.9375 53.03125 39.625 50.640625 
Q 43.3125 48.25 44.828125 43.953125 
Q 50.984375 53.03125 60.84375 53.03125 
Q 68.5625 53.03125 72.703125 48.75 
Q 76.859375 44.484375 76.859375 35.59375 
L 76.859375 0 
L 68.109375 0 
L 68.109375 32.671875 
Q 68.109375 37.9375 67.25 40.25 
Q 66.40625 42.578125 64.15625 43.984375 
Q 61.921875 45.40625 58.890625 45.40625 
Q 53.421875 45.40625 49.796875 41.765625 
Q 46.1875 38.140625 46.1875 30.125 
L 46.1875 0 
L 37.40625 0 
L 37.40625 33.6875 
Q 37.40625 39.546875 35.25 42.46875 
Q 33.109375 45.40625 28.21875 45.40625 
Q 24.515625 45.40625 21.359375 43.453125 
Q 18.21875 41.5 16.796875 37.734375 
Q 15.375 33.984375 15.375 26.90625 
L 15.375 0 
z
" id="ArialMT-109"/>
       <path d="M 6.390625 0 
L 6.390625 71.578125 
L 15.1875 71.578125 
L 15.1875 0 
z
" id="ArialMT-108"/>
      </defs>
      <use xlink:href="#ArialMT-32"/>
      <use x="27.783203" xlink:href="#ArialMT-116"/>
      <use x="55.566406" xlink:href="#ArialMT-104"/>
      <use x="111.181641" xlink:href="#ArialMT-97"/>
      <use x="166.796875" xlink:href="#ArialMT-116"/>
      <use x="194.580078" xlink:href="#ArialMT-32"/>
      <use x="222.363281" xlink:href="#ArialMT-117"/>
      <use x="277.978516" xlink:href="#ArialMT-115"/>
      <use x="327.978516" xlink:href="#ArialMT-101"/>
      <use x="383.59375" xlink:href="#ArialMT-32"/>
      <use x="411.376953" xlink:href="#ArialMT-97"/>
      <use x="466.992188" xlink:href="#ArialMT-32"/>
      <use x="494.775391" xlink:href="#ArialMT-109"/>
      <use x="578.076172" xlink:href="#ArialMT-101"/>
      <use x="633.691406" xlink:href="#ArialMT-116"/>
      <use x="661.474609" xlink:href="#ArialMT-97"/>
      <use x="717.089844" xlink:href="#ArialMT-108"/>
     </g>
    </g>
   </g>
   <g id="line2d_11">
    <path clip-path="url(#p695f22015d)" d="M 33.264318 70.165872 
L 34.869689 71.196773 
L 36.475061 72.227675 
L 38.080433 73.258576 
L 39.685804 74.289478 
L 41.291176 75.320379 
L 42.896547 76.351281 
L 44.501919 77.382182 
L 46.10729 78.413084 
L 47.712662 79.443985 
L 49.318034 80.474887 
L 50.923405 81.505789 
L 52.528777 82.53669 
L 54.134148 83.567592 
L 55.73952 84.598493 
L 57.344891 85.629395 
L 58.950263 86.660296 
L 60.555635 87.691198 
L 62.161006 88.722099 
L 63.766378 89.753001 
L 65.371749 90.783902 
L 66.977121 91.814804 
L 68.582492 92.845705 
L 70.187864 93.876607 
L 71.793236 94.907509 
L 73.398607 95.93841 
L 75.003979 96.969312 
L 76.60935 98.000213 
L 78.214722 99.031115 
L 79.820093 100.062016 
L 81.425465 101.092918 
L 83.030837 102.123819 
L 84.636208 103.154721 
L 86.24158 104.185622 
L 87.846951 105.216524 
L 89.452323 106.247425 
L 91.057694 107.278327 
L 92.663066 108.309229 
L 94.268438 109.34013 
L 95.873809 110.371032 
L 97.479181 111.401933 
L 99.084552 112.432835 
L 100.689924 113.463736 
L 102.295295 114.494638 
L 103.900667 115.525539 
L 105.506039 116.556441 
L 107.11141 117.587342 
L 108.716782 118.618244 
L 110.322153 119.649146 
L 111.927525 120.680047 
L 113.532897 121.710949 
L 115.138268 122.74185 
L 116.74364 123.772752 
L 118.349011 124.803653 
L 119.954383 125.834555 
L 121.559754 126.865456 
L 123.165126 127.896358 
L 124.770498 128.927259 
L 126.375869 129.958161 
L 127.981241 130.989062 
L 129.586612 132.019964 
L 131.191984 133.050866 
L 132.797355 134.081767 
L 134.402727 135.112669 
L 136.008099 136.14357 
L 137.61347 137.174472 
L 139.218842 138.205373 
L 140.824213 139.236275 
L 142.429585 140.267176 
L 144.034956 141.298078 
L 145.640328 142.328979 
L 147.2457 143.359881 
L 148.851071 144.390782 
L 150.456443 145.421684 
L 152.061814 146.452586 
L 153.667186 147.483487 
L 155.272557 148.514389 
L 156.877929 149.54529 
L 158.483301 150.576192 
L 160.088672 151.607093 
L 161.694044 152.637995 
L 163.299415 153.668896 
L 164.904787 154.699798 
L 166.510158 155.730699 
L 168.11553 156.761601 
L 169.720902 157.792502 
L 171.326273 158.823404 
L 172.931645 159.854306 
L 174.537016 160.885207 
L 176.142388 161.916109 
L 177.747759 162.94701 
L 179.353131 163.977912 
L 180.958503 165.008813 
L 182.563874 166.039715 
L 184.169246 167.070616 
L 185.774617 168.101518 
L 187.379989 169.132419 
L 188.98536 170.163321 
L 190.590732 171.194222 
L 192.196104 172.225124 
" style="fill:none;stroke:#e41a1c;stroke-linecap:square;stroke-width:2.25;"/>
   </g>
   <g id="patch_3">
    <path d="M 31.675 189.2 
L 31.675 10.8 
" style="fill:none;stroke:#000000;stroke-linecap:square;stroke-linejoin:miter;stroke-width:0.8;"/>
   </g>
   <g id="patch_4">
    <path d="M 31.675 189.2 
L 198.553375 189.2 
" style="fill:none;stroke:#000000;stroke-linecap:square;stroke-linejoin:miter;stroke-width:0.8;"/>
   </g>
   <g id="text_13">
    <!-- $r=-0.75$  -->
    <g transform="translate(131.802025 44.6375)scale(0.1 -0.1)">
     <defs>
      <path d="M 44.578125 46.390625 
Q 43.21875 47.125 41.453125 47.515625 
Q 39.703125 47.90625 37.703125 47.90625 
Q 30.515625 47.90625 25.140625 42.453125 
Q 19.78125 37.015625 18.015625 27.875 
L 12.5 0 
L 3.515625 0 
L 14.203125 54.6875 
L 23.1875 54.6875 
L 21.484375 46.1875 
Q 25.046875 50.921875 30 53.453125 
Q 34.96875 56 40.578125 56 
Q 42.046875 56 43.453125 55.828125 
Q 44.875 55.671875 46.296875 55.28125 
z
" id="DejaVuSans-Oblique-114"/>
      <path d="M 10.59375 45.40625 
L 73.1875 45.40625 
L 73.1875 37.203125 
L 10.59375 37.203125 
z
M 10.59375 25.484375 
L 73.1875 25.484375 
L 73.1875 17.1875 
L 10.59375 17.1875 
z
" id="DejaVuSans-61"/>
      <path d="M 10.59375 35.5 
L 73.1875 35.5 
L 73.1875 27.203125 
L 10.59375 27.203125 
z
" id="DejaVuSans-8722"/>
      <path d="M 31.78125 66.40625 
Q 24.171875 66.40625 20.328125 58.90625 
Q 16.5 51.421875 16.5 36.375 
Q 16.5 21.390625 20.328125 13.890625 
Q 24.171875 6.390625 31.78125 6.390625 
Q 39.453125 6.390625 43.28125 13.890625 
Q 47.125 21.390625 47.125 36.375 
Q 47.125 51.421875 43.28125 58.90625 
Q 39.453125 66.40625 31.78125 66.40625 
z
M 31.78125 74.21875 
Q 44.046875 74.21875 50.515625 64.515625 
Q 56.984375 54.828125 56.984375 36.375 
Q 56.984375 17.96875 50.515625 8.265625 
Q 44.046875 -1.421875 31.78125 -1.421875 
Q 19.53125 -1.421875 13.0625 8.265625 
Q 6.59375 17.96875 6.59375 36.375 
Q 6.59375 54.828125 13.0625 64.515625 
Q 19.53125 74.21875 31.78125 74.21875 
z
" id="DejaVuSans-48"/>
      <path d="M 10.6875 12.40625 
L 21 12.40625 
L 21 0 
L 10.6875 0 
z
" id="DejaVuSans-46"/>
      <path d="M 8.203125 72.90625 
L 55.078125 72.90625 
L 55.078125 68.703125 
L 28.609375 0 
L 18.3125 0 
L 43.21875 64.59375 
L 8.203125 64.59375 
z
" id="DejaVuSans-55"/>
      <path d="M 10.796875 72.90625 
L 49.515625 72.90625 
L 49.515625 64.59375 
L 19.828125 64.59375 
L 19.828125 46.734375 
Q 21.96875 47.46875 24.109375 47.828125 
Q 26.265625 48.1875 28.421875 48.1875 
Q 40.625 48.1875 47.75 41.5 
Q 54.890625 34.8125 54.890625 23.390625 
Q 54.890625 11.625 47.5625 5.09375 
Q 40.234375 -1.421875 26.90625 -1.421875 
Q 22.3125 -1.421875 17.546875 -0.640625 
Q 12.796875 0.140625 7.71875 1.703125 
L 7.71875 11.625 
Q 12.109375 9.234375 16.796875 8.0625 
Q 21.484375 6.890625 26.703125 6.890625 
Q 35.15625 6.890625 40.078125 11.328125 
Q 45.015625 15.765625 45.015625 23.390625 
Q 45.015625 31 40.078125 35.4375 
Q 35.15625 39.890625 26.703125 39.890625 
Q 22.75 39.890625 18.8125 39.015625 
Q 14.890625 38.140625 10.796875 36.28125 
z
" id="DejaVuSans-53"/>
     </defs>
     <use transform="translate(0 0.78125)" xlink:href="#DejaVuSans-Oblique-114"/>
     <use transform="translate(60.595703 0.78125)" xlink:href="#DejaVuSans-61"/>
     <use transform="translate(183.349609 0.78125)" xlink:href="#DejaVuSans-8722"/>
     <use transform="translate(286.621094 0.78125)" xlink:href="#DejaVuSans-48"/>
     <use transform="translate(350.244141 0.78125)" xlink:href="#DejaVuSans-46"/>
     <use transform="translate(374.28125 0.78125)" xlink:href="#DejaVuSans-55"/>
     <use transform="translate(437.904297 0.78125)" xlink:href="#DejaVuSans-53"/>
     <use transform="translate(501.527344 0.78125)" xlink:href="#ArialMT-32"/>
    </g>
    <!-- $P&lt;10^{-18}$ -->
    <g transform="translate(131.802025 55.4)scale(0.1 -0.1)">
     <defs>
      <path d="M 16.890625 72.90625 
L 39.703125 72.90625 
Q 49.65625 72.90625 54.875 68.265625 
Q 60.109375 63.625 60.109375 54.6875 
Q 60.109375 42.671875 52.390625 35.984375 
Q 44.671875 29.296875 30.71875 29.296875 
L 18.3125 29.296875 
L 12.59375 0 
L 2.6875 0 
z
M 25.203125 64.796875 
L 19.921875 37.40625 
L 32.328125 37.40625 
Q 40.71875 37.40625 45.203125 41.703125 
Q 49.703125 46 49.703125 54 
Q 49.703125 59.125 46.65625 61.953125 
Q 43.609375 64.796875 38.09375 64.796875 
z
" id="DejaVuSans-Oblique-80"/>
      <path d="M 73.1875 49.21875 
L 22.796875 31.296875 
L 73.1875 13.484375 
L 73.1875 4.59375 
L 10.59375 27.296875 
L 10.59375 35.40625 
L 73.1875 58.109375 
z
" id="DejaVuSans-60"/>
      <path d="M 12.40625 8.296875 
L 28.515625 8.296875 
L 28.515625 63.921875 
L 10.984375 60.40625 
L 10.984375 69.390625 
L 28.421875 72.90625 
L 38.28125 72.90625 
L 38.28125 8.296875 
L 54.390625 8.296875 
L 54.390625 0 
L 12.40625 0 
z
" id="DejaVuSans-49"/>
      <path d="M 31.78125 34.625 
Q 24.75 34.625 20.71875 30.859375 
Q 16.703125 27.09375 16.703125 20.515625 
Q 16.703125 13.921875 20.71875 10.15625 
Q 24.75 6.390625 31.78125 6.390625 
Q 38.8125 6.390625 42.859375 10.171875 
Q 46.921875 13.96875 46.921875 20.515625 
Q 46.921875 27.09375 42.890625 30.859375 
Q 38.875 34.625 31.78125 34.625 
z
M 21.921875 38.8125 
Q 15.578125 40.375 12.03125 44.71875 
Q 8.5 49.078125 8.5 55.328125 
Q 8.5 64.0625 14.71875 69.140625 
Q 20.953125 74.21875 31.78125 74.21875 
Q 42.671875 74.21875 48.875 69.140625 
Q 55.078125 64.0625 55.078125 55.328125 
Q 55.078125 49.078125 51.53125 44.71875 
Q 48 40.375 41.703125 38.8125 
Q 48.828125 37.15625 52.796875 32.3125 
Q 56.78125 27.484375 56.78125 20.515625 
Q 56.78125 9.90625 50.3125 4.234375 
Q 43.84375 -1.421875 31.78125 -1.421875 
Q 19.734375 -1.421875 13.25 4.234375 
Q 6.78125 9.90625 6.78125 20.515625 
Q 6.78125 27.484375 10.78125 32.3125 
Q 14.796875 37.15625 21.921875 38.8125 
z
M 18.3125 54.390625 
Q 18.3125 48.734375 21.84375 45.5625 
Q 25.390625 42.390625 31.78125 42.390625 
Q 38.140625 42.390625 41.71875 45.5625 
Q 45.3125 48.734375 45.3125 54.390625 
Q 45.3125 60.0625 41.71875 63.234375 
Q 38.140625 66.40625 31.78125 66.40625 
Q 25.390625 66.40625 21.84375 63.234375 
Q 18.3125 60.0625 18.3125 54.390625 
z
" id="DejaVuSans-56"/>
     </defs>
     <use transform="translate(0 0.765625)" xlink:href="#DejaVuSans-Oblique-80"/>
     <use transform="translate(79.785156 0.765625)" xlink:href="#DejaVuSans-60"/>
     <use transform="translate(183.056641 0.765625)" xlink:href="#DejaVuSans-49"/>
     <use transform="translate(246.679688 0.765625)" xlink:href="#DejaVuSans-48"/>
     <use transform="translate(311.259766 39.046875)scale(0.7)" xlink:href="#DejaVuSans-8722"/>
     <use transform="translate(369.912109 39.046875)scale(0.7)" xlink:href="#DejaVuSans-49"/>
     <use transform="translate(414.448242 39.046875)scale(0.7)" xlink:href="#DejaVuSans-56"/>
    </g>
   </g>
  </g>
 </g>
 <defs>
  <clipPath id="p695f22015d">
   <rect height="178.4" width="166.878375" x="31.675" y="10.8"/>
  </clipPath>
 </defs>
</svg>
