<?xml version="1.0" encoding="utf-8" standalone="no"?>
<!DOCTYPE svg PUBLIC "-//W3C//DTD SVG 1.1//EN"
  "http://www.w3.org/Graphics/SVG/1.1/DTD/svg11.dtd">
<!-- Created with matplotlib (https://matplotlib.org/) -->
<svg height="216pt" version="1.1" viewBox="0 0 216 216" width="216pt" xmlns="http://www.w3.org/2000/svg" xmlns:xlink="http://www.w3.org/1999/xlink">
 <metadata>
  <rdf:RDF xmlns:cc="http://creativecommons.org/ns#" xmlns:dc="http://purl.org/dc/elements/1.1/" xmlns:rdf="http://www.w3.org/1999/02/22-rdf-syntax-ns#">
   <cc:Work>
    <dc:type rdf:resource="http://purl.org/dc/dcmitype/StillImage"/>
    <dc:date>2023-05-08T18:06:05.119735</dc:date>
    <dc:format>image/svg+xml</dc:format>
    <dc:creator>
     <cc:Agent>
      <dc:title>Matplotlib v3.3.4, https://matplotlib.org/</dc:title>
     </cc:Agent>
    </dc:creator>
   </cc:Work>
  </rdf:RDF>
 </metadata>
 <defs>
  <style type="text/css">*{stroke-linecap:butt;stroke-linejoin:round;}</style>
 </defs>
 <g id="figure_1">
  <g id="patch_1">
   <path d="M 0 216 
L 216 216 
L 216 0 
L 0 0 
z
" style="fill:none;"/>
  </g>
  <g id="axes_1">
   <g id="patch_2">
    <path d="M 37.175 189.2 
L 205.2 189.2 
L 205.2 10.8 
L 37.175 10.8 
z
" style="fill:#ffffff;"/>
   </g>
   <g id="PathCollection_1">
    <defs>
     <path d="M 0 3 
C 0.795609 3 1.55874 2.683901 2.12132 2.12132 
C 2.683901 1.55874 3 0.795609 3 0 
C 3 -0.795609 2.683901 -1.55874 2.12132 -2.12132 
C 1.55874 -2.683901 0.795609 -3 0 -3 
C -0.795609 -3 -1.55874 -2.683901 -2.12132 -2.12132 
C -2.683901 -1.55874 -3 -0.795609 -3 0 
C -3 0.795609 -2.683901 1.55874 -2.12132 2.12132 
C -1.55874 2.683901 -0.795609 3 0 3 
z
" id="mad695990b0" style="stroke:#000000;stroke-opacity:0.8;"/>
    </defs>
    <g clip-path="url(#p420219b2d2)">
     <use style="fill-opacity:0.8;stroke:#000000;stroke-opacity:0.8;" x="38.775238" xlink:href="#mad695990b0" y="62.396429"/>
     <use style="fill-opacity:0.8;stroke:#000000;stroke-opacity:0.8;" x="40.375476" xlink:href="#mad695990b0" y="68.386696"/>
     <use style="fill-opacity:0.8;stroke:#000000;stroke-opacity:0.8;" x="41.975714" xlink:href="#mad695990b0" y="23.655884"/>
     <use style="fill-opacity:0.8;stroke:#000000;stroke-opacity:0.8;" x="43.575952" xlink:href="#mad695990b0" y="57.724956"/>
     <use style="fill-opacity:0.8;stroke:#000000;stroke-opacity:0.8;" x="45.17619" xlink:href="#mad695990b0" y="82.139992"/>
     <use style="fill-opacity:0.8;stroke:#000000;stroke-opacity:0.8;" x="46.776429" xlink:href="#mad695990b0" y="35.018796"/>
     <use style="fill-opacity:0.8;stroke:#000000;stroke-opacity:0.8;" x="48.376667" xlink:href="#mad695990b0" y="30.814211"/>
     <use style="fill-opacity:0.8;stroke:#000000;stroke-opacity:0.8;" x="49.976905" xlink:href="#mad695990b0" y="40.12961"/>
     <use style="fill-opacity:0.8;stroke:#000000;stroke-opacity:0.8;" x="51.577143" xlink:href="#mad695990b0" y="50.353939"/>
     <use style="fill-opacity:0.8;stroke:#000000;stroke-opacity:0.8;" x="53.177381" xlink:href="#mad695990b0" y="37.695079"/>
     <use style="fill-opacity:0.8;stroke:#000000;stroke-opacity:0.8;" x="54.777619" xlink:href="#mad695990b0" y="35.095834"/>
     <use style="fill-opacity:0.8;stroke:#000000;stroke-opacity:0.8;" x="56.377857" xlink:href="#mad695990b0" y="54.670402"/>
     <use style="fill-opacity:0.8;stroke:#000000;stroke-opacity:0.8;" x="57.978095" xlink:href="#mad695990b0" y="48.729244"/>
     <use style="fill-opacity:0.8;stroke:#000000;stroke-opacity:0.8;" x="59.578333" xlink:href="#mad695990b0" y="18.909091"/>
     <use style="fill-opacity:0.8;stroke:#000000;stroke-opacity:0.8;" x="61.178571" xlink:href="#mad695990b0" y="40.346013"/>
     <use style="fill-opacity:0.8;stroke:#000000;stroke-opacity:0.8;" x="62.77881" xlink:href="#mad695990b0" y="37.968985"/>
     <use style="fill-opacity:0.8;stroke:#000000;stroke-opacity:0.8;" x="64.379048" xlink:href="#mad695990b0" y="109.992778"/>
     <use style="fill-opacity:0.8;stroke:#000000;stroke-opacity:0.8;" x="65.979286" xlink:href="#mad695990b0" y="181.090909"/>
     <use style="fill-opacity:0.8;stroke:#000000;stroke-opacity:0.8;" x="67.579524" xlink:href="#mad695990b0" y="171.349946"/>
     <use style="fill-opacity:0.8;stroke:#000000;stroke-opacity:0.8;" x="69.179762" xlink:href="#mad695990b0" y="136.216529"/>
     <use style="fill-opacity:0.8;stroke:#000000;stroke-opacity:0.8;" x="70.78" xlink:href="#mad695990b0" y="82.681013"/>
     <use style="fill-opacity:0.8;stroke:#000000;stroke-opacity:0.8;" x="72.380238" xlink:href="#mad695990b0" y="103.578277"/>
     <use style="fill-opacity:0.8;stroke:#000000;stroke-opacity:0.8;" x="73.980476" xlink:href="#mad695990b0" y="85.118014"/>
     <use style="fill-opacity:0.8;stroke:#000000;stroke-opacity:0.8;" x="75.580714" xlink:href="#mad695990b0" y="73.211879"/>
     <use style="fill-opacity:0.8;stroke:#000000;stroke-opacity:0.8;" x="77.180952" xlink:href="#mad695990b0" y="64.430756"/>
     <use style="fill-opacity:0.8;stroke:#000000;stroke-opacity:0.8;" x="78.78119" xlink:href="#mad695990b0" y="75.629333"/>
     <use style="fill-opacity:0.8;stroke:#000000;stroke-opacity:0.8;" x="80.381429" xlink:href="#mad695990b0" y="81.071522"/>
     <use style="fill-opacity:0.8;stroke:#000000;stroke-opacity:0.8;" x="81.981667" xlink:href="#mad695990b0" y="86.559438"/>
     <use style="fill-opacity:0.8;stroke:#000000;stroke-opacity:0.8;" x="83.581905" xlink:href="#mad695990b0" y="79.586992"/>
     <use style="fill-opacity:0.8;stroke:#000000;stroke-opacity:0.8;" x="85.182143" xlink:href="#mad695990b0" y="79.508395"/>
     <use style="fill-opacity:0.8;stroke:#000000;stroke-opacity:0.8;" x="86.782381" xlink:href="#mad695990b0" y="37.244863"/>
     <use style="fill-opacity:0.8;stroke:#000000;stroke-opacity:0.8;" x="88.382619" xlink:href="#mad695990b0" y="36.794995"/>
     <use style="fill-opacity:0.8;stroke:#000000;stroke-opacity:0.8;" x="89.982857" xlink:href="#mad695990b0" y="55.050136"/>
     <use style="fill-opacity:0.8;stroke:#000000;stroke-opacity:0.8;" x="91.583095" xlink:href="#mad695990b0" y="65.632705"/>
     <use style="fill-opacity:0.8;stroke:#000000;stroke-opacity:0.8;" x="93.183333" xlink:href="#mad695990b0" y="63.317254"/>
     <use style="fill-opacity:0.8;stroke:#000000;stroke-opacity:0.8;" x="94.783571" xlink:href="#mad695990b0" y="72.327445"/>
     <use style="fill-opacity:0.8;stroke:#000000;stroke-opacity:0.8;" x="96.38381" xlink:href="#mad695990b0" y="42.200834"/>
     <use style="fill-opacity:0.8;stroke:#000000;stroke-opacity:0.8;" x="97.984048" xlink:href="#mad695990b0" y="75.456461"/>
     <use style="fill-opacity:0.8;stroke:#000000;stroke-opacity:0.8;" x="99.584286" xlink:href="#mad695990b0" y="90.175012"/>
     <use style="fill-opacity:0.8;stroke:#000000;stroke-opacity:0.8;" x="101.184524" xlink:href="#mad695990b0" y="97.565499"/>
     <use style="fill-opacity:0.8;stroke:#000000;stroke-opacity:0.8;" x="102.784762" xlink:href="#mad695990b0" y="98.394856"/>
     <use style="fill-opacity:0.8;stroke:#000000;stroke-opacity:0.8;" x="104.385" xlink:href="#mad695990b0" y="85.942189"/>
     <use style="fill-opacity:0.8;stroke:#000000;stroke-opacity:0.8;" x="105.985238" xlink:href="#mad695990b0" y="96.195367"/>
     <use style="fill-opacity:0.8;stroke:#000000;stroke-opacity:0.8;" x="107.585476" xlink:href="#mad695990b0" y="101.872893"/>
     <use style="fill-opacity:0.8;stroke:#000000;stroke-opacity:0.8;" x="109.185714" xlink:href="#mad695990b0" y="66.155104"/>
     <use style="fill-opacity:0.8;stroke:#000000;stroke-opacity:0.8;" x="110.785952" xlink:href="#mad695990b0" y="43.337013"/>
     <use style="fill-opacity:0.8;stroke:#000000;stroke-opacity:0.8;" x="112.38619" xlink:href="#mad695990b0" y="82.844257"/>
     <use style="fill-opacity:0.8;stroke:#000000;stroke-opacity:0.8;" x="113.986429" xlink:href="#mad695990b0" y="108.14357"/>
     <use style="fill-opacity:0.8;stroke:#000000;stroke-opacity:0.8;" x="115.586667" xlink:href="#mad695990b0" y="127.994225"/>
     <use style="fill-opacity:0.8;stroke:#000000;stroke-opacity:0.8;" x="117.186905" xlink:href="#mad695990b0" y="116.717572"/>
     <use style="fill-opacity:0.8;stroke:#000000;stroke-opacity:0.8;" x="118.787143" xlink:href="#mad695990b0" y="98.208065"/>
     <use style="fill-opacity:0.8;stroke:#000000;stroke-opacity:0.8;" x="120.387381" xlink:href="#mad695990b0" y="92.181435"/>
     <use style="fill-opacity:0.8;stroke:#000000;stroke-opacity:0.8;" x="121.987619" xlink:href="#mad695990b0" y="98.147083"/>
     <use style="fill-opacity:0.8;stroke:#000000;stroke-opacity:0.8;" x="123.587857" xlink:href="#mad695990b0" y="108.718541"/>
     <use style="fill-opacity:0.8;stroke:#000000;stroke-opacity:0.8;" x="125.188095" xlink:href="#mad695990b0" y="92.021859"/>
     <use style="fill-opacity:0.8;stroke:#000000;stroke-opacity:0.8;" x="126.788333" xlink:href="#mad695990b0" y="48.16555"/>
     <use style="fill-opacity:0.8;stroke:#000000;stroke-opacity:0.8;" x="128.388571" xlink:href="#mad695990b0" y="88.70231"/>
     <use style="fill-opacity:0.8;stroke:#000000;stroke-opacity:0.8;" x="129.98881" xlink:href="#mad695990b0" y="98.105052"/>
     <use style="fill-opacity:0.8;stroke:#000000;stroke-opacity:0.8;" x="131.589048" xlink:href="#mad695990b0" y="99.880507"/>
     <use style="fill-opacity:0.8;stroke:#000000;stroke-opacity:0.8;" x="133.189286" xlink:href="#mad695990b0" y="90.108115"/>
     <use style="fill-opacity:0.8;stroke:#000000;stroke-opacity:0.8;" x="134.789524" xlink:href="#mad695990b0" y="102.53657"/>
     <use style="fill-opacity:0.8;stroke:#000000;stroke-opacity:0.8;" x="136.389762" xlink:href="#mad695990b0" y="97.323997"/>
     <use style="fill-opacity:0.8;stroke:#000000;stroke-opacity:0.8;" x="137.99" xlink:href="#mad695990b0" y="112.591983"/>
     <use style="fill-opacity:0.8;stroke:#000000;stroke-opacity:0.8;" x="139.590238" xlink:href="#mad695990b0" y="112.257888"/>
     <use style="fill-opacity:0.8;stroke:#000000;stroke-opacity:0.8;" x="141.190476" xlink:href="#mad695990b0" y="80.342559"/>
     <use style="fill-opacity:0.8;stroke:#000000;stroke-opacity:0.8;" x="142.790714" xlink:href="#mad695990b0" y="68.731628"/>
     <use style="fill-opacity:0.8;stroke:#000000;stroke-opacity:0.8;" x="144.390952" xlink:href="#mad695990b0" y="81.290607"/>
     <use style="fill-opacity:0.8;stroke:#000000;stroke-opacity:0.8;" x="145.99119" xlink:href="#mad695990b0" y="75.10212"/>
     <use style="fill-opacity:0.8;stroke:#000000;stroke-opacity:0.8;" x="147.591429" xlink:href="#mad695990b0" y="88.198229"/>
     <use style="fill-opacity:0.8;stroke:#000000;stroke-opacity:0.8;" x="149.191667" xlink:href="#mad695990b0" y="95.580873"/>
     <use style="fill-opacity:0.8;stroke:#000000;stroke-opacity:0.8;" x="150.791905" xlink:href="#mad695990b0" y="66.316568"/>
     <use style="fill-opacity:0.8;stroke:#000000;stroke-opacity:0.8;" x="152.392143" xlink:href="#mad695990b0" y="83.221957"/>
     <use style="fill-opacity:0.8;stroke:#000000;stroke-opacity:0.8;" x="153.992381" xlink:href="#mad695990b0" y="121.391715"/>
     <use style="fill-opacity:0.8;stroke:#000000;stroke-opacity:0.8;" x="155.592619" xlink:href="#mad695990b0" y="127.218268"/>
     <use style="fill-opacity:0.8;stroke:#000000;stroke-opacity:0.8;" x="157.192857" xlink:href="#mad695990b0" y="133.916955"/>
     <use style="fill-opacity:0.8;stroke:#000000;stroke-opacity:0.8;" x="158.793095" xlink:href="#mad695990b0" y="100.021117"/>
     <use style="fill-opacity:0.8;stroke:#000000;stroke-opacity:0.8;" x="160.393333" xlink:href="#mad695990b0" y="50.541393"/>
     <use style="fill-opacity:0.8;stroke:#000000;stroke-opacity:0.8;" x="161.993571" xlink:href="#mad695990b0" y="58.336411"/>
     <use style="fill-opacity:0.8;stroke:#000000;stroke-opacity:0.8;" x="163.59381" xlink:href="#mad695990b0" y="124.567555"/>
     <use style="fill-opacity:0.8;stroke:#000000;stroke-opacity:0.8;" x="165.194048" xlink:href="#mad695990b0" y="109.636691"/>
     <use style="fill-opacity:0.8;stroke:#000000;stroke-opacity:0.8;" x="166.794286" xlink:href="#mad695990b0" y="138.645561"/>
     <use style="fill-opacity:0.8;stroke:#000000;stroke-opacity:0.8;" x="168.394524" xlink:href="#mad695990b0" y="149.907718"/>
     <use style="fill-opacity:0.8;stroke:#000000;stroke-opacity:0.8;" x="169.994762" xlink:href="#mad695990b0" y="144.868488"/>
     <use style="fill-opacity:0.8;stroke:#000000;stroke-opacity:0.8;" x="171.595" xlink:href="#mad695990b0" y="181.090909"/>
     <use style="fill-opacity:0.8;stroke:#000000;stroke-opacity:0.8;" x="173.195238" xlink:href="#mad695990b0" y="131.673165"/>
     <use style="fill-opacity:0.8;stroke:#000000;stroke-opacity:0.8;" x="174.795476" xlink:href="#mad695990b0" y="69.880897"/>
     <use style="fill-opacity:0.8;stroke:#000000;stroke-opacity:0.8;" x="176.395714" xlink:href="#mad695990b0" y="69.880897"/>
     <use style="fill-opacity:0.8;stroke:#000000;stroke-opacity:0.8;" x="177.995952" xlink:href="#mad695990b0" y="106.016023"/>
     <use style="fill-opacity:0.8;stroke:#000000;stroke-opacity:0.8;" x="179.59619" xlink:href="#mad695990b0" y="106.016023"/>
     <use style="fill-opacity:0.8;stroke:#000000;stroke-opacity:0.8;" x="184.396905" xlink:href="#mad695990b0" y="106.016023"/>
     <use style="fill-opacity:0.8;stroke:#000000;stroke-opacity:0.8;" x="185.997143" xlink:href="#mad695990b0" y="106.016023"/>
     <use style="fill-opacity:0.8;stroke:#000000;stroke-opacity:0.8;" x="190.797857" xlink:href="#mad695990b0" y="106.016023"/>
     <use style="fill-opacity:0.8;stroke:#000000;stroke-opacity:0.8;" x="192.398095" xlink:href="#mad695990b0" y="106.016023"/>
    </g>
   </g>
   <g id="PolyCollection_1">
    <path clip-path="url(#p420219b2d2)" d="M 38.775238 45.679897 
L 38.775238 72.386213 
L 40.326984 72.716502 
L 41.87873 73.046193 
L 43.430476 73.375884 
L 44.982222 73.705575 
L 46.533968 74.134005 
L 48.085714 74.616603 
L 49.63746 74.967811 
L 51.189206 75.315906 
L 52.740952 75.664002 
L 54.292698 76.009135 
L 55.844444 76.352711 
L 57.39619 76.753739 
L 58.947937 77.23797 
L 60.499683 77.665526 
L 62.051429 77.975478 
L 63.603175 78.311815 
L 65.154921 78.716062 
L 66.706667 79.120309 
L 68.258413 79.524556 
L 69.810159 79.928803 
L 71.361905 80.332516 
L 72.913651 80.733824 
L 74.465397 81.187203 
L 76.017143 81.696886 
L 77.568889 82.20609 
L 79.120635 82.710793 
L 80.672381 83.156682 
L 82.224127 83.701696 
L 83.775873 84.09793 
L 85.327619 84.472779 
L 86.879365 84.846441 
L 88.431111 85.271203 
L 89.982857 85.735782 
L 91.534603 86.230804 
L 93.086349 86.661113 
L 94.638095 87.017637 
L 96.189841 87.40914 
L 97.741587 87.728404 
L 99.293333 88.135142 
L 100.845079 88.808421 
L 102.396825 89.180361 
L 103.948571 89.464067 
L 105.500317 89.912991 
L 107.052063 90.466905 
L 108.60381 90.982327 
L 110.155556 91.638977 
L 111.707302 92.223151 
L 113.259048 92.7696 
L 114.810794 93.318885 
L 116.36254 93.936582 
L 117.914286 94.499932 
L 119.466032 94.918366 
L 121.017778 95.644724 
L 122.569524 96.319928 
L 124.12127 96.840687 
L 125.673016 97.408648 
L 127.224762 98.090683 
L 128.776508 98.746938 
L 130.328254 99.345452 
L 131.88 99.883792 
L 133.431746 100.644004 
L 134.983492 101.185897 
L 136.535238 101.791911 
L 138.086984 102.358824 
L 139.63873 102.968013 
L 141.190476 103.731707 
L 142.742222 104.407774 
L 144.293968 105.21923 
L 145.845714 106.026065 
L 147.39746 106.645011 
L 148.949206 107.283484 
L 150.500952 108.092086 
L 152.052698 108.888523 
L 153.604444 109.563944 
L 155.15619 110.239364 
L 156.707937 110.912296 
L 158.259683 111.704897 
L 159.811429 112.585736 
L 161.363175 113.283945 
L 162.914921 114.002729 
L 164.466667 114.697792 
L 166.018413 115.484828 
L 167.570159 116.279398 
L 169.121905 117.073457 
L 170.673651 117.852417 
L 172.225397 118.654257 
L 173.777143 119.446846 
L 175.328889 120.218994 
L 176.880635 120.993334 
L 178.432381 121.821364 
L 179.984127 122.613239 
L 181.535873 123.406125 
L 183.087619 124.199012 
L 184.639365 124.991898 
L 186.191111 125.784784 
L 187.742857 126.57767 
L 189.294603 127.370557 
L 190.846349 128.163443 
L 192.398095 128.956329 
L 192.398095 104.734386 
L 192.398095 104.734386 
L 190.846349 104.233748 
L 189.294603 103.828256 
L 187.742857 103.414837 
L 186.191111 102.961098 
L 184.639365 102.507358 
L 183.087619 102.054636 
L 181.535873 101.606912 
L 179.984127 101.176802 
L 178.432381 100.825352 
L 176.880635 100.389663 
L 175.328889 100.029629 
L 173.777143 99.728646 
L 172.225397 99.20042 
L 170.673651 98.670734 
L 169.121905 98.214714 
L 167.570159 97.777005 
L 166.018413 97.339834 
L 164.466667 96.904144 
L 162.914921 96.469112 
L 161.363175 96.039418 
L 159.811429 95.604525 
L 158.259683 95.19224 
L 156.707937 94.733329 
L 155.15619 94.354935 
L 153.604444 93.981313 
L 152.052698 93.536525 
L 150.500952 93.173136 
L 148.949206 92.811201 
L 147.39746 92.395381 
L 145.845714 91.890793 
L 144.293968 91.386206 
L 142.742222 90.934252 
L 141.190476 90.514526 
L 139.63873 90.033615 
L 138.086984 89.558157 
L 136.535238 89.117219 
L 134.983492 88.614983 
L 133.431746 88.087072 
L 131.88 87.555369 
L 130.328254 86.912661 
L 128.776508 86.315778 
L 127.224762 85.809668 
L 125.673016 85.27206 
L 124.12127 84.669743 
L 122.569524 84.090853 
L 121.017778 83.585774 
L 119.466032 83.101913 
L 117.914286 82.606823 
L 116.36254 82.019565 
L 114.810794 81.594015 
L 113.259048 81.009952 
L 111.707302 80.308162 
L 110.155556 79.712281 
L 108.60381 79.180762 
L 107.052063 78.538663 
L 105.500317 77.896523 
L 103.948571 77.236291 
L 102.396825 76.518377 
L 100.845079 75.812239 
L 99.293333 75.08764 
L 97.741587 74.457374 
L 96.189841 73.775212 
L 94.638095 72.960239 
L 93.086349 72.256967 
L 91.534603 71.531794 
L 89.982857 70.81629 
L 88.431111 70.105599 
L 86.879365 69.39183 
L 85.327619 68.674537 
L 83.775873 67.751092 
L 82.224127 67.100241 
L 80.672381 66.378505 
L 79.120635 65.621931 
L 77.568889 64.884017 
L 76.017143 64.166988 
L 74.465397 63.447202 
L 72.913651 62.67447 
L 71.361905 61.972186 
L 69.810159 61.195475 
L 68.258413 60.418765 
L 66.706667 59.643291 
L 65.154921 58.886959 
L 63.603175 58.089194 
L 62.051429 57.312967 
L 60.499683 56.573525 
L 58.947937 55.870798 
L 57.39619 55.16807 
L 55.844444 54.412776 
L 54.292698 53.657754 
L 52.740952 52.897714 
L 51.189206 52.120273 
L 49.63746 51.324944 
L 48.085714 50.484154 
L 46.533968 49.632759 
L 44.982222 48.782536 
L 43.430476 47.997651 
L 41.87873 47.225067 
L 40.326984 46.452482 
L 38.775238 45.679897 
z
" style="fill:#e41a1c;fill-opacity:0.15;"/>
   </g>
   <g id="matplotlib.axis_1">
    <g id="xtick_1">
     <g id="line2d_1">
      <defs>
       <path d="M 0 0 
L 0 3.5 
" id="m8c97afde94" style="stroke:#000000;stroke-width:0.8;"/>
      </defs>
      <g>
       <use style="stroke:#000000;stroke-width:0.8;" x="37.175" xlink:href="#m8c97afde94" y="189.2"/>
      </g>
     </g>
     <g id="text_1">
      <!-- 0 -->
      <g transform="translate(34.394531 203.357812)scale(0.1 -0.1)">
       <defs>
        <path d="M 4.15625 35.296875 
Q 4.15625 48 6.765625 55.734375 
Q 9.375 63.484375 14.515625 67.671875 
Q 19.671875 71.875 27.484375 71.875 
Q 33.25 71.875 37.59375 69.546875 
Q 41.9375 67.234375 44.765625 62.859375 
Q 47.609375 58.5 49.21875 52.21875 
Q 50.828125 45.953125 50.828125 35.296875 
Q 50.828125 22.703125 48.234375 14.96875 
Q 45.65625 7.234375 40.5 3 
Q 35.359375 -1.21875 27.484375 -1.21875 
Q 17.140625 -1.21875 11.234375 6.203125 
Q 4.15625 15.140625 4.15625 35.296875 
z
M 13.1875 35.296875 
Q 13.1875 17.671875 17.3125 11.828125 
Q 21.4375 6 27.484375 6 
Q 33.546875 6 37.671875 11.859375 
Q 41.796875 17.71875 41.796875 35.296875 
Q 41.796875 52.984375 37.671875 58.78125 
Q 33.546875 64.59375 27.390625 64.59375 
Q 21.34375 64.59375 17.71875 59.46875 
Q 13.1875 52.9375 13.1875 35.296875 
z
" id="ArialMT-48"/>
       </defs>
       <use xlink:href="#ArialMT-48"/>
      </g>
     </g>
    </g>
    <g id="xtick_2">
     <g id="line2d_2">
      <g>
       <use style="stroke:#000000;stroke-width:0.8;" x="77.180952" xlink:href="#m8c97afde94" y="189.2"/>
      </g>
     </g>
     <g id="text_2">
      <!-- 25 -->
      <g transform="translate(71.620015 203.357812)scale(0.1 -0.1)">
       <defs>
        <path d="M 50.34375 8.453125 
L 50.34375 0 
L 3.03125 0 
Q 2.9375 3.171875 4.046875 6.109375 
Q 5.859375 10.9375 9.828125 15.625 
Q 13.8125 20.3125 21.34375 26.46875 
Q 33.015625 36.03125 37.109375 41.625 
Q 41.21875 47.21875 41.21875 52.203125 
Q 41.21875 57.421875 37.46875 61 
Q 33.734375 64.59375 27.734375 64.59375 
Q 21.390625 64.59375 17.578125 60.78125 
Q 13.765625 56.984375 13.71875 50.25 
L 4.6875 51.171875 
Q 5.609375 61.28125 11.65625 66.578125 
Q 17.71875 71.875 27.9375 71.875 
Q 38.234375 71.875 44.234375 66.15625 
Q 50.25 60.453125 50.25 52 
Q 50.25 47.703125 48.484375 43.546875 
Q 46.734375 39.40625 42.65625 34.8125 
Q 38.578125 30.21875 29.109375 22.21875 
Q 21.1875 15.578125 18.9375 13.203125 
Q 16.703125 10.84375 15.234375 8.453125 
z
" id="ArialMT-50"/>
        <path d="M 4.15625 18.75 
L 13.375 19.53125 
Q 14.40625 12.796875 18.140625 9.390625 
Q 21.875 6 27.15625 6 
Q 33.5 6 37.890625 10.78125 
Q 42.28125 15.578125 42.28125 23.484375 
Q 42.28125 31 38.0625 35.34375 
Q 33.84375 39.703125 27 39.703125 
Q 22.75 39.703125 19.328125 37.765625 
Q 15.921875 35.84375 13.96875 32.765625 
L 5.71875 33.84375 
L 12.640625 70.609375 
L 48.25 70.609375 
L 48.25 62.203125 
L 19.671875 62.203125 
L 15.828125 42.96875 
Q 22.265625 47.46875 29.34375 47.46875 
Q 38.71875 47.46875 45.15625 40.96875 
Q 51.609375 34.46875 51.609375 24.265625 
Q 51.609375 14.546875 45.953125 7.46875 
Q 39.0625 -1.21875 27.15625 -1.21875 
Q 17.390625 -1.21875 11.203125 4.25 
Q 5.03125 9.71875 4.15625 18.75 
z
" id="ArialMT-53"/>
       </defs>
       <use xlink:href="#ArialMT-50"/>
       <use x="55.615234" xlink:href="#ArialMT-53"/>
      </g>
     </g>
    </g>
    <g id="xtick_3">
     <g id="line2d_3">
      <g>
       <use style="stroke:#000000;stroke-width:0.8;" x="117.186905" xlink:href="#m8c97afde94" y="189.2"/>
      </g>
     </g>
     <g id="text_3">
      <!-- 50 -->
      <g transform="translate(111.625967 203.357812)scale(0.1 -0.1)">
       <use xlink:href="#ArialMT-53"/>
       <use x="55.615234" xlink:href="#ArialMT-48"/>
      </g>
     </g>
    </g>
    <g id="xtick_4">
     <g id="line2d_4">
      <g>
       <use style="stroke:#000000;stroke-width:0.8;" x="157.192857" xlink:href="#m8c97afde94" y="189.2"/>
      </g>
     </g>
     <g id="text_4">
      <!-- 75 -->
      <g transform="translate(151.63192 203.357812)scale(0.1 -0.1)">
       <defs>
        <path d="M 4.734375 62.203125 
L 4.734375 70.65625 
L 51.078125 70.65625 
L 51.078125 63.8125 
Q 44.234375 56.546875 37.515625 44.484375 
Q 30.8125 32.421875 27.15625 19.671875 
Q 24.515625 10.6875 23.78125 0 
L 14.75 0 
Q 14.890625 8.453125 18.0625 20.40625 
Q 21.234375 32.375 27.171875 43.484375 
Q 33.109375 54.59375 39.796875 62.203125 
z
" id="ArialMT-55"/>
       </defs>
       <use xlink:href="#ArialMT-55"/>
       <use x="55.615234" xlink:href="#ArialMT-53"/>
      </g>
     </g>
    </g>
    <g id="xtick_5">
     <g id="line2d_5">
      <g>
       <use style="stroke:#000000;stroke-width:0.8;" x="197.19881" xlink:href="#m8c97afde94" y="189.2"/>
      </g>
     </g>
     <g id="text_5">
      <!-- 100 -->
      <g transform="translate(188.857403 203.357812)scale(0.1 -0.1)">
       <defs>
        <path d="M 37.25 0 
L 28.46875 0 
L 28.46875 56 
Q 25.296875 52.984375 20.140625 49.953125 
Q 14.984375 46.921875 10.890625 45.40625 
L 10.890625 53.90625 
Q 18.265625 57.375 23.78125 62.296875 
Q 29.296875 67.234375 31.59375 71.875 
L 37.25 71.875 
z
" id="ArialMT-49"/>
       </defs>
       <use xlink:href="#ArialMT-49"/>
       <use x="55.615234" xlink:href="#ArialMT-48"/>
       <use x="111.230469" xlink:href="#ArialMT-48"/>
      </g>
     </g>
    </g>
    <g id="text_6">
     <!-- expansion iteration -->
     <g transform="translate(79.217969 216.503125)scale(0.1 -0.1)">
      <defs>
       <path d="M 42.09375 16.703125 
L 51.171875 15.578125 
Q 49.03125 7.625 43.21875 3.21875 
Q 37.40625 -1.171875 28.375 -1.171875 
Q 17 -1.171875 10.328125 5.828125 
Q 3.65625 12.84375 3.65625 25.484375 
Q 3.65625 38.578125 10.390625 45.796875 
Q 17.140625 53.03125 27.875 53.03125 
Q 38.28125 53.03125 44.875 45.953125 
Q 51.46875 38.875 51.46875 26.03125 
Q 51.46875 25.25 51.421875 23.6875 
L 12.75 23.6875 
Q 13.234375 15.140625 17.578125 10.59375 
Q 21.921875 6.0625 28.421875 6.0625 
Q 33.25 6.0625 36.671875 8.59375 
Q 40.09375 11.140625 42.09375 16.703125 
z
M 13.234375 30.90625 
L 42.1875 30.90625 
Q 41.609375 37.453125 38.875 40.71875 
Q 34.671875 45.796875 27.984375 45.796875 
Q 21.921875 45.796875 17.796875 41.75 
Q 13.671875 37.703125 13.234375 30.90625 
z
" id="ArialMT-101"/>
       <path d="M 0.734375 0 
L 19.671875 26.953125 
L 2.15625 51.859375 
L 13.140625 51.859375 
L 21.09375 39.703125 
Q 23.34375 36.234375 24.703125 33.890625 
Q 26.859375 37.109375 28.65625 39.59375 
L 37.40625 51.859375 
L 47.90625 51.859375 
L 29.984375 27.4375 
L 49.265625 0 
L 38.484375 0 
L 27.828125 16.109375 
L 25 20.453125 
L 11.375 0 
z
" id="ArialMT-120"/>
       <path d="M 6.59375 -19.875 
L 6.59375 51.859375 
L 14.59375 51.859375 
L 14.59375 45.125 
Q 17.4375 49.078125 21 51.046875 
Q 24.5625 53.03125 29.640625 53.03125 
Q 36.28125 53.03125 41.359375 49.609375 
Q 46.4375 46.1875 49.015625 39.953125 
Q 51.609375 33.734375 51.609375 26.3125 
Q 51.609375 18.359375 48.75 11.984375 
Q 45.90625 5.609375 40.453125 2.21875 
Q 35.015625 -1.171875 29 -1.171875 
Q 24.609375 -1.171875 21.109375 0.6875 
Q 17.625 2.546875 15.375 5.375 
L 15.375 -19.875 
z
M 14.546875 25.640625 
Q 14.546875 15.625 18.59375 10.84375 
Q 22.65625 6.0625 28.421875 6.0625 
Q 34.28125 6.0625 38.453125 11.015625 
Q 42.625 15.96875 42.625 26.375 
Q 42.625 36.28125 38.546875 41.203125 
Q 34.46875 46.140625 28.8125 46.140625 
Q 23.1875 46.140625 18.859375 40.890625 
Q 14.546875 35.640625 14.546875 25.640625 
z
" id="ArialMT-112"/>
       <path d="M 40.4375 6.390625 
Q 35.546875 2.25 31.03125 0.53125 
Q 26.515625 -1.171875 21.34375 -1.171875 
Q 12.796875 -1.171875 8.203125 3 
Q 3.609375 7.171875 3.609375 13.671875 
Q 3.609375 17.484375 5.34375 20.625 
Q 7.078125 23.78125 9.890625 25.6875 
Q 12.703125 27.59375 16.21875 28.5625 
Q 18.796875 29.25 24.03125 29.890625 
Q 34.671875 31.15625 39.703125 32.90625 
Q 39.75 34.71875 39.75 35.203125 
Q 39.75 40.578125 37.25 42.78125 
Q 33.890625 45.75 27.25 45.75 
Q 21.046875 45.75 18.09375 43.578125 
Q 15.140625 41.40625 13.71875 35.890625 
L 5.125 37.0625 
Q 6.296875 42.578125 8.984375 45.96875 
Q 11.671875 49.359375 16.75 51.1875 
Q 21.828125 53.03125 28.515625 53.03125 
Q 35.15625 53.03125 39.296875 51.46875 
Q 43.453125 49.90625 45.40625 47.53125 
Q 47.359375 45.171875 48.140625 41.546875 
Q 48.578125 39.3125 48.578125 33.453125 
L 48.578125 21.734375 
Q 48.578125 9.46875 49.140625 6.21875 
Q 49.703125 2.984375 51.375 0 
L 42.1875 0 
Q 40.828125 2.734375 40.4375 6.390625 
z
M 39.703125 26.03125 
Q 34.90625 24.078125 25.34375 22.703125 
Q 19.921875 21.921875 17.671875 20.9375 
Q 15.4375 19.96875 14.203125 18.09375 
Q 12.984375 16.21875 12.984375 13.921875 
Q 12.984375 10.40625 15.640625 8.0625 
Q 18.3125 5.71875 23.4375 5.71875 
Q 28.515625 5.71875 32.46875 7.9375 
Q 36.421875 10.15625 38.28125 14.015625 
Q 39.703125 17 39.703125 22.796875 
z
" id="ArialMT-97"/>
       <path d="M 6.59375 0 
L 6.59375 51.859375 
L 14.5 51.859375 
L 14.5 44.484375 
Q 20.21875 53.03125 31 53.03125 
Q 35.6875 53.03125 39.625 51.34375 
Q 43.5625 49.65625 45.515625 46.921875 
Q 47.46875 44.1875 48.25 40.4375 
Q 48.734375 37.984375 48.734375 31.890625 
L 48.734375 0 
L 39.9375 0 
L 39.9375 31.546875 
Q 39.9375 36.921875 38.90625 39.578125 
Q 37.890625 42.234375 35.28125 43.8125 
Q 32.671875 45.40625 29.15625 45.40625 
Q 23.53125 45.40625 19.453125 41.84375 
Q 15.375 38.28125 15.375 28.328125 
L 15.375 0 
z
" id="ArialMT-110"/>
       <path d="M 3.078125 15.484375 
L 11.765625 16.84375 
Q 12.5 11.625 15.84375 8.84375 
Q 19.1875 6.0625 25.203125 6.0625 
Q 31.25 6.0625 34.171875 8.515625 
Q 37.109375 10.984375 37.109375 14.3125 
Q 37.109375 17.28125 34.515625 19 
Q 32.71875 20.171875 25.53125 21.96875 
Q 15.875 24.421875 12.140625 26.203125 
Q 8.40625 27.984375 6.46875 31.125 
Q 4.546875 34.28125 4.546875 38.09375 
Q 4.546875 41.546875 6.125 44.5 
Q 7.71875 47.46875 10.453125 49.421875 
Q 12.5 50.921875 16.03125 51.96875 
Q 19.578125 53.03125 23.640625 53.03125 
Q 29.734375 53.03125 34.34375 51.265625 
Q 38.96875 49.515625 41.15625 46.5 
Q 43.359375 43.5 44.1875 38.484375 
L 35.59375 37.3125 
Q 35.015625 41.3125 32.203125 43.546875 
Q 29.390625 45.796875 24.265625 45.796875 
Q 18.21875 45.796875 15.625 43.796875 
Q 13.03125 41.796875 13.03125 39.109375 
Q 13.03125 37.40625 14.109375 36.03125 
Q 15.1875 34.625 17.484375 33.6875 
Q 18.796875 33.203125 25.25 31.453125 
Q 34.578125 28.953125 38.25 27.359375 
Q 41.9375 25.78125 44.03125 22.75 
Q 46.140625 19.734375 46.140625 15.234375 
Q 46.140625 10.84375 43.578125 6.953125 
Q 41.015625 3.078125 36.171875 0.953125 
Q 31.34375 -1.171875 25.25 -1.171875 
Q 15.140625 -1.171875 9.84375 3.03125 
Q 4.546875 7.234375 3.078125 15.484375 
z
" id="ArialMT-115"/>
       <path d="M 6.640625 61.46875 
L 6.640625 71.578125 
L 15.4375 71.578125 
L 15.4375 61.46875 
z
M 6.640625 0 
L 6.640625 51.859375 
L 15.4375 51.859375 
L 15.4375 0 
z
" id="ArialMT-105"/>
       <path d="M 3.328125 25.921875 
Q 3.328125 40.328125 11.328125 47.265625 
Q 18.015625 53.03125 27.640625 53.03125 
Q 38.328125 53.03125 45.109375 46.015625 
Q 51.90625 39.015625 51.90625 26.65625 
Q 51.90625 16.65625 48.90625 10.90625 
Q 45.90625 5.171875 40.15625 2 
Q 34.421875 -1.171875 27.640625 -1.171875 
Q 16.75 -1.171875 10.03125 5.8125 
Q 3.328125 12.796875 3.328125 25.921875 
z
M 12.359375 25.921875 
Q 12.359375 15.96875 16.703125 11.015625 
Q 21.046875 6.0625 27.640625 6.0625 
Q 34.1875 6.0625 38.53125 11.03125 
Q 42.875 16.015625 42.875 26.21875 
Q 42.875 35.84375 38.5 40.796875 
Q 34.125 45.75 27.640625 45.75 
Q 21.046875 45.75 16.703125 40.8125 
Q 12.359375 35.890625 12.359375 25.921875 
z
" id="ArialMT-111"/>
       <path id="ArialMT-32"/>
       <path d="M 25.78125 7.859375 
L 27.046875 0.09375 
Q 23.34375 -0.6875 20.40625 -0.6875 
Q 15.625 -0.6875 12.984375 0.828125 
Q 10.359375 2.34375 9.28125 4.8125 
Q 8.203125 7.28125 8.203125 15.1875 
L 8.203125 45.015625 
L 1.765625 45.015625 
L 1.765625 51.859375 
L 8.203125 51.859375 
L 8.203125 64.703125 
L 16.9375 69.96875 
L 16.9375 51.859375 
L 25.78125 51.859375 
L 25.78125 45.015625 
L 16.9375 45.015625 
L 16.9375 14.703125 
Q 16.9375 10.9375 17.40625 9.859375 
Q 17.875 8.796875 18.921875 8.15625 
Q 19.96875 7.515625 21.921875 7.515625 
Q 23.390625 7.515625 25.78125 7.859375 
z
" id="ArialMT-116"/>
       <path d="M 6.5 0 
L 6.5 51.859375 
L 14.40625 51.859375 
L 14.40625 44 
Q 17.4375 49.515625 20 51.265625 
Q 22.5625 53.03125 25.640625 53.03125 
Q 30.078125 53.03125 34.671875 50.203125 
L 31.640625 42.046875 
Q 28.421875 43.953125 25.203125 43.953125 
Q 22.3125 43.953125 20.015625 42.21875 
Q 17.71875 40.484375 16.75 37.40625 
Q 15.28125 32.71875 15.28125 27.15625 
L 15.28125 0 
z
" id="ArialMT-114"/>
      </defs>
      <use xlink:href="#ArialMT-101"/>
      <use x="55.615234" xlink:href="#ArialMT-120"/>
      <use x="105.615234" xlink:href="#ArialMT-112"/>
      <use x="161.230469" xlink:href="#ArialMT-97"/>
      <use x="216.845703" xlink:href="#ArialMT-110"/>
      <use x="272.460938" xlink:href="#ArialMT-115"/>
      <use x="322.460938" xlink:href="#ArialMT-105"/>
      <use x="344.677734" xlink:href="#ArialMT-111"/>
      <use x="400.292969" xlink:href="#ArialMT-110"/>
      <use x="455.908203" xlink:href="#ArialMT-32"/>
      <use x="483.691406" xlink:href="#ArialMT-105"/>
      <use x="505.908203" xlink:href="#ArialMT-116"/>
      <use x="533.691406" xlink:href="#ArialMT-101"/>
      <use x="589.306641" xlink:href="#ArialMT-114"/>
      <use x="622.607422" xlink:href="#ArialMT-97"/>
      <use x="678.222656" xlink:href="#ArialMT-116"/>
      <use x="706.005859" xlink:href="#ArialMT-105"/>
      <use x="728.222656" xlink:href="#ArialMT-111"/>
      <use x="783.837891" xlink:href="#ArialMT-110"/>
     </g>
    </g>
   </g>
   <g id="matplotlib.axis_2">
    <g id="ytick_1">
     <g id="line2d_6">
      <defs>
       <path d="M 0 0 
L -3.5 0 
" id="m9a66c11527" style="stroke:#000000;stroke-width:0.8;"/>
      </defs>
      <g>
       <use style="stroke:#000000;stroke-width:0.8;" x="37.175" xlink:href="#m9a66c11527" y="181.090909"/>
      </g>
     </g>
     <g id="text_7">
      <!-- 0.00 -->
      <g transform="translate(10.714063 184.669815)scale(0.1 -0.1)">
       <defs>
        <path d="M 9.078125 0 
L 9.078125 10.015625 
L 19.09375 10.015625 
L 19.09375 0 
z
" id="ArialMT-46"/>
       </defs>
       <use xlink:href="#ArialMT-48"/>
       <use x="55.615234" xlink:href="#ArialMT-46"/>
       <use x="83.398438" xlink:href="#ArialMT-48"/>
       <use x="139.013672" xlink:href="#ArialMT-48"/>
      </g>
     </g>
    </g>
    <g id="ytick_2">
     <g id="line2d_7">
      <g>
       <use style="stroke:#000000;stroke-width:0.8;" x="37.175" xlink:href="#m9a66c11527" y="158.029295"/>
      </g>
     </g>
     <g id="text_8">
      <!-- 0.05 -->
      <g transform="translate(10.714063 161.608202)scale(0.1 -0.1)">
       <use xlink:href="#ArialMT-48"/>
       <use x="55.615234" xlink:href="#ArialMT-46"/>
       <use x="83.398438" xlink:href="#ArialMT-48"/>
       <use x="139.013672" xlink:href="#ArialMT-53"/>
      </g>
     </g>
    </g>
    <g id="ytick_3">
     <g id="line2d_8">
      <g>
       <use style="stroke:#000000;stroke-width:0.8;" x="37.175" xlink:href="#m9a66c11527" y="134.967682"/>
      </g>
     </g>
     <g id="text_9">
      <!-- 0.10 -->
      <g transform="translate(10.714063 138.546588)scale(0.1 -0.1)">
       <use xlink:href="#ArialMT-48"/>
       <use x="55.615234" xlink:href="#ArialMT-46"/>
       <use x="83.398438" xlink:href="#ArialMT-49"/>
       <use x="139.013672" xlink:href="#ArialMT-48"/>
      </g>
     </g>
    </g>
    <g id="ytick_4">
     <g id="line2d_9">
      <g>
       <use style="stroke:#000000;stroke-width:0.8;" x="37.175" xlink:href="#m9a66c11527" y="111.906068"/>
      </g>
     </g>
     <g id="text_10">
      <!-- 0.15 -->
      <g transform="translate(10.714063 115.484974)scale(0.1 -0.1)">
       <use xlink:href="#ArialMT-48"/>
       <use x="55.615234" xlink:href="#ArialMT-46"/>
       <use x="83.398438" xlink:href="#ArialMT-49"/>
       <use x="139.013672" xlink:href="#ArialMT-53"/>
      </g>
     </g>
    </g>
    <g id="ytick_5">
     <g id="line2d_10">
      <g>
       <use style="stroke:#000000;stroke-width:0.8;" x="37.175" xlink:href="#m9a66c11527" y="88.844454"/>
      </g>
     </g>
     <g id="text_11">
      <!-- 0.20 -->
      <g transform="translate(10.714063 92.42336)scale(0.1 -0.1)">
       <use xlink:href="#ArialMT-48"/>
       <use x="55.615234" xlink:href="#ArialMT-46"/>
       <use x="83.398438" xlink:href="#ArialMT-50"/>
       <use x="139.013672" xlink:href="#ArialMT-48"/>
      </g>
     </g>
    </g>
    <g id="ytick_6">
     <g id="line2d_11">
      <g>
       <use style="stroke:#000000;stroke-width:0.8;" x="37.175" xlink:href="#m9a66c11527" y="65.78284"/>
      </g>
     </g>
     <g id="text_12">
      <!-- 0.25 -->
      <g transform="translate(10.714063 69.361747)scale(0.1 -0.1)">
       <use xlink:href="#ArialMT-48"/>
       <use x="55.615234" xlink:href="#ArialMT-46"/>
       <use x="83.398438" xlink:href="#ArialMT-50"/>
       <use x="139.013672" xlink:href="#ArialMT-53"/>
      </g>
     </g>
    </g>
    <g id="ytick_7">
     <g id="line2d_12">
      <g>
       <use style="stroke:#000000;stroke-width:0.8;" x="37.175" xlink:href="#m9a66c11527" y="42.721227"/>
      </g>
     </g>
     <g id="text_13">
      <!-- 0.30 -->
      <g transform="translate(10.714063 46.300133)scale(0.1 -0.1)">
       <defs>
        <path d="M 4.203125 18.890625 
L 12.984375 20.0625 
Q 14.5 12.59375 18.140625 9.296875 
Q 21.78125 6 27 6 
Q 33.203125 6 37.46875 10.296875 
Q 41.75 14.59375 41.75 20.953125 
Q 41.75 27 37.796875 30.921875 
Q 33.84375 34.859375 27.734375 34.859375 
Q 25.25 34.859375 21.53125 33.890625 
L 22.515625 41.609375 
Q 23.390625 41.5 23.921875 41.5 
Q 29.546875 41.5 34.03125 44.421875 
Q 38.53125 47.359375 38.53125 53.46875 
Q 38.53125 58.296875 35.25 61.46875 
Q 31.984375 64.65625 26.8125 64.65625 
Q 21.6875 64.65625 18.265625 61.421875 
Q 14.84375 58.203125 13.875 51.765625 
L 5.078125 53.328125 
Q 6.6875 62.15625 12.390625 67.015625 
Q 18.109375 71.875 26.609375 71.875 
Q 32.46875 71.875 37.390625 69.359375 
Q 42.328125 66.84375 44.9375 62.5 
Q 47.5625 58.15625 47.5625 53.265625 
Q 47.5625 48.640625 45.0625 44.828125 
Q 42.578125 41.015625 37.703125 38.765625 
Q 44.046875 37.3125 47.5625 32.6875 
Q 51.078125 28.078125 51.078125 21.140625 
Q 51.078125 11.765625 44.234375 5.25 
Q 37.40625 -1.265625 26.953125 -1.265625 
Q 17.53125 -1.265625 11.296875 4.34375 
Q 5.078125 9.96875 4.203125 18.890625 
z
" id="ArialMT-51"/>
       </defs>
       <use xlink:href="#ArialMT-48"/>
       <use x="55.615234" xlink:href="#ArialMT-46"/>
       <use x="83.398438" xlink:href="#ArialMT-51"/>
       <use x="139.013672" xlink:href="#ArialMT-48"/>
      </g>
     </g>
    </g>
    <g id="ytick_8">
     <g id="line2d_13">
      <g>
       <use style="stroke:#000000;stroke-width:0.8;" x="37.175" xlink:href="#m9a66c11527" y="19.659613"/>
      </g>
     </g>
     <g id="text_14">
      <!-- 0.35 -->
      <g transform="translate(10.714063 23.238519)scale(0.1 -0.1)">
       <use xlink:href="#ArialMT-48"/>
       <use x="55.615234" xlink:href="#ArialMT-46"/>
       <use x="83.398438" xlink:href="#ArialMT-51"/>
       <use x="139.013672" xlink:href="#ArialMT-53"/>
      </g>
     </g>
    </g>
    <g id="text_15">
     <!-- mean fold repetitiveness -->
     <g transform="translate(4.726563 154.192969)rotate(-90)scale(0.1 -0.1)">
      <defs>
       <path d="M 6.59375 0 
L 6.59375 51.859375 
L 14.453125 51.859375 
L 14.453125 44.578125 
Q 16.890625 48.390625 20.9375 50.703125 
Q 25 53.03125 30.171875 53.03125 
Q 35.9375 53.03125 39.625 50.640625 
Q 43.3125 48.25 44.828125 43.953125 
Q 50.984375 53.03125 60.84375 53.03125 
Q 68.5625 53.03125 72.703125 48.75 
Q 76.859375 44.484375 76.859375 35.59375 
L 76.859375 0 
L 68.109375 0 
L 68.109375 32.671875 
Q 68.109375 37.9375 67.25 40.25 
Q 66.40625 42.578125 64.15625 43.984375 
Q 61.921875 45.40625 58.890625 45.40625 
Q 53.421875 45.40625 49.796875 41.765625 
Q 46.1875 38.140625 46.1875 30.125 
L 46.1875 0 
L 37.40625 0 
L 37.40625 33.6875 
Q 37.40625 39.546875 35.25 42.46875 
Q 33.109375 45.40625 28.21875 45.40625 
Q 24.515625 45.40625 21.359375 43.453125 
Q 18.21875 41.5 16.796875 37.734375 
Q 15.375 33.984375 15.375 26.90625 
L 15.375 0 
z
" id="ArialMT-109"/>
       <path d="M 8.6875 0 
L 8.6875 45.015625 
L 0.921875 45.015625 
L 0.921875 51.859375 
L 8.6875 51.859375 
L 8.6875 57.375 
Q 8.6875 62.59375 9.625 65.140625 
Q 10.890625 68.5625 14.078125 70.671875 
Q 17.28125 72.796875 23.046875 72.796875 
Q 26.765625 72.796875 31.25 71.921875 
L 29.9375 64.265625 
Q 27.203125 64.75 24.75 64.75 
Q 20.75 64.75 19.09375 63.03125 
Q 17.4375 61.328125 17.4375 56.640625 
L 17.4375 51.859375 
L 27.546875 51.859375 
L 27.546875 45.015625 
L 17.4375 45.015625 
L 17.4375 0 
z
" id="ArialMT-102"/>
       <path d="M 6.390625 0 
L 6.390625 71.578125 
L 15.1875 71.578125 
L 15.1875 0 
z
" id="ArialMT-108"/>
       <path d="M 40.234375 0 
L 40.234375 6.546875 
Q 35.296875 -1.171875 25.734375 -1.171875 
Q 19.53125 -1.171875 14.328125 2.25 
Q 9.125 5.671875 6.265625 11.796875 
Q 3.421875 17.921875 3.421875 25.875 
Q 3.421875 33.640625 6 39.96875 
Q 8.59375 46.296875 13.765625 49.65625 
Q 18.953125 53.03125 25.34375 53.03125 
Q 30.03125 53.03125 33.6875 51.046875 
Q 37.359375 49.078125 39.65625 45.90625 
L 39.65625 71.578125 
L 48.390625 71.578125 
L 48.390625 0 
z
M 12.453125 25.875 
Q 12.453125 15.921875 16.640625 10.984375 
Q 20.84375 6.0625 26.5625 6.0625 
Q 32.328125 6.0625 36.34375 10.765625 
Q 40.375 15.484375 40.375 25.140625 
Q 40.375 35.796875 36.265625 40.765625 
Q 32.171875 45.75 26.171875 45.75 
Q 20.3125 45.75 16.375 40.96875 
Q 12.453125 36.1875 12.453125 25.875 
z
" id="ArialMT-100"/>
       <path d="M 21 0 
L 1.265625 51.859375 
L 10.546875 51.859375 
L 21.6875 20.796875 
Q 23.484375 15.765625 25 10.359375 
Q 26.171875 14.453125 28.265625 20.21875 
L 39.796875 51.859375 
L 48.828125 51.859375 
L 29.203125 0 
z
" id="ArialMT-118"/>
      </defs>
      <use xlink:href="#ArialMT-109"/>
      <use x="83.300781" xlink:href="#ArialMT-101"/>
      <use x="138.916016" xlink:href="#ArialMT-97"/>
      <use x="194.53125" xlink:href="#ArialMT-110"/>
      <use x="250.146484" xlink:href="#ArialMT-32"/>
      <use x="277.929688" xlink:href="#ArialMT-102"/>
      <use x="305.712891" xlink:href="#ArialMT-111"/>
      <use x="361.328125" xlink:href="#ArialMT-108"/>
      <use x="383.544922" xlink:href="#ArialMT-100"/>
      <use x="439.160156" xlink:href="#ArialMT-32"/>
      <use x="466.943359" xlink:href="#ArialMT-114"/>
      <use x="500.244141" xlink:href="#ArialMT-101"/>
      <use x="555.859375" xlink:href="#ArialMT-112"/>
      <use x="611.474609" xlink:href="#ArialMT-101"/>
      <use x="667.089844" xlink:href="#ArialMT-116"/>
      <use x="694.873047" xlink:href="#ArialMT-105"/>
      <use x="717.089844" xlink:href="#ArialMT-116"/>
      <use x="744.873047" xlink:href="#ArialMT-105"/>
      <use x="767.089844" xlink:href="#ArialMT-118"/>
      <use x="817.089844" xlink:href="#ArialMT-101"/>
      <use x="872.705078" xlink:href="#ArialMT-110"/>
      <use x="928.320312" xlink:href="#ArialMT-101"/>
      <use x="983.935547" xlink:href="#ArialMT-115"/>
      <use x="1033.935547" xlink:href="#ArialMT-115"/>
     </g>
    </g>
   </g>
   <g id="line2d_14">
    <path clip-path="url(#p420219b2d2)" d="M 38.775238 58.091776 
L 40.326984 58.684059 
L 41.87873 59.276341 
L 43.430476 59.868624 
L 44.982222 60.460906 
L 46.533968 61.053189 
L 48.085714 61.645472 
L 49.63746 62.237754 
L 51.189206 62.830037 
L 52.740952 63.42232 
L 54.292698 64.014602 
L 55.844444 64.606885 
L 57.39619 65.199168 
L 58.947937 65.79145 
L 60.499683 66.383733 
L 62.051429 66.976015 
L 63.603175 67.568298 
L 65.154921 68.160581 
L 66.706667 68.752863 
L 68.258413 69.345146 
L 69.810159 69.937429 
L 71.361905 70.529711 
L 72.913651 71.121994 
L 74.465397 71.714277 
L 76.017143 72.306559 
L 77.568889 72.898842 
L 79.120635 73.491124 
L 80.672381 74.083407 
L 82.224127 74.67569 
L 83.775873 75.267972 
L 85.327619 75.860255 
L 86.879365 76.452538 
L 88.431111 77.04482 
L 89.982857 77.637103 
L 91.534603 78.229386 
L 93.086349 78.821668 
L 94.638095 79.413951 
L 96.189841 80.006233 
L 97.741587 80.598516 
L 99.293333 81.190799 
L 100.845079 81.783081 
L 102.396825 82.375364 
L 103.948571 82.967647 
L 105.500317 83.559929 
L 107.052063 84.152212 
L 108.60381 84.744495 
L 110.155556 85.336777 
L 111.707302 85.92906 
L 113.259048 86.521343 
L 114.810794 87.113625 
L 116.36254 87.705908 
L 117.914286 88.29819 
L 119.466032 88.890473 
L 121.017778 89.482756 
L 122.569524 90.075038 
L 124.12127 90.667321 
L 125.673016 91.259604 
L 127.224762 91.851886 
L 128.776508 92.444169 
L 130.328254 93.036452 
L 131.88 93.628734 
L 133.431746 94.221017 
L 134.983492 94.813299 
L 136.535238 95.405582 
L 138.086984 95.997865 
L 139.63873 96.590147 
L 141.190476 97.18243 
L 142.742222 97.774713 
L 144.293968 98.366995 
L 145.845714 98.959278 
L 147.39746 99.551561 
L 148.949206 100.143843 
L 150.500952 100.736126 
L 152.052698 101.328408 
L 153.604444 101.920691 
L 155.15619 102.512974 
L 156.707937 103.105256 
L 158.259683 103.697539 
L 159.811429 104.289822 
L 161.363175 104.882104 
L 162.914921 105.474387 
L 164.466667 106.06667 
L 166.018413 106.658952 
L 167.570159 107.251235 
L 169.121905 107.843517 
L 170.673651 108.4358 
L 172.225397 109.028083 
L 173.777143 109.620365 
L 175.328889 110.212648 
L 176.880635 110.804931 
L 178.432381 111.397213 
L 179.984127 111.989496 
L 181.535873 112.581779 
L 183.087619 113.174061 
L 184.639365 113.766344 
L 186.191111 114.358627 
L 187.742857 114.950909 
L 189.294603 115.543192 
L 190.846349 116.135474 
L 192.398095 116.727757 
" style="fill:none;stroke:#e41a1c;stroke-linecap:square;stroke-width:2.25;"/>
   </g>
   <g id="patch_3">
    <path d="M 37.175 189.2 
L 37.175 10.8 
" style="fill:none;stroke:#000000;stroke-linecap:square;stroke-linejoin:miter;stroke-width:0.8;"/>
   </g>
   <g id="patch_4">
    <path d="M 37.175 189.2 
L 205.2 189.2 
" style="fill:none;stroke:#000000;stroke-linecap:square;stroke-linejoin:miter;stroke-width:0.8;"/>
   </g>
   <g id="text_16">
    <!-- $r=-0.49$  -->
    <g transform="translate(53.9775 160.5975)scale(0.1 -0.1)">
     <defs>
      <path d="M 44.578125 46.390625 
Q 43.21875 47.125 41.453125 47.515625 
Q 39.703125 47.90625 37.703125 47.90625 
Q 30.515625 47.90625 25.140625 42.453125 
Q 19.78125 37.015625 18.015625 27.875 
L 12.5 0 
L 3.515625 0 
L 14.203125 54.6875 
L 23.1875 54.6875 
L 21.484375 46.1875 
Q 25.046875 50.921875 30 53.453125 
Q 34.96875 56 40.578125 56 
Q 42.046875 56 43.453125 55.828125 
Q 44.875 55.671875 46.296875 55.28125 
z
" id="DejaVuSans-Oblique-114"/>
      <path d="M 10.59375 45.40625 
L 73.1875 45.40625 
L 73.1875 37.203125 
L 10.59375 37.203125 
z
M 10.59375 25.484375 
L 73.1875 25.484375 
L 73.1875 17.1875 
L 10.59375 17.1875 
z
" id="DejaVuSans-61"/>
      <path d="M 10.59375 35.5 
L 73.1875 35.5 
L 73.1875 27.203125 
L 10.59375 27.203125 
z
" id="DejaVuSans-8722"/>
      <path d="M 31.78125 66.40625 
Q 24.171875 66.40625 20.328125 58.90625 
Q 16.5 51.421875 16.5 36.375 
Q 16.5 21.390625 20.328125 13.890625 
Q 24.171875 6.390625 31.78125 6.390625 
Q 39.453125 6.390625 43.28125 13.890625 
Q 47.125 21.390625 47.125 36.375 
Q 47.125 51.421875 43.28125 58.90625 
Q 39.453125 66.40625 31.78125 66.40625 
z
M 31.78125 74.21875 
Q 44.046875 74.21875 50.515625 64.515625 
Q 56.984375 54.828125 56.984375 36.375 
Q 56.984375 17.96875 50.515625 8.265625 
Q 44.046875 -1.421875 31.78125 -1.421875 
Q 19.53125 -1.421875 13.0625 8.265625 
Q 6.59375 17.96875 6.59375 36.375 
Q 6.59375 54.828125 13.0625 64.515625 
Q 19.53125 74.21875 31.78125 74.21875 
z
" id="DejaVuSans-48"/>
      <path d="M 10.6875 12.40625 
L 21 12.40625 
L 21 0 
L 10.6875 0 
z
" id="DejaVuSans-46"/>
      <path d="M 37.796875 64.3125 
L 12.890625 25.390625 
L 37.796875 25.390625 
z
M 35.203125 72.90625 
L 47.609375 72.90625 
L 47.609375 25.390625 
L 58.015625 25.390625 
L 58.015625 17.1875 
L 47.609375 17.1875 
L 47.609375 0 
L 37.796875 0 
L 37.796875 17.1875 
L 4.890625 17.1875 
L 4.890625 26.703125 
z
" id="DejaVuSans-52"/>
      <path d="M 10.984375 1.515625 
L 10.984375 10.5 
Q 14.703125 8.734375 18.5 7.8125 
Q 22.3125 6.890625 25.984375 6.890625 
Q 35.75 6.890625 40.890625 13.453125 
Q 46.046875 20.015625 46.78125 33.40625 
Q 43.953125 29.203125 39.59375 26.953125 
Q 35.25 24.703125 29.984375 24.703125 
Q 19.046875 24.703125 12.671875 31.3125 
Q 6.296875 37.9375 6.296875 49.421875 
Q 6.296875 60.640625 12.9375 67.421875 
Q 19.578125 74.21875 30.609375 74.21875 
Q 43.265625 74.21875 49.921875 64.515625 
Q 56.59375 54.828125 56.59375 36.375 
Q 56.59375 19.140625 48.40625 8.859375 
Q 40.234375 -1.421875 26.421875 -1.421875 
Q 22.703125 -1.421875 18.890625 -0.6875 
Q 15.09375 0.046875 10.984375 1.515625 
z
M 30.609375 32.421875 
Q 37.25 32.421875 41.125 36.953125 
Q 45.015625 41.5 45.015625 49.421875 
Q 45.015625 57.28125 41.125 61.84375 
Q 37.25 66.40625 30.609375 66.40625 
Q 23.96875 66.40625 20.09375 61.84375 
Q 16.21875 57.28125 16.21875 49.421875 
Q 16.21875 41.5 20.09375 36.953125 
Q 23.96875 32.421875 30.609375 32.421875 
z
" id="DejaVuSans-57"/>
     </defs>
     <use transform="translate(0 0.78125)" xlink:href="#DejaVuSans-Oblique-114"/>
     <use transform="translate(60.595703 0.78125)" xlink:href="#DejaVuSans-61"/>
     <use transform="translate(183.349609 0.78125)" xlink:href="#DejaVuSans-8722"/>
     <use transform="translate(286.621094 0.78125)" xlink:href="#DejaVuSans-48"/>
     <use transform="translate(350.244141 0.78125)" xlink:href="#DejaVuSans-46"/>
     <use transform="translate(382.03125 0.78125)" xlink:href="#DejaVuSans-52"/>
     <use transform="translate(445.654297 0.78125)" xlink:href="#DejaVuSans-57"/>
     <use transform="translate(509.277344 0.78125)" xlink:href="#ArialMT-32"/>
    </g>
    <!-- $P&lt;10^{-6}$ -->
    <g transform="translate(53.9775 171.36)scale(0.1 -0.1)">
     <defs>
      <path d="M 16.890625 72.90625 
L 39.703125 72.90625 
Q 49.65625 72.90625 54.875 68.265625 
Q 60.109375 63.625 60.109375 54.6875 
Q 60.109375 42.671875 52.390625 35.984375 
Q 44.671875 29.296875 30.71875 29.296875 
L 18.3125 29.296875 
L 12.59375 0 
L 2.6875 0 
z
M 25.203125 64.796875 
L 19.921875 37.40625 
L 32.328125 37.40625 
Q 40.71875 37.40625 45.203125 41.703125 
Q 49.703125 46 49.703125 54 
Q 49.703125 59.125 46.65625 61.953125 
Q 43.609375 64.796875 38.09375 64.796875 
z
" id="DejaVuSans-Oblique-80"/>
      <path d="M 73.1875 49.21875 
L 22.796875 31.296875 
L 73.1875 13.484375 
L 73.1875 4.59375 
L 10.59375 27.296875 
L 10.59375 35.40625 
L 73.1875 58.109375 
z
" id="DejaVuSans-60"/>
      <path d="M 12.40625 8.296875 
L 28.515625 8.296875 
L 28.515625 63.921875 
L 10.984375 60.40625 
L 10.984375 69.390625 
L 28.421875 72.90625 
L 38.28125 72.90625 
L 38.28125 8.296875 
L 54.390625 8.296875 
L 54.390625 0 
L 12.40625 0 
z
" id="DejaVuSans-49"/>
      <path d="M 33.015625 40.375 
Q 26.375 40.375 22.484375 35.828125 
Q 18.609375 31.296875 18.609375 23.390625 
Q 18.609375 15.53125 22.484375 10.953125 
Q 26.375 6.390625 33.015625 6.390625 
Q 39.65625 6.390625 43.53125 10.953125 
Q 47.40625 15.53125 47.40625 23.390625 
Q 47.40625 31.296875 43.53125 35.828125 
Q 39.65625 40.375 33.015625 40.375 
z
M 52.59375 71.296875 
L 52.59375 62.3125 
Q 48.875 64.0625 45.09375 64.984375 
Q 41.3125 65.921875 37.59375 65.921875 
Q 27.828125 65.921875 22.671875 59.328125 
Q 17.53125 52.734375 16.796875 39.40625 
Q 19.671875 43.65625 24.015625 45.921875 
Q 28.375 48.1875 33.59375 48.1875 
Q 44.578125 48.1875 50.953125 41.515625 
Q 57.328125 34.859375 57.328125 23.390625 
Q 57.328125 12.15625 50.6875 5.359375 
Q 44.046875 -1.421875 33.015625 -1.421875 
Q 20.359375 -1.421875 13.671875 8.265625 
Q 6.984375 17.96875 6.984375 36.375 
Q 6.984375 53.65625 15.1875 63.9375 
Q 23.390625 74.21875 37.203125 74.21875 
Q 40.921875 74.21875 44.703125 73.484375 
Q 48.484375 72.75 52.59375 71.296875 
z
" id="DejaVuSans-54"/>
     </defs>
     <use transform="translate(0 0.765625)" xlink:href="#DejaVuSans-Oblique-80"/>
     <use transform="translate(79.785156 0.765625)" xlink:href="#DejaVuSans-60"/>
     <use transform="translate(183.056641 0.765625)" xlink:href="#DejaVuSans-49"/>
     <use transform="translate(246.679688 0.765625)" xlink:href="#DejaVuSans-48"/>
     <use transform="translate(311.259766 39.046875)scale(0.7)" xlink:href="#DejaVuSans-8722"/>
     <use transform="translate(369.912109 39.046875)scale(0.7)" xlink:href="#DejaVuSans-54"/>
    </g>
   </g>
  </g>
 </g>
 <defs>
  <clipPath id="p420219b2d2">
   <rect height="178.4" width="168.025" x="37.175" y="10.8"/>
  </clipPath>
 </defs>
</svg>
