<?xml version="1.0" encoding="utf-8" standalone="no"?>
<!DOCTYPE svg PUBLIC "-//W3C//DTD SVG 1.1//EN"
  "http://www.w3.org/Graphics/SVG/1.1/DTD/svg11.dtd">
<!-- Created with matplotlib (https://matplotlib.org/) -->
<svg height="216pt" version="1.1" viewBox="0 0 216 216" width="216pt" xmlns="http://www.w3.org/2000/svg" xmlns:xlink="http://www.w3.org/1999/xlink">
 <metadata>
  <rdf:RDF xmlns:cc="http://creativecommons.org/ns#" xmlns:dc="http://purl.org/dc/elements/1.1/" xmlns:rdf="http://www.w3.org/1999/02/22-rdf-syntax-ns#">
   <cc:Work>
    <dc:type rdf:resource="http://purl.org/dc/dcmitype/StillImage"/>
    <dc:date>2023-05-02T13:25:38.286697</dc:date>
    <dc:format>image/svg+xml</dc:format>
    <dc:creator>
     <cc:Agent>
      <dc:title>Matplotlib v3.3.4, https://matplotlib.org/</dc:title>
     </cc:Agent>
    </dc:creator>
   </cc:Work>
  </rdf:RDF>
 </metadata>
 <defs>
  <style type="text/css">*{stroke-linecap:butt;stroke-linejoin:round;}</style>
 </defs>
 <g id="figure_1">
  <g id="patch_1">
   <path d="M 0 216 
L 216 216 
L 216 0 
L 0 0 
z
" style="fill:none;"/>
  </g>
  <g id="axes_1">
   <g id="patch_2">
    <path d="M 31.675 189.2 
L 196.8875 189.2 
L 196.8875 10.8 
L 31.675 10.8 
z
" style="fill:#ffffff;"/>
   </g>
   <g id="PathCollection_1">
    <defs>
     <path d="M 0 3 
C 0.795609 3 1.55874 2.683901 2.12132 2.12132 
C 2.683901 1.55874 3 0.795609 3 0 
C 3 -0.795609 2.683901 -1.55874 2.12132 -2.12132 
C 1.55874 -2.683901 0.795609 -3 0 -3 
C -0.795609 -3 -1.55874 -2.683901 -2.12132 -2.12132 
C -2.683901 -1.55874 -3 -0.795609 -3 0 
C -3 0.795609 -2.683901 1.55874 -2.12132 2.12132 
C -1.55874 2.683901 -0.795609 3 0 3 
z
" id="m4de571188a" style="stroke:#000000;stroke-opacity:0.8;"/>
    </defs>
    <g clip-path="url(#pc48c51df92)">
     <use style="fill-opacity:0.8;stroke:#000000;stroke-opacity:0.8;" x="31.675" xlink:href="#m4de571188a" y="35.687132"/>
     <use style="fill-opacity:0.8;stroke:#000000;stroke-opacity:0.8;" x="33.248452" xlink:href="#m4de571188a" y="54.282894"/>
     <use style="fill-opacity:0.8;stroke:#000000;stroke-opacity:0.8;" x="34.821905" xlink:href="#m4de571188a" y="44.595234"/>
     <use style="fill-opacity:0.8;stroke:#000000;stroke-opacity:0.8;" x="36.395357" xlink:href="#m4de571188a" y="54.560933"/>
     <use style="fill-opacity:0.8;stroke:#000000;stroke-opacity:0.8;" x="37.96881" xlink:href="#m4de571188a" y="29.725725"/>
     <use style="fill-opacity:0.8;stroke:#000000;stroke-opacity:0.8;" x="39.542262" xlink:href="#m4de571188a" y="19.036899"/>
     <use style="fill-opacity:0.8;stroke:#000000;stroke-opacity:0.8;" x="41.115714" xlink:href="#m4de571188a" y="45.055057"/>
     <use style="fill-opacity:0.8;stroke:#000000;stroke-opacity:0.8;" x="42.689167" xlink:href="#m4de571188a" y="48.652145"/>
     <use style="fill-opacity:0.8;stroke:#000000;stroke-opacity:0.8;" x="44.262619" xlink:href="#m4de571188a" y="50.205354"/>
     <use style="fill-opacity:0.8;stroke:#000000;stroke-opacity:0.8;" x="45.836071" xlink:href="#m4de571188a" y="63.263122"/>
     <use style="fill-opacity:0.8;stroke:#000000;stroke-opacity:0.8;" x="47.409524" xlink:href="#m4de571188a" y="85.936624"/>
     <use style="fill-opacity:0.8;stroke:#000000;stroke-opacity:0.8;" x="48.982976" xlink:href="#m4de571188a" y="48.651472"/>
     <use style="fill-opacity:0.8;stroke:#000000;stroke-opacity:0.8;" x="50.556429" xlink:href="#m4de571188a" y="38.186071"/>
     <use style="fill-opacity:0.8;stroke:#000000;stroke-opacity:0.8;" x="52.129881" xlink:href="#m4de571188a" y="107.628364"/>
     <use style="fill-opacity:0.8;stroke:#000000;stroke-opacity:0.8;" x="53.703333" xlink:href="#m4de571188a" y="96.213048"/>
     <use style="fill-opacity:0.8;stroke:#000000;stroke-opacity:0.8;" x="55.276786" xlink:href="#m4de571188a" y="69.727541"/>
     <use style="fill-opacity:0.8;stroke:#000000;stroke-opacity:0.8;" x="56.850238" xlink:href="#m4de571188a" y="27.761511"/>
     <use style="fill-opacity:0.8;stroke:#000000;stroke-opacity:0.8;" x="58.42369" xlink:href="#m4de571188a" y="18.909091"/>
     <use style="fill-opacity:0.8;stroke:#000000;stroke-opacity:0.8;" x="63.144048" xlink:href="#m4de571188a" y="21.411447"/>
     <use style="fill-opacity:0.8;stroke:#000000;stroke-opacity:0.8;" x="64.7175" xlink:href="#m4de571188a" y="21.562126"/>
     <use style="fill-opacity:0.8;stroke:#000000;stroke-opacity:0.8;" x="66.290952" xlink:href="#m4de571188a" y="57.732121"/>
     <use style="fill-opacity:0.8;stroke:#000000;stroke-opacity:0.8;" x="67.864405" xlink:href="#m4de571188a" y="71.224806"/>
     <use style="fill-opacity:0.8;stroke:#000000;stroke-opacity:0.8;" x="69.437857" xlink:href="#m4de571188a" y="86.806659"/>
     <use style="fill-opacity:0.8;stroke:#000000;stroke-opacity:0.8;" x="71.01131" xlink:href="#m4de571188a" y="86.928532"/>
     <use style="fill-opacity:0.8;stroke:#000000;stroke-opacity:0.8;" x="72.584762" xlink:href="#m4de571188a" y="76.74759"/>
     <use style="fill-opacity:0.8;stroke:#000000;stroke-opacity:0.8;" x="74.158214" xlink:href="#m4de571188a" y="65.572032"/>
     <use style="fill-opacity:0.8;stroke:#000000;stroke-opacity:0.8;" x="75.731667" xlink:href="#m4de571188a" y="52.610963"/>
     <use style="fill-opacity:0.8;stroke:#000000;stroke-opacity:0.8;" x="77.305119" xlink:href="#m4de571188a" y="61.441066"/>
     <use style="fill-opacity:0.8;stroke:#000000;stroke-opacity:0.8;" x="78.878571" xlink:href="#m4de571188a" y="58.718072"/>
     <use style="fill-opacity:0.8;stroke:#000000;stroke-opacity:0.8;" x="80.452024" xlink:href="#m4de571188a" y="77.991593"/>
     <use style="fill-opacity:0.8;stroke:#000000;stroke-opacity:0.8;" x="82.025476" xlink:href="#m4de571188a" y="89.031556"/>
     <use style="fill-opacity:0.8;stroke:#000000;stroke-opacity:0.8;" x="83.598929" xlink:href="#m4de571188a" y="87.818048"/>
     <use style="fill-opacity:0.8;stroke:#000000;stroke-opacity:0.8;" x="85.172381" xlink:href="#m4de571188a" y="31.738373"/>
     <use style="fill-opacity:0.8;stroke:#000000;stroke-opacity:0.8;" x="86.745833" xlink:href="#m4de571188a" y="37.387508"/>
     <use style="fill-opacity:0.8;stroke:#000000;stroke-opacity:0.8;" x="88.319286" xlink:href="#m4de571188a" y="70.429366"/>
     <use style="fill-opacity:0.8;stroke:#000000;stroke-opacity:0.8;" x="89.892738" xlink:href="#m4de571188a" y="103.963624"/>
     <use style="fill-opacity:0.8;stroke:#000000;stroke-opacity:0.8;" x="91.46619" xlink:href="#m4de571188a" y="97.282249"/>
     <use style="fill-opacity:0.8;stroke:#000000;stroke-opacity:0.8;" x="93.039643" xlink:href="#m4de571188a" y="101.260362"/>
     <use style="fill-opacity:0.8;stroke:#000000;stroke-opacity:0.8;" x="94.613095" xlink:href="#m4de571188a" y="109.015422"/>
     <use style="fill-opacity:0.8;stroke:#000000;stroke-opacity:0.8;" x="96.186548" xlink:href="#m4de571188a" y="111.511948"/>
     <use style="fill-opacity:0.8;stroke:#000000;stroke-opacity:0.8;" x="97.76" xlink:href="#m4de571188a" y="117.959326"/>
     <use style="fill-opacity:0.8;stroke:#000000;stroke-opacity:0.8;" x="99.333452" xlink:href="#m4de571188a" y="125.068169"/>
     <use style="fill-opacity:0.8;stroke:#000000;stroke-opacity:0.8;" x="100.906905" xlink:href="#m4de571188a" y="118.05081"/>
     <use style="fill-opacity:0.8;stroke:#000000;stroke-opacity:0.8;" x="102.480357" xlink:href="#m4de571188a" y="67.888892"/>
     <use style="fill-opacity:0.8;stroke:#000000;stroke-opacity:0.8;" x="104.05381" xlink:href="#m4de571188a" y="57.83014"/>
     <use style="fill-opacity:0.8;stroke:#000000;stroke-opacity:0.8;" x="105.627262" xlink:href="#m4de571188a" y="132.447876"/>
     <use style="fill-opacity:0.8;stroke:#000000;stroke-opacity:0.8;" x="107.200714" xlink:href="#m4de571188a" y="100.795094"/>
     <use style="fill-opacity:0.8;stroke:#000000;stroke-opacity:0.8;" x="108.774167" xlink:href="#m4de571188a" y="114.484671"/>
     <use style="fill-opacity:0.8;stroke:#000000;stroke-opacity:0.8;" x="110.347619" xlink:href="#m4de571188a" y="124.898655"/>
     <use style="fill-opacity:0.8;stroke:#000000;stroke-opacity:0.8;" x="111.921071" xlink:href="#m4de571188a" y="112.352386"/>
     <use style="fill-opacity:0.8;stroke:#000000;stroke-opacity:0.8;" x="113.494524" xlink:href="#m4de571188a" y="97.697684"/>
     <use style="fill-opacity:0.8;stroke:#000000;stroke-opacity:0.8;" x="115.067976" xlink:href="#m4de571188a" y="94.655802"/>
     <use style="fill-opacity:0.8;stroke:#000000;stroke-opacity:0.8;" x="116.641429" xlink:href="#m4de571188a" y="75.71436"/>
     <use style="fill-opacity:0.8;stroke:#000000;stroke-opacity:0.8;" x="118.214881" xlink:href="#m4de571188a" y="99.532705"/>
     <use style="fill-opacity:0.8;stroke:#000000;stroke-opacity:0.8;" x="119.788333" xlink:href="#m4de571188a" y="105.511676"/>
     <use style="fill-opacity:0.8;stroke:#000000;stroke-opacity:0.8;" x="121.361786" xlink:href="#m4de571188a" y="87.545133"/>
     <use style="fill-opacity:0.8;stroke:#000000;stroke-opacity:0.8;" x="122.935238" xlink:href="#m4de571188a" y="85.481171"/>
     <use style="fill-opacity:0.8;stroke:#000000;stroke-opacity:0.8;" x="124.50869" xlink:href="#m4de571188a" y="75.65068"/>
     <use style="fill-opacity:0.8;stroke:#000000;stroke-opacity:0.8;" x="126.082143" xlink:href="#m4de571188a" y="65.967077"/>
     <use style="fill-opacity:0.8;stroke:#000000;stroke-opacity:0.8;" x="127.655595" xlink:href="#m4de571188a" y="64.979343"/>
     <use style="fill-opacity:0.8;stroke:#000000;stroke-opacity:0.8;" x="129.229048" xlink:href="#m4de571188a" y="69.957148"/>
     <use style="fill-opacity:0.8;stroke:#000000;stroke-opacity:0.8;" x="130.8025" xlink:href="#m4de571188a" y="59.583583"/>
     <use style="fill-opacity:0.8;stroke:#000000;stroke-opacity:0.8;" x="132.375952" xlink:href="#m4de571188a" y="45.822868"/>
     <use style="fill-opacity:0.8;stroke:#000000;stroke-opacity:0.8;" x="133.949405" xlink:href="#m4de571188a" y="145.014216"/>
     <use style="fill-opacity:0.8;stroke:#000000;stroke-opacity:0.8;" x="135.522857" xlink:href="#m4de571188a" y="146.792922"/>
     <use style="fill-opacity:0.8;stroke:#000000;stroke-opacity:0.8;" x="137.09631" xlink:href="#m4de571188a" y="150.513922"/>
     <use style="fill-opacity:0.8;stroke:#000000;stroke-opacity:0.8;" x="138.669762" xlink:href="#m4de571188a" y="163.079409"/>
     <use style="fill-opacity:0.8;stroke:#000000;stroke-opacity:0.8;" x="140.243214" xlink:href="#m4de571188a" y="155.04147"/>
     <use style="fill-opacity:0.8;stroke:#000000;stroke-opacity:0.8;" x="141.816667" xlink:href="#m4de571188a" y="154.453359"/>
     <use style="fill-opacity:0.8;stroke:#000000;stroke-opacity:0.8;" x="143.390119" xlink:href="#m4de571188a" y="138.995258"/>
     <use style="fill-opacity:0.8;stroke:#000000;stroke-opacity:0.8;" x="144.963571" xlink:href="#m4de571188a" y="150.762609"/>
     <use style="fill-opacity:0.8;stroke:#000000;stroke-opacity:0.8;" x="146.537024" xlink:href="#m4de571188a" y="146.717582"/>
     <use style="fill-opacity:0.8;stroke:#000000;stroke-opacity:0.8;" x="148.110476" xlink:href="#m4de571188a" y="117.17364"/>
     <use style="fill-opacity:0.8;stroke:#000000;stroke-opacity:0.8;" x="149.683929" xlink:href="#m4de571188a" y="89.647727"/>
     <use style="fill-opacity:0.8;stroke:#000000;stroke-opacity:0.8;" x="151.257381" xlink:href="#m4de571188a" y="103.572126"/>
     <use style="fill-opacity:0.8;stroke:#000000;stroke-opacity:0.8;" x="152.830833" xlink:href="#m4de571188a" y="141.255451"/>
     <use style="fill-opacity:0.8;stroke:#000000;stroke-opacity:0.8;" x="154.404286" xlink:href="#m4de571188a" y="97.396958"/>
     <use style="fill-opacity:0.8;stroke:#000000;stroke-opacity:0.8;" x="155.977738" xlink:href="#m4de571188a" y="102.482391"/>
     <use style="fill-opacity:0.8;stroke:#000000;stroke-opacity:0.8;" x="157.55119" xlink:href="#m4de571188a" y="102.482391"/>
     <use style="fill-opacity:0.8;stroke:#000000;stroke-opacity:0.8;" x="160.698095" xlink:href="#m4de571188a" y="176.853479"/>
     <use style="fill-opacity:0.8;stroke:#000000;stroke-opacity:0.8;" x="162.271548" xlink:href="#m4de571188a" y="176.853479"/>
     <use style="fill-opacity:0.8;stroke:#000000;stroke-opacity:0.8;" x="163.845" xlink:href="#m4de571188a" y="176.853479"/>
     <use style="fill-opacity:0.8;stroke:#000000;stroke-opacity:0.8;" x="165.418452" xlink:href="#m4de571188a" y="176.853479"/>
     <use style="fill-opacity:0.8;stroke:#000000;stroke-opacity:0.8;" x="166.991905" xlink:href="#m4de571188a" y="176.853479"/>
     <use style="fill-opacity:0.8;stroke:#000000;stroke-opacity:0.8;" x="168.565357" xlink:href="#m4de571188a" y="176.853479"/>
     <use style="fill-opacity:0.8;stroke:#000000;stroke-opacity:0.8;" x="170.13881" xlink:href="#m4de571188a" y="176.853479"/>
     <use style="fill-opacity:0.8;stroke:#000000;stroke-opacity:0.8;" x="173.285714" xlink:href="#m4de571188a" y="176.853479"/>
     <use style="fill-opacity:0.8;stroke:#000000;stroke-opacity:0.8;" x="174.859167" xlink:href="#m4de571188a" y="176.853479"/>
     <use style="fill-opacity:0.8;stroke:#000000;stroke-opacity:0.8;" x="176.432619" xlink:href="#m4de571188a" y="176.853479"/>
     <use style="fill-opacity:0.8;stroke:#000000;stroke-opacity:0.8;" x="179.579524" xlink:href="#m4de571188a" y="176.853479"/>
     <use style="fill-opacity:0.8;stroke:#000000;stroke-opacity:0.8;" x="181.152976" xlink:href="#m4de571188a" y="176.853479"/>
     <use style="fill-opacity:0.8;stroke:#000000;stroke-opacity:0.8;" x="182.726429" xlink:href="#m4de571188a" y="176.853479"/>
     <use style="fill-opacity:0.8;stroke:#000000;stroke-opacity:0.8;" x="185.873333" xlink:href="#m4de571188a" y="176.853479"/>
     <use style="fill-opacity:0.8;stroke:#000000;stroke-opacity:0.8;" x="187.446786" xlink:href="#m4de571188a" y="176.853479"/>
     <use style="fill-opacity:0.8;stroke:#000000;stroke-opacity:0.8;" x="189.020238" xlink:href="#m4de571188a" y="176.853479"/>
    </g>
   </g>
   <g id="PolyCollection_1">
    <path clip-path="url(#pc48c51df92)" d="M 31.675 23.290484 
L 31.675 40.820278 
L 33.264346 42.051208 
L 34.853692 43.314305 
L 36.443038 44.517345 
L 38.032383 45.751525 
L 39.621729 46.985705 
L 41.211075 48.291899 
L 42.800421 49.652631 
L 44.389767 51.019638 
L 45.979113 52.386644 
L 47.568458 53.710181 
L 49.157804 54.980988 
L 50.74715 56.348197 
L 52.336496 57.621218 
L 53.925842 58.904814 
L 55.515188 60.12235 
L 57.104533 61.444597 
L 58.693879 62.77803 
L 60.283225 64.111463 
L 61.872571 65.444896 
L 63.461917 66.778329 
L 65.051263 68.112146 
L 66.640608 69.446868 
L 68.229954 70.773713 
L 69.8193 72.068904 
L 71.408646 73.374205 
L 72.997992 74.720539 
L 74.587338 76.025707 
L 76.176684 77.362402 
L 77.766029 78.731419 
L 79.355375 80.127351 
L 80.944721 81.538252 
L 82.534067 82.976446 
L 84.123413 84.44664 
L 85.712759 85.871138 
L 87.302104 87.201815 
L 88.89145 88.531957 
L 90.480796 89.90183 
L 92.070142 91.338131 
L 93.659488 92.774169 
L 95.248834 94.072179 
L 96.838179 95.364616 
L 98.427525 96.657053 
L 100.016871 97.880959 
L 101.606217 99.224505 
L 103.195563 100.557501 
L 104.784909 101.990395 
L 106.374254 103.441043 
L 107.9636 104.867302 
L 109.552946 106.223629 
L 111.142292 107.640519 
L 112.731638 109.081219 
L 114.320984 110.512316 
L 115.910329 111.884111 
L 117.499675 113.320621 
L 119.089021 114.756089 
L 120.678367 116.260389 
L 122.267713 117.667928 
L 123.857059 119.135195 
L 125.446405 120.601544 
L 127.03575 122.079325 
L 128.625096 123.540732 
L 130.214442 125.013684 
L 131.803788 126.535152 
L 133.393134 127.942331 
L 134.98248 129.421494 
L 136.571825 130.980777 
L 138.161171 132.383961 
L 139.750517 133.964033 
L 141.339863 135.460987 
L 142.929209 136.98565 
L 144.518555 138.492511 
L 146.1079 139.953565 
L 147.697246 141.486154 
L 149.286592 143.006504 
L 150.875938 144.519566 
L 152.465284 145.980071 
L 154.05463 147.556939 
L 155.643975 149.023584 
L 157.233321 150.519936 
L 158.822667 152.011294 
L 160.412013 153.472649 
L 162.001359 155.023496 
L 163.590705 156.528399 
L 165.180051 158.010445 
L 166.769396 159.523044 
L 168.358742 161.086647 
L 169.948088 162.660151 
L 171.537434 164.188763 
L 173.12678 165.715682 
L 174.716126 167.223535 
L 176.305471 168.771856 
L 177.894817 170.299347 
L 179.484163 171.837547 
L 181.073509 173.414458 
L 182.662855 174.953265 
L 184.252201 176.467664 
L 185.841546 177.982063 
L 187.430892 179.540856 
L 189.020238 181.090909 
L 189.020238 160.102083 
L 189.020238 160.102083 
L 187.430892 158.856739 
L 185.841546 157.612299 
L 184.252201 156.360213 
L 182.662855 155.105689 
L 181.073509 153.851165 
L 179.484163 152.596641 
L 177.894817 151.343327 
L 176.305471 150.090162 
L 174.716126 148.836997 
L 173.12678 147.596847 
L 171.537434 146.396784 
L 169.948088 145.172766 
L 168.358742 143.928288 
L 166.769396 142.68381 
L 165.180051 141.378515 
L 163.590705 140.055602 
L 162.001359 138.798788 
L 160.412013 137.464618 
L 158.822667 136.107784 
L 157.233321 134.855263 
L 155.643975 133.709032 
L 154.05463 132.438458 
L 152.465284 131.130754 
L 150.875938 129.867911 
L 149.286592 128.649178 
L 147.697246 127.345566 
L 146.1079 126.060591 
L 144.518555 124.670172 
L 142.929209 123.343616 
L 141.339863 122.095036 
L 139.750517 120.84822 
L 138.161171 119.601404 
L 136.571825 118.217503 
L 134.98248 116.824763 
L 133.393134 115.442252 
L 131.803788 114.193658 
L 130.214442 112.846999 
L 128.625096 111.579747 
L 127.03575 110.26864 
L 125.446405 108.924854 
L 123.857059 107.580508 
L 122.267713 106.252772 
L 120.678367 104.892375 
L 119.089021 103.516647 
L 117.499675 102.109474 
L 115.910329 100.704315 
L 114.320984 99.439028 
L 112.731638 98.06705 
L 111.142292 96.653492 
L 109.552946 95.263642 
L 107.9636 93.928215 
L 106.374254 92.588303 
L 104.784909 91.178071 
L 103.195563 89.71877 
L 101.606217 88.285685 
L 100.016871 86.875452 
L 98.427525 85.449969 
L 96.838179 83.987257 
L 95.248834 82.496247 
L 93.659488 81.010836 
L 92.070142 79.644947 
L 90.480796 78.197223 
L 88.89145 76.790001 
L 87.302104 75.345608 
L 85.712759 73.849115 
L 84.123413 72.353239 
L 82.534067 70.897994 
L 80.944721 69.466932 
L 79.355375 68.012006 
L 77.766029 66.588441 
L 76.176684 65.046336 
L 74.587338 63.536763 
L 72.997992 62.125113 
L 71.408646 60.672753 
L 69.8193 59.24561 
L 68.229954 57.795551 
L 66.640608 56.311 
L 65.051263 54.827359 
L 63.461917 53.285819 
L 61.872571 51.743369 
L 60.283225 50.251328 
L 58.693879 48.692174 
L 57.104533 47.119985 
L 55.515188 45.597665 
L 53.925842 44.107145 
L 52.336496 42.615968 
L 50.74715 41.127859 
L 49.157804 39.63975 
L 47.568458 38.177519 
L 45.979113 36.660812 
L 44.389767 35.170572 
L 42.800421 33.681844 
L 41.211075 32.228921 
L 39.621729 30.781509 
L 38.032383 29.325855 
L 36.443038 27.873093 
L 34.853692 26.297544 
L 33.264346 24.79371 
L 31.675 23.290484 
z
" style="fill:#e41a1c;fill-opacity:0.15;"/>
   </g>
   <g id="matplotlib.axis_1">
    <g id="xtick_1">
     <g id="line2d_1">
      <defs>
       <path d="M 0 0 
L 0 3.5 
" id="m7682622b46" style="stroke:#000000;stroke-width:0.8;"/>
      </defs>
      <g>
       <use style="stroke:#000000;stroke-width:0.8;" x="31.675" xlink:href="#m7682622b46" y="189.2"/>
      </g>
     </g>
     <g id="text_1">
      <!-- 0 -->
      <g transform="translate(28.894531 203.357812)scale(0.1 -0.1)">
       <defs>
        <path d="M 4.15625 35.296875 
Q 4.15625 48 6.765625 55.734375 
Q 9.375 63.484375 14.515625 67.671875 
Q 19.671875 71.875 27.484375 71.875 
Q 33.25 71.875 37.59375 69.546875 
Q 41.9375 67.234375 44.765625 62.859375 
Q 47.609375 58.5 49.21875 52.21875 
Q 50.828125 45.953125 50.828125 35.296875 
Q 50.828125 22.703125 48.234375 14.96875 
Q 45.65625 7.234375 40.5 3 
Q 35.359375 -1.21875 27.484375 -1.21875 
Q 17.140625 -1.21875 11.234375 6.203125 
Q 4.15625 15.140625 4.15625 35.296875 
z
M 13.1875 35.296875 
Q 13.1875 17.671875 17.3125 11.828125 
Q 21.4375 6 27.484375 6 
Q 33.546875 6 37.671875 11.859375 
Q 41.796875 17.71875 41.796875 35.296875 
Q 41.796875 52.984375 37.671875 58.78125 
Q 33.546875 64.59375 27.390625 64.59375 
Q 21.34375 64.59375 17.71875 59.46875 
Q 13.1875 52.9375 13.1875 35.296875 
z
" id="ArialMT-48"/>
       </defs>
       <use xlink:href="#ArialMT-48"/>
      </g>
     </g>
    </g>
    <g id="xtick_2">
     <g id="line2d_2">
      <g>
       <use style="stroke:#000000;stroke-width:0.8;" x="71.01131" xlink:href="#m7682622b46" y="189.2"/>
      </g>
     </g>
     <g id="text_2">
      <!-- 25 -->
      <g transform="translate(65.450372 203.357812)scale(0.1 -0.1)">
       <defs>
        <path d="M 50.34375 8.453125 
L 50.34375 0 
L 3.03125 0 
Q 2.9375 3.171875 4.046875 6.109375 
Q 5.859375 10.9375 9.828125 15.625 
Q 13.8125 20.3125 21.34375 26.46875 
Q 33.015625 36.03125 37.109375 41.625 
Q 41.21875 47.21875 41.21875 52.203125 
Q 41.21875 57.421875 37.46875 61 
Q 33.734375 64.59375 27.734375 64.59375 
Q 21.390625 64.59375 17.578125 60.78125 
Q 13.765625 56.984375 13.71875 50.25 
L 4.6875 51.171875 
Q 5.609375 61.28125 11.65625 66.578125 
Q 17.71875 71.875 27.9375 71.875 
Q 38.234375 71.875 44.234375 66.15625 
Q 50.25 60.453125 50.25 52 
Q 50.25 47.703125 48.484375 43.546875 
Q 46.734375 39.40625 42.65625 34.8125 
Q 38.578125 30.21875 29.109375 22.21875 
Q 21.1875 15.578125 18.9375 13.203125 
Q 16.703125 10.84375 15.234375 8.453125 
z
" id="ArialMT-50"/>
        <path d="M 4.15625 18.75 
L 13.375 19.53125 
Q 14.40625 12.796875 18.140625 9.390625 
Q 21.875 6 27.15625 6 
Q 33.5 6 37.890625 10.78125 
Q 42.28125 15.578125 42.28125 23.484375 
Q 42.28125 31 38.0625 35.34375 
Q 33.84375 39.703125 27 39.703125 
Q 22.75 39.703125 19.328125 37.765625 
Q 15.921875 35.84375 13.96875 32.765625 
L 5.71875 33.84375 
L 12.640625 70.609375 
L 48.25 70.609375 
L 48.25 62.203125 
L 19.671875 62.203125 
L 15.828125 42.96875 
Q 22.265625 47.46875 29.34375 47.46875 
Q 38.71875 47.46875 45.15625 40.96875 
Q 51.609375 34.46875 51.609375 24.265625 
Q 51.609375 14.546875 45.953125 7.46875 
Q 39.0625 -1.21875 27.15625 -1.21875 
Q 17.390625 -1.21875 11.203125 4.25 
Q 5.03125 9.71875 4.15625 18.75 
z
" id="ArialMT-53"/>
       </defs>
       <use xlink:href="#ArialMT-50"/>
       <use x="55.615234" xlink:href="#ArialMT-53"/>
      </g>
     </g>
    </g>
    <g id="xtick_3">
     <g id="line2d_3">
      <g>
       <use style="stroke:#000000;stroke-width:0.8;" x="110.347619" xlink:href="#m7682622b46" y="189.2"/>
      </g>
     </g>
     <g id="text_3">
      <!-- 50 -->
      <g transform="translate(104.786682 203.357812)scale(0.1 -0.1)">
       <use xlink:href="#ArialMT-53"/>
       <use x="55.615234" xlink:href="#ArialMT-48"/>
      </g>
     </g>
    </g>
    <g id="xtick_4">
     <g id="line2d_4">
      <g>
       <use style="stroke:#000000;stroke-width:0.8;" x="149.683929" xlink:href="#m7682622b46" y="189.2"/>
      </g>
     </g>
     <g id="text_4">
      <!-- 75 -->
      <g transform="translate(144.122991 203.357812)scale(0.1 -0.1)">
       <defs>
        <path d="M 4.734375 62.203125 
L 4.734375 70.65625 
L 51.078125 70.65625 
L 51.078125 63.8125 
Q 44.234375 56.546875 37.515625 44.484375 
Q 30.8125 32.421875 27.15625 19.671875 
Q 24.515625 10.6875 23.78125 0 
L 14.75 0 
Q 14.890625 8.453125 18.0625 20.40625 
Q 21.234375 32.375 27.171875 43.484375 
Q 33.109375 54.59375 39.796875 62.203125 
z
" id="ArialMT-55"/>
       </defs>
       <use xlink:href="#ArialMT-55"/>
       <use x="55.615234" xlink:href="#ArialMT-53"/>
      </g>
     </g>
    </g>
    <g id="xtick_5">
     <g id="line2d_5">
      <g>
       <use style="stroke:#000000;stroke-width:0.8;" x="189.020238" xlink:href="#m7682622b46" y="189.2"/>
      </g>
     </g>
     <g id="text_5">
      <!-- 100 -->
      <g transform="translate(180.678832 203.357812)scale(0.1 -0.1)">
       <defs>
        <path d="M 37.25 0 
L 28.46875 0 
L 28.46875 56 
Q 25.296875 52.984375 20.140625 49.953125 
Q 14.984375 46.921875 10.890625 45.40625 
L 10.890625 53.90625 
Q 18.265625 57.375 23.78125 62.296875 
Q 29.296875 67.234375 31.59375 71.875 
L 37.25 71.875 
z
" id="ArialMT-49"/>
       </defs>
       <use xlink:href="#ArialMT-49"/>
       <use x="55.615234" xlink:href="#ArialMT-48"/>
       <use x="111.230469" xlink:href="#ArialMT-48"/>
      </g>
     </g>
    </g>
    <g id="text_6">
     <!-- expansion iteration -->
     <g transform="translate(72.311719 216.503125)scale(0.1 -0.1)">
      <defs>
       <path d="M 42.09375 16.703125 
L 51.171875 15.578125 
Q 49.03125 7.625 43.21875 3.21875 
Q 37.40625 -1.171875 28.375 -1.171875 
Q 17 -1.171875 10.328125 5.828125 
Q 3.65625 12.84375 3.65625 25.484375 
Q 3.65625 38.578125 10.390625 45.796875 
Q 17.140625 53.03125 27.875 53.03125 
Q 38.28125 53.03125 44.875 45.953125 
Q 51.46875 38.875 51.46875 26.03125 
Q 51.46875 25.25 51.421875 23.6875 
L 12.75 23.6875 
Q 13.234375 15.140625 17.578125 10.59375 
Q 21.921875 6.0625 28.421875 6.0625 
Q 33.25 6.0625 36.671875 8.59375 
Q 40.09375 11.140625 42.09375 16.703125 
z
M 13.234375 30.90625 
L 42.1875 30.90625 
Q 41.609375 37.453125 38.875 40.71875 
Q 34.671875 45.796875 27.984375 45.796875 
Q 21.921875 45.796875 17.796875 41.75 
Q 13.671875 37.703125 13.234375 30.90625 
z
" id="ArialMT-101"/>
       <path d="M 0.734375 0 
L 19.671875 26.953125 
L 2.15625 51.859375 
L 13.140625 51.859375 
L 21.09375 39.703125 
Q 23.34375 36.234375 24.703125 33.890625 
Q 26.859375 37.109375 28.65625 39.59375 
L 37.40625 51.859375 
L 47.90625 51.859375 
L 29.984375 27.4375 
L 49.265625 0 
L 38.484375 0 
L 27.828125 16.109375 
L 25 20.453125 
L 11.375 0 
z
" id="ArialMT-120"/>
       <path d="M 6.59375 -19.875 
L 6.59375 51.859375 
L 14.59375 51.859375 
L 14.59375 45.125 
Q 17.4375 49.078125 21 51.046875 
Q 24.5625 53.03125 29.640625 53.03125 
Q 36.28125 53.03125 41.359375 49.609375 
Q 46.4375 46.1875 49.015625 39.953125 
Q 51.609375 33.734375 51.609375 26.3125 
Q 51.609375 18.359375 48.75 11.984375 
Q 45.90625 5.609375 40.453125 2.21875 
Q 35.015625 -1.171875 29 -1.171875 
Q 24.609375 -1.171875 21.109375 0.6875 
Q 17.625 2.546875 15.375 5.375 
L 15.375 -19.875 
z
M 14.546875 25.640625 
Q 14.546875 15.625 18.59375 10.84375 
Q 22.65625 6.0625 28.421875 6.0625 
Q 34.28125 6.0625 38.453125 11.015625 
Q 42.625 15.96875 42.625 26.375 
Q 42.625 36.28125 38.546875 41.203125 
Q 34.46875 46.140625 28.8125 46.140625 
Q 23.1875 46.140625 18.859375 40.890625 
Q 14.546875 35.640625 14.546875 25.640625 
z
" id="ArialMT-112"/>
       <path d="M 40.4375 6.390625 
Q 35.546875 2.25 31.03125 0.53125 
Q 26.515625 -1.171875 21.34375 -1.171875 
Q 12.796875 -1.171875 8.203125 3 
Q 3.609375 7.171875 3.609375 13.671875 
Q 3.609375 17.484375 5.34375 20.625 
Q 7.078125 23.78125 9.890625 25.6875 
Q 12.703125 27.59375 16.21875 28.5625 
Q 18.796875 29.25 24.03125 29.890625 
Q 34.671875 31.15625 39.703125 32.90625 
Q 39.75 34.71875 39.75 35.203125 
Q 39.75 40.578125 37.25 42.78125 
Q 33.890625 45.75 27.25 45.75 
Q 21.046875 45.75 18.09375 43.578125 
Q 15.140625 41.40625 13.71875 35.890625 
L 5.125 37.0625 
Q 6.296875 42.578125 8.984375 45.96875 
Q 11.671875 49.359375 16.75 51.1875 
Q 21.828125 53.03125 28.515625 53.03125 
Q 35.15625 53.03125 39.296875 51.46875 
Q 43.453125 49.90625 45.40625 47.53125 
Q 47.359375 45.171875 48.140625 41.546875 
Q 48.578125 39.3125 48.578125 33.453125 
L 48.578125 21.734375 
Q 48.578125 9.46875 49.140625 6.21875 
Q 49.703125 2.984375 51.375 0 
L 42.1875 0 
Q 40.828125 2.734375 40.4375 6.390625 
z
M 39.703125 26.03125 
Q 34.90625 24.078125 25.34375 22.703125 
Q 19.921875 21.921875 17.671875 20.9375 
Q 15.4375 19.96875 14.203125 18.09375 
Q 12.984375 16.21875 12.984375 13.921875 
Q 12.984375 10.40625 15.640625 8.0625 
Q 18.3125 5.71875 23.4375 5.71875 
Q 28.515625 5.71875 32.46875 7.9375 
Q 36.421875 10.15625 38.28125 14.015625 
Q 39.703125 17 39.703125 22.796875 
z
" id="ArialMT-97"/>
       <path d="M 6.59375 0 
L 6.59375 51.859375 
L 14.5 51.859375 
L 14.5 44.484375 
Q 20.21875 53.03125 31 53.03125 
Q 35.6875 53.03125 39.625 51.34375 
Q 43.5625 49.65625 45.515625 46.921875 
Q 47.46875 44.1875 48.25 40.4375 
Q 48.734375 37.984375 48.734375 31.890625 
L 48.734375 0 
L 39.9375 0 
L 39.9375 31.546875 
Q 39.9375 36.921875 38.90625 39.578125 
Q 37.890625 42.234375 35.28125 43.8125 
Q 32.671875 45.40625 29.15625 45.40625 
Q 23.53125 45.40625 19.453125 41.84375 
Q 15.375 38.28125 15.375 28.328125 
L 15.375 0 
z
" id="ArialMT-110"/>
       <path d="M 3.078125 15.484375 
L 11.765625 16.84375 
Q 12.5 11.625 15.84375 8.84375 
Q 19.1875 6.0625 25.203125 6.0625 
Q 31.25 6.0625 34.171875 8.515625 
Q 37.109375 10.984375 37.109375 14.3125 
Q 37.109375 17.28125 34.515625 19 
Q 32.71875 20.171875 25.53125 21.96875 
Q 15.875 24.421875 12.140625 26.203125 
Q 8.40625 27.984375 6.46875 31.125 
Q 4.546875 34.28125 4.546875 38.09375 
Q 4.546875 41.546875 6.125 44.5 
Q 7.71875 47.46875 10.453125 49.421875 
Q 12.5 50.921875 16.03125 51.96875 
Q 19.578125 53.03125 23.640625 53.03125 
Q 29.734375 53.03125 34.34375 51.265625 
Q 38.96875 49.515625 41.15625 46.5 
Q 43.359375 43.5 44.1875 38.484375 
L 35.59375 37.3125 
Q 35.015625 41.3125 32.203125 43.546875 
Q 29.390625 45.796875 24.265625 45.796875 
Q 18.21875 45.796875 15.625 43.796875 
Q 13.03125 41.796875 13.03125 39.109375 
Q 13.03125 37.40625 14.109375 36.03125 
Q 15.1875 34.625 17.484375 33.6875 
Q 18.796875 33.203125 25.25 31.453125 
Q 34.578125 28.953125 38.25 27.359375 
Q 41.9375 25.78125 44.03125 22.75 
Q 46.140625 19.734375 46.140625 15.234375 
Q 46.140625 10.84375 43.578125 6.953125 
Q 41.015625 3.078125 36.171875 0.953125 
Q 31.34375 -1.171875 25.25 -1.171875 
Q 15.140625 -1.171875 9.84375 3.03125 
Q 4.546875 7.234375 3.078125 15.484375 
z
" id="ArialMT-115"/>
       <path d="M 6.640625 61.46875 
L 6.640625 71.578125 
L 15.4375 71.578125 
L 15.4375 61.46875 
z
M 6.640625 0 
L 6.640625 51.859375 
L 15.4375 51.859375 
L 15.4375 0 
z
" id="ArialMT-105"/>
       <path d="M 3.328125 25.921875 
Q 3.328125 40.328125 11.328125 47.265625 
Q 18.015625 53.03125 27.640625 53.03125 
Q 38.328125 53.03125 45.109375 46.015625 
Q 51.90625 39.015625 51.90625 26.65625 
Q 51.90625 16.65625 48.90625 10.90625 
Q 45.90625 5.171875 40.15625 2 
Q 34.421875 -1.171875 27.640625 -1.171875 
Q 16.75 -1.171875 10.03125 5.8125 
Q 3.328125 12.796875 3.328125 25.921875 
z
M 12.359375 25.921875 
Q 12.359375 15.96875 16.703125 11.015625 
Q 21.046875 6.0625 27.640625 6.0625 
Q 34.1875 6.0625 38.53125 11.03125 
Q 42.875 16.015625 42.875 26.21875 
Q 42.875 35.84375 38.5 40.796875 
Q 34.125 45.75 27.640625 45.75 
Q 21.046875 45.75 16.703125 40.8125 
Q 12.359375 35.890625 12.359375 25.921875 
z
" id="ArialMT-111"/>
       <path id="ArialMT-32"/>
       <path d="M 25.78125 7.859375 
L 27.046875 0.09375 
Q 23.34375 -0.6875 20.40625 -0.6875 
Q 15.625 -0.6875 12.984375 0.828125 
Q 10.359375 2.34375 9.28125 4.8125 
Q 8.203125 7.28125 8.203125 15.1875 
L 8.203125 45.015625 
L 1.765625 45.015625 
L 1.765625 51.859375 
L 8.203125 51.859375 
L 8.203125 64.703125 
L 16.9375 69.96875 
L 16.9375 51.859375 
L 25.78125 51.859375 
L 25.78125 45.015625 
L 16.9375 45.015625 
L 16.9375 14.703125 
Q 16.9375 10.9375 17.40625 9.859375 
Q 17.875 8.796875 18.921875 8.15625 
Q 19.96875 7.515625 21.921875 7.515625 
Q 23.390625 7.515625 25.78125 7.859375 
z
" id="ArialMT-116"/>
       <path d="M 6.5 0 
L 6.5 51.859375 
L 14.40625 51.859375 
L 14.40625 44 
Q 17.4375 49.515625 20 51.265625 
Q 22.5625 53.03125 25.640625 53.03125 
Q 30.078125 53.03125 34.671875 50.203125 
L 31.640625 42.046875 
Q 28.421875 43.953125 25.203125 43.953125 
Q 22.3125 43.953125 20.015625 42.21875 
Q 17.71875 40.484375 16.75 37.40625 
Q 15.28125 32.71875 15.28125 27.15625 
L 15.28125 0 
z
" id="ArialMT-114"/>
      </defs>
      <use xlink:href="#ArialMT-101"/>
      <use x="55.615234" xlink:href="#ArialMT-120"/>
      <use x="105.615234" xlink:href="#ArialMT-112"/>
      <use x="161.230469" xlink:href="#ArialMT-97"/>
      <use x="216.845703" xlink:href="#ArialMT-110"/>
      <use x="272.460938" xlink:href="#ArialMT-115"/>
      <use x="322.460938" xlink:href="#ArialMT-105"/>
      <use x="344.677734" xlink:href="#ArialMT-111"/>
      <use x="400.292969" xlink:href="#ArialMT-110"/>
      <use x="455.908203" xlink:href="#ArialMT-32"/>
      <use x="483.691406" xlink:href="#ArialMT-105"/>
      <use x="505.908203" xlink:href="#ArialMT-116"/>
      <use x="533.691406" xlink:href="#ArialMT-101"/>
      <use x="589.306641" xlink:href="#ArialMT-114"/>
      <use x="622.607422" xlink:href="#ArialMT-97"/>
      <use x="678.222656" xlink:href="#ArialMT-116"/>
      <use x="706.005859" xlink:href="#ArialMT-105"/>
      <use x="728.222656" xlink:href="#ArialMT-111"/>
      <use x="783.837891" xlink:href="#ArialMT-110"/>
     </g>
    </g>
   </g>
   <g id="matplotlib.axis_2">
    <g id="ytick_1">
     <g id="line2d_6">
      <defs>
       <path d="M 0 0 
L -3.5 0 
" id="mf4f6962fbd" style="stroke:#000000;stroke-width:0.8;"/>
      </defs>
      <g>
       <use style="stroke:#000000;stroke-width:0.8;" x="31.675" xlink:href="#mf4f6962fbd" y="156.613995"/>
      </g>
     </g>
     <g id="text_7">
      <!-- 0.2 -->
      <g transform="translate(10.775 160.192901)scale(0.1 -0.1)">
       <defs>
        <path d="M 9.078125 0 
L 9.078125 10.015625 
L 19.09375 10.015625 
L 19.09375 0 
z
" id="ArialMT-46"/>
       </defs>
       <use xlink:href="#ArialMT-48"/>
       <use x="55.615234" xlink:href="#ArialMT-46"/>
       <use x="83.398438" xlink:href="#ArialMT-50"/>
      </g>
     </g>
    </g>
    <g id="ytick_2">
     <g id="line2d_7">
      <g>
       <use style="stroke:#000000;stroke-width:0.8;" x="31.675" xlink:href="#mf4f6962fbd" y="122.086868"/>
      </g>
     </g>
     <g id="text_8">
      <!-- 0.4 -->
      <g transform="translate(10.775 125.665774)scale(0.1 -0.1)">
       <defs>
        <path d="M 32.328125 0 
L 32.328125 17.140625 
L 1.265625 17.140625 
L 1.265625 25.203125 
L 33.9375 71.578125 
L 41.109375 71.578125 
L 41.109375 25.203125 
L 50.78125 25.203125 
L 50.78125 17.140625 
L 41.109375 17.140625 
L 41.109375 0 
z
M 32.328125 25.203125 
L 32.328125 57.46875 
L 9.90625 25.203125 
z
" id="ArialMT-52"/>
       </defs>
       <use xlink:href="#ArialMT-48"/>
       <use x="55.615234" xlink:href="#ArialMT-46"/>
       <use x="83.398438" xlink:href="#ArialMT-52"/>
      </g>
     </g>
    </g>
    <g id="ytick_3">
     <g id="line2d_8">
      <g>
       <use style="stroke:#000000;stroke-width:0.8;" x="31.675" xlink:href="#mf4f6962fbd" y="87.55974"/>
      </g>
     </g>
     <g id="text_9">
      <!-- 0.6 -->
      <g transform="translate(10.775 91.138646)scale(0.1 -0.1)">
       <defs>
        <path d="M 49.75 54.046875 
L 41.015625 53.375 
Q 39.84375 58.546875 37.703125 60.890625 
Q 34.125 64.65625 28.90625 64.65625 
Q 24.703125 64.65625 21.53125 62.3125 
Q 17.390625 59.28125 14.984375 53.46875 
Q 12.59375 47.65625 12.5 36.921875 
Q 15.671875 41.75 20.265625 44.09375 
Q 24.859375 46.4375 29.890625 46.4375 
Q 38.671875 46.4375 44.84375 39.96875 
Q 51.03125 33.5 51.03125 23.25 
Q 51.03125 16.5 48.125 10.71875 
Q 45.21875 4.9375 40.140625 1.859375 
Q 35.0625 -1.21875 28.609375 -1.21875 
Q 17.625 -1.21875 10.6875 6.859375 
Q 3.765625 14.9375 3.765625 33.5 
Q 3.765625 54.25 11.421875 63.671875 
Q 18.109375 71.875 29.4375 71.875 
Q 37.890625 71.875 43.28125 67.140625 
Q 48.6875 62.40625 49.75 54.046875 
z
M 13.875 23.1875 
Q 13.875 18.65625 15.796875 14.5 
Q 17.71875 10.359375 21.1875 8.171875 
Q 24.65625 6 28.46875 6 
Q 34.03125 6 38.03125 10.484375 
Q 42.046875 14.984375 42.046875 22.703125 
Q 42.046875 30.125 38.078125 34.390625 
Q 34.125 38.671875 28.125 38.671875 
Q 22.171875 38.671875 18.015625 34.390625 
Q 13.875 30.125 13.875 23.1875 
z
" id="ArialMT-54"/>
       </defs>
       <use xlink:href="#ArialMT-48"/>
       <use x="55.615234" xlink:href="#ArialMT-46"/>
       <use x="83.398438" xlink:href="#ArialMT-54"/>
      </g>
     </g>
    </g>
    <g id="ytick_4">
     <g id="line2d_9">
      <g>
       <use style="stroke:#000000;stroke-width:0.8;" x="31.675" xlink:href="#mf4f6962fbd" y="53.032613"/>
      </g>
     </g>
     <g id="text_10">
      <!-- 0.8 -->
      <g transform="translate(10.775 56.611519)scale(0.1 -0.1)">
       <defs>
        <path d="M 17.671875 38.8125 
Q 12.203125 40.828125 9.5625 44.53125 
Q 6.9375 48.25 6.9375 53.421875 
Q 6.9375 61.234375 12.546875 66.546875 
Q 18.171875 71.875 27.484375 71.875 
Q 36.859375 71.875 42.578125 66.421875 
Q 48.296875 60.984375 48.296875 53.171875 
Q 48.296875 48.1875 45.671875 44.5 
Q 43.0625 40.828125 37.75 38.8125 
Q 44.34375 36.671875 47.78125 31.875 
Q 51.21875 27.09375 51.21875 20.453125 
Q 51.21875 11.28125 44.71875 5.03125 
Q 38.234375 -1.21875 27.640625 -1.21875 
Q 17.046875 -1.21875 10.546875 5.046875 
Q 4.046875 11.328125 4.046875 20.703125 
Q 4.046875 27.6875 7.59375 32.390625 
Q 11.140625 37.109375 17.671875 38.8125 
z
M 15.921875 53.71875 
Q 15.921875 48.640625 19.1875 45.40625 
Q 22.46875 42.1875 27.6875 42.1875 
Q 32.765625 42.1875 36.015625 45.375 
Q 39.265625 48.578125 39.265625 53.21875 
Q 39.265625 58.0625 35.90625 61.359375 
Q 32.5625 64.65625 27.59375 64.65625 
Q 22.5625 64.65625 19.234375 61.421875 
Q 15.921875 58.203125 15.921875 53.71875 
z
M 13.09375 20.65625 
Q 13.09375 16.890625 14.875 13.375 
Q 16.65625 9.859375 20.171875 7.921875 
Q 23.6875 6 27.734375 6 
Q 34.03125 6 38.125 10.046875 
Q 42.234375 14.109375 42.234375 20.359375 
Q 42.234375 26.703125 38.015625 30.859375 
Q 33.796875 35.015625 27.4375 35.015625 
Q 21.234375 35.015625 17.15625 30.90625 
Q 13.09375 26.8125 13.09375 20.65625 
z
" id="ArialMT-56"/>
       </defs>
       <use xlink:href="#ArialMT-48"/>
       <use x="55.615234" xlink:href="#ArialMT-46"/>
       <use x="83.398438" xlink:href="#ArialMT-56"/>
      </g>
     </g>
    </g>
    <g id="ytick_5">
     <g id="line2d_10">
      <g>
       <use style="stroke:#000000;stroke-width:0.8;" x="31.675" xlink:href="#mf4f6962fbd" y="18.505485"/>
      </g>
     </g>
     <g id="text_11">
      <!-- 1.0 -->
      <g transform="translate(10.775 22.084391)scale(0.1 -0.1)">
       <use xlink:href="#ArialMT-49"/>
       <use x="55.615234" xlink:href="#ArialMT-46"/>
       <use x="83.398438" xlink:href="#ArialMT-48"/>
      </g>
     </g>
    </g>
    <g id="text_12">
     <!-- average proportion of microbial  -->
     <g transform="translate(-6.02375 170.309375)rotate(-90)scale(0.1 -0.1)">
      <defs>
       <path d="M 21 0 
L 1.265625 51.859375 
L 10.546875 51.859375 
L 21.6875 20.796875 
Q 23.484375 15.765625 25 10.359375 
Q 26.171875 14.453125 28.265625 20.21875 
L 39.796875 51.859375 
L 48.828125 51.859375 
L 29.203125 0 
z
" id="ArialMT-118"/>
       <path d="M 4.984375 -4.296875 
L 13.53125 -5.5625 
Q 14.0625 -9.515625 16.5 -11.328125 
Q 19.78125 -13.765625 25.4375 -13.765625 
Q 31.546875 -13.765625 34.859375 -11.328125 
Q 38.1875 -8.890625 39.359375 -4.5 
Q 40.046875 -1.8125 39.984375 6.78125 
Q 34.234375 0 25.640625 0 
Q 14.9375 0 9.078125 7.71875 
Q 3.21875 15.4375 3.21875 26.21875 
Q 3.21875 33.640625 5.90625 39.90625 
Q 8.59375 46.1875 13.6875 49.609375 
Q 18.796875 53.03125 25.6875 53.03125 
Q 34.859375 53.03125 40.828125 45.609375 
L 40.828125 51.859375 
L 48.921875 51.859375 
L 48.921875 7.03125 
Q 48.921875 -5.078125 46.453125 -10.125 
Q 44 -15.1875 38.640625 -18.109375 
Q 33.296875 -21.046875 25.484375 -21.046875 
Q 16.21875 -21.046875 10.5 -16.875 
Q 4.78125 -12.703125 4.984375 -4.296875 
z
M 12.25 26.859375 
Q 12.25 16.65625 16.296875 11.96875 
Q 20.359375 7.28125 26.46875 7.28125 
Q 32.515625 7.28125 36.609375 11.9375 
Q 40.71875 16.609375 40.71875 26.5625 
Q 40.71875 36.078125 36.5 40.90625 
Q 32.28125 45.75 26.3125 45.75 
Q 20.453125 45.75 16.34375 40.984375 
Q 12.25 36.234375 12.25 26.859375 
z
" id="ArialMT-103"/>
       <path d="M 8.6875 0 
L 8.6875 45.015625 
L 0.921875 45.015625 
L 0.921875 51.859375 
L 8.6875 51.859375 
L 8.6875 57.375 
Q 8.6875 62.59375 9.625 65.140625 
Q 10.890625 68.5625 14.078125 70.671875 
Q 17.28125 72.796875 23.046875 72.796875 
Q 26.765625 72.796875 31.25 71.921875 
L 29.9375 64.265625 
Q 27.203125 64.75 24.75 64.75 
Q 20.75 64.75 19.09375 63.03125 
Q 17.4375 61.328125 17.4375 56.640625 
L 17.4375 51.859375 
L 27.546875 51.859375 
L 27.546875 45.015625 
L 17.4375 45.015625 
L 17.4375 0 
z
" id="ArialMT-102"/>
       <path d="M 6.59375 0 
L 6.59375 51.859375 
L 14.453125 51.859375 
L 14.453125 44.578125 
Q 16.890625 48.390625 20.9375 50.703125 
Q 25 53.03125 30.171875 53.03125 
Q 35.9375 53.03125 39.625 50.640625 
Q 43.3125 48.25 44.828125 43.953125 
Q 50.984375 53.03125 60.84375 53.03125 
Q 68.5625 53.03125 72.703125 48.75 
Q 76.859375 44.484375 76.859375 35.59375 
L 76.859375 0 
L 68.109375 0 
L 68.109375 32.671875 
Q 68.109375 37.9375 67.25 40.25 
Q 66.40625 42.578125 64.15625 43.984375 
Q 61.921875 45.40625 58.890625 45.40625 
Q 53.421875 45.40625 49.796875 41.765625 
Q 46.1875 38.140625 46.1875 30.125 
L 46.1875 0 
L 37.40625 0 
L 37.40625 33.6875 
Q 37.40625 39.546875 35.25 42.46875 
Q 33.109375 45.40625 28.21875 45.40625 
Q 24.515625 45.40625 21.359375 43.453125 
Q 18.21875 41.5 16.796875 37.734375 
Q 15.375 33.984375 15.375 26.90625 
L 15.375 0 
z
" id="ArialMT-109"/>
       <path d="M 40.4375 19 
L 49.078125 17.875 
Q 47.65625 8.9375 41.8125 3.875 
Q 35.984375 -1.171875 27.484375 -1.171875 
Q 16.84375 -1.171875 10.375 5.78125 
Q 3.90625 12.75 3.90625 25.734375 
Q 3.90625 34.125 6.6875 40.421875 
Q 9.46875 46.734375 15.15625 49.875 
Q 20.84375 53.03125 27.546875 53.03125 
Q 35.984375 53.03125 41.359375 48.75 
Q 46.734375 44.484375 48.25 36.625 
L 39.703125 35.296875 
Q 38.484375 40.53125 35.375 43.15625 
Q 32.28125 45.796875 27.875 45.796875 
Q 21.234375 45.796875 17.078125 41.03125 
Q 12.9375 36.28125 12.9375 25.984375 
Q 12.9375 15.53125 16.9375 10.796875 
Q 20.953125 6.0625 27.390625 6.0625 
Q 32.5625 6.0625 36.03125 9.234375 
Q 39.5 12.40625 40.4375 19 
z
" id="ArialMT-99"/>
       <path d="M 14.703125 0 
L 6.546875 0 
L 6.546875 71.578125 
L 15.328125 71.578125 
L 15.328125 46.046875 
Q 20.90625 53.03125 29.546875 53.03125 
Q 34.328125 53.03125 38.59375 51.09375 
Q 42.875 49.171875 45.625 45.671875 
Q 48.390625 42.1875 49.953125 37.25 
Q 51.515625 32.328125 51.515625 26.703125 
Q 51.515625 13.375 44.921875 6.09375 
Q 38.328125 -1.171875 29.109375 -1.171875 
Q 19.921875 -1.171875 14.703125 6.5 
z
M 14.59375 26.3125 
Q 14.59375 17 17.140625 12.84375 
Q 21.296875 6.0625 28.375 6.0625 
Q 34.125 6.0625 38.328125 11.0625 
Q 42.53125 16.0625 42.53125 25.984375 
Q 42.53125 36.140625 38.5 40.96875 
Q 34.46875 45.796875 28.765625 45.796875 
Q 23 45.796875 18.796875 40.796875 
Q 14.59375 35.796875 14.59375 26.3125 
z
" id="ArialMT-98"/>
       <path d="M 6.390625 0 
L 6.390625 71.578125 
L 15.1875 71.578125 
L 15.1875 0 
z
" id="ArialMT-108"/>
      </defs>
      <use xlink:href="#ArialMT-97"/>
      <use x="55.615234" xlink:href="#ArialMT-118"/>
      <use x="105.615234" xlink:href="#ArialMT-101"/>
      <use x="161.230469" xlink:href="#ArialMT-114"/>
      <use x="194.53125" xlink:href="#ArialMT-97"/>
      <use x="250.146484" xlink:href="#ArialMT-103"/>
      <use x="305.761719" xlink:href="#ArialMT-101"/>
      <use x="361.376953" xlink:href="#ArialMT-32"/>
      <use x="389.160156" xlink:href="#ArialMT-112"/>
      <use x="444.775391" xlink:href="#ArialMT-114"/>
      <use x="478.076172" xlink:href="#ArialMT-111"/>
      <use x="533.691406" xlink:href="#ArialMT-112"/>
      <use x="589.306641" xlink:href="#ArialMT-111"/>
      <use x="644.921875" xlink:href="#ArialMT-114"/>
      <use x="678.222656" xlink:href="#ArialMT-116"/>
      <use x="706.005859" xlink:href="#ArialMT-105"/>
      <use x="728.222656" xlink:href="#ArialMT-111"/>
      <use x="783.837891" xlink:href="#ArialMT-110"/>
      <use x="839.453125" xlink:href="#ArialMT-32"/>
      <use x="867.236328" xlink:href="#ArialMT-111"/>
      <use x="922.851562" xlink:href="#ArialMT-102"/>
      <use x="950.634766" xlink:href="#ArialMT-32"/>
      <use x="978.417969" xlink:href="#ArialMT-109"/>
      <use x="1061.71875" xlink:href="#ArialMT-105"/>
      <use x="1083.935547" xlink:href="#ArialMT-99"/>
      <use x="1133.935547" xlink:href="#ArialMT-114"/>
      <use x="1167.236328" xlink:href="#ArialMT-111"/>
      <use x="1222.851562" xlink:href="#ArialMT-98"/>
      <use x="1278.466797" xlink:href="#ArialMT-105"/>
      <use x="1300.683594" xlink:href="#ArialMT-97"/>
      <use x="1356.298828" xlink:href="#ArialMT-108"/>
      <use x="1378.515625" xlink:href="#ArialMT-32"/>
     </g>
     <!--  genomes with compound -->
     <g transform="translate(4.670312 156.973437)rotate(-90)scale(0.1 -0.1)">
      <defs>
       <path d="M 16.15625 0 
L 0.296875 51.859375 
L 9.375 51.859375 
L 17.625 21.921875 
L 20.703125 10.796875 
Q 20.90625 11.625 23.390625 21.484375 
L 31.640625 51.859375 
L 40.671875 51.859375 
L 48.4375 21.78125 
L 51.03125 11.859375 
L 54 21.875 
L 62.890625 51.859375 
L 71.4375 51.859375 
L 55.21875 0 
L 46.09375 0 
L 37.84375 31.0625 
L 35.84375 39.890625 
L 25.34375 0 
z
" id="ArialMT-119"/>
       <path d="M 6.59375 0 
L 6.59375 71.578125 
L 15.375 71.578125 
L 15.375 45.90625 
Q 21.53125 53.03125 30.90625 53.03125 
Q 36.671875 53.03125 40.921875 50.75 
Q 45.171875 48.484375 47 44.484375 
Q 48.828125 40.484375 48.828125 32.859375 
L 48.828125 0 
L 40.046875 0 
L 40.046875 32.859375 
Q 40.046875 39.453125 37.1875 42.453125 
Q 34.328125 45.453125 29.109375 45.453125 
Q 25.203125 45.453125 21.75 43.421875 
Q 18.3125 41.40625 16.84375 37.9375 
Q 15.375 34.46875 15.375 28.375 
L 15.375 0 
z
" id="ArialMT-104"/>
       <path d="M 40.578125 0 
L 40.578125 7.625 
Q 34.515625 -1.171875 24.125 -1.171875 
Q 19.53125 -1.171875 15.546875 0.578125 
Q 11.578125 2.34375 9.640625 5 
Q 7.71875 7.671875 6.9375 11.53125 
Q 6.390625 14.109375 6.390625 19.734375 
L 6.390625 51.859375 
L 15.1875 51.859375 
L 15.1875 23.09375 
Q 15.1875 16.21875 15.71875 13.8125 
Q 16.546875 10.359375 19.234375 8.375 
Q 21.921875 6.390625 25.875 6.390625 
Q 29.828125 6.390625 33.296875 8.421875 
Q 36.765625 10.453125 38.203125 13.9375 
Q 39.65625 17.4375 39.65625 24.078125 
L 39.65625 51.859375 
L 48.4375 51.859375 
L 48.4375 0 
z
" id="ArialMT-117"/>
       <path d="M 40.234375 0 
L 40.234375 6.546875 
Q 35.296875 -1.171875 25.734375 -1.171875 
Q 19.53125 -1.171875 14.328125 2.25 
Q 9.125 5.671875 6.265625 11.796875 
Q 3.421875 17.921875 3.421875 25.875 
Q 3.421875 33.640625 6 39.96875 
Q 8.59375 46.296875 13.765625 49.65625 
Q 18.953125 53.03125 25.34375 53.03125 
Q 30.03125 53.03125 33.6875 51.046875 
Q 37.359375 49.078125 39.65625 45.90625 
L 39.65625 71.578125 
L 48.390625 71.578125 
L 48.390625 0 
z
M 12.453125 25.875 
Q 12.453125 15.921875 16.640625 10.984375 
Q 20.84375 6.0625 26.5625 6.0625 
Q 32.328125 6.0625 36.34375 10.765625 
Q 40.375 15.484375 40.375 25.140625 
Q 40.375 35.796875 36.265625 40.765625 
Q 32.171875 45.75 26.171875 45.75 
Q 20.3125 45.75 16.375 40.96875 
Q 12.453125 36.1875 12.453125 25.875 
z
" id="ArialMT-100"/>
      </defs>
      <use xlink:href="#ArialMT-32"/>
      <use x="27.783203" xlink:href="#ArialMT-103"/>
      <use x="83.398438" xlink:href="#ArialMT-101"/>
      <use x="139.013672" xlink:href="#ArialMT-110"/>
      <use x="194.628906" xlink:href="#ArialMT-111"/>
      <use x="250.244141" xlink:href="#ArialMT-109"/>
      <use x="333.544922" xlink:href="#ArialMT-101"/>
      <use x="389.160156" xlink:href="#ArialMT-115"/>
      <use x="439.160156" xlink:href="#ArialMT-32"/>
      <use x="466.943359" xlink:href="#ArialMT-119"/>
      <use x="539.160156" xlink:href="#ArialMT-105"/>
      <use x="561.376953" xlink:href="#ArialMT-116"/>
      <use x="589.160156" xlink:href="#ArialMT-104"/>
      <use x="644.775391" xlink:href="#ArialMT-32"/>
      <use x="672.558594" xlink:href="#ArialMT-99"/>
      <use x="722.558594" xlink:href="#ArialMT-111"/>
      <use x="778.173828" xlink:href="#ArialMT-109"/>
      <use x="861.474609" xlink:href="#ArialMT-112"/>
      <use x="917.089844" xlink:href="#ArialMT-111"/>
      <use x="972.705078" xlink:href="#ArialMT-117"/>
      <use x="1028.320312" xlink:href="#ArialMT-110"/>
      <use x="1083.935547" xlink:href="#ArialMT-100"/>
     </g>
    </g>
   </g>
   <g id="line2d_11">
    <path clip-path="url(#pc48c51df92)" d="M 31.675 32.316767 
L 33.264346 33.723719 
L 34.853692 35.130671 
L 36.443038 36.537623 
L 38.032383 37.944575 
L 39.621729 39.351528 
L 41.211075 40.75848 
L 42.800421 42.165432 
L 44.389767 43.572384 
L 45.979113 44.979337 
L 47.568458 46.386289 
L 49.157804 47.793241 
L 50.74715 49.200193 
L 52.336496 50.607145 
L 53.925842 52.014098 
L 55.515188 53.42105 
L 57.104533 54.828002 
L 58.693879 56.234954 
L 60.283225 57.641907 
L 61.872571 59.048859 
L 63.461917 60.455811 
L 65.051263 61.862763 
L 66.640608 63.269715 
L 68.229954 64.676668 
L 69.8193 66.08362 
L 71.408646 67.490572 
L 72.997992 68.897524 
L 74.587338 70.304477 
L 76.176684 71.711429 
L 77.766029 73.118381 
L 79.355375 74.525333 
L 80.944721 75.932285 
L 82.534067 77.339238 
L 84.123413 78.74619 
L 85.712759 80.153142 
L 87.302104 81.560094 
L 88.89145 82.967047 
L 90.480796 84.373999 
L 92.070142 85.780951 
L 93.659488 87.187903 
L 95.248834 88.594855 
L 96.838179 90.001808 
L 98.427525 91.40876 
L 100.016871 92.815712 
L 101.606217 94.222664 
L 103.195563 95.629616 
L 104.784909 97.036569 
L 106.374254 98.443521 
L 107.9636 99.850473 
L 109.552946 101.257425 
L 111.142292 102.664378 
L 112.731638 104.07133 
L 114.320984 105.478282 
L 115.910329 106.885234 
L 117.499675 108.292186 
L 119.089021 109.699139 
L 120.678367 111.106091 
L 122.267713 112.513043 
L 123.857059 113.919995 
L 125.446405 115.326948 
L 127.03575 116.7339 
L 128.625096 118.140852 
L 130.214442 119.547804 
L 131.803788 120.954756 
L 133.393134 122.361709 
L 134.98248 123.768661 
L 136.571825 125.175613 
L 138.161171 126.582565 
L 139.750517 127.989518 
L 141.339863 129.39647 
L 142.929209 130.803422 
L 144.518555 132.210374 
L 146.1079 133.617326 
L 147.697246 135.024279 
L 149.286592 136.431231 
L 150.875938 137.838183 
L 152.465284 139.245135 
L 154.05463 140.652088 
L 155.643975 142.05904 
L 157.233321 143.465992 
L 158.822667 144.872944 
L 160.412013 146.279896 
L 162.001359 147.686849 
L 163.590705 149.093801 
L 165.180051 150.500753 
L 166.769396 151.907705 
L 168.358742 153.314658 
L 169.948088 154.72161 
L 171.537434 156.128562 
L 173.12678 157.535514 
L 174.716126 158.942466 
L 176.305471 160.349419 
L 177.894817 161.756371 
L 179.484163 163.163323 
L 181.073509 164.570275 
L 182.662855 165.977228 
L 184.252201 167.38418 
L 185.841546 168.791132 
L 187.430892 170.198084 
L 189.020238 171.605036 
" style="fill:none;stroke:#e41a1c;stroke-linecap:square;stroke-width:2.25;"/>
   </g>
   <g id="patch_3">
    <path d="M 31.675 189.2 
L 31.675 10.8 
" style="fill:none;stroke:#000000;stroke-linecap:square;stroke-linejoin:miter;stroke-width:0.8;"/>
   </g>
   <g id="patch_4">
    <path d="M 31.675 189.2 
L 196.8875 189.2 
" style="fill:none;stroke:#000000;stroke-linecap:square;stroke-linejoin:miter;stroke-width:0.8;"/>
   </g>
   <g id="text_13">
    <!-- $r=-0.83$  -->
    <g transform="translate(48.19625 160.5975)scale(0.1 -0.1)">
     <defs>
      <path d="M 44.578125 46.390625 
Q 43.21875 47.125 41.453125 47.515625 
Q 39.703125 47.90625 37.703125 47.90625 
Q 30.515625 47.90625 25.140625 42.453125 
Q 19.78125 37.015625 18.015625 27.875 
L 12.5 0 
L 3.515625 0 
L 14.203125 54.6875 
L 23.1875 54.6875 
L 21.484375 46.1875 
Q 25.046875 50.921875 30 53.453125 
Q 34.96875 56 40.578125 56 
Q 42.046875 56 43.453125 55.828125 
Q 44.875 55.671875 46.296875 55.28125 
z
" id="DejaVuSans-Oblique-114"/>
      <path d="M 10.59375 45.40625 
L 73.1875 45.40625 
L 73.1875 37.203125 
L 10.59375 37.203125 
z
M 10.59375 25.484375 
L 73.1875 25.484375 
L 73.1875 17.1875 
L 10.59375 17.1875 
z
" id="DejaVuSans-61"/>
      <path d="M 10.59375 35.5 
L 73.1875 35.5 
L 73.1875 27.203125 
L 10.59375 27.203125 
z
" id="DejaVuSans-8722"/>
      <path d="M 31.78125 66.40625 
Q 24.171875 66.40625 20.328125 58.90625 
Q 16.5 51.421875 16.5 36.375 
Q 16.5 21.390625 20.328125 13.890625 
Q 24.171875 6.390625 31.78125 6.390625 
Q 39.453125 6.390625 43.28125 13.890625 
Q 47.125 21.390625 47.125 36.375 
Q 47.125 51.421875 43.28125 58.90625 
Q 39.453125 66.40625 31.78125 66.40625 
z
M 31.78125 74.21875 
Q 44.046875 74.21875 50.515625 64.515625 
Q 56.984375 54.828125 56.984375 36.375 
Q 56.984375 17.96875 50.515625 8.265625 
Q 44.046875 -1.421875 31.78125 -1.421875 
Q 19.53125 -1.421875 13.0625 8.265625 
Q 6.59375 17.96875 6.59375 36.375 
Q 6.59375 54.828125 13.0625 64.515625 
Q 19.53125 74.21875 31.78125 74.21875 
z
" id="DejaVuSans-48"/>
      <path d="M 10.6875 12.40625 
L 21 12.40625 
L 21 0 
L 10.6875 0 
z
" id="DejaVuSans-46"/>
      <path d="M 31.78125 34.625 
Q 24.75 34.625 20.71875 30.859375 
Q 16.703125 27.09375 16.703125 20.515625 
Q 16.703125 13.921875 20.71875 10.15625 
Q 24.75 6.390625 31.78125 6.390625 
Q 38.8125 6.390625 42.859375 10.171875 
Q 46.921875 13.96875 46.921875 20.515625 
Q 46.921875 27.09375 42.890625 30.859375 
Q 38.875 34.625 31.78125 34.625 
z
M 21.921875 38.8125 
Q 15.578125 40.375 12.03125 44.71875 
Q 8.5 49.078125 8.5 55.328125 
Q 8.5 64.0625 14.71875 69.140625 
Q 20.953125 74.21875 31.78125 74.21875 
Q 42.671875 74.21875 48.875 69.140625 
Q 55.078125 64.0625 55.078125 55.328125 
Q 55.078125 49.078125 51.53125 44.71875 
Q 48 40.375 41.703125 38.8125 
Q 48.828125 37.15625 52.796875 32.3125 
Q 56.78125 27.484375 56.78125 20.515625 
Q 56.78125 9.90625 50.3125 4.234375 
Q 43.84375 -1.421875 31.78125 -1.421875 
Q 19.734375 -1.421875 13.25 4.234375 
Q 6.78125 9.90625 6.78125 20.515625 
Q 6.78125 27.484375 10.78125 32.3125 
Q 14.796875 37.15625 21.921875 38.8125 
z
M 18.3125 54.390625 
Q 18.3125 48.734375 21.84375 45.5625 
Q 25.390625 42.390625 31.78125 42.390625 
Q 38.140625 42.390625 41.71875 45.5625 
Q 45.3125 48.734375 45.3125 54.390625 
Q 45.3125 60.0625 41.71875 63.234375 
Q 38.140625 66.40625 31.78125 66.40625 
Q 25.390625 66.40625 21.84375 63.234375 
Q 18.3125 60.0625 18.3125 54.390625 
z
" id="DejaVuSans-56"/>
      <path d="M 40.578125 39.3125 
Q 47.65625 37.796875 51.625 33 
Q 55.609375 28.21875 55.609375 21.1875 
Q 55.609375 10.40625 48.1875 4.484375 
Q 40.765625 -1.421875 27.09375 -1.421875 
Q 22.515625 -1.421875 17.65625 -0.515625 
Q 12.796875 0.390625 7.625 2.203125 
L 7.625 11.71875 
Q 11.71875 9.328125 16.59375 8.109375 
Q 21.484375 6.890625 26.8125 6.890625 
Q 36.078125 6.890625 40.9375 10.546875 
Q 45.796875 14.203125 45.796875 21.1875 
Q 45.796875 27.640625 41.28125 31.265625 
Q 36.765625 34.90625 28.71875 34.90625 
L 20.21875 34.90625 
L 20.21875 43.015625 
L 29.109375 43.015625 
Q 36.375 43.015625 40.234375 45.921875 
Q 44.09375 48.828125 44.09375 54.296875 
Q 44.09375 59.90625 40.109375 62.90625 
Q 36.140625 65.921875 28.71875 65.921875 
Q 24.65625 65.921875 20.015625 65.03125 
Q 15.375 64.15625 9.8125 62.3125 
L 9.8125 71.09375 
Q 15.4375 72.65625 20.34375 73.4375 
Q 25.25 74.21875 29.59375 74.21875 
Q 40.828125 74.21875 47.359375 69.109375 
Q 53.90625 64.015625 53.90625 55.328125 
Q 53.90625 49.265625 50.4375 45.09375 
Q 46.96875 40.921875 40.578125 39.3125 
z
" id="DejaVuSans-51"/>
     </defs>
     <use transform="translate(0 0.78125)" xlink:href="#DejaVuSans-Oblique-114"/>
     <use transform="translate(60.595703 0.78125)" xlink:href="#DejaVuSans-61"/>
     <use transform="translate(183.349609 0.78125)" xlink:href="#DejaVuSans-8722"/>
     <use transform="translate(286.621094 0.78125)" xlink:href="#DejaVuSans-48"/>
     <use transform="translate(350.244141 0.78125)" xlink:href="#DejaVuSans-46"/>
     <use transform="translate(379.40625 0.78125)" xlink:href="#DejaVuSans-56"/>
     <use transform="translate(443.029297 0.78125)" xlink:href="#DejaVuSans-51"/>
     <use transform="translate(506.652344 0.78125)" xlink:href="#ArialMT-32"/>
    </g>
    <!-- $P&lt;10^{-24}$ -->
    <g transform="translate(48.19625 171.36)scale(0.1 -0.1)">
     <defs>
      <path d="M 16.890625 72.90625 
L 39.703125 72.90625 
Q 49.65625 72.90625 54.875 68.265625 
Q 60.109375 63.625 60.109375 54.6875 
Q 60.109375 42.671875 52.390625 35.984375 
Q 44.671875 29.296875 30.71875 29.296875 
L 18.3125 29.296875 
L 12.59375 0 
L 2.6875 0 
z
M 25.203125 64.796875 
L 19.921875 37.40625 
L 32.328125 37.40625 
Q 40.71875 37.40625 45.203125 41.703125 
Q 49.703125 46 49.703125 54 
Q 49.703125 59.125 46.65625 61.953125 
Q 43.609375 64.796875 38.09375 64.796875 
z
" id="DejaVuSans-Oblique-80"/>
      <path d="M 73.1875 49.21875 
L 22.796875 31.296875 
L 73.1875 13.484375 
L 73.1875 4.59375 
L 10.59375 27.296875 
L 10.59375 35.40625 
L 73.1875 58.109375 
z
" id="DejaVuSans-60"/>
      <path d="M 12.40625 8.296875 
L 28.515625 8.296875 
L 28.515625 63.921875 
L 10.984375 60.40625 
L 10.984375 69.390625 
L 28.421875 72.90625 
L 38.28125 72.90625 
L 38.28125 8.296875 
L 54.390625 8.296875 
L 54.390625 0 
L 12.40625 0 
z
" id="DejaVuSans-49"/>
      <path d="M 19.1875 8.296875 
L 53.609375 8.296875 
L 53.609375 0 
L 7.328125 0 
L 7.328125 8.296875 
Q 12.9375 14.109375 22.625 23.890625 
Q 32.328125 33.6875 34.8125 36.53125 
Q 39.546875 41.84375 41.421875 45.53125 
Q 43.3125 49.21875 43.3125 52.78125 
Q 43.3125 58.59375 39.234375 62.25 
Q 35.15625 65.921875 28.609375 65.921875 
Q 23.96875 65.921875 18.8125 64.3125 
Q 13.671875 62.703125 7.8125 59.421875 
L 7.8125 69.390625 
Q 13.765625 71.78125 18.9375 73 
Q 24.125 74.21875 28.421875 74.21875 
Q 39.75 74.21875 46.484375 68.546875 
Q 53.21875 62.890625 53.21875 53.421875 
Q 53.21875 48.921875 51.53125 44.890625 
Q 49.859375 40.875 45.40625 35.40625 
Q 44.1875 33.984375 37.640625 27.21875 
Q 31.109375 20.453125 19.1875 8.296875 
z
" id="DejaVuSans-50"/>
      <path d="M 37.796875 64.3125 
L 12.890625 25.390625 
L 37.796875 25.390625 
z
M 35.203125 72.90625 
L 47.609375 72.90625 
L 47.609375 25.390625 
L 58.015625 25.390625 
L 58.015625 17.1875 
L 47.609375 17.1875 
L 47.609375 0 
L 37.796875 0 
L 37.796875 17.1875 
L 4.890625 17.1875 
L 4.890625 26.703125 
z
" id="DejaVuSans-52"/>
     </defs>
     <use transform="translate(0 0.765625)" xlink:href="#DejaVuSans-Oblique-80"/>
     <use transform="translate(79.785156 0.765625)" xlink:href="#DejaVuSans-60"/>
     <use transform="translate(183.056641 0.765625)" xlink:href="#DejaVuSans-49"/>
     <use transform="translate(246.679688 0.765625)" xlink:href="#DejaVuSans-48"/>
     <use transform="translate(311.259766 39.046875)scale(0.7)" xlink:href="#DejaVuSans-8722"/>
     <use transform="translate(369.912109 39.046875)scale(0.7)" xlink:href="#DejaVuSans-50"/>
     <use transform="translate(414.448242 39.046875)scale(0.7)" xlink:href="#DejaVuSans-52"/>
    </g>
   </g>
  </g>
 </g>
 <defs>
  <clipPath id="pc48c51df92">
   <rect height="178.4" width="165.2125" x="31.675" y="10.8"/>
  </clipPath>
 </defs>
</svg>
